<svg width="948" height="548" viewBox="0 0 948 548" fill="none" xmlns="http://www.w3.org/2000/svg">
<g filter="url(#filter0_f_48_603)">
<path d="M6 193.538H14.0317V102.554V11.5704H94.9663H117.826H197.525H448.36V35.709H505.2H538.562H571.307H652.859V6H942V35.709V100.079V220.152V384.171V455.968V499.912H720.202H535.473H487.901H467.513H364.337H277.224H112.883H52.3366H6V278.333V267.811V193.538Z" fill="#F1F1FF" fill-opacity="0.2"/>
</g>
<g filter="url(#filter1_f_48_603)">
<path d="M469.366 157.021H448.36V11.5704H197.525M14.0317 193.538H6V267.811H52.3366V193.538M14.0317 193.538H52.3366M14.0317 193.538V102.554M52.3366 193.538H94.9663V102.554M94.9663 11.5704H14.0317V102.554M94.9663 11.5704V102.554M94.9663 11.5704H117.826M94.9663 102.554H14.0317M117.826 11.5704H197.525M117.826 11.5704V133.501M197.525 133.501C177.754 145.88 172.4 178.684 172.194 193.538H117.826V133.501M197.525 133.501H117.826M197.525 133.501V35.709M197.525 133.501H264.867M197.525 11.5704V35.709M401.406 133.501H264.867M401.406 133.501V220.152H264.867V133.501M401.406 133.501V89.5566M401.406 35.709H264.867M401.406 35.709V89.5566M401.406 35.709H505.2M197.525 35.709H264.867M264.867 35.709V89.5566M264.867 133.501V89.5566M469.366 89.5566H401.406M264.867 89.5566H401.406M487.901 499.912H467.513M487.901 430.591H467.513M364.337 430.591V384.171H311.204M364.337 430.591V499.912M364.337 430.591H391.521M277.224 499.912V384.171H311.204M277.224 499.912H364.337M277.224 499.912H112.883M364.337 499.912H467.513M467.513 499.912V430.591M467.513 430.591H412.527M391.521 430.591V377.363H412.527V430.591M391.521 430.591H412.527M52.3366 278.333H6V499.912H52.3366M52.3366 278.333V499.912M52.3366 278.333H112.883M52.3366 499.912H112.883M112.883 278.333H219.766C221.62 307.423 242.502 369.316 311.204 384.171M112.883 278.333V499.912M538.562 35.709H571.307M942 35.709V6H652.859V35.709M942 35.709V100.079M942 35.709H724.527M652.859 35.709V100.079M652.859 35.709H571.307M652.859 35.709H724.527M652.859 220.152V170.637M652.859 220.152H691.164M652.859 220.152H621.968M942 220.152V100.079M942 220.152H872.186M942 220.152V384.171M942 100.079H872.186M652.859 100.079V170.637M652.859 100.079H773.335M571.307 220.152V267.192M571.307 220.152V215.82M571.307 220.152H621.968M571.307 170.637H652.859M571.307 170.637V215.82M571.307 170.637V157.021M571.307 35.709V157.021M724.527 35.709V220.152M724.527 220.152H773.335M724.527 220.152H691.164M773.335 220.152V100.079M773.335 220.152H872.186M773.335 100.079H872.186M872.186 100.079V220.152M571.307 384.171V358.176M571.307 293.806H628.764M571.307 293.806V267.192M571.307 293.806V358.176M571.307 267.192H621.968M691.164 267.192V220.152M691.164 267.192C730.705 323.144 726.998 368.491 720.202 384.171M691.164 267.192H621.968M571.307 215.82H439.711V262.859M439.711 321.039V358.176H571.307M487.901 157.021H571.307M535.473 499.912H720.202M720.202 499.912H942V455.968M720.202 499.912V455.968M720.202 384.171V455.968M720.202 384.171H831.101M720.202 384.171C705.374 417.346 657.596 428.941 635.56 430.591M942 384.171V455.968M942 384.171H831.101M720.202 455.968H831.101M942 455.968H831.101M831.101 455.968V384.171M635.56 542V430.591M571.307 430.591V415.118H635.56V430.591M571.307 430.591H535.473M571.307 430.591H635.56M487.901 89.5566H505.2V108.125M621.968 220.152V267.192M439.711 415.118H453.921V368.079H439.711V415.118Z" stroke="#615FC5" stroke-width="3" stroke-linecap="round" stroke-linejoin="round"/>
</g>
<path d="M469.366 157.021H448.36V11.5704H197.525M14.0317 193.538H6V267.811H52.3366V193.538M14.0317 193.538H52.3366M14.0317 193.538V102.554M52.3366 193.538H94.9663V102.554M94.9663 11.5704H14.0317V102.554M94.9663 11.5704V102.554M94.9663 11.5704H117.826M94.9663 102.554H14.0317M117.826 11.5704H197.525M117.826 11.5704V133.501M197.525 133.501C177.754 145.88 172.4 178.684 172.194 193.538H117.826V133.501M197.525 133.501H117.826M197.525 133.501V35.709M197.525 133.501H264.867M197.525 11.5704V35.709M401.406 133.501H264.867M401.406 133.501V220.152H264.867V133.501M401.406 133.501V89.5566M401.406 35.709H264.867M401.406 35.709V89.5566M401.406 35.709H505.2M197.525 35.709H264.867M264.867 35.709V89.5566M264.867 133.501V89.5566M469.366 89.5566H401.406M264.867 89.5566H401.406M487.901 499.912H467.513M487.901 430.591H467.513M364.337 430.591V384.171H311.204M364.337 430.591V499.912M364.337 430.591H391.521M277.224 499.912V384.171H311.204M277.224 499.912H364.337M277.224 499.912H112.883M364.337 499.912H467.513M467.513 499.912V430.591M467.513 430.591H412.527M391.521 430.591V377.363H412.527V430.591M391.521 430.591H412.527M52.3366 278.333H6V499.912H52.3366M52.3366 278.333V499.912M52.3366 278.333H112.883M52.3366 499.912H112.883M112.883 278.333H219.766C221.62 307.423 242.502 369.316 311.204 384.171M112.883 278.333V499.912M538.562 35.709H571.307M942 35.709V6H652.859V35.709M942 35.709V100.079M942 35.709H724.527M652.859 35.709V100.079M652.859 35.709H571.307M652.859 35.709H724.527M652.859 220.152V170.637M652.859 220.152H691.164M652.859 220.152H621.968M942 220.152V100.079M942 220.152H872.186M942 220.152V384.171M942 100.079H872.186M652.859 100.079V170.637M652.859 100.079H773.335M571.307 220.152V267.192M571.307 220.152V215.82M571.307 220.152H621.968M571.307 170.637H652.859M571.307 170.637V215.82M571.307 170.637V157.021M571.307 35.709V157.021M724.527 35.709V220.152M724.527 220.152H773.335M724.527 220.152H691.164M773.335 220.152V100.079M773.335 220.152H872.186M773.335 100.079H872.186M872.186 100.079V220.152M571.307 384.171V358.176M571.307 293.806H628.764M571.307 293.806V267.192M571.307 293.806V358.176M571.307 267.192H621.968M691.164 267.192V220.152M691.164 267.192C730.705 323.144 726.998 368.491 720.202 384.171M691.164 267.192H621.968M571.307 215.82H439.711V262.859M439.711 321.039V358.176H571.307M487.901 157.021H571.307M535.473 499.912H720.202M720.202 499.912H942V455.968M720.202 499.912V455.968M720.202 384.171V455.968M720.202 384.171H831.101M720.202 384.171C705.374 417.346 657.596 428.941 635.56 430.591M942 384.171V455.968M942 384.171H831.101M720.202 455.968H831.101M942 455.968H831.101M831.101 455.968V384.171M635.56 542V430.591M571.307 430.591V415.118H635.56V430.591M571.307 430.591H535.473M571.307 430.591H635.56M487.901 89.5566H505.2V108.125M621.968 220.152V267.192M439.711 415.118H453.921V368.079H439.711V415.118Z" stroke="#4548B7" stroke-width="3" stroke-linecap="round" stroke-linejoin="round"/>
<g filter="url(#filter2_f_48_603)">
<path d="M469.366 157.021H448.36V11.5704H197.525M14.0317 193.538H6V267.811H52.3366V193.538M14.0317 193.538H52.3366M14.0317 193.538V102.554M52.3366 193.538H94.9663V102.554M94.9663 11.5704H14.0317V102.554M94.9663 11.5704V102.554M94.9663 11.5704H117.826M94.9663 102.554H14.0317M117.826 11.5704H197.525M117.826 11.5704V133.501M197.525 133.501C177.754 145.88 172.4 178.684 172.194 193.538H117.826V133.501M197.525 133.501H117.826M197.525 133.501V35.709M197.525 133.501H264.867M197.525 11.5704V35.709M401.406 133.501H264.867M401.406 133.501V220.152H264.867V133.501M401.406 133.501V89.5566M401.406 35.709H264.867M401.406 35.709V89.5566M401.406 35.709H505.2M197.525 35.709H264.867M264.867 35.709V89.5566M264.867 133.501V89.5566M469.366 89.5566H401.406M264.867 89.5566H401.406M487.901 499.912H467.513M487.901 430.591H467.513M364.337 430.591V384.171H311.204M364.337 430.591V499.912M364.337 430.591H391.521M277.224 499.912V384.171H311.204M277.224 499.912H364.337M277.224 499.912H112.883M364.337 499.912H467.513M467.513 499.912V430.591M467.513 430.591H412.527M391.521 430.591V377.363H412.527V430.591M391.521 430.591H412.527M52.3366 278.333H6V499.912H52.3366M52.3366 278.333V499.912M52.3366 278.333H112.883M52.3366 499.912H112.883M112.883 278.333H219.766C221.62 307.423 242.502 369.316 311.204 384.171M112.883 278.333V499.912M538.562 35.709H571.307M942 35.709V6H652.859V35.709M942 35.709V100.079M942 35.709H724.527M652.859 35.709V100.079M652.859 35.709H571.307M652.859 35.709H724.527M652.859 220.152V170.637M652.859 220.152H691.164M652.859 220.152H621.968M942 220.152V100.079M942 220.152H872.186M942 220.152V384.171M942 100.079H872.186M652.859 100.079V170.637M652.859 100.079H773.335M571.307 220.152V267.192M571.307 220.152V215.82M571.307 220.152H621.968M571.307 170.637H652.859M571.307 170.637V215.82M571.307 170.637V157.021M571.307 35.709V157.021M724.527 35.709V220.152M724.527 220.152H773.335M724.527 220.152H691.164M773.335 220.152V100.079M773.335 220.152H872.186M773.335 100.079H872.186M872.186 100.079V220.152M571.307 384.171V358.176M571.307 293.806H628.764M571.307 293.806V267.192M571.307 293.806V358.176M571.307 267.192H621.968M691.164 267.192V220.152M691.164 267.192C730.705 323.144 726.998 368.491 720.202 384.171M691.164 267.192H621.968M571.307 215.82H439.711V262.859M439.711 321.039V358.176H571.307M487.901 157.021H571.307M535.473 499.912H720.202M720.202 499.912H942V455.968M720.202 499.912V455.968M720.202 384.171V455.968M720.202 384.171H831.101M720.202 384.171C705.374 417.346 657.596 428.941 635.56 430.591M942 384.171V455.968M942 384.171H831.101M720.202 455.968H831.101M942 455.968H831.101M831.101 455.968V384.171M635.56 542V430.591M571.307 430.591V415.118H635.56V430.591M571.307 430.591H535.473M571.307 430.591H635.56M487.901 89.5566H505.2V108.125M621.968 220.152V267.192M439.711 415.118H453.921V368.079H439.711V415.118Z" stroke="#E7E7FF" stroke-width="2" stroke-linecap="round" stroke-linejoin="round"/>
</g>
<path d="M44.136 149.512C43.2613 150.632 42.12 151.192 40.712 151.192C39.304 151.192 38.1627 150.637 37.288 149.528C36.424 148.408 35.992 147.032 35.992 145.4C35.992 143.789 36.4293 142.424 37.304 141.304C38.1893 140.173 39.336 139.608 40.744 139.608C42.152 139.608 43.288 140.168 44.152 141.288C45.016 142.397 45.448 143.768 45.448 145.4C45.448 147.011 45.0107 148.381 44.136 149.512ZM38.264 148.68C38.904 149.587 39.7307 150.04 40.744 150.04C41.7573 150.04 42.5733 149.592 43.192 148.696C43.8213 147.789 44.136 146.691 44.136 145.4C44.136 144.131 43.816 143.043 43.176 142.136C42.5467 141.219 41.7253 140.76 40.712 140.76C39.6987 140.76 38.8773 141.213 38.248 142.12C37.6187 143.016 37.304 144.109 37.304 145.4C37.304 146.669 37.624 147.763 38.264 148.68ZM49.6215 151V141.032L47.5095 141.688L47.2055 140.664L49.9415 139.72H50.8695V151H49.6215ZM55.6759 151V141.032L53.5639 141.688L53.2599 140.664L55.9959 139.72H56.9239V151H55.6759ZM59.6342 151V150.024L63.6982 146.44C64.5729 145.672 65.1809 145.032 65.5222 144.52C65.8636 144.008 66.0342 143.475 66.0342 142.92C66.0342 142.28 65.8156 141.763 65.3782 141.368C64.9409 140.973 64.4076 140.776 63.7782 140.776C63.1702 140.776 62.6316 140.931 62.1622 141.24C61.7036 141.549 61.2396 142.035 60.7702 142.696L59.8422 142.024C60.3862 141.213 60.9622 140.616 61.5702 140.232C62.1782 139.837 62.9462 139.64 63.8742 139.64C64.8769 139.64 65.7036 139.944 66.3542 140.552C67.0156 141.149 67.3462 141.912 67.3462 142.84C67.3462 143.608 67.1382 144.291 66.7222 144.888C66.3062 145.485 65.5702 146.253 64.5142 147.192L61.5222 149.848H67.4582V151H59.6342Z" fill="#262626"/>
<path d="M150.136 75.512C149.261 76.632 148.12 77.192 146.712 77.192C145.304 77.192 144.163 76.6373 143.288 75.528C142.424 74.408 141.992 73.032 141.992 71.4C141.992 69.7893 142.429 68.424 143.304 67.304C144.189 66.1733 145.336 65.608 146.744 65.608C148.152 65.608 149.288 66.168 150.152 67.288C151.016 68.3973 151.448 69.768 151.448 71.4C151.448 73.0107 151.011 74.3813 150.136 75.512ZM144.264 74.68C144.904 75.5867 145.731 76.04 146.744 76.04C147.757 76.04 148.573 75.592 149.192 74.696C149.821 73.7893 150.136 72.6907 150.136 71.4C150.136 70.1307 149.816 69.0427 149.176 68.136C148.547 67.2187 147.725 66.76 146.712 66.76C145.699 66.76 144.877 67.2133 144.248 68.12C143.619 69.016 143.304 70.1093 143.304 71.4C143.304 72.6693 143.624 73.7627 144.264 74.68ZM155.621 77V67.032L153.509 67.688L153.205 66.664L155.941 65.72H156.869V77H155.621ZM161.676 77V67.032L159.564 67.688L159.26 66.664L161.996 65.72H162.924V77H161.676ZM169.842 77.192C168.082 77.192 166.69 76.5253 165.666 75.192L166.578 74.376C167.485 75.4853 168.578 76.04 169.858 76.04C170.552 76.04 171.133 75.8373 171.602 75.432C172.072 75.0267 172.306 74.4933 172.306 73.832C172.306 73.1493 172.018 72.6213 171.442 72.248C170.866 71.864 170.109 71.672 169.17 71.672H168.45L168.194 70.92L171.73 66.936H166.258V65.8H173.41V66.728L169.89 70.632C170.957 70.7173 171.837 71.0267 172.53 71.56C173.234 72.0827 173.586 72.8347 173.586 73.816C173.586 74.7973 173.224 75.608 172.498 76.248C171.784 76.8773 170.898 77.192 169.842 77.192Z" fill="#262626"/>
<path d="M225.136 87.512C224.261 88.632 223.12 89.192 221.712 89.192C220.304 89.192 219.163 88.6373 218.288 87.528C217.424 86.408 216.992 85.032 216.992 83.4C216.992 81.7893 217.429 80.424 218.304 79.304C219.189 78.1733 220.336 77.608 221.744 77.608C223.152 77.608 224.288 78.168 225.152 79.288C226.016 80.3973 226.448 81.768 226.448 83.4C226.448 85.0107 226.011 86.3813 225.136 87.512ZM219.264 86.68C219.904 87.5867 220.731 88.04 221.744 88.04C222.757 88.04 223.573 87.592 224.192 86.696C224.821 85.7893 225.136 84.6907 225.136 83.4C225.136 82.1307 224.816 81.0427 224.176 80.136C223.547 79.2187 222.725 78.76 221.712 78.76C220.699 78.76 219.877 79.2133 219.248 80.12C218.619 81.016 218.304 82.1093 218.304 83.4C218.304 84.6693 218.624 85.7627 219.264 86.68ZM230.621 89V79.032L228.509 79.688L228.205 78.664L230.941 77.72H231.869V89H230.621ZM236.676 89V79.032L234.564 79.688L234.26 78.664L236.996 77.72H237.924V89H236.676ZM246.778 89V86.344H240.874L240.554 85.432L246.89 77.72H247.994V85.288H249.738V86.344H247.994V89H246.778ZM242.074 85.288H246.778V79.512L242.074 85.288Z" fill="#262626"/>
<path d="M820.14 67.512C819.266 68.632 818.124 69.192 816.716 69.192C815.308 69.192 814.167 68.6373 813.292 67.528C812.428 66.408 811.996 65.032 811.996 63.4C811.996 61.7893 812.434 60.424 813.308 59.304C814.194 58.1733 815.34 57.608 816.748 57.608C818.156 57.608 819.292 58.168 820.156 59.288C821.02 60.3973 821.452 61.768 821.452 63.4C821.452 65.0107 821.015 66.3813 820.14 67.512ZM814.268 66.68C814.908 67.5867 815.735 68.04 816.748 68.04C817.762 68.04 818.578 67.592 819.196 66.696C819.826 65.7893 820.14 64.6907 820.14 63.4C820.14 62.1307 819.82 61.0427 819.18 60.136C818.551 59.2187 817.73 58.76 816.716 58.76C815.703 58.76 814.882 59.2133 814.252 60.12C813.623 61.016 813.308 62.1093 813.308 63.4C813.308 64.6693 813.628 65.7627 814.268 66.68ZM825.626 69V59.032L823.514 59.688L823.21 58.664L825.946 57.72H826.874V69H825.626ZM837.952 67.512C837.078 68.632 835.936 69.192 834.528 69.192C833.12 69.192 831.979 68.6373 831.104 67.528C830.24 66.408 829.808 65.032 829.808 63.4C829.808 61.7893 830.246 60.424 831.12 59.304C832.006 58.1733 833.152 57.608 834.56 57.608C835.968 57.608 837.104 58.168 837.968 59.288C838.832 60.3973 839.264 61.768 839.264 63.4C839.264 65.0107 838.827 66.3813 837.952 67.512ZM832.08 66.68C832.72 67.5867 833.547 68.04 834.56 68.04C835.574 68.04 836.39 67.592 837.008 66.696C837.638 65.7893 837.952 64.6907 837.952 63.4C837.952 62.1307 837.632 61.0427 836.992 60.136C836.363 59.2187 835.542 58.76 834.528 58.76C833.515 58.76 832.694 59.2133 832.064 60.12C831.435 61.016 831.12 62.1093 831.12 63.4C831.12 64.6693 831.44 65.7627 832.08 66.68ZM841.185 69V68.024L845.249 64.44C846.124 63.672 846.732 63.032 847.073 62.52C847.415 62.008 847.585 61.4747 847.585 60.92C847.585 60.28 847.367 59.7627 846.929 59.368C846.492 58.9733 845.959 58.776 845.329 58.776C844.721 58.776 844.183 58.9307 843.713 59.24C843.255 59.5493 842.791 60.0347 842.321 60.696L841.393 60.024C841.937 59.2133 842.513 58.616 843.121 58.232C843.729 57.8373 844.497 57.64 845.425 57.64C846.428 57.64 847.255 57.944 847.905 58.552C848.567 59.1493 848.898 59.912 848.898 60.84C848.898 61.608 848.69 62.2907 848.273 62.888C847.857 63.4853 847.121 64.2533 846.065 65.192L843.073 67.848H849.009V69H841.185Z" fill="#262626"/>
<path d="M815.523 163.512C814.649 164.632 813.507 165.192 812.099 165.192C810.691 165.192 809.55 164.637 808.675 163.528C807.811 162.408 807.379 161.032 807.379 159.4C807.379 157.789 807.817 156.424 808.691 155.304C809.577 154.173 810.723 153.608 812.131 153.608C813.539 153.608 814.675 154.168 815.539 155.288C816.403 156.397 816.835 157.768 816.835 159.4C816.835 161.011 816.398 162.381 815.523 163.512ZM809.651 162.68C810.291 163.587 811.118 164.04 812.131 164.04C813.145 164.04 813.961 163.592 814.579 162.696C815.209 161.789 815.523 160.691 815.523 159.4C815.523 158.131 815.203 157.043 814.563 156.136C813.934 155.219 813.113 154.76 812.099 154.76C811.086 154.76 810.265 155.213 809.635 156.12C809.006 157.016 808.691 158.109 808.691 159.4C808.691 160.669 809.011 161.763 809.651 162.68ZM821.009 165V155.032L818.897 155.688L818.593 154.664L821.329 153.72H822.257V165H821.009ZM833.335 163.512C832.46 164.632 831.319 165.192 829.911 165.192C828.503 165.192 827.362 164.637 826.487 163.528C825.623 162.408 825.191 161.032 825.191 159.4C825.191 157.789 825.628 156.424 826.503 155.304C827.388 154.173 828.535 153.608 829.943 153.608C831.351 153.608 832.487 154.168 833.351 155.288C834.215 156.397 834.647 157.768 834.647 159.4C834.647 161.011 834.21 162.381 833.335 163.512ZM827.463 162.68C828.103 163.587 828.93 164.04 829.943 164.04C830.956 164.04 831.772 163.592 832.391 162.696C833.02 161.789 833.335 160.691 833.335 159.4C833.335 158.131 833.015 157.043 832.375 156.136C831.746 155.219 830.924 154.76 829.911 154.76C828.898 154.76 828.076 155.213 827.447 156.12C826.818 157.016 826.503 158.109 826.503 159.4C826.503 160.669 826.823 161.763 827.463 162.68ZM840.776 165.192C839.016 165.192 837.624 164.525 836.6 163.192L837.512 162.376C838.419 163.485 839.512 164.04 840.792 164.04C841.486 164.04 842.067 163.837 842.536 163.432C843.006 163.027 843.24 162.493 843.24 161.832C843.24 161.149 842.952 160.621 842.376 160.248C841.8 159.864 841.043 159.672 840.104 159.672H839.384L839.128 158.92L842.664 154.936H837.192V153.8H844.344V154.728L840.824 158.632C841.891 158.717 842.771 159.027 843.464 159.56C844.168 160.083 844.52 160.835 844.52 161.816C844.52 162.797 844.158 163.608 843.432 164.248C842.718 164.877 841.832 165.192 840.776 165.192Z" fill="#262626"/>
<path d="M680.484 163.512C679.609 164.632 678.468 165.192 677.06 165.192C675.652 165.192 674.511 164.637 673.636 163.528C672.772 162.408 672.34 161.032 672.34 159.4C672.34 157.789 672.777 156.424 673.652 155.304C674.537 154.173 675.684 153.608 677.092 153.608C678.5 153.608 679.636 154.168 680.5 155.288C681.364 156.397 681.796 157.768 681.796 159.4C681.796 161.011 681.359 162.381 680.484 163.512ZM674.612 162.68C675.252 163.587 676.079 164.04 677.092 164.04C678.105 164.04 678.921 163.592 679.54 162.696C680.169 161.789 680.484 160.691 680.484 159.4C680.484 158.131 680.164 157.043 679.524 156.136C678.895 155.219 678.073 154.76 677.06 154.76C676.047 154.76 675.225 155.213 674.596 156.12C673.967 157.016 673.652 158.109 673.652 159.4C673.652 160.669 673.972 161.763 674.612 162.68ZM685.97 165V155.032L683.858 155.688L683.554 154.664L686.29 153.72H687.218V165H685.97ZM698.296 163.512C697.421 164.632 696.28 165.192 694.872 165.192C693.464 165.192 692.323 164.637 691.448 163.528C690.584 162.408 690.152 161.032 690.152 159.4C690.152 157.789 690.589 156.424 691.464 155.304C692.349 154.173 693.496 153.608 694.904 153.608C696.312 153.608 697.448 154.168 698.312 155.288C699.176 156.397 699.608 157.768 699.608 159.4C699.608 161.011 699.171 162.381 698.296 163.512ZM692.424 162.68C693.064 163.587 693.891 164.04 694.904 164.04C695.917 164.04 696.733 163.592 697.352 162.696C697.981 161.789 698.296 160.691 698.296 159.4C698.296 158.131 697.976 157.043 697.336 156.136C696.707 155.219 695.885 154.76 694.872 154.76C693.859 154.76 693.037 155.213 692.408 156.12C691.779 157.016 691.464 158.109 691.464 159.4C691.464 160.669 691.784 161.763 692.424 162.68ZM703.781 165V155.032L701.669 155.688L701.365 154.664L704.101 153.72H705.029V165H703.781Z" fill="#262626"/>
<path d="M604.304 197.512C603.43 198.632 602.288 199.192 600.88 199.192C599.472 199.192 598.331 198.637 597.456 197.528C596.592 196.408 596.16 195.032 596.16 193.4C596.16 191.789 596.598 190.424 597.472 189.304C598.358 188.173 599.504 187.608 600.912 187.608C602.32 187.608 603.456 188.168 604.32 189.288C605.184 190.397 605.616 191.768 605.616 193.4C605.616 195.011 605.179 196.381 604.304 197.512ZM598.432 196.68C599.072 197.587 599.899 198.04 600.912 198.04C601.926 198.04 602.742 197.592 603.36 196.696C603.99 195.789 604.304 194.691 604.304 193.4C604.304 192.131 603.984 191.043 603.344 190.136C602.715 189.219 601.894 188.76 600.88 188.76C599.867 188.76 599.046 189.213 598.416 190.12C597.787 191.016 597.472 192.109 597.472 193.4C597.472 194.669 597.792 195.763 598.432 196.68ZM609.79 199V189.032L607.678 189.688L607.374 188.664L610.11 187.72H611.038V199H609.79ZM615.844 199V189.032L613.732 189.688L613.428 188.664L616.164 187.72H617.092V199H615.844ZM623.883 199.192C622.4 199.192 621.067 198.6 619.883 197.416L620.715 196.504C621.771 197.528 622.832 198.04 623.899 198.04C624.699 198.04 625.349 197.805 625.851 197.336C626.352 196.867 626.603 196.264 626.603 195.528C626.603 194.835 626.341 194.269 625.819 193.832C625.307 193.395 624.64 193.176 623.819 193.176C623.051 193.176 622.267 193.389 621.467 193.816L620.619 193.256L620.939 187.8H627.387V188.968H622.043L621.803 192.552C622.56 192.221 623.296 192.056 624.011 192.056C625.131 192.056 626.053 192.371 626.779 193C627.515 193.619 627.883 194.456 627.883 195.512C627.883 196.6 627.509 197.485 626.763 198.168C626.016 198.851 625.056 199.192 623.883 199.192Z" fill="#262626"/>
<path d="M668.484 467.512C667.609 468.632 666.468 469.192 665.06 469.192C663.652 469.192 662.511 468.637 661.636 467.528C660.772 466.408 660.34 465.032 660.34 463.4C660.34 461.789 660.777 460.424 661.652 459.304C662.537 458.173 663.684 457.608 665.092 457.608C666.5 457.608 667.636 458.168 668.5 459.288C669.364 460.397 669.796 461.768 669.796 463.4C669.796 465.011 669.359 466.381 668.484 467.512ZM662.612 466.68C663.252 467.587 664.079 468.04 665.092 468.04C666.105 468.04 666.921 467.592 667.54 466.696C668.169 465.789 668.484 464.691 668.484 463.4C668.484 462.131 668.164 461.043 667.524 460.136C666.895 459.219 666.073 458.76 665.06 458.76C664.047 458.76 663.225 459.213 662.596 460.12C661.967 461.016 661.652 462.109 661.652 463.4C661.652 464.669 661.972 465.763 662.612 466.68ZM673.97 469V459.032L671.858 459.688L671.554 458.664L674.29 457.72H675.218V469H673.97ZM686.296 467.512C685.421 468.632 684.28 469.192 682.872 469.192C681.464 469.192 680.323 468.637 679.448 467.528C678.584 466.408 678.152 465.032 678.152 463.4C678.152 461.789 678.589 460.424 679.464 459.304C680.349 458.173 681.496 457.608 682.904 457.608C684.312 457.608 685.448 458.168 686.312 459.288C687.176 460.397 687.608 461.768 687.608 463.4C687.608 465.011 687.171 466.381 686.296 467.512ZM680.424 466.68C681.064 467.587 681.891 468.04 682.904 468.04C683.917 468.04 684.733 467.592 685.352 466.696C685.981 465.789 686.296 464.691 686.296 463.4C686.296 462.131 685.976 461.043 685.336 460.136C684.707 459.219 683.885 458.76 682.872 458.76C681.859 458.76 681.037 459.213 680.408 460.12C679.779 461.016 679.464 462.109 679.464 463.4C679.464 464.669 679.784 465.763 680.424 466.68ZM695.829 469V466.344H689.925L689.605 465.432L695.941 457.72H697.045V465.288H698.79V466.344H697.045V469H695.829ZM691.125 465.288H695.829V459.512L691.125 465.288Z" fill="#262626"/>
<path d="M603.933 343V331.8H612.765V343H611.501V332.952H605.197V343H603.933ZM616.045 345.56V334.728H617.277V336.392C618.109 335.165 619.165 334.552 620.445 334.552C621.501 334.552 622.423 334.947 623.213 335.736C624.002 336.515 624.397 337.56 624.397 338.872C624.397 340.163 624.002 341.203 623.213 341.992C622.423 342.781 621.501 343.176 620.445 343.176C619.143 343.176 618.087 342.589 617.277 341.416V345.56H616.045ZM620.221 342.072C621.053 342.072 621.746 341.784 622.301 341.208C622.855 340.621 623.133 339.837 623.133 338.856C623.133 337.907 622.85 337.139 622.285 336.552C621.719 335.955 621.031 335.656 620.221 335.656C619.421 335.656 618.722 335.96 618.125 336.568C617.527 337.176 617.229 337.944 617.229 338.872C617.229 339.8 617.527 340.568 618.125 341.176C618.722 341.773 619.421 342.072 620.221 342.072ZM626.99 343V334.728H628.222V341.272L633.134 334.728H634.334V343H633.102V336.456L628.174 343H626.99ZM641.02 343.192C639.857 343.192 638.876 342.792 638.076 341.992C637.286 341.181 636.892 340.141 636.892 338.872C636.892 337.667 637.27 336.648 638.028 335.816C638.785 334.973 639.729 334.552 640.86 334.552C642.044 334.552 642.982 334.968 643.676 335.8C644.369 336.632 644.716 337.677 644.716 338.936C644.716 339.096 644.71 339.24 644.7 339.368H638.14C638.225 340.211 638.54 340.883 639.084 341.384C639.638 341.875 640.294 342.12 641.052 342.12C642.044 342.12 642.913 341.731 643.66 340.952L644.428 341.64C643.5 342.675 642.364 343.192 641.02 343.192ZM638.14 338.376H643.468C643.393 337.576 643.126 336.915 642.668 336.392C642.22 335.859 641.606 335.592 640.828 335.592C640.124 335.592 639.521 335.853 639.02 336.376C638.518 336.899 638.225 337.565 638.14 338.376ZM647.192 343V334.728H648.36L651.448 339.08L654.536 334.728H655.72V343H654.472V336.696L651.416 340.888L648.392 336.696V343H647.192ZM658.793 343V334.728H660.025V338.296H664.793V334.728H666.026V343H664.793V339.384H660.025V343H658.793ZM671.562 343.176C670.719 343.176 669.994 342.947 669.386 342.488C668.778 342.029 668.474 341.389 668.474 340.568C668.474 339.704 668.794 339.037 669.434 338.568C670.074 338.099 670.933 337.864 672.01 337.864C672.863 337.864 673.706 337.981 674.538 338.216V337.96C674.538 337.235 674.325 336.68 673.898 336.296C673.471 335.912 672.869 335.72 672.09 335.72C671.279 335.72 670.442 335.917 669.578 336.312L669.21 335.304C670.234 334.835 671.237 334.6 672.218 334.6C673.391 334.6 674.282 334.904 674.89 335.512C675.466 336.088 675.754 336.899 675.754 337.944V343H674.538V341.768C673.802 342.707 672.81 343.176 671.562 343.176ZM671.802 342.184C672.57 342.184 673.221 341.976 673.754 341.56C674.287 341.144 674.554 340.611 674.554 339.96V339.192C673.743 338.957 672.938 338.84 672.138 338.84C671.381 338.84 670.789 338.995 670.362 339.304C669.935 339.603 669.722 340.013 669.722 340.536C669.722 341.037 669.919 341.437 670.314 341.736C670.719 342.035 671.215 342.184 671.802 342.184ZM677.947 343L680.475 339.8C679.825 339.651 679.291 339.357 678.875 338.92C678.47 338.483 678.267 337.944 678.267 337.304C678.267 336.536 678.545 335.917 679.099 335.448C679.654 334.968 680.417 334.728 681.387 334.728H685.275V343H684.043V339.992H681.755C681.659 340.12 681.329 340.557 680.763 341.304C680.198 342.051 679.766 342.616 679.467 343H677.947ZM681.483 338.952H684.043V335.816H681.451C680.843 335.816 680.363 335.955 680.011 336.232C679.67 336.499 679.499 336.872 679.499 337.352C679.499 337.843 679.681 338.232 680.043 338.52C680.417 338.808 680.897 338.952 681.483 338.952ZM605.498 367V358.728H606.73V363.496L611.258 358.728H612.778L609.322 362.312L612.874 367H611.418L608.474 363.208L606.73 365V367H605.498ZM621.76 365.928C620.928 366.771 619.899 367.192 618.672 367.192C617.446 367.192 616.422 366.771 615.6 365.928C614.79 365.085 614.384 364.067 614.384 362.872C614.384 361.688 614.795 360.675 615.616 359.832C616.448 358.979 617.478 358.552 618.704 358.552C619.931 358.552 620.955 358.973 621.776 359.816C622.598 360.659 623.008 361.677 623.008 362.872C623.008 364.056 622.592 365.075 621.76 365.928ZM618.704 366.088C619.59 366.088 620.315 365.779 620.88 365.16C621.456 364.541 621.744 363.779 621.744 362.872C621.744 361.976 621.446 361.213 620.848 360.584C620.262 359.955 619.536 359.64 618.672 359.64C617.787 359.64 617.062 359.955 616.496 360.584C615.931 361.203 615.648 361.965 615.648 362.872C615.648 363.768 615.942 364.531 616.528 365.16C617.115 365.779 617.84 366.088 618.704 366.088ZM625.56 367V358.728H626.728L629.816 363.08L632.904 358.728H634.088V367H632.84V360.696L629.784 364.888L626.76 360.696V367H625.56ZM637.161 367V358.728H638.393V365.272L643.305 358.728H644.505V367H643.273V360.456L638.345 367H637.161ZM651.303 367.192C650.108 367.192 649.1 366.771 648.279 365.928C647.468 365.075 647.063 364.056 647.063 362.872C647.063 361.688 647.468 360.675 648.279 359.832C649.1 358.979 650.108 358.552 651.303 358.552C652.583 358.552 653.687 359.043 654.615 360.024L653.831 360.856C653.063 360.045 652.215 359.64 651.287 359.64C650.455 359.64 649.751 359.955 649.175 360.584C648.61 361.203 648.327 361.965 648.327 362.872C648.327 363.768 648.615 364.531 649.191 365.16C649.778 365.779 650.503 366.088 651.367 366.088C652.252 366.088 653.084 365.672 653.863 364.84L654.679 365.592C653.719 366.659 652.594 367.192 651.303 367.192ZM660.764 367.192C659.569 367.192 658.561 366.771 657.74 365.928C656.929 365.075 656.524 364.056 656.524 362.872C656.524 361.688 656.929 360.675 657.74 359.832C658.561 358.979 659.569 358.552 660.764 358.552C662.044 358.552 663.148 359.043 664.076 360.024L663.292 360.856C662.524 360.045 661.676 359.64 660.748 359.64C659.916 359.64 659.212 359.955 658.636 360.584C658.07 361.203 657.788 361.965 657.788 362.872C657.788 363.768 658.076 364.531 658.652 365.16C659.238 365.779 659.964 366.088 660.828 366.088C661.713 366.088 662.545 365.672 663.324 364.84L664.14 365.592C663.18 366.659 662.054 367.192 660.764 367.192ZM666.496 367V358.728H667.728V365.272L672.64 358.728H673.84V367H672.608V360.456L667.68 367H666.496ZM676.174 367L678.702 363.8C678.051 363.651 677.518 363.357 677.102 362.92C676.697 362.483 676.494 361.944 676.494 361.304C676.494 360.536 676.771 359.917 677.326 359.448C677.881 358.968 678.643 358.728 679.614 358.728H683.502V367H682.27V363.992H679.982C679.886 364.12 679.555 364.557 678.99 365.304C678.425 366.051 677.993 366.616 677.694 367H676.174ZM679.71 362.952H682.27V359.816H679.678C679.07 359.816 678.59 359.955 678.238 360.232C677.897 360.499 677.726 360.872 677.726 361.352C677.726 361.843 677.907 362.232 678.27 362.52C678.643 362.808 679.123 362.952 679.71 362.952Z" fill="#262626"/>
<path d="M477.463 291.128C476.961 291.128 476.476 291.037 476.007 290.856L476.263 289.832C476.497 289.939 476.828 289.992 477.255 289.992C477.468 289.992 477.66 289.96 477.831 289.896C478.001 289.821 478.204 289.629 478.439 289.32C478.673 289 478.865 288.568 479.015 288.024C479.164 287.469 479.292 286.664 479.399 285.608C479.516 284.541 479.575 283.283 479.575 281.832V279.8H486.823V291H485.559V280.952H480.791V282.168C480.791 283.683 480.727 284.995 480.599 286.104C480.481 287.213 480.321 288.088 480.119 288.728C479.927 289.357 479.676 289.859 479.367 290.232C479.068 290.605 478.769 290.851 478.471 290.968C478.183 291.075 477.847 291.128 477.463 291.128ZM490.095 291V282.728H491.327V289.272L496.239 282.728H497.439V291H496.207V284.456L491.279 291H490.095ZM505.485 293.56V290.328C504.823 290.893 504.135 291.176 503.421 291.176C502.418 291.176 501.607 290.792 500.989 290.024C500.37 289.245 500.061 288.184 500.061 286.84C500.061 285.517 500.37 284.472 500.989 283.704C501.607 282.936 502.418 282.552 503.421 282.552C504.135 282.552 504.823 282.851 505.485 283.448V279.8H506.733V283.448C507.394 282.851 508.082 282.552 508.797 282.552C509.81 282.552 510.626 282.941 511.245 283.72C511.863 284.488 512.173 285.539 512.173 286.872C512.173 288.195 511.858 289.245 511.229 290.024C510.61 290.792 509.799 291.176 508.797 291.176C508.338 291.176 507.959 291.107 507.661 290.968C507.373 290.819 507.063 290.605 506.733 290.328V293.56H505.485ZM503.677 290.088C504.37 290.088 504.973 289.816 505.485 289.272V284.472C504.973 283.928 504.37 283.656 503.677 283.656C502.909 283.656 502.327 283.944 501.933 284.52C501.538 285.096 501.341 285.891 501.341 286.904C501.341 289.027 502.119 290.088 503.677 290.088ZM508.557 290.088C510.114 290.088 510.893 289.016 510.893 286.872C510.893 285.869 510.695 285.085 510.301 284.52C509.906 283.944 509.325 283.656 508.557 283.656C507.863 283.656 507.255 283.928 506.733 284.472V289.272C507.255 289.816 507.863 290.088 508.557 290.088ZM516.798 291V283.816H513.838V282.728H521.006V283.816H518.046V291H516.798ZM523.118 291V282.728H524.35V285.832H526.558C527.518 285.832 528.302 286.04 528.91 286.456C529.518 286.861 529.822 287.48 529.822 288.312C529.822 289.133 529.539 289.789 528.974 290.28C528.408 290.76 527.651 291 526.702 291H523.118ZM524.35 289.912H526.59C527.219 289.912 527.704 289.779 528.046 289.512C528.398 289.245 528.574 288.856 528.574 288.344C528.574 287.875 528.392 287.517 528.03 287.272C527.678 287.016 527.182 286.888 526.542 286.888H524.35V289.912ZM531.31 291V282.728H532.542V291H531.31Z" fill="#262626"/>
<path d="M391.866 469V457.8H393.13V464.488L399.562 457.8H401.194L396.394 462.696L401.402 469H399.818L395.514 463.576L393.13 465.992V469H391.866ZM403.478 469V460.728H404.71V467.272L409.622 460.728H410.822V469H409.59V462.456L404.662 469H403.478ZM420.756 467.928C419.924 468.771 418.894 469.192 417.668 469.192C416.441 469.192 415.417 468.771 414.596 467.928C413.785 467.085 413.38 466.067 413.38 464.872C413.38 463.688 413.79 462.675 414.612 461.832C415.444 460.979 416.473 460.552 417.7 460.552C418.926 460.552 419.95 460.973 420.772 461.816C421.593 462.659 422.004 463.677 422.004 464.872C422.004 466.056 421.588 467.075 420.756 467.928ZM417.7 468.088C418.585 468.088 419.31 467.779 419.876 467.16C420.452 466.541 420.74 465.779 420.74 464.872C420.74 463.976 420.441 463.213 419.844 462.584C419.257 461.955 418.532 461.64 417.668 461.64C416.782 461.64 416.057 461.955 415.492 462.584C414.926 463.203 414.644 463.965 414.644 464.872C414.644 465.768 414.937 466.531 415.524 467.16C416.11 467.779 416.836 468.088 417.7 468.088ZM428.283 469.192C427.089 469.192 426.081 468.771 425.259 467.928C424.449 467.075 424.043 466.056 424.043 464.872C424.043 463.688 424.449 462.675 425.259 461.832C426.081 460.979 427.089 460.552 428.283 460.552C429.563 460.552 430.667 461.043 431.595 462.024L430.811 462.856C430.043 462.045 429.195 461.64 428.267 461.64C427.435 461.64 426.731 461.955 426.155 462.584C425.59 463.203 425.307 463.965 425.307 464.872C425.307 465.768 425.595 466.531 426.171 467.16C426.758 467.779 427.483 468.088 428.347 468.088C429.233 468.088 430.065 467.672 430.843 466.84L431.659 467.592C430.699 468.659 429.574 469.192 428.283 469.192ZM434.016 469V460.728H435.248V465.496L439.776 460.728H441.296L437.84 464.312L441.392 469H439.936L436.992 465.208L435.248 467V469H434.016Z" fill="#262626"/>
<path d="M315.336 446.512C314.461 447.632 313.32 448.192 311.912 448.192C310.504 448.192 309.362 447.637 308.488 446.528C307.624 445.408 307.192 444.032 307.192 442.4C307.192 440.789 307.629 439.424 308.504 438.304C309.389 437.173 310.536 436.608 311.944 436.608C313.352 436.608 314.488 437.168 315.352 438.288C316.216 439.397 316.648 440.768 316.648 442.4C316.648 444.011 316.21 445.381 315.336 446.512ZM309.464 445.68C310.104 446.587 310.93 447.04 311.944 447.04C312.957 447.04 313.773 446.592 314.392 445.696C315.021 444.789 315.336 443.691 315.336 442.4C315.336 441.131 315.016 440.043 314.376 439.136C313.746 438.219 312.925 437.76 311.912 437.76C310.898 437.76 310.077 438.213 309.448 439.12C308.818 440.016 308.504 441.109 308.504 442.4C308.504 443.669 308.824 444.763 309.464 445.68ZM320.821 448V438.032L318.709 438.688L318.405 437.664L321.141 436.72H322.069V448H320.821ZM326.876 448V438.032L324.764 438.688L324.46 437.664L327.196 436.72H328.124V448H326.876ZM332.93 448V438.032L330.818 438.688L330.514 437.664L333.25 436.72H334.178V448H332.93Z" fill="#262626"/>
<path d="M819.453 481.512C818.578 482.632 817.437 483.192 816.029 483.192C814.621 483.192 813.48 482.637 812.605 481.528C811.741 480.408 811.309 479.032 811.309 477.4C811.309 475.789 811.746 474.424 812.621 473.304C813.506 472.173 814.653 471.608 816.061 471.608C817.469 471.608 818.605 472.168 819.469 473.288C820.333 474.397 820.765 475.768 820.765 477.4C820.765 479.011 820.328 480.381 819.453 481.512ZM813.581 480.68C814.221 481.587 815.048 482.04 816.061 482.04C817.074 482.04 817.89 481.592 818.509 480.696C819.138 479.789 819.453 478.691 819.453 477.4C819.453 476.131 819.133 475.043 818.493 474.136C817.864 473.219 817.042 472.76 816.029 472.76C815.016 472.76 814.194 473.213 813.565 474.12C812.936 475.016 812.621 476.109 812.621 477.4C812.621 478.669 812.941 479.763 813.581 480.68ZM824.938 483V473.032L822.826 473.688L822.522 472.664L825.258 471.72H826.186V483H824.938ZM837.265 481.512C836.39 482.632 835.249 483.192 833.841 483.192C832.433 483.192 831.291 482.637 830.417 481.528C829.553 480.408 829.121 479.032 829.121 477.4C829.121 475.789 829.558 474.424 830.433 473.304C831.318 472.173 832.465 471.608 833.873 471.608C835.281 471.608 836.417 472.168 837.281 473.288C838.145 474.397 838.577 475.768 838.577 477.4C838.577 479.011 838.139 480.381 837.265 481.512ZM831.393 480.68C832.033 481.587 832.859 482.04 833.873 482.04C834.886 482.04 835.702 481.592 836.321 480.696C836.95 479.789 837.265 478.691 837.265 477.4C837.265 476.131 836.945 475.043 836.305 474.136C835.675 473.219 834.854 472.76 833.841 472.76C832.827 472.76 832.006 473.213 831.377 474.12C830.747 475.016 830.433 476.109 830.433 477.4C830.433 478.669 830.753 479.763 831.393 480.68ZM844.734 483.192C843.252 483.192 841.918 482.6 840.734 481.416L841.566 480.504C842.622 481.528 843.684 482.04 844.75 482.04C845.55 482.04 846.201 481.805 846.702 481.336C847.204 480.867 847.454 480.264 847.454 479.528C847.454 478.835 847.193 478.269 846.67 477.832C846.158 477.395 845.492 477.176 844.67 477.176C843.902 477.176 843.118 477.389 842.318 477.816L841.47 477.256L841.79 471.8H848.238V472.968H842.894L842.654 476.552C843.412 476.221 844.148 476.056 844.862 476.056C845.982 476.056 846.905 476.371 847.63 477C848.366 477.619 848.734 478.456 848.734 479.512C848.734 480.6 848.361 481.485 847.614 482.168C846.868 482.851 845.908 483.192 844.734 483.192Z" fill="#262626"/>
<path d="M876.172 422.512C875.297 423.632 874.156 424.192 872.748 424.192C871.34 424.192 870.198 423.637 869.324 422.528C868.46 421.408 868.028 420.032 868.028 418.4C868.028 416.789 868.465 415.424 869.34 414.304C870.225 413.173 871.372 412.608 872.78 412.608C874.188 412.608 875.324 413.168 876.188 414.288C877.052 415.397 877.484 416.768 877.484 418.4C877.484 420.011 877.046 421.381 876.172 422.512ZM870.3 421.68C870.94 422.587 871.766 423.04 872.78 423.04C873.793 423.04 874.609 422.592 875.228 421.696C875.857 420.789 876.172 419.691 876.172 418.4C876.172 417.131 875.852 416.043 875.212 415.136C874.582 414.219 873.761 413.76 872.748 413.76C871.734 413.76 870.913 414.213 870.284 415.12C869.654 416.016 869.34 417.109 869.34 418.4C869.34 419.669 869.66 420.763 870.3 421.68ZM881.657 424V414.032L879.545 414.688L879.241 413.664L881.977 412.72H882.905V424H881.657ZM893.984 422.512C893.109 423.632 891.968 424.192 890.56 424.192C889.152 424.192 888.01 423.637 887.135 422.528C886.271 421.408 885.839 420.032 885.839 418.4C885.839 416.789 886.277 415.424 887.151 414.304C888.037 413.173 889.184 412.608 890.592 412.608C892 412.608 893.136 413.168 894 414.288C894.864 415.397 895.296 416.768 895.296 418.4C895.296 420.011 894.858 421.381 893.984 422.512ZM888.112 421.68C888.751 422.587 889.578 423.04 890.592 423.04C891.605 423.04 892.421 422.592 893.04 421.696C893.669 420.789 893.984 419.691 893.984 418.4C893.984 417.131 893.664 416.043 893.024 415.136C892.394 414.219 891.573 413.76 890.56 413.76C889.546 413.76 888.725 414.213 888.095 415.12C887.466 416.016 887.151 417.109 887.151 418.4C887.151 419.669 887.471 420.763 888.112 421.68ZM901.933 424.192C900.589 424.192 899.528 423.749 898.749 422.864C897.97 421.979 897.581 420.587 897.581 418.688C897.581 416.939 897.997 415.488 898.829 414.336C899.672 413.184 900.808 412.608 902.237 412.608C903.4 412.608 904.504 413.035 905.549 413.888L904.813 414.864C903.938 414.128 903.058 413.76 902.173 413.76C901.181 413.76 900.386 414.213 899.789 415.12C899.192 416.027 898.893 417.205 898.893 418.656V418.704C899.672 417.563 900.733 416.992 902.077 416.992C903.154 416.992 904.066 417.312 904.813 417.952C905.57 418.592 905.949 419.429 905.949 420.464C905.949 421.541 905.565 422.432 904.797 423.136C904.029 423.84 903.074 424.192 901.933 424.192ZM901.949 423.072C902.76 423.072 903.41 422.827 903.901 422.336C904.402 421.845 904.653 421.227 904.653 420.48C904.653 419.787 904.397 419.216 903.885 418.768C903.373 418.309 902.717 418.08 901.917 418.08C901.106 418.08 900.434 418.331 899.901 418.832C899.378 419.323 899.117 419.899 899.117 420.56C899.117 421.275 899.384 421.872 899.917 422.352C900.45 422.832 901.128 423.072 901.949 423.072Z" fill="#262626"/>
<path d="M305.835 181V169.8H313.867V170.952H307.099V174.392H310.411C311.669 174.392 312.693 174.669 313.483 175.224C314.272 175.768 314.667 176.579 314.667 177.656C314.667 178.733 314.293 179.56 313.547 180.136C312.811 180.712 311.808 181 310.539 181H305.835ZM307.099 179.848H310.443C312.416 179.848 313.403 179.096 313.403 177.592C313.403 176.899 313.136 176.381 312.603 176.04C312.069 175.688 311.328 175.512 310.379 175.512H307.099V179.848ZM318.555 183.608C317.957 183.608 317.371 183.469 316.795 183.192L317.211 182.216C317.605 182.419 318.037 182.52 318.507 182.52C318.88 182.52 319.195 182.403 319.451 182.168C319.707 181.944 319.957 181.544 320.203 180.968L316.443 172.728H317.803L320.811 179.624L323.467 172.728H324.779L321.307 181.272C320.955 182.115 320.565 182.712 320.139 183.064C319.712 183.427 319.184 183.608 318.555 183.608ZM332.024 183.56V180.328C331.363 180.893 330.675 181.176 329.96 181.176C328.957 181.176 328.147 180.792 327.528 180.024C326.909 179.245 326.6 178.184 326.6 176.84C326.6 175.517 326.909 174.472 327.528 173.704C328.147 172.936 328.957 172.552 329.96 172.552C330.675 172.552 331.363 172.851 332.024 173.448V169.8H333.272V173.448C333.933 172.851 334.621 172.552 335.336 172.552C336.349 172.552 337.165 172.941 337.784 173.72C338.403 174.488 338.712 175.539 338.712 176.872C338.712 178.195 338.397 179.245 337.768 180.024C337.149 180.792 336.339 181.176 335.336 181.176C334.877 181.176 334.499 181.107 334.2 180.968C333.912 180.819 333.603 180.605 333.272 180.328V183.56H332.024ZM330.216 180.088C330.909 180.088 331.512 179.816 332.024 179.272V174.472C331.512 173.928 330.909 173.656 330.216 173.656C329.448 173.656 328.867 173.944 328.472 174.52C328.077 175.096 327.88 175.891 327.88 176.904C327.88 179.027 328.659 180.088 330.216 180.088ZM335.096 180.088C336.653 180.088 337.432 179.016 337.432 176.872C337.432 175.869 337.235 175.085 336.84 174.52C336.445 173.944 335.864 173.656 335.096 173.656C334.403 173.656 333.795 173.928 333.272 174.472V179.272C333.795 179.816 334.403 180.088 335.096 180.088ZM344.953 181.192C343.79 181.192 342.809 180.792 342.009 179.992C341.219 179.181 340.825 178.141 340.825 176.872C340.825 175.667 341.203 174.648 341.961 173.816C342.718 172.973 343.662 172.552 344.793 172.552C345.977 172.552 346.915 172.968 347.609 173.8C348.302 174.632 348.649 175.677 348.649 176.936C348.649 177.096 348.643 177.24 348.633 177.368H342.073C342.158 178.211 342.473 178.883 343.017 179.384C343.571 179.875 344.227 180.12 344.985 180.12C345.977 180.12 346.846 179.731 347.593 178.952L348.361 179.64C347.433 180.675 346.297 181.192 344.953 181.192ZM342.073 176.376H347.401C347.326 175.576 347.059 174.915 346.601 174.392C346.153 173.859 345.539 173.592 344.761 173.592C344.057 173.592 343.454 173.853 342.953 174.376C342.451 174.899 342.158 175.565 342.073 176.376ZM353.125 181V173.816H350.165V172.728H357.333V173.816H354.373V181H353.125Z" fill="#262626"/>
<path d="M257 314C257 318.418 253.418 322 249 322C244.582 322 241 318.418 241 314C241 309.582 244.582 306 249 306C253.418 306 257 309.582 257 314ZM243 314C243 317.314 245.686 320 249 320C252.314 320 255 317.314 255 314C255 310.686 252.314 308 249 308C245.686 308 243 310.686 243 314Z" fill="#3BAC54"/>
<path d="M247 312.5L249 316L256 309" stroke="white" stroke-width="4" stroke-linecap="square" stroke-linejoin="round"/>
<path d="M245 312L249 316L256 309" stroke="#3BAC54" stroke-width="1.7" stroke-linecap="square" stroke-linejoin="round"/>
<path d="M244 311.5L245 310V314H243L244 311.5Z" fill="white"/>
<rect x="255.17" y="308.078" width="3" height="3.79552" transform="rotate(-35.2616 255.17 308.078)" fill="white"/>
<g filter="url(#filter3_f_48_603)">
<rect x="660" y="239" width="10" height="16" rx="1" fill="#4548B7"/>
<path d="M646.039 240.328C646.317 239.365 647.683 239.365 647.961 240.328L651.827 253.723C652.012 254.362 651.532 255 650.867 255H643.133C642.468 255 641.988 254.362 642.173 253.723L646.039 240.328Z" fill="#4548B7"/>
<circle cx="647" cy="234" r="3" fill="#4548B7"/>
<circle cx="665" cy="234" r="3" fill="#4548B7"/>
</g>
<rect x="660" y="239" width="10" height="16" rx="1" fill="#615FC5"/>
<path d="M646.039 240.328C646.317 239.365 647.683 239.365 647.961 240.328L651.827 253.723C652.012 254.362 651.532 255 650.867 255H643.133C642.468 255 641.988 254.362 642.173 253.723L646.039 240.328Z" fill="#615FC5"/>
<circle cx="647" cy="234" r="3" fill="#615FC5"/>
<circle cx="665" cy="234" r="3" fill="#615FC5"/>
<g filter="url(#filter4_f_48_603)">
<rect x="660" y="239" width="10" height="16" rx="1" fill="#E7E7FF"/>
<path d="M646.039 240.328C646.317 239.365 647.683 239.365 647.961 240.328L651.827 253.723C652.012 254.362 651.532 255 650.867 255H643.133C642.468 255 641.988 254.362 642.173 253.723L646.039 240.328Z" fill="#E7E7FF"/>
<circle cx="647" cy="234" r="3" fill="#E7E7FF"/>
<circle cx="665" cy="234" r="3" fill="#E7E7FF"/>
</g>
<defs>
<filter id="filter0_f_48_603" x="5" y="5" width="938" height="495.912" filterUnits="userSpaceOnUse" color-interpolation-filters="sRGB">
<feFlood flood-opacity="0" result="BackgroundImageFix"/>
<feBlend mode="normal" in="SourceGraphic" in2="BackgroundImageFix" result="shape"/>
<feGaussianBlur stdDeviation="0.5" result="effect1_foregroundBlur_48_603"/>
</filter>
<filter id="filter1_f_48_603" x="0.5" y="0.5" width="947" height="547" filterUnits="userSpaceOnUse" color-interpolation-filters="sRGB">
<feFlood flood-opacity="0" result="BackgroundImageFix"/>
<feBlend mode="normal" in="SourceGraphic" in2="BackgroundImageFix" result="shape"/>
<feGaussianBlur stdDeviation="2" result="effect1_foregroundBlur_48_603"/>
</filter>
<filter id="filter2_f_48_603" x="4" y="4" width="940" height="540" filterUnits="userSpaceOnUse" color-interpolation-filters="sRGB">
<feFlood flood-opacity="0" result="BackgroundImageFix"/>
<feBlend mode="normal" in="SourceGraphic" in2="BackgroundImageFix" result="shape"/>
<feGaussianBlur stdDeviation="0.5" result="effect1_foregroundBlur_48_603"/>
</filter>
<filter id="filter3_f_48_603" x="638.133" y="227" width="35.8673" height="32" filterUnits="userSpaceOnUse" color-interpolation-filters="sRGB">
<feFlood flood-opacity="0" result="BackgroundImageFix"/>
<feBlend mode="normal" in="SourceGraphic" in2="BackgroundImageFix" result="shape"/>
<feGaussianBlur stdDeviation="2" result="effect1_foregroundBlur_48_603"/>
</filter>
<filter id="filter4_f_48_603" x="638.133" y="227" width="35.8673" height="32" filterUnits="userSpaceOnUse" color-interpolation-filters="sRGB">
<feFlood flood-opacity="0" result="BackgroundImageFix"/>
<feBlend mode="normal" in="SourceGraphic" in2="BackgroundImageFix" result="shape"/>
<feGaussianBlur stdDeviation="2" result="effect1_foregroundBlur_48_603"/>
</filter>
</defs>
</svg>
