<svg width="847" height="766" viewBox="0 0 847 766" fill="none" xmlns="http://www.w3.org/2000/svg">
<g filter="url(#filter0_f_55_1154)">
<path d="M405 255H441H473H514.5V275H624.5V156.5H610V123.5H656.5V134H699.5V111H656.5V48.5H699.5V6H763.5V48.5H833.5V134H763.5V165.5H833.5V210H763.5V236.5H778.25L779 275H763.5V306.5H841.5V348H763.5V387H841.5V429.25V471.5H763.5V492H841.5V540.25V588.5H763.5V598H699.5V581.5H616V481.5H699.5V387H678V359H656.5V401.5V429H616V401.5V359H514.5V381H405V359H307.5V446.5H214.75H122V676H146.5V760H28.5V676H61.5V650H6V542.5H61.5V482.5V433.5V359H6V294H61.5V200.5H6V89H61.5V63H49V14H134.5V63H122V200.5H281.5H337V275H405V255Z" fill="#F1F1FF" fill-opacity="0.2"/>
<path d="M624.5 87.5V111H642V87.5H624.5Z" fill="#F1F1FF" fill-opacity="0.2"/>
</g>
<g filter="url(#filter1_f_55_1154)">
<path d="M441 255H405V275M405 306.5V275M405 275H337M337 275V200.5H281.5M337 275H281.5M122 200.5H281.5M122 200.5V275H281.5M122 200.5V63M281.5 200.5V275M122 676V446.5M122 676H146.5V760H28.5V676H61.5M122 676H61.5M122 446.5V359H214.75M122 446.5H214.75M307.5 359V446.5H214.75M307.5 359H405M307.5 359H214.75M405 359V331.5M405 359V381H514.5V359M214.75 446.5V359M514.5 331.5V359M514.5 306.5V275M473 255H514.5V275M514.5 275H624.5V156.5H595.5M610 123.5H656.5V134M793 236.5H763.5V210M699.5 48.5V6H763.5V48.5M699.5 48.5H763.5M699.5 48.5H656.5V111H699.5M699.5 48.5V111M763.5 48.5H833.5V134H763.5M763.5 48.5V134M699.5 111V134M699.5 134H656.5M699.5 134V179.25M656.5 134V179.25M656.5 224.5V275H699.5V224.5M656.5 224.5H699.5M656.5 224.5V179.25M699.5 224.5V179.25M699.5 179.25H656.5M763.5 134V165.5M763.5 165.5H833.5V210H763.5M763.5 165.5V210M779 275H763.5V306.5M514.5 359H616V401.5M616 401.5V429H656.5V401.5M616 401.5H656.5M656.5 401.5V359H678M678 359H699.5V387M678 359V387H699.5M699.5 387V481.5M699.5 481.5H616V581.5H699.5M699.5 481.5V581.5M699.5 581.5V598H763.5V588.5M763.5 588.5H841.5V540.25M763.5 588.5V540.25M763.5 492H841.5V540.25M763.5 492V540.25M763.5 492V471.5M763.5 540.25H841.5M763.5 471.5H841.5V429.25M763.5 471.5V429.25M763.5 387H841.5V429.25M763.5 387V429.25M763.5 387V348M763.5 429.25H841.5M763.5 348H841.5V306.5H763.5M763.5 348V306.5M61.5 676V650M61.5 650H6V542.5H61.5M61.5 650V542.5M61.5 542.5V482.5M61.5 433.5V359M61.5 359H6V294H61.5M61.5 359V294M61.5 294V200.5M61.5 200.5H6V89H61.5M61.5 200.5V89M61.5 89V63M61.5 63H122M61.5 63H49V14H134.5V63H122M624.5 111V87.5H642V111H624.5Z" stroke="#615FC5" stroke-width="3"/>
</g>
<path d="M441 255H405V275M405 306.5V275M405 275H337M337 275V200.5H281.5M337 275H281.5M122 200.5H281.5M122 200.5V275H281.5M122 200.5V63M281.5 200.5V275M122 676V446.5M122 676H146.5V760H28.5V676H61.5M122 676H61.5M122 446.5V359H214.75M122 446.5H214.75M307.5 359V446.5H214.75M307.5 359H405M307.5 359H214.75M405 359V331.5M405 359V381H514.5V359M214.75 446.5V359M514.5 331.5V359M514.5 306.5V275M473 255H514.5V275M514.5 275H624.5V156.5H595.5M610 123.5H656.5V134M793 236.5H763.5V210M699.5 48.5V6H763.5V48.5M699.5 48.5H763.5M699.5 48.5H656.5V111H699.5M699.5 48.5V111M763.5 48.5H833.5V134H763.5M763.5 48.5V134M699.5 111V134M699.5 134H656.5M699.5 134V179.25M656.5 134V179.25M656.5 224.5V275H699.5V224.5M656.5 224.5H699.5M656.5 224.5V179.25M699.5 224.5V179.25M699.5 179.25H656.5M763.5 134V165.5M763.5 165.5H833.5V210H763.5M763.5 165.5V210M779 275H763.5V306.5M514.5 359H616V401.5M616 401.5V429H656.5V401.5M616 401.5H656.5M656.5 401.5V359H678M678 359H699.5V387M678 359V387H699.5M699.5 387V481.5M699.5 481.5H616V581.5H699.5M699.5 481.5V581.5M699.5 581.5V598H763.5V588.5M763.5 588.5H841.5V540.25M763.5 588.5V540.25M763.5 492H841.5V540.25M763.5 492V540.25M763.5 492V471.5M763.5 540.25H841.5M763.5 471.5H841.5V429.25M763.5 471.5V429.25M763.5 387H841.5V429.25M763.5 387V429.25M763.5 387V348M763.5 429.25H841.5M763.5 348H841.5V306.5H763.5M763.5 348V306.5M61.5 676V650M61.5 650H6V542.5H61.5M61.5 650V542.5M61.5 542.5V482.5M61.5 433.5V359M61.5 359H6V294H61.5M61.5 359V294M61.5 294V200.5M61.5 200.5H6V89H61.5M61.5 200.5V89M61.5 89V63M61.5 63H122M61.5 63H49V14H134.5V63H122M624.5 111V87.5H642V111H624.5Z" stroke="#4548B7" stroke-width="3"/>
<g filter="url(#filter2_f_55_1154)">
<path d="M441 255H405V275M405 306.5V275M405 275H337M337 275V200.5H281.5M337 275H281.5M122 200.5H281.5M122 200.5V275H281.5M122 200.5V63M281.5 200.5V275M122 676V446.5M122 676H146.5V760H28.5V676H61.5M122 676H61.5M122 446.5V359H214.75M122 446.5H214.75M307.5 359V446.5H214.75M307.5 359H405M307.5 359H214.75M405 359V331.5M405 359V381H514.5V359M214.75 446.5V359M514.5 331.5V359M514.5 306.5V275M473 255H514.5V275M514.5 275H624.5V156.5H595.5M610 123.5H656.5V134M793 236.5H763.5V210M699.5 48.5V6H763.5V48.5M699.5 48.5H763.5M699.5 48.5H656.5V111H699.5M699.5 48.5V111M763.5 48.5H833.5V134H763.5M763.5 48.5V134M699.5 111V134M699.5 134H656.5M699.5 134V179.25M656.5 134V179.25M656.5 224.5V275H699.5V224.5M656.5 224.5H699.5M656.5 224.5V179.25M699.5 224.5V179.25M699.5 179.25H656.5M763.5 134V165.5M763.5 165.5H833.5V210H763.5M763.5 165.5V210M779 275H763.5V306.5M514.5 359H616V401.5M616 401.5V429H656.5V401.5M616 401.5H656.5M656.5 401.5V359H678M678 359H699.5V387M678 359V387H699.5M699.5 387V481.5M699.5 481.5H616V581.5H699.5M699.5 481.5V581.5M699.5 581.5V598H763.5V588.5M763.5 588.5H841.5V540.25M763.5 588.5V540.25M763.5 492H841.5V540.25M763.5 492V540.25M763.5 492V471.5M763.5 540.25H841.5M763.5 471.5H841.5V429.25M763.5 471.5V429.25M763.5 387H841.5V429.25M763.5 387V429.25M763.5 387V348M763.5 429.25H841.5M763.5 348H841.5V306.5H763.5M763.5 348V306.5M61.5 676V650M61.5 650H6V542.5H61.5M61.5 650V542.5M61.5 542.5V482.5M61.5 433.5V359M61.5 359H6V294H61.5M61.5 359V294M61.5 294V200.5M61.5 200.5H6V89H61.5M61.5 200.5V89M61.5 89V63M61.5 63H122M61.5 63H49V14H134.5V63H122M624.5 111V87.5H642V111H624.5Z" stroke="#E7E7FF" stroke-width="2"/>
</g>
<path d="M191.179 243.512C190.305 244.632 189.163 245.192 187.755 245.192C186.347 245.192 185.206 244.637 184.331 243.528C183.467 242.408 183.035 241.032 183.035 239.4C183.035 237.789 183.473 236.424 184.347 235.304C185.233 234.173 186.379 233.608 187.787 233.608C189.195 233.608 190.331 234.168 191.195 235.288C192.059 236.397 192.491 237.768 192.491 239.4C192.491 241.011 192.054 242.381 191.179 243.512ZM185.307 242.68C185.947 243.587 186.774 244.04 187.787 244.04C188.801 244.04 189.617 243.592 190.235 242.696C190.865 241.789 191.179 240.691 191.179 239.4C191.179 238.131 190.859 237.043 190.219 236.136C189.59 235.219 188.769 234.76 187.755 234.76C186.742 234.76 185.921 235.213 185.291 236.12C184.662 237.016 184.347 238.109 184.347 239.4C184.347 240.669 184.667 241.763 185.307 242.68ZM199.129 245.192C197.785 245.192 196.724 244.749 195.945 243.864C195.166 242.979 194.777 241.587 194.777 239.688C194.777 237.939 195.193 236.488 196.025 235.336C196.868 234.184 198.004 233.608 199.433 233.608C200.596 233.608 201.7 234.035 202.745 234.888L202.009 235.864C201.134 235.128 200.254 234.76 199.369 234.76C198.377 234.76 197.582 235.213 196.985 236.12C196.388 237.027 196.089 238.205 196.089 239.656V239.704C196.868 238.563 197.929 237.992 199.273 237.992C200.35 237.992 201.262 238.312 202.009 238.952C202.766 239.592 203.145 240.429 203.145 241.464C203.145 242.541 202.761 243.432 201.993 244.136C201.225 244.84 200.27 245.192 199.129 245.192ZM199.145 244.072C199.956 244.072 200.606 243.827 201.097 243.336C201.598 242.845 201.849 242.227 201.849 241.48C201.849 240.787 201.593 240.216 201.081 239.768C200.569 239.309 199.913 239.08 199.113 239.08C198.302 239.08 197.63 239.331 197.097 239.832C196.574 240.323 196.313 240.899 196.313 241.56C196.313 242.275 196.58 242.872 197.113 243.352C197.646 243.832 198.324 244.072 199.145 244.072ZM205.248 245V244.024L209.312 240.44C210.187 239.672 210.795 239.032 211.136 238.52C211.478 238.008 211.648 237.475 211.648 236.92C211.648 236.28 211.43 235.763 210.992 235.368C210.555 234.973 210.022 234.776 209.392 234.776C208.784 234.776 208.246 234.931 207.776 235.24C207.318 235.549 206.854 236.035 206.384 236.696L205.456 236.024C206 235.213 206.576 234.616 207.184 234.232C207.792 233.837 208.56 233.64 209.488 233.64C210.491 233.64 211.318 233.944 211.968 234.552C212.63 235.149 212.96 235.912 212.96 236.84C212.96 237.608 212.752 238.291 212.336 238.888C211.92 239.485 211.184 240.253 210.128 241.192L207.136 243.848H213.072V245H205.248ZM215.146 245V244.024L219.21 240.44C220.085 239.672 220.693 239.032 221.034 238.52C221.376 238.008 221.546 237.475 221.546 236.92C221.546 236.28 221.328 235.763 220.89 235.368C220.453 234.973 219.92 234.776 219.29 234.776C218.682 234.776 218.144 234.931 217.674 235.24C217.216 235.549 216.752 236.035 216.282 236.696L215.354 236.024C215.898 235.213 216.474 234.616 217.082 234.232C217.69 233.837 218.458 233.64 219.386 233.64C220.389 233.64 221.216 233.944 221.866 234.552C222.528 235.149 222.858 235.912 222.858 236.84C222.858 237.608 222.65 238.291 222.234 238.888C221.818 239.485 221.082 240.253 220.026 241.192L217.034 243.848H222.97V245H215.146Z" fill="#262626"/>
<path d="M82.6013 42.512C81.7266 43.632 80.5853 44.192 79.1773 44.192C77.7693 44.192 76.628 43.6373 75.7533 42.528C74.8893 41.408 74.4573 40.032 74.4573 38.4C74.4573 36.7893 74.8946 35.424 75.7693 34.304C76.6546 33.1733 77.8013 32.608 79.2093 32.608C80.6173 32.608 81.7533 33.168 82.6173 34.288C83.4813 35.3973 83.9133 36.768 83.9133 38.4C83.9133 40.0107 83.476 41.3813 82.6013 42.512ZM76.7293 41.68C77.3693 42.5867 78.196 43.04 79.2093 43.04C80.2226 43.04 81.0386 42.592 81.6573 41.696C82.2866 40.7893 82.6013 39.6907 82.6013 38.4C82.6013 37.1307 82.2813 36.0427 81.6413 35.136C81.012 34.2187 80.1906 33.76 79.1773 33.76C78.164 33.76 77.3426 34.2133 76.7133 35.12C76.084 36.016 75.7693 37.1093 75.7693 38.4C75.7693 39.6693 76.0893 40.7627 76.7293 41.68ZM90.5508 44.192C89.2068 44.192 88.1455 43.7493 87.3668 42.864C86.5881 41.9787 86.1988 40.5867 86.1988 38.688C86.1988 36.9387 86.6148 35.488 87.4468 34.336C88.2895 33.184 89.4255 32.608 90.8548 32.608C92.0175 32.608 93.1215 33.0347 94.1668 33.888L93.4308 34.864C92.5561 34.128 91.6761 33.76 90.7908 33.76C89.7988 33.76 89.0041 34.2133 88.4068 35.12C87.8095 36.0267 87.5108 37.2053 87.5108 38.656V38.704C88.2895 37.5627 89.3508 36.992 90.6948 36.992C91.7721 36.992 92.6841 37.312 93.4308 37.952C94.1881 38.592 94.5668 39.4293 94.5668 40.464C94.5668 41.5413 94.1828 42.432 93.4148 43.136C92.6468 43.84 91.6921 44.192 90.5508 44.192ZM90.5668 43.072C91.3775 43.072 92.0281 42.8267 92.5188 42.336C93.0201 41.8453 93.2708 41.2267 93.2708 40.48C93.2708 39.7867 93.0148 39.216 92.5028 38.768C91.9908 38.3093 91.3348 38.08 90.5348 38.08C89.7241 38.08 89.0521 38.3307 88.5188 38.832C87.9961 39.3227 87.7348 39.8987 87.7348 40.56C87.7348 41.2747 88.0015 41.872 88.5348 42.352C89.0681 42.832 89.7455 43.072 90.5668 43.072ZM96.6702 44V43.024L100.734 39.44C101.609 38.672 102.217 38.032 102.558 37.52C102.9 37.008 103.07 36.4747 103.07 35.92C103.07 35.28 102.852 34.7627 102.414 34.368C101.977 33.9733 101.444 33.776 100.814 33.776C100.206 33.776 99.6675 33.9307 99.1982 34.24C98.7395 34.5493 98.2755 35.0347 97.8062 35.696L96.8782 35.024C97.4222 34.2133 97.9982 33.616 98.6062 33.232C99.2142 32.8373 99.9822 32.64 100.91 32.64C101.913 32.64 102.74 32.944 103.39 33.552C104.052 34.1493 104.382 34.912 104.382 35.84C104.382 36.608 104.174 37.2907 103.758 37.888C103.342 38.4853 102.606 39.2533 101.55 40.192L98.5582 42.848H104.494V44H96.6702ZM108.664 44V34.032L106.552 34.688L106.248 33.664L108.984 32.72H109.912V44H108.664Z" fill="#262626"/>
<path d="M77.2576 723.512C76.3829 724.632 75.2416 725.192 73.8336 725.192C72.4256 725.192 71.2842 724.637 70.4096 723.528C69.5456 722.408 69.1136 721.032 69.1136 719.4C69.1136 717.789 69.5509 716.424 70.4256 715.304C71.3109 714.173 72.4576 713.608 73.8656 713.608C75.2736 713.608 76.4096 714.168 77.2736 715.288C78.1376 716.397 78.5696 717.768 78.5696 719.4C78.5696 721.011 78.1322 722.381 77.2576 723.512ZM71.3856 722.68C72.0256 723.587 72.8522 724.04 73.8656 724.04C74.8789 724.04 75.6949 723.592 76.3136 722.696C76.9429 721.789 77.2576 720.691 77.2576 719.4C77.2576 718.131 76.9376 717.043 76.2976 716.136C75.6682 715.219 74.8469 714.76 73.8336 714.76C72.8202 714.76 71.9989 715.213 71.3696 716.12C70.7402 717.016 70.4256 718.109 70.4256 719.4C70.4256 720.669 70.7456 721.763 71.3856 722.68ZM85.2071 725.192C83.8631 725.192 82.8017 724.749 82.0231 723.864C81.2444 722.979 80.8551 721.587 80.8551 719.688C80.8551 717.939 81.2711 716.488 82.1031 715.336C82.9457 714.184 84.0817 713.608 85.5111 713.608C86.6737 713.608 87.7777 714.035 88.8231 714.888L88.0871 715.864C87.2124 715.128 86.3324 714.76 85.4471 714.76C84.4551 714.76 83.6604 715.213 83.0631 716.12C82.4657 717.027 82.1671 718.205 82.1671 719.656V719.704C82.9457 718.563 84.0071 717.992 85.3511 717.992C86.4284 717.992 87.3404 718.312 88.0871 718.952C88.8444 719.592 89.2231 720.429 89.2231 721.464C89.2231 722.541 88.8391 723.432 88.0711 724.136C87.3031 724.84 86.3484 725.192 85.2071 725.192ZM85.2231 724.072C86.0337 724.072 86.6844 723.827 87.1751 723.336C87.6764 722.845 87.9271 722.227 87.9271 721.48C87.9271 720.787 87.6711 720.216 87.1591 719.768C86.6471 719.309 85.9911 719.08 85.1911 719.08C84.3804 719.08 83.7084 719.331 83.1751 719.832C82.6524 720.323 82.3911 720.899 82.3911 721.56C82.3911 722.275 82.6577 722.872 83.1911 723.352C83.7244 723.832 84.4017 724.072 85.2231 724.072ZM93.1568 725V715.032L91.0448 715.688L90.7408 714.664L93.4768 713.72H94.4048V725H93.1568ZM98.5392 725L103.595 714.952H97.4352V713.8H105.035V714.744L99.9472 725H98.5392Z" fill="#262626"/>
<path d="M159.344 407.512C158.469 408.632 157.328 409.192 155.92 409.192C154.512 409.192 153.37 408.637 152.496 407.528C151.632 406.408 151.2 405.032 151.2 403.4C151.2 401.789 151.637 400.424 152.512 399.304C153.397 398.173 154.544 397.608 155.952 397.608C157.36 397.608 158.496 398.168 159.36 399.288C160.224 400.397 160.656 401.768 160.656 403.4C160.656 405.011 160.218 406.381 159.344 407.512ZM153.472 406.68C154.112 407.587 154.938 408.04 155.952 408.04C156.965 408.04 157.781 407.592 158.4 406.696C159.029 405.789 159.344 404.691 159.344 403.4C159.344 402.131 159.024 401.043 158.384 400.136C157.754 399.219 156.933 398.76 155.92 398.76C154.906 398.76 154.085 399.213 153.456 400.12C152.826 401.016 152.512 402.109 152.512 403.4C152.512 404.669 152.832 405.763 153.472 406.68ZM167.293 409.192C165.949 409.192 164.888 408.749 164.109 407.864C163.33 406.979 162.941 405.587 162.941 403.688C162.941 401.939 163.357 400.488 164.189 399.336C165.032 398.184 166.168 397.608 167.597 397.608C168.76 397.608 169.864 398.035 170.909 398.888L170.173 399.864C169.298 399.128 168.418 398.76 167.533 398.76C166.541 398.76 165.746 399.213 165.149 400.12C164.552 401.027 164.253 402.205 164.253 403.656V403.704C165.032 402.563 166.093 401.992 167.437 401.992C168.514 401.992 169.426 402.312 170.173 402.952C170.93 403.592 171.309 404.429 171.309 405.464C171.309 406.541 170.925 407.432 170.157 408.136C169.389 408.84 168.434 409.192 167.293 409.192ZM167.309 408.072C168.12 408.072 168.77 407.827 169.261 407.336C169.762 406.845 170.013 406.227 170.013 405.48C170.013 404.787 169.757 404.216 169.245 403.768C168.733 403.309 168.077 403.08 167.277 403.08C166.466 403.08 165.794 403.331 165.261 403.832C164.738 404.323 164.477 404.899 164.477 405.56C164.477 406.275 164.744 406.872 165.277 407.352C165.81 407.832 166.488 408.072 167.309 408.072ZM175.243 409V399.032L173.131 399.688L172.827 398.664L175.563 397.72H176.491V409H175.243ZM183.761 409.192C182.417 409.192 181.356 408.749 180.577 407.864C179.798 406.979 179.409 405.587 179.409 403.688C179.409 401.939 179.825 400.488 180.657 399.336C181.5 398.184 182.636 397.608 184.065 397.608C185.228 397.608 186.332 398.035 187.377 398.888L186.641 399.864C185.766 399.128 184.886 398.76 184.001 398.76C183.009 398.76 182.214 399.213 181.617 400.12C181.02 401.027 180.721 402.205 180.721 403.656V403.704C181.5 402.563 182.561 401.992 183.905 401.992C184.982 401.992 185.894 402.312 186.641 402.952C187.398 403.592 187.777 404.429 187.777 405.464C187.777 406.541 187.393 407.432 186.625 408.136C185.857 408.84 184.902 409.192 183.761 409.192ZM183.777 408.072C184.588 408.072 185.238 407.827 185.729 407.336C186.23 406.845 186.481 406.227 186.481 405.48C186.481 404.787 186.225 404.216 185.713 403.768C185.201 403.309 184.545 403.08 183.745 403.08C182.934 403.08 182.262 403.331 181.729 403.832C181.206 404.323 180.945 404.899 180.945 405.56C180.945 406.275 181.212 406.872 181.745 407.352C182.278 407.832 182.956 408.072 183.777 408.072Z" fill="#262626"/>
<path d="M251.625 407.512C250.75 408.632 249.609 409.192 248.201 409.192C246.793 409.192 245.651 408.637 244.777 407.528C243.913 406.408 243.481 405.032 243.481 403.4C243.481 401.789 243.918 400.424 244.793 399.304C245.678 398.173 246.825 397.608 248.233 397.608C249.641 397.608 250.777 398.168 251.641 399.288C252.505 400.397 252.937 401.768 252.937 403.4C252.937 405.011 252.499 406.381 251.625 407.512ZM245.753 406.68C246.393 407.587 247.219 408.04 248.233 408.04C249.246 408.04 250.062 407.592 250.681 406.696C251.31 405.789 251.625 404.691 251.625 403.4C251.625 402.131 251.305 401.043 250.665 400.136C250.035 399.219 249.214 398.76 248.201 398.76C247.187 398.76 246.366 399.213 245.737 400.12C245.107 401.016 244.793 402.109 244.793 403.4C244.793 404.669 245.113 405.763 245.753 406.68ZM259.574 409.192C258.23 409.192 257.169 408.749 256.39 407.864C255.612 406.979 255.222 405.587 255.222 403.688C255.222 401.939 255.638 400.488 256.47 399.336C257.313 398.184 258.449 397.608 259.878 397.608C261.041 397.608 262.145 398.035 263.19 398.888L262.454 399.864C261.58 399.128 260.7 398.76 259.814 398.76C258.822 398.76 258.028 399.213 257.43 400.12C256.833 401.027 256.534 402.205 256.534 403.656V403.704C257.313 402.563 258.374 401.992 259.718 401.992C260.796 401.992 261.708 402.312 262.454 402.952C263.212 403.592 263.59 404.429 263.59 405.464C263.59 406.541 263.206 407.432 262.438 408.136C261.67 408.84 260.716 409.192 259.574 409.192ZM259.59 408.072C260.401 408.072 261.052 407.827 261.542 407.336C262.044 406.845 262.294 406.227 262.294 405.48C262.294 404.787 262.038 404.216 261.526 403.768C261.014 403.309 260.358 403.08 259.558 403.08C258.748 403.08 258.076 403.331 257.542 403.832C257.02 404.323 256.758 404.899 256.758 405.56C256.758 406.275 257.025 406.872 257.558 407.352C258.092 407.832 258.769 408.072 259.59 408.072ZM267.524 409V399.032L265.412 399.688L265.108 398.664L267.844 397.72H268.772V409H267.524ZM275.562 409.192C274.08 409.192 272.746 408.6 271.562 407.416L272.394 406.504C273.45 407.528 274.512 408.04 275.578 408.04C276.378 408.04 277.029 407.805 277.53 407.336C278.032 406.867 278.282 406.264 278.282 405.528C278.282 404.835 278.021 404.269 277.498 403.832C276.986 403.395 276.32 403.176 275.498 403.176C274.73 403.176 273.946 403.389 273.146 403.816L272.298 403.256L272.618 397.8H279.066V398.968H273.722L273.482 402.552C274.24 402.221 274.976 402.056 275.69 402.056C276.81 402.056 277.733 402.371 278.458 403C279.194 403.619 279.562 404.456 279.562 405.512C279.562 406.6 279.189 407.485 278.442 408.168C277.696 408.851 276.736 409.192 275.562 409.192Z" fill="#262626"/>
<path d="M432.463 324.128C431.961 324.128 431.476 324.037 431.007 323.856L431.263 322.832C431.497 322.939 431.828 322.992 432.255 322.992C432.468 322.992 432.66 322.96 432.831 322.896C433.001 322.821 433.204 322.629 433.439 322.32C433.673 322 433.865 321.568 434.015 321.024C434.164 320.469 434.292 319.664 434.399 318.608C434.516 317.541 434.575 316.283 434.575 314.832V312.8H441.823V324H440.559V313.952H435.791V315.168C435.791 316.683 435.727 317.995 435.599 319.104C435.481 320.213 435.321 321.088 435.119 321.728C434.927 322.357 434.676 322.859 434.367 323.232C434.068 323.605 433.769 323.851 433.471 323.968C433.183 324.075 432.847 324.128 432.463 324.128ZM445.095 324V315.728H446.327V322.272L451.239 315.728H452.439V324H451.207V317.456L446.279 324H445.095ZM460.485 326.56V323.328C459.823 323.893 459.135 324.176 458.421 324.176C457.418 324.176 456.607 323.792 455.989 323.024C455.37 322.245 455.061 321.184 455.061 319.84C455.061 318.517 455.37 317.472 455.989 316.704C456.607 315.936 457.418 315.552 458.421 315.552C459.135 315.552 459.823 315.851 460.485 316.448V312.8H461.733V316.448C462.394 315.851 463.082 315.552 463.797 315.552C464.81 315.552 465.626 315.941 466.245 316.72C466.863 317.488 467.173 318.539 467.173 319.872C467.173 321.195 466.858 322.245 466.229 323.024C465.61 323.792 464.799 324.176 463.797 324.176C463.338 324.176 462.959 324.107 462.661 323.968C462.373 323.819 462.063 323.605 461.733 323.328V326.56H460.485ZM458.677 323.088C459.37 323.088 459.973 322.816 460.485 322.272V317.472C459.973 316.928 459.37 316.656 458.677 316.656C457.909 316.656 457.327 316.944 456.933 317.52C456.538 318.096 456.341 318.891 456.341 319.904C456.341 322.027 457.119 323.088 458.677 323.088ZM463.557 323.088C465.114 323.088 465.893 322.016 465.893 319.872C465.893 318.869 465.695 318.085 465.301 317.52C464.906 316.944 464.325 316.656 463.557 316.656C462.863 316.656 462.255 316.928 461.733 317.472V322.272C462.255 322.816 462.863 323.088 463.557 323.088ZM471.798 324V316.816H468.838V315.728H476.006V316.816H473.046V324H471.798ZM478.118 324V315.728H479.35V318.832H481.558C482.518 318.832 483.302 319.04 483.91 319.456C484.518 319.861 484.822 320.48 484.822 321.312C484.822 322.133 484.539 322.789 483.974 323.28C483.408 323.76 482.651 324 481.702 324H478.118ZM479.35 322.912H481.59C482.219 322.912 482.704 322.779 483.046 322.512C483.398 322.245 483.574 321.856 483.574 321.344C483.574 320.875 483.392 320.517 483.03 320.272C482.678 320.016 482.182 319.888 481.542 319.888H479.35V322.912ZM486.31 324V315.728H487.542V324H486.31Z" fill="#262626"/>
<path d="M786.359 94.512C785.484 95.632 784.343 96.192 782.935 96.192C781.527 96.192 780.386 95.6373 779.511 94.528C778.647 93.408 778.215 92.032 778.215 90.4C778.215 88.7893 778.652 87.424 779.527 86.304C780.412 85.1733 781.559 84.608 782.967 84.608C784.375 84.608 785.511 85.168 786.375 86.288C787.239 87.3973 787.671 88.768 787.671 90.4C787.671 92.0107 787.234 93.3813 786.359 94.512ZM780.487 93.68C781.127 94.5867 781.954 95.04 782.967 95.04C783.98 95.04 784.796 94.592 785.415 93.696C786.044 92.7893 786.359 91.6907 786.359 90.4C786.359 89.1307 786.039 88.0427 785.399 87.136C784.77 86.2187 783.948 85.76 782.935 85.76C781.922 85.76 781.1 86.2133 780.471 87.12C779.842 88.016 779.527 89.1093 779.527 90.4C779.527 91.6693 779.847 92.7627 780.487 93.68ZM794.309 96.192C792.965 96.192 791.903 95.7493 791.125 94.864C790.346 93.9787 789.957 92.5867 789.957 90.688C789.957 88.9387 790.373 87.488 791.205 86.336C792.047 85.184 793.183 84.608 794.613 84.608C795.775 84.608 796.879 85.0347 797.925 85.888L797.189 86.864C796.314 86.128 795.434 85.76 794.549 85.76C793.557 85.76 792.762 86.2133 792.165 87.12C791.567 88.0267 791.269 89.2053 791.269 90.656V90.704C792.047 89.5627 793.109 88.992 794.453 88.992C795.53 88.992 796.442 89.312 797.189 89.952C797.946 90.592 798.325 91.4293 798.325 92.464C798.325 93.5413 797.941 94.432 797.173 95.136C796.405 95.84 795.45 96.192 794.309 96.192ZM794.325 95.072C795.135 95.072 795.786 94.8267 796.277 94.336C796.778 93.8453 797.029 93.2267 797.029 92.48C797.029 91.7867 796.773 91.216 796.261 90.768C795.749 90.3093 795.093 90.08 794.293 90.08C793.482 90.08 792.81 90.3307 792.277 90.832C791.754 91.3227 791.493 91.8987 791.493 92.56C791.493 93.2747 791.759 93.872 792.293 94.352C792.826 94.832 793.503 95.072 794.325 95.072ZM808.796 94.512C807.921 95.632 806.78 96.192 805.372 96.192C803.964 96.192 802.823 95.6373 801.948 94.528C801.084 93.408 800.652 92.032 800.652 90.4C800.652 88.7893 801.089 87.424 801.964 86.304C802.849 85.1733 803.996 84.608 805.404 84.608C806.812 84.608 807.948 85.168 808.812 86.288C809.676 87.3973 810.108 88.768 810.108 90.4C810.108 92.0107 809.671 93.3813 808.796 94.512ZM802.924 93.68C803.564 94.5867 804.391 95.04 805.404 95.04C806.417 95.04 807.233 94.592 807.852 93.696C808.481 92.7893 808.796 91.6907 808.796 90.4C808.796 89.1307 808.476 88.0427 807.836 87.136C807.207 86.2187 806.385 85.76 805.372 85.76C804.359 85.76 803.537 86.2133 802.908 87.12C802.279 88.016 801.964 89.1093 801.964 90.4C801.964 91.6693 802.284 92.7627 802.924 93.68ZM816.745 96.192C815.401 96.192 814.34 95.7493 813.561 94.864C812.783 93.9787 812.393 92.5867 812.393 90.688C812.393 88.9387 812.809 87.488 813.641 86.336C814.484 85.184 815.62 84.608 817.049 84.608C818.212 84.608 819.316 85.0347 820.361 85.888L819.625 86.864C818.751 86.128 817.871 85.76 816.985 85.76C815.993 85.76 815.199 86.2133 814.601 87.12C814.004 88.0267 813.705 89.2053 813.705 90.656V90.704C814.484 89.5627 815.545 88.992 816.889 88.992C817.967 88.992 818.879 89.312 819.625 89.952C820.383 90.592 820.762 91.4293 820.762 92.464C820.762 93.5413 820.378 94.432 819.609 95.136C818.841 95.84 817.887 96.192 816.745 96.192ZM816.761 95.072C817.572 95.072 818.223 94.8267 818.714 94.336C819.215 93.8453 819.465 93.2267 819.465 92.48C819.465 91.7867 819.209 91.216 818.697 90.768C818.185 90.3093 817.529 90.08 816.729 90.08C815.919 90.08 815.247 90.3307 814.713 90.832C814.191 91.3227 813.929 91.8987 813.929 92.56C813.929 93.2747 814.196 93.872 814.729 94.352C815.263 94.832 815.94 95.072 816.761 95.072Z" fill="#262626"/>
<path d="M786.508 191.512C785.633 192.632 784.492 193.192 783.084 193.192C781.676 193.192 780.534 192.637 779.66 191.528C778.796 190.408 778.364 189.032 778.364 187.4C778.364 185.789 778.801 184.424 779.676 183.304C780.561 182.173 781.708 181.608 783.116 181.608C784.524 181.608 785.66 182.168 786.524 183.288C787.388 184.397 787.82 185.768 787.82 187.4C787.82 189.011 787.382 190.381 786.508 191.512ZM780.636 190.68C781.276 191.587 782.102 192.04 783.116 192.04C784.129 192.04 784.945 191.592 785.564 190.696C786.193 189.789 786.508 188.691 786.508 187.4C786.508 186.131 786.188 185.043 785.548 184.136C784.918 183.219 784.097 182.76 783.084 182.76C782.07 182.76 781.249 183.213 780.62 184.12C779.99 185.016 779.676 186.109 779.676 187.4C779.676 188.669 779.996 189.763 780.636 190.68ZM794.457 193.192C793.113 193.192 792.052 192.749 791.273 191.864C790.494 190.979 790.105 189.587 790.105 187.688C790.105 185.939 790.521 184.488 791.353 183.336C792.196 182.184 793.332 181.608 794.761 181.608C795.924 181.608 797.028 182.035 798.073 182.888L797.337 183.864C796.462 183.128 795.582 182.76 794.697 182.76C793.705 182.76 792.91 183.213 792.313 184.12C791.716 185.027 791.417 186.205 791.417 187.656V187.704C792.196 186.563 793.257 185.992 794.601 185.992C795.678 185.992 796.59 186.312 797.337 186.952C798.094 187.592 798.473 188.429 798.473 189.464C798.473 190.541 798.089 191.432 797.321 192.136C796.553 192.84 795.598 193.192 794.457 193.192ZM794.473 192.072C795.284 192.072 795.934 191.827 796.425 191.336C796.926 190.845 797.177 190.227 797.177 189.48C797.177 188.787 796.921 188.216 796.409 187.768C795.897 187.309 795.241 187.08 794.441 187.08C793.63 187.08 792.958 187.331 792.425 187.832C791.902 188.323 791.641 188.899 791.641 189.56C791.641 190.275 791.908 190.872 792.441 191.352C792.974 191.832 793.652 192.072 794.473 192.072ZM808.944 191.512C808.07 192.632 806.928 193.192 805.52 193.192C804.112 193.192 802.971 192.637 802.096 191.528C801.232 190.408 800.8 189.032 800.8 187.4C800.8 185.789 801.238 184.424 802.112 183.304C802.998 182.173 804.144 181.608 805.552 181.608C806.96 181.608 808.096 182.168 808.96 183.288C809.824 184.397 810.256 185.768 810.256 187.4C810.256 189.011 809.819 190.381 808.944 191.512ZM803.072 190.68C803.712 191.587 804.539 192.04 805.552 192.04C806.566 192.04 807.382 191.592 808 190.696C808.63 189.789 808.944 188.691 808.944 187.4C808.944 186.131 808.624 185.043 807.984 184.136C807.355 183.219 806.534 182.76 805.52 182.76C804.507 182.76 803.686 183.213 803.056 184.12C802.427 185.016 802.112 186.109 802.112 187.4C802.112 188.669 802.432 189.763 803.072 190.68ZM813.289 193L818.345 182.952H812.185V181.8H819.785V182.744L814.697 193H813.289Z" fill="#262626"/>
<path d="M790.5 330.512C789.625 331.632 788.484 332.192 787.076 332.192C785.668 332.192 784.526 331.637 783.652 330.528C782.788 329.408 782.356 328.032 782.356 326.4C782.356 324.789 782.793 323.424 783.668 322.304C784.553 321.173 785.7 320.608 787.108 320.608C788.516 320.608 789.652 321.168 790.516 322.288C791.38 323.397 791.812 324.768 791.812 326.4C791.812 328.011 791.374 329.381 790.5 330.512ZM784.628 329.68C785.268 330.587 786.094 331.04 787.108 331.04C788.121 331.04 788.937 330.592 789.556 329.696C790.185 328.789 790.5 327.691 790.5 326.4C790.5 325.131 790.18 324.043 789.54 323.136C788.91 322.219 788.089 321.76 787.076 321.76C786.062 321.76 785.241 322.213 784.612 323.12C783.982 324.016 783.668 325.109 783.668 326.4C783.668 327.669 783.988 328.763 784.628 329.68ZM798.449 332.192C797.105 332.192 796.044 331.749 795.265 330.864C794.487 329.979 794.097 328.587 794.097 326.688C794.097 324.939 794.513 323.488 795.345 322.336C796.188 321.184 797.324 320.608 798.753 320.608C799.916 320.608 801.02 321.035 802.065 321.888L801.329 322.864C800.455 322.128 799.575 321.76 798.689 321.76C797.697 321.76 796.903 322.213 796.305 323.12C795.708 324.027 795.409 325.205 795.409 326.656V326.704C796.188 325.563 797.249 324.992 798.593 324.992C799.671 324.992 800.583 325.312 801.329 325.952C802.087 326.592 802.465 327.429 802.465 328.464C802.465 329.541 802.081 330.432 801.313 331.136C800.545 331.84 799.591 332.192 798.449 332.192ZM798.465 331.072C799.276 331.072 799.927 330.827 800.417 330.336C800.919 329.845 801.169 329.227 801.169 328.48C801.169 327.787 800.913 327.216 800.401 326.768C799.889 326.309 799.233 326.08 798.433 326.08C797.623 326.08 796.951 326.331 796.417 326.832C795.895 327.323 795.633 327.899 795.633 328.56C795.633 329.275 795.9 329.872 796.433 330.352C796.967 330.832 797.644 331.072 798.465 331.072ZM812.937 330.512C812.062 331.632 810.921 332.192 809.513 332.192C808.105 332.192 806.963 331.637 806.089 330.528C805.225 329.408 804.793 328.032 804.793 326.4C804.793 324.789 805.23 323.424 806.105 322.304C806.99 321.173 808.137 320.608 809.545 320.608C810.953 320.608 812.089 321.168 812.953 322.288C813.817 323.397 814.249 324.768 814.249 326.4C814.249 328.011 813.811 329.381 812.937 330.512ZM807.065 329.68C807.705 330.587 808.531 331.04 809.545 331.04C810.558 331.04 811.374 330.592 811.993 329.696C812.622 328.789 812.937 327.691 812.937 326.4C812.937 325.131 812.617 324.043 811.977 323.136C811.347 322.219 810.526 321.76 809.513 321.76C808.499 321.76 807.678 322.213 807.049 323.12C806.419 324.016 806.105 325.109 806.105 326.4C806.105 327.669 806.425 328.763 807.065 329.68ZM823.606 331.28C822.806 331.867 821.803 332.16 820.598 332.16C819.393 332.16 818.39 331.861 817.59 331.264C816.79 330.667 816.39 329.899 816.39 328.96C816.39 328.32 816.598 327.765 817.014 327.296C817.43 326.827 817.99 326.464 818.694 326.208C817.414 325.621 816.774 324.752 816.774 323.6C816.774 322.757 817.147 322.053 817.894 321.488C818.651 320.923 819.553 320.64 820.598 320.64C821.643 320.64 822.539 320.923 823.286 321.488C824.043 322.053 824.422 322.768 824.422 323.632C824.422 324.763 823.782 325.621 822.502 326.208C824.038 326.784 824.806 327.707 824.806 328.976C824.806 329.915 824.406 330.683 823.606 331.28ZM818.774 325.184C819.265 325.568 819.873 325.76 820.598 325.76C821.323 325.76 821.931 325.568 822.422 325.184C822.913 324.8 823.158 324.299 823.158 323.68C823.158 323.125 822.913 322.667 822.422 322.304C821.931 321.931 821.323 321.744 820.598 321.744C819.862 321.744 819.249 321.931 818.758 322.304C818.278 322.667 818.038 323.136 818.038 323.712C818.038 324.309 818.283 324.8 818.774 325.184ZM818.454 330.448C818.987 330.853 819.702 331.056 820.598 331.056C821.494 331.056 822.203 330.853 822.726 330.448C823.259 330.043 823.526 329.536 823.526 328.928C823.526 328.309 823.243 327.803 822.678 327.408C822.113 327.003 821.419 326.8 820.598 326.8C819.766 326.8 819.067 327.003 818.502 327.408C817.947 327.813 817.67 328.331 817.67 328.96C817.67 329.547 817.931 330.043 818.454 330.448Z" fill="#262626"/>
<path d="M790.359 412.512C789.484 413.632 788.343 414.192 786.935 414.192C785.527 414.192 784.386 413.637 783.511 412.528C782.647 411.408 782.215 410.032 782.215 408.4C782.215 406.789 782.652 405.424 783.527 404.304C784.412 403.173 785.559 402.608 786.967 402.608C788.375 402.608 789.511 403.168 790.375 404.288C791.239 405.397 791.671 406.768 791.671 408.4C791.671 410.011 791.234 411.381 790.359 412.512ZM784.487 411.68C785.127 412.587 785.954 413.04 786.967 413.04C787.98 413.04 788.796 412.592 789.415 411.696C790.044 410.789 790.359 409.691 790.359 408.4C790.359 407.131 790.039 406.043 789.399 405.136C788.77 404.219 787.948 403.76 786.935 403.76C785.922 403.76 785.1 404.213 784.471 405.12C783.842 406.016 783.527 407.109 783.527 408.4C783.527 409.669 783.847 410.763 784.487 411.68ZM798.309 414.192C796.965 414.192 795.903 413.749 795.125 412.864C794.346 411.979 793.957 410.587 793.957 408.688C793.957 406.939 794.373 405.488 795.205 404.336C796.047 403.184 797.183 402.608 798.613 402.608C799.775 402.608 800.879 403.035 801.925 403.888L801.189 404.864C800.314 404.128 799.434 403.76 798.549 403.76C797.557 403.76 796.762 404.213 796.165 405.12C795.567 406.027 795.269 407.205 795.269 408.656V408.704C796.047 407.563 797.109 406.992 798.453 406.992C799.53 406.992 800.442 407.312 801.189 407.952C801.946 408.592 802.325 409.429 802.325 410.464C802.325 411.541 801.941 412.432 801.173 413.136C800.405 413.84 799.45 414.192 798.309 414.192ZM798.325 413.072C799.135 413.072 799.786 412.827 800.277 412.336C800.778 411.845 801.029 411.227 801.029 410.48C801.029 409.787 800.773 409.216 800.261 408.768C799.749 408.309 799.093 408.08 798.293 408.08C797.482 408.08 796.81 408.331 796.277 408.832C795.754 409.323 795.493 409.899 795.493 410.56C795.493 411.275 795.759 411.872 796.293 412.352C796.826 412.832 797.503 413.072 798.325 413.072ZM812.796 412.512C811.921 413.632 810.78 414.192 809.372 414.192C807.964 414.192 806.823 413.637 805.948 412.528C805.084 411.408 804.652 410.032 804.652 408.4C804.652 406.789 805.089 405.424 805.964 404.304C806.849 403.173 807.996 402.608 809.404 402.608C810.812 402.608 811.948 403.168 812.812 404.288C813.676 405.397 814.108 406.768 814.108 408.4C814.108 410.011 813.671 411.381 812.796 412.512ZM806.924 411.68C807.564 412.587 808.391 413.04 809.404 413.04C810.417 413.04 811.233 412.592 811.852 411.696C812.481 410.789 812.796 409.691 812.796 408.4C812.796 407.131 812.476 406.043 811.836 405.136C811.207 404.219 810.385 403.76 809.372 403.76C808.359 403.76 807.537 404.213 806.908 405.12C806.279 406.016 805.964 407.109 805.964 408.4C805.964 409.669 806.284 410.763 806.924 411.68ZM820.137 414.192C818.943 414.192 817.791 413.733 816.681 412.816L817.417 411.84C818.324 412.64 819.241 413.04 820.169 413.04C821.161 413.04 821.961 412.597 822.569 411.712C823.188 410.816 823.497 409.669 823.497 408.272V408.128C822.751 409.323 821.695 409.92 820.329 409.92C819.177 409.92 818.239 409.595 817.513 408.944C816.788 408.283 816.425 407.44 816.425 406.416C816.425 405.339 816.804 404.437 817.561 403.712C818.319 402.976 819.284 402.608 820.457 402.608C821.78 402.608 822.831 403.051 823.609 403.936C824.399 404.821 824.793 406.219 824.793 408.128C824.793 409.909 824.361 411.365 823.497 412.496C822.633 413.627 821.513 414.192 820.137 414.192ZM820.473 408.832C821.295 408.832 821.961 408.576 822.473 408.064C822.996 407.552 823.257 406.955 823.257 406.272C823.257 405.547 822.991 404.944 822.457 404.464C821.924 403.973 821.241 403.728 820.409 403.728C819.599 403.728 818.948 403.989 818.457 404.512C817.967 405.024 817.721 405.648 817.721 406.384C817.721 407.099 817.977 407.685 818.489 408.144C819.001 408.603 819.663 408.832 820.473 408.832Z" fill="#262626"/>
<path d="M792.304 454.512C791.43 455.632 790.288 456.192 788.88 456.192C787.472 456.192 786.331 455.637 785.456 454.528C784.592 453.408 784.16 452.032 784.16 450.4C784.16 448.789 784.598 447.424 785.472 446.304C786.358 445.173 787.504 444.608 788.912 444.608C790.32 444.608 791.456 445.168 792.32 446.288C793.184 447.397 793.616 448.768 793.616 450.4C793.616 452.011 793.179 453.381 792.304 454.512ZM786.432 453.68C787.072 454.587 787.899 455.04 788.912 455.04C789.926 455.04 790.742 454.592 791.36 453.696C791.99 452.789 792.304 451.691 792.304 450.4C792.304 449.131 791.984 448.043 791.344 447.136C790.715 446.219 789.894 445.76 788.88 445.76C787.867 445.76 787.046 446.213 786.416 447.12C785.787 448.016 785.472 449.109 785.472 450.4C785.472 451.669 785.792 452.763 786.432 453.68ZM800.254 456.192C798.91 456.192 797.849 455.749 797.07 454.864C796.291 453.979 795.902 452.587 795.902 450.688C795.902 448.939 796.318 447.488 797.15 446.336C797.993 445.184 799.129 444.608 800.558 444.608C801.721 444.608 802.825 445.035 803.87 445.888L803.134 446.864C802.259 446.128 801.379 445.76 800.494 445.76C799.502 445.76 798.707 446.213 798.11 447.12C797.513 448.027 797.214 449.205 797.214 450.656V450.704C797.993 449.563 799.054 448.992 800.398 448.992C801.475 448.992 802.387 449.312 803.134 449.952C803.891 450.592 804.27 451.429 804.27 452.464C804.27 453.541 803.886 454.432 803.118 455.136C802.35 455.84 801.395 456.192 800.254 456.192ZM800.27 455.072C801.081 455.072 801.731 454.827 802.222 454.336C802.723 453.845 802.974 453.227 802.974 452.48C802.974 451.787 802.718 451.216 802.206 450.768C801.694 450.309 801.038 450.08 800.238 450.08C799.427 450.08 798.755 450.331 798.222 450.832C797.699 451.323 797.438 451.899 797.438 452.56C797.438 453.275 797.705 453.872 798.238 454.352C798.771 454.832 799.449 455.072 800.27 455.072ZM808.204 456V446.032L806.092 446.688L805.788 445.664L808.524 444.72H809.452V456H808.204ZM820.53 454.512C819.655 455.632 818.514 456.192 817.106 456.192C815.698 456.192 814.557 455.637 813.682 454.528C812.818 453.408 812.386 452.032 812.386 450.4C812.386 448.789 812.823 447.424 813.698 446.304C814.583 445.173 815.73 444.608 817.138 444.608C818.546 444.608 819.682 445.168 820.546 446.288C821.41 447.397 821.842 448.768 821.842 450.4C821.842 452.011 821.405 453.381 820.53 454.512ZM814.658 453.68C815.298 454.587 816.125 455.04 817.138 455.04C818.151 455.04 818.967 454.592 819.586 453.696C820.215 452.789 820.53 451.691 820.53 450.4C820.53 449.131 820.21 448.043 819.57 447.136C818.941 446.219 818.119 445.76 817.106 445.76C816.093 445.76 815.271 446.213 814.642 447.12C814.013 448.016 813.698 449.109 813.698 450.4C813.698 451.669 814.018 452.763 814.658 453.68Z" fill="#262626"/>
<path d="M795.156 519.512C794.281 520.632 793.14 521.192 791.732 521.192C790.324 521.192 789.183 520.637 788.308 519.528C787.444 518.408 787.012 517.032 787.012 515.4C787.012 513.789 787.449 512.424 788.324 511.304C789.209 510.173 790.356 509.608 791.764 509.608C793.172 509.608 794.308 510.168 795.172 511.288C796.036 512.397 796.468 513.768 796.468 515.4C796.468 517.011 796.031 518.381 795.156 519.512ZM789.284 518.68C789.924 519.587 790.751 520.04 791.764 520.04C792.777 520.04 793.593 519.592 794.212 518.696C794.841 517.789 795.156 516.691 795.156 515.4C795.156 514.131 794.836 513.043 794.196 512.136C793.567 511.219 792.745 510.76 791.732 510.76C790.719 510.76 789.897 511.213 789.268 512.12C788.639 513.016 788.324 514.109 788.324 515.4C788.324 516.669 788.644 517.763 789.284 518.68ZM803.106 521.192C801.762 521.192 800.7 520.749 799.922 519.864C799.143 518.979 798.754 517.587 798.754 515.688C798.754 513.939 799.17 512.488 800.002 511.336C800.844 510.184 801.98 509.608 803.41 509.608C804.572 509.608 805.676 510.035 806.722 510.888L805.986 511.864C805.111 511.128 804.231 510.76 803.346 510.76C802.354 510.76 801.559 511.213 800.962 512.12C800.364 513.027 800.066 514.205 800.066 515.656V515.704C800.844 514.563 801.906 513.992 803.25 513.992C804.327 513.992 805.239 514.312 805.986 514.952C806.743 515.592 807.122 516.429 807.122 517.464C807.122 518.541 806.738 519.432 805.97 520.136C805.202 520.84 804.247 521.192 803.106 521.192ZM803.122 520.072C803.932 520.072 804.583 519.827 805.074 519.336C805.575 518.845 805.826 518.227 805.826 517.48C805.826 516.787 805.57 516.216 805.058 515.768C804.546 515.309 803.89 515.08 803.09 515.08C802.279 515.08 801.607 515.331 801.074 515.832C800.551 516.323 800.29 516.899 800.29 517.56C800.29 518.275 800.556 518.872 801.09 519.352C801.623 519.832 802.3 520.072 803.122 520.072ZM811.055 521V511.032L808.943 511.688L808.639 510.664L811.375 509.72H812.303V521H811.055ZM817.11 521V511.032L814.998 511.688L814.694 510.664L817.43 509.72H818.358V521H817.11Z" fill="#262626"/>
<path d="M649.617 536.512C648.742 537.632 647.601 538.192 646.193 538.192C644.785 538.192 643.644 537.637 642.769 536.528C641.905 535.408 641.473 534.032 641.473 532.4C641.473 530.789 641.91 529.424 642.785 528.304C643.67 527.173 644.817 526.608 646.225 526.608C647.633 526.608 648.769 527.168 649.633 528.288C650.497 529.397 650.929 530.768 650.929 532.4C650.929 534.011 650.492 535.381 649.617 536.512ZM643.745 535.68C644.385 536.587 645.212 537.04 646.225 537.04C647.238 537.04 648.054 536.592 648.673 535.696C649.302 534.789 649.617 533.691 649.617 532.4C649.617 531.131 649.297 530.043 648.657 529.136C648.028 528.219 647.206 527.76 646.193 527.76C645.18 527.76 644.358 528.213 643.729 529.12C643.1 530.016 642.785 531.109 642.785 532.4C642.785 533.669 643.105 534.763 643.745 535.68ZM657.566 538.192C656.222 538.192 655.161 537.749 654.382 536.864C653.604 535.979 653.214 534.587 653.214 532.688C653.214 530.939 653.63 529.488 654.462 528.336C655.305 527.184 656.441 526.608 657.87 526.608C659.033 526.608 660.137 527.035 661.182 527.888L660.446 528.864C659.572 528.128 658.692 527.76 657.806 527.76C656.814 527.76 656.02 528.213 655.422 529.12C654.825 530.027 654.526 531.205 654.526 532.656V532.704C655.305 531.563 656.366 530.992 657.71 530.992C658.788 530.992 659.7 531.312 660.446 531.952C661.204 532.592 661.582 533.429 661.582 534.464C661.582 535.541 661.198 536.432 660.43 537.136C659.662 537.84 658.708 538.192 657.566 538.192ZM657.582 537.072C658.393 537.072 659.044 536.827 659.534 536.336C660.036 535.845 660.286 535.227 660.286 534.48C660.286 533.787 660.03 533.216 659.518 532.768C659.006 532.309 658.35 532.08 657.55 532.08C656.74 532.08 656.068 532.331 655.534 532.832C655.012 533.323 654.75 533.899 654.75 534.56C654.75 535.275 655.017 535.872 655.55 536.352C656.084 536.832 656.761 537.072 657.582 537.072ZM665.516 538V528.032L663.404 528.688L663.1 527.664L665.836 526.72H666.764V538H665.516ZM673.683 538.192C671.923 538.192 670.531 537.525 669.507 536.192L670.419 535.376C671.325 536.485 672.419 537.04 673.699 537.04C674.392 537.04 674.973 536.837 675.443 536.432C675.912 536.027 676.147 535.493 676.147 534.832C676.147 534.149 675.859 533.621 675.283 533.248C674.707 532.864 673.949 532.672 673.011 532.672H672.291L672.035 531.92L675.571 527.936H670.099V526.8H677.251V527.728L673.731 531.632C674.797 531.717 675.677 532.027 676.371 532.56C677.075 533.083 677.427 533.835 677.427 534.816C677.427 535.797 677.064 536.608 676.339 537.248C675.624 537.877 674.739 538.192 673.683 538.192Z" fill="#262626"/>
<path d="M793.234 567.512C792.359 568.632 791.218 569.192 789.81 569.192C788.402 569.192 787.261 568.637 786.386 567.528C785.522 566.408 785.09 565.032 785.09 563.4C785.09 561.789 785.527 560.424 786.402 559.304C787.287 558.173 788.434 557.608 789.842 557.608C791.25 557.608 792.386 558.168 793.25 559.288C794.114 560.397 794.546 561.768 794.546 563.4C794.546 565.011 794.109 566.381 793.234 567.512ZM787.362 566.68C788.002 567.587 788.829 568.04 789.842 568.04C790.855 568.04 791.671 567.592 792.29 566.696C792.919 565.789 793.234 564.691 793.234 563.4C793.234 562.131 792.914 561.043 792.274 560.136C791.645 559.219 790.823 558.76 789.81 558.76C788.797 558.76 787.975 559.213 787.346 560.12C786.717 561.016 786.402 562.109 786.402 563.4C786.402 564.669 786.722 565.763 787.362 566.68ZM801.184 569.192C799.84 569.192 798.778 568.749 798 567.864C797.221 566.979 796.832 565.587 796.832 563.688C796.832 561.939 797.248 560.488 798.08 559.336C798.922 558.184 800.058 557.608 801.488 557.608C802.65 557.608 803.754 558.035 804.8 558.888L804.064 559.864C803.189 559.128 802.309 558.76 801.424 558.76C800.432 558.76 799.637 559.213 799.04 560.12C798.442 561.027 798.144 562.205 798.144 563.656V563.704C798.922 562.563 799.984 561.992 801.328 561.992C802.405 561.992 803.317 562.312 804.064 562.952C804.821 563.592 805.2 564.429 805.2 565.464C805.2 566.541 804.816 567.432 804.048 568.136C803.28 568.84 802.325 569.192 801.184 569.192ZM801.2 568.072C802.01 568.072 802.661 567.827 803.152 567.336C803.653 566.845 803.904 566.227 803.904 565.48C803.904 564.787 803.648 564.216 803.136 563.768C802.624 563.309 801.968 563.08 801.168 563.08C800.357 563.08 799.685 563.331 799.152 563.832C798.629 564.323 798.368 564.899 798.368 565.56C798.368 566.275 798.634 566.872 799.168 567.352C799.701 567.832 800.378 568.072 801.2 568.072ZM809.133 569V559.032L807.021 559.688L806.717 558.664L809.453 557.72H810.381V569H809.133ZM813.092 569V568.024L817.156 564.44C818.03 563.672 818.638 563.032 818.98 562.52C819.321 562.008 819.492 561.475 819.492 560.92C819.492 560.28 819.273 559.763 818.836 559.368C818.398 558.973 817.865 558.776 817.236 558.776C816.628 558.776 816.089 558.931 815.62 559.24C815.161 559.549 814.697 560.035 814.228 560.696L813.3 560.024C813.844 559.213 814.42 558.616 815.028 558.232C815.636 557.837 816.404 557.64 817.332 557.64C818.334 557.64 819.161 557.944 819.812 558.552C820.473 559.149 820.804 559.912 820.804 560.84C820.804 561.608 820.596 562.291 820.18 562.888C819.764 563.485 819.028 564.253 817.972 565.192L814.98 567.848H820.916V569H813.092Z" fill="#262626"/>
<path d="M718.172 31.512C717.297 32.632 716.156 33.192 714.748 33.192C713.34 33.192 712.198 32.6373 711.324 31.528C710.46 30.408 710.028 29.032 710.028 27.4C710.028 25.7893 710.465 24.424 711.34 23.304C712.225 22.1733 713.372 21.608 714.78 21.608C716.188 21.608 717.324 22.168 718.188 23.288C719.052 24.3973 719.484 25.768 719.484 27.4C719.484 29.0107 719.046 30.3813 718.172 31.512ZM712.3 30.68C712.94 31.5867 713.766 32.04 714.78 32.04C715.793 32.04 716.609 31.592 717.228 30.696C717.857 29.7893 718.172 28.6907 718.172 27.4C718.172 26.1307 717.852 25.0427 717.212 24.136C716.582 23.2187 715.761 22.76 714.748 22.76C713.734 22.76 712.913 23.2133 712.284 24.12C711.654 25.016 711.34 26.1093 711.34 27.4C711.34 28.6693 711.66 29.7627 712.3 30.68ZM726.121 33.192C724.777 33.192 723.716 32.7493 722.937 31.864C722.158 30.9787 721.769 29.5867 721.769 27.688C721.769 25.9387 722.185 24.488 723.017 23.336C723.86 22.184 724.996 21.608 726.425 21.608C727.588 21.608 728.692 22.0347 729.737 22.888L729.001 23.864C728.126 23.128 727.246 22.76 726.361 22.76C725.369 22.76 724.574 23.2133 723.977 24.12C723.38 25.0267 723.081 26.2053 723.081 27.656V27.704C723.86 26.5627 724.921 25.992 726.265 25.992C727.342 25.992 728.254 26.312 729.001 26.952C729.758 27.592 730.137 28.4293 730.137 29.464C730.137 30.5413 729.753 31.432 728.985 32.136C728.217 32.84 727.262 33.192 726.121 33.192ZM726.137 32.072C726.948 32.072 727.598 31.8267 728.089 31.336C728.59 30.8453 728.841 30.2267 728.841 29.48C728.841 28.7867 728.585 28.216 728.073 27.768C727.561 27.3093 726.905 27.08 726.105 27.08C725.294 27.08 724.622 27.3307 724.089 27.832C723.566 28.3227 723.305 28.8987 723.305 29.56C723.305 30.2747 723.572 30.872 724.105 31.352C724.638 31.832 725.316 32.072 726.137 32.072ZM740.609 31.512C739.734 32.632 738.593 33.192 737.185 33.192C735.777 33.192 734.635 32.6373 733.76 31.528C732.896 30.408 732.464 29.032 732.464 27.4C732.464 25.7893 732.902 24.424 733.776 23.304C734.662 22.1733 735.809 21.608 737.217 21.608C738.625 21.608 739.761 22.168 740.625 23.288C741.489 24.3973 741.921 25.768 741.921 27.4C741.921 29.0107 741.483 30.3813 740.609 31.512ZM734.737 30.68C735.376 31.5867 736.203 32.04 737.217 32.04C738.23 32.04 739.046 31.592 739.665 30.696C740.294 29.7893 740.609 28.6907 740.609 27.4C740.609 26.1307 740.289 25.0427 739.649 24.136C739.019 23.2187 738.198 22.76 737.185 22.76C736.171 22.76 735.35 23.2133 734.72 24.12C734.091 25.016 733.776 26.1093 733.776 27.4C733.776 28.6693 734.096 29.7627 734.737 30.68ZM750.142 33V30.344H744.238L743.918 29.432L750.254 21.72H751.358V29.288H753.102V30.344H751.358V33H750.142ZM745.438 29.288H750.142V23.512L745.438 29.288Z" fill="#262626"/>
<path d="M682.012 93.2893C683.132 94.164 683.692 95.3053 683.692 96.7133C683.692 98.1213 683.137 99.2626 682.028 100.137C680.908 101.001 679.532 101.433 677.9 101.433C676.289 101.433 674.924 100.996 673.804 100.121C672.673 99.236 672.108 98.0893 672.108 96.6813C672.108 95.2733 672.668 94.1373 673.788 93.2733C674.897 92.4093 676.268 91.9773 677.9 91.9773C679.511 91.9773 680.881 92.4146 682.012 93.2893ZM681.18 99.1613C682.087 98.5213 682.54 97.6946 682.54 96.6813C682.54 95.668 682.092 94.852 681.196 94.2333C680.289 93.604 679.191 93.2893 677.9 93.2893C676.631 93.2893 675.543 93.6093 674.636 94.2493C673.719 94.8786 673.26 95.7 673.26 96.7133C673.26 97.7266 673.713 98.548 674.62 99.1773C675.516 99.8066 676.609 100.121 677.9 100.121C679.169 100.121 680.263 99.8013 681.18 99.1613ZM683.692 85.3398C683.692 86.6838 683.249 87.7451 682.364 88.5238C681.479 89.3025 680.087 89.6918 678.188 89.6918C676.439 89.6918 674.988 89.2758 673.836 88.4438C672.684 87.6011 672.108 86.4651 672.108 85.0358C672.108 83.8731 672.535 82.7691 673.388 81.7238L674.364 82.4598C673.628 83.3345 673.26 84.2145 673.26 85.0998C673.26 86.0918 673.713 86.8865 674.62 87.4838C675.527 88.0811 676.705 88.3798 678.156 88.3798H678.204C677.063 87.6011 676.492 86.5398 676.492 85.1958C676.492 84.1185 676.812 83.2065 677.452 82.4598C678.092 81.7025 678.929 81.3238 679.964 81.3238C681.041 81.3238 681.932 81.7078 682.636 82.4758C683.34 83.2438 683.692 84.1985 683.692 85.3398ZM682.572 85.3238C682.572 84.5131 682.327 83.8625 681.836 83.3718C681.345 82.8705 680.727 82.6198 679.98 82.6198C679.287 82.6198 678.716 82.8758 678.268 83.3878C677.809 83.8998 677.58 84.5558 677.58 85.3558C677.58 86.1665 677.831 86.8385 678.332 87.3718C678.823 87.8945 679.399 88.1558 680.06 88.1558C680.775 88.1558 681.372 87.8891 681.852 87.3558C682.332 86.8225 682.572 86.1451 682.572 85.3238ZM682.012 70.8524C683.132 71.7271 683.692 72.8684 683.692 74.2764C683.692 75.6844 683.137 76.8258 682.028 77.7004C680.908 78.5644 679.532 78.9964 677.9 78.9964C676.289 78.9964 674.924 78.5591 673.804 77.6844C672.673 76.7991 672.108 75.6524 672.108 74.2444C672.108 72.8364 672.668 71.7004 673.788 70.8364C674.897 69.9724 676.268 69.5404 677.9 69.5404C679.511 69.5404 680.881 69.9778 682.012 70.8524ZM681.18 76.7244C682.087 76.0844 682.54 75.2578 682.54 74.2444C682.54 73.2311 682.092 72.4151 681.196 71.7964C680.289 71.1671 679.191 70.8524 677.9 70.8524C676.631 70.8524 675.543 71.1724 674.636 71.8124C673.719 72.4418 673.26 73.2631 673.26 74.2764C673.26 75.2898 673.713 76.1111 674.62 76.7404C675.516 77.3698 676.609 77.6844 677.9 77.6844C679.169 77.6844 680.263 77.3644 681.18 76.7244ZM683.692 63.4112C683.692 65.1712 683.025 66.5632 681.692 67.5872L680.876 66.6752C681.985 65.7685 682.54 64.6752 682.54 63.3952C682.54 62.7019 682.337 62.1205 681.932 61.6512C681.527 61.1819 680.993 60.9472 680.332 60.9472C679.649 60.9472 679.121 61.2352 678.748 61.8112C678.364 62.3872 678.172 63.1445 678.172 64.0832V64.8032L677.42 65.0592L673.436 61.5232V66.9952H672.3V59.8432H673.228L677.132 63.3632C677.217 62.2965 677.527 61.4165 678.06 60.7232C678.583 60.0192 679.335 59.6672 680.316 59.6672C681.297 59.6672 682.108 60.0299 682.748 60.7552C683.377 61.4699 683.692 62.3552 683.692 63.4112Z" fill="#262626"/>
<path d="M38.512 159.75C39.632 160.625 40.192 161.766 40.192 163.174C40.192 164.582 39.6373 165.724 38.528 166.598C37.408 167.462 36.032 167.894 34.4 167.894C32.7893 167.894 31.424 167.457 30.304 166.582C29.1733 165.697 28.608 164.55 28.608 163.142C28.608 161.734 29.168 160.598 30.288 159.734C31.3973 158.87 32.768 158.438 34.4 158.438C36.0107 158.438 37.3813 158.876 38.512 159.75ZM37.68 165.622C38.5867 164.982 39.04 164.156 39.04 163.142C39.04 162.129 38.592 161.313 37.696 160.694C36.7893 160.065 35.6907 159.75 34.4 159.75C33.1307 159.75 32.0427 160.07 31.136 160.71C30.2187 161.34 29.76 162.161 29.76 163.174C29.76 164.188 30.2133 165.009 31.12 165.638C32.016 166.268 33.1093 166.582 34.4 166.582C35.6693 166.582 36.7627 166.262 37.68 165.622ZM40.192 151.801C40.192 153.145 39.7493 154.206 38.864 154.985C37.9787 155.763 36.5867 156.153 34.688 156.153C32.9387 156.153 31.488 155.737 30.336 154.905C29.184 154.062 28.608 152.926 28.608 151.497C28.608 150.334 29.0347 149.23 29.888 148.185L30.864 148.921C30.128 149.795 29.76 150.675 29.76 151.561C29.76 152.553 30.2133 153.347 31.12 153.945C32.0267 154.542 33.2053 154.841 34.656 154.841H34.704C33.5627 154.062 32.992 153.001 32.992 151.657C32.992 150.579 33.312 149.667 33.952 148.921C34.592 148.163 35.4293 147.785 36.464 147.785C37.5413 147.785 38.432 148.169 39.136 148.937C39.84 149.705 40.192 150.659 40.192 151.801ZM39.072 151.785C39.072 150.974 38.8267 150.323 38.336 149.833C37.8453 149.331 37.2267 149.081 36.48 149.081C35.7867 149.081 35.216 149.337 34.768 149.849C34.3093 150.361 34.08 151.017 34.08 151.817C34.08 152.627 34.3307 153.299 34.832 153.833C35.3227 154.355 35.8987 154.617 36.56 154.617C37.2747 154.617 37.872 154.35 38.352 153.817C38.832 153.283 39.072 152.606 39.072 151.785ZM40 145.681H39.024L35.44 141.617C34.672 140.743 34.032 140.135 33.52 139.793C33.008 139.452 32.4747 139.281 31.92 139.281C31.28 139.281 30.7627 139.5 30.368 139.937C29.9733 140.375 29.776 140.908 29.776 141.537C29.776 142.145 29.9307 142.684 30.24 143.153C30.5493 143.612 31.0347 144.076 31.696 144.545L31.024 145.473C30.2133 144.929 29.616 144.353 29.232 143.745C28.8373 143.137 28.64 142.369 28.64 141.441C28.64 140.439 28.944 139.612 29.552 138.961C30.1493 138.3 30.912 137.969 31.84 137.969C32.608 137.969 33.2907 138.177 33.888 138.593C34.4853 139.009 35.2533 139.745 36.192 140.801L38.848 143.793V137.857H40V145.681ZM38.512 127.415C39.632 128.29 40.192 129.431 40.192 130.839C40.192 132.247 39.6373 133.389 38.528 134.263C37.408 135.127 36.032 135.559 34.4 135.559C32.7893 135.559 31.424 135.122 30.304 134.247C29.1733 133.362 28.608 132.215 28.608 130.807C28.608 129.399 29.168 128.263 30.288 127.399C31.3973 126.535 32.768 126.103 34.4 126.103C36.0107 126.103 37.3813 126.541 38.512 127.415ZM37.68 133.287C38.5867 132.647 39.04 131.821 39.04 130.807C39.04 129.794 38.592 128.978 37.696 128.359C36.7893 127.73 35.6907 127.415 34.4 127.415C33.1307 127.415 32.0427 127.735 31.136 128.375C30.2187 129.005 29.76 129.826 29.76 130.839C29.76 131.853 30.2133 132.674 31.12 133.303C32.016 133.933 33.1093 134.247 34.4 134.247C35.6693 134.247 36.7627 133.927 37.68 133.287Z" fill="#262626"/>
<path d="M38.512 335.656C39.632 336.531 40.192 337.672 40.192 339.08C40.192 340.488 39.6373 341.63 38.528 342.504C37.408 343.368 36.032 343.8 34.4 343.8C32.7893 343.8 31.424 343.363 30.304 342.488C29.1733 341.603 28.608 340.456 28.608 339.048C28.608 337.64 29.168 336.504 30.288 335.64C31.3973 334.776 32.768 334.344 34.4 334.344C36.0107 334.344 37.3813 334.782 38.512 335.656ZM37.68 341.528C38.5867 340.888 39.04 340.062 39.04 339.048C39.04 338.035 38.592 337.219 37.696 336.6C36.7893 335.971 35.6907 335.656 34.4 335.656C33.1307 335.656 32.0427 335.976 31.136 336.616C30.2187 337.246 29.76 338.067 29.76 339.08C29.76 340.094 30.2133 340.915 31.12 341.544C32.016 342.174 33.1093 342.488 34.4 342.488C35.6693 342.488 36.7627 342.168 37.68 341.528ZM40.192 327.707C40.192 329.051 39.7493 330.112 38.864 330.891C37.9787 331.67 36.5867 332.059 34.688 332.059C32.9387 332.059 31.488 331.643 30.336 330.811C29.184 329.968 28.608 328.832 28.608 327.403C28.608 326.24 29.0347 325.136 29.888 324.091L30.864 324.827C30.128 325.702 29.76 326.582 29.76 327.467C29.76 328.459 30.2133 329.254 31.12 329.851C32.0267 330.448 33.2053 330.747 34.656 330.747H34.704C33.5627 329.968 32.992 328.907 32.992 327.563C32.992 326.486 33.312 325.574 33.952 324.827C34.592 324.07 35.4293 323.691 36.464 323.691C37.5413 323.691 38.432 324.075 39.136 324.843C39.84 325.611 40.192 326.566 40.192 327.707ZM39.072 327.691C39.072 326.88 38.8267 326.23 38.336 325.739C37.8453 325.238 37.2267 324.987 36.48 324.987C35.7867 324.987 35.216 325.243 34.768 325.755C34.3093 326.267 34.08 326.923 34.08 327.723C34.08 328.534 34.3307 329.206 34.832 329.739C35.3227 330.262 35.8987 330.523 36.56 330.523C37.2747 330.523 37.872 330.256 38.352 329.723C38.832 329.19 39.072 328.512 39.072 327.691ZM40 319.757H30.032L30.688 321.869L29.664 322.173L28.72 319.437V318.509H40V319.757ZM40.192 311.847C40.192 313.042 39.7333 314.194 38.816 315.303L37.84 314.567C38.64 313.66 39.04 312.743 39.04 311.815C39.04 310.823 38.5973 310.023 37.712 309.415C36.816 308.796 35.6693 308.487 34.272 308.487H34.128C35.3227 309.234 35.92 310.29 35.92 311.655C35.92 312.807 35.5947 313.746 34.944 314.471C34.2827 315.196 33.44 315.559 32.416 315.559C31.3387 315.559 30.4373 315.18 29.712 314.423C28.976 313.666 28.608 312.7 28.608 311.527C28.608 310.204 29.0507 309.154 29.936 308.375C30.8213 307.586 32.2187 307.191 34.128 307.191C35.9093 307.191 37.3653 307.623 38.496 308.487C39.6267 309.351 40.192 310.471 40.192 311.847ZM34.832 311.511C34.832 310.69 34.576 310.023 34.064 309.511C33.552 308.988 32.9547 308.727 32.272 308.727C31.5467 308.727 30.944 308.994 30.464 309.527C29.9733 310.06 29.728 310.743 29.728 311.575C29.728 312.386 29.9893 313.036 30.512 313.527C31.024 314.018 31.648 314.263 32.384 314.263C33.0987 314.263 33.6853 314.007 34.144 313.495C34.6027 312.983 34.832 312.322 34.832 311.511Z" fill="#262626"/>
<path d="M38.512 607.516C39.632 608.391 40.192 609.532 40.192 610.94C40.192 612.348 39.6373 613.489 38.528 614.364C37.408 615.228 36.032 615.66 34.4 615.66C32.7893 615.66 31.424 615.223 30.304 614.348C29.1733 613.463 28.608 612.316 28.608 610.908C28.608 609.5 29.168 608.364 30.288 607.5C31.3973 606.636 32.768 606.204 34.4 606.204C36.0107 606.204 37.3813 606.641 38.512 607.516ZM37.68 613.388C38.5867 612.748 39.04 611.921 39.04 610.908C39.04 609.895 38.592 609.079 37.696 608.46C36.7893 607.831 35.6907 607.516 34.4 607.516C33.1307 607.516 32.0427 607.836 31.136 608.476C30.2187 609.105 29.76 609.927 29.76 610.94C29.76 611.953 30.2133 612.775 31.12 613.404C32.016 614.033 33.1093 614.348 34.4 614.348C35.6693 614.348 36.7627 614.028 37.68 613.388ZM40.192 599.566C40.192 600.91 39.7493 601.972 38.864 602.75C37.9787 603.529 36.5867 603.918 34.688 603.918C32.9387 603.918 31.488 603.502 30.336 602.67C29.184 601.828 28.608 600.692 28.608 599.262C28.608 598.1 29.0347 596.996 29.888 595.95L30.864 596.686C30.128 597.561 29.76 598.441 29.76 599.326C29.76 600.318 30.2133 601.113 31.12 601.71C32.0267 602.308 33.2053 602.606 34.656 602.606H34.704C33.5627 601.828 32.992 600.766 32.992 599.422C32.992 598.345 33.312 597.433 33.952 596.686C34.592 595.929 35.4293 595.55 36.464 595.55C37.5413 595.55 38.432 595.934 39.136 596.702C39.84 597.47 40.192 598.425 40.192 599.566ZM39.072 599.55C39.072 598.74 38.8267 598.089 38.336 597.598C37.8453 597.097 37.2267 596.846 36.48 596.846C35.7867 596.846 35.216 597.102 34.768 597.614C34.3093 598.126 34.08 598.782 34.08 599.582C34.08 600.393 34.3307 601.065 34.832 601.598C35.3227 602.121 35.8987 602.382 36.56 602.382C37.2747 602.382 37.872 602.116 38.352 601.582C38.832 601.049 39.072 600.372 39.072 599.55ZM40 591.617H30.032L30.688 593.729L29.664 594.033L28.72 591.297V590.369H40V591.617ZM39.28 580.378C39.8667 581.178 40.16 582.181 40.16 583.386C40.16 584.592 39.8613 585.594 39.264 586.394C38.6667 587.194 37.8987 587.594 36.96 587.594C36.32 587.594 35.7653 587.386 35.296 586.97C34.8267 586.554 34.464 585.994 34.208 585.29C33.6213 586.57 32.752 587.21 31.6 587.21C30.7573 587.21 30.0533 586.837 29.488 586.09C28.9227 585.333 28.64 584.432 28.64 583.386C28.64 582.341 28.9227 581.445 29.488 580.698C30.0533 579.941 30.768 579.562 31.632 579.562C32.7627 579.562 33.6213 580.202 34.208 581.482C34.784 579.946 35.7067 579.178 36.976 579.178C37.9147 579.178 38.6827 579.578 39.28 580.378ZM33.184 585.21C33.568 584.72 33.76 584.112 33.76 583.386C33.76 582.661 33.568 582.053 33.184 581.562C32.8 581.072 32.2987 580.826 31.68 580.826C31.1253 580.826 30.6667 581.072 30.304 581.562C29.9307 582.053 29.744 582.661 29.744 583.386C29.744 584.122 29.9307 584.736 30.304 585.226C30.6667 585.706 31.136 585.946 31.712 585.946C32.3093 585.946 32.8 585.701 33.184 585.21ZM38.448 585.53C38.8533 584.997 39.056 584.282 39.056 583.386C39.056 582.49 38.8533 581.781 38.448 581.258C38.0427 580.725 37.536 580.458 36.928 580.458C36.3093 580.458 35.8027 580.741 35.408 581.306C35.0027 581.872 34.8 582.565 34.8 583.386C34.8 584.218 35.0027 584.917 35.408 585.482C35.8133 586.037 36.3307 586.314 36.96 586.314C37.5467 586.314 38.0427 586.053 38.448 585.53Z" fill="#262626"/>
<path d="M313.512 252.438C314.632 253.312 315.192 254.454 315.192 255.862C315.192 257.27 314.637 258.411 313.528 259.286C312.408 260.15 311.032 260.582 309.4 260.582C307.789 260.582 306.424 260.144 305.304 259.27C304.173 258.384 303.608 257.238 303.608 255.83C303.608 254.422 304.168 253.286 305.288 252.422C306.397 251.558 307.768 251.126 309.4 251.126C311.011 251.126 312.381 251.563 313.512 252.438ZM312.68 258.31C313.587 257.67 314.04 256.843 314.04 255.83C314.04 254.816 313.592 254 312.696 253.382C311.789 252.752 310.691 252.438 309.4 252.438C308.131 252.438 307.043 252.758 306.136 253.398C305.219 254.027 304.76 254.848 304.76 255.862C304.76 256.875 305.213 257.696 306.12 258.326C307.016 258.955 308.109 259.27 309.4 259.27C310.669 259.27 311.763 258.95 312.68 258.31ZM315.192 244.488C315.192 245.832 314.749 246.894 313.864 247.672C312.979 248.451 311.587 248.84 309.688 248.84C307.939 248.84 306.488 248.424 305.336 247.592C304.184 246.75 303.608 245.614 303.608 244.184C303.608 243.022 304.035 241.918 304.888 240.872L305.864 241.608C305.128 242.483 304.76 243.363 304.76 244.248C304.76 245.24 305.213 246.035 306.12 246.632C307.027 247.23 308.205 247.528 309.656 247.528H309.704C308.563 246.75 307.992 245.688 307.992 244.344C307.992 243.267 308.312 242.355 308.952 241.608C309.592 240.851 310.429 240.472 311.464 240.472C312.541 240.472 313.432 240.856 314.136 241.624C314.84 242.392 315.192 243.347 315.192 244.488ZM314.072 244.472C314.072 243.662 313.827 243.011 313.336 242.52C312.845 242.019 312.227 241.768 311.48 241.768C310.787 241.768 310.216 242.024 309.768 242.536C309.309 243.048 309.08 243.704 309.08 244.504C309.08 245.315 309.331 245.987 309.832 246.52C310.323 247.043 310.899 247.304 311.56 247.304C312.275 247.304 312.872 247.038 313.352 246.504C313.832 245.971 314.072 245.294 314.072 244.472ZM315 238.369H314.024L310.44 234.305C309.672 233.43 309.032 232.822 308.52 232.481C308.008 232.14 307.475 231.969 306.92 231.969C306.28 231.969 305.763 232.188 305.368 232.625C304.973 233.062 304.776 233.596 304.776 234.225C304.776 234.833 304.931 235.372 305.24 235.841C305.549 236.3 306.035 236.764 306.696 237.233L306.024 238.161C305.213 237.617 304.616 237.041 304.232 236.433C303.837 235.825 303.64 235.057 303.64 234.129C303.64 233.126 303.944 232.3 304.552 231.649C305.149 230.988 305.912 230.657 306.84 230.657C307.608 230.657 308.291 230.865 308.888 231.281C309.485 231.697 310.253 232.433 311.192 233.489L313.848 236.481V230.545H315V238.369ZM315.192 224.263C315.192 226.023 314.525 227.415 313.192 228.439L312.376 227.527C313.485 226.62 314.04 225.527 314.04 224.247C314.04 223.553 313.837 222.972 313.432 222.503C313.027 222.033 312.493 221.799 311.832 221.799C311.149 221.799 310.621 222.087 310.248 222.663C309.864 223.239 309.672 223.996 309.672 224.935V225.655L308.92 225.911L304.936 222.375V227.847H303.8V220.695H304.728L308.632 224.215C308.717 223.148 309.027 222.268 309.56 221.575C310.083 220.871 310.835 220.519 311.816 220.519C312.797 220.519 313.608 220.881 314.248 221.607C314.877 222.321 315.192 223.207 315.192 224.263Z" fill="#262626"/>
<defs>
<filter id="filter0_f_55_1154" x="5" y="5" width="837.5" height="756" filterUnits="userSpaceOnUse" color-interpolation-filters="sRGB">
<feFlood flood-opacity="0" result="BackgroundImageFix"/>
<feBlend mode="normal" in="SourceGraphic" in2="BackgroundImageFix" result="shape"/>
<feGaussianBlur stdDeviation="0.5" result="effect1_foregroundBlur_55_1154"/>
</filter>
<filter id="filter1_f_55_1154" x="0.5" y="0.5" width="846.5" height="765" filterUnits="userSpaceOnUse" color-interpolation-filters="sRGB">
<feFlood flood-opacity="0" result="BackgroundImageFix"/>
<feBlend mode="normal" in="SourceGraphic" in2="BackgroundImageFix" result="shape"/>
<feGaussianBlur stdDeviation="2" result="effect1_foregroundBlur_55_1154"/>
</filter>
<filter id="filter2_f_55_1154" x="4" y="4" width="839.5" height="758" filterUnits="userSpaceOnUse" color-interpolation-filters="sRGB">
<feFlood flood-opacity="0" result="BackgroundImageFix"/>
<feBlend mode="normal" in="SourceGraphic" in2="BackgroundImageFix" result="shape"/>
<feGaussianBlur stdDeviation="0.5" result="effect1_foregroundBlur_55_1154"/>
</filter>
</defs>
</svg>
