<svg width="715" height="349" viewBox="0 0 715 349" fill="none" xmlns="http://www.w3.org/2000/svg">
<g filter="url(#filter0_f_48_13)">
<path d="M49.5 106V6H220.5H352H434.5H604.5H703.5V106V176.5H709.5V277H611H465.5V265H460H434.5V286.5H408H234V278.5H214.5V316H138.5V345H72.5V294.5H6V257H72.5V247.5H6V208.5H72.5V196H6V119H72.5V106H49.5Z" fill="#F1F1FF" fill-opacity="0.2"/>
</g>
<g filter="url(#filter1_f_48_13)">
<path d="M220.5 6H49.5V106H72.5M220.5 6H352V60H282.5V106H273.5M220.5 6V106M220.5 106H72.5M220.5 106H273.5M72.5 106V119M72.5 345V294.5M138.5 345V316M408 286.5H234V165.5H138.5V191.5M138.5 191.5H172.5V210.5H138.5M138.5 191.5V210.5M138.5 210.5V231.5M138.5 231.5H172.5V250H138.5M138.5 231.5V250M138.5 250V278.5M138.5 278.5H214.5V316H138.5M138.5 278.5V316M72.5 119H6V196H72.5M72.5 119V196M72.5 196V208.5M72.5 294.5H6V257H72.5M72.5 294.5V257M72.5 257V247.5M72.5 247.5H6V208.5H72.5M72.5 247.5V208.5M273.5 106V137.5M273.5 165.5V239.5H389V146.5M389 128V106M389 102V106M389 106H434.5M434.5 106V6H604.5M434.5 106H604.5M604.5 106H703.5V6H604.5M604.5 106V6M434.5 176.5V198.5M434.5 286.5V265M434.5 265H460V239.5H434.5M434.5 265V239.5M434.5 239.5V223.5M434.5 223.5H460V198.5H434.5M434.5 223.5V198.5M611 176.5H709.5V277H611M611 176.5H465.5V277H611M611 176.5V277" stroke="#615FC5" stroke-width="3"/>
</g>
<path d="M220.5 6H49.5V106H72.5M220.5 6H352V60H282.5V106H273.5M220.5 6V106M220.5 106H72.5M220.5 106H273.5M72.5 106V119M72.5 345V294.5M138.5 345V316M408 286.5H234V165.5H138.5V191.5M138.5 191.5H172.5V210.5H138.5M138.5 191.5V210.5M138.5 210.5V231.5M138.5 231.5H172.5V250H138.5M138.5 231.5V250M138.5 250V278.5M138.5 278.5H214.5V316H138.5M138.5 278.5V316M72.5 119H6V196H72.5M72.5 119V196M72.5 196V208.5M72.5 294.5H6V257H72.5M72.5 294.5V257M72.5 257V247.5M72.5 247.5H6V208.5H72.5M72.5 247.5V208.5M273.5 106V137.5M273.5 165.5V239.5H389V146.5M389 128V106M389 102V106M389 106H434.5M434.5 106V6H604.5M434.5 106H604.5M604.5 106H703.5V6H604.5M604.5 106V6M434.5 176.5V198.5M434.5 286.5V265M434.5 265H460V239.5H434.5M434.5 265V239.5M434.5 239.5V223.5M434.5 223.5H460V198.5H434.5M434.5 223.5V198.5M611 176.5H709.5V277H611M611 176.5H465.5V277H611M611 176.5V277" stroke="#4548B7" stroke-width="3"/>
<g filter="url(#filter2_f_48_13)">
<path d="M220.5 6H49.5V106H72.5M220.5 6H352V60H282.5V106H273.5M220.5 6V106M220.5 106H72.5M220.5 106H273.5M72.5 106V119M72.5 345V294.5M138.5 345V316M408 286.5H234V165.5H138.5V191.5M138.5 191.5H172.5V210.5H138.5M138.5 191.5V210.5M138.5 210.5V231.5M138.5 231.5H172.5V250H138.5M138.5 231.5V250M138.5 250V278.5M138.5 278.5H214.5V316H138.5M138.5 278.5V316M72.5 119H6V196H72.5M72.5 119V196M72.5 196V208.5M72.5 294.5H6V257H72.5M72.5 294.5V257M72.5 257V247.5M72.5 247.5H6V208.5H72.5M72.5 247.5V208.5M273.5 106V137.5M273.5 165.5V239.5H389V146.5M389 128V106M389 102V106M389 106H434.5M434.5 106V6H604.5M434.5 106H604.5M604.5 106H703.5V6H604.5M604.5 106V6M434.5 176.5V198.5M434.5 286.5V265M434.5 265H460V239.5H434.5M434.5 265V239.5M434.5 239.5V223.5M434.5 223.5H460V198.5H434.5M434.5 223.5V198.5M611 176.5H709.5V277H611M611 176.5H465.5V277H611M611 176.5V277" stroke="#E7E7FF" stroke-width="2"/>
</g>
<path d="M26.2966 280.512C25.422 281.632 24.2806 282.192 22.8726 282.192C21.4646 282.192 20.3233 281.637 19.4486 280.528C18.5846 279.408 18.1526 278.032 18.1526 276.4C18.1526 274.789 18.59 273.424 19.4646 272.304C20.35 271.173 21.4966 270.608 22.9046 270.608C24.3126 270.608 25.4486 271.168 26.3126 272.288C27.1766 273.397 27.6086 274.768 27.6086 276.4C27.6086 278.011 27.1713 279.381 26.2966 280.512ZM20.4246 279.68C21.0646 280.587 21.8913 281.04 22.9046 281.04C23.918 281.04 24.734 280.592 25.3526 279.696C25.982 278.789 26.2966 277.691 26.2966 276.4C26.2966 275.131 25.9766 274.043 25.3366 273.136C24.7073 272.219 23.886 271.76 22.8726 271.76C21.8593 271.76 21.038 272.213 20.4086 273.12C19.7793 274.016 19.4646 275.109 19.4646 276.4C19.4646 277.669 19.7846 278.763 20.4246 279.68ZM29.5299 282V281.024L33.5939 277.44C34.4685 276.672 35.0765 276.032 35.4179 275.52C35.7592 275.008 35.9299 274.475 35.9299 273.92C35.9299 273.28 35.7112 272.763 35.2739 272.368C34.8365 271.973 34.3032 271.776 33.6739 271.776C33.0659 271.776 32.5272 271.931 32.0579 272.24C31.5992 272.549 31.1352 273.035 30.6659 273.696L29.7379 273.024C30.2819 272.213 30.8579 271.616 31.4659 271.232C32.0739 270.837 32.8419 270.64 33.7699 270.64C34.7725 270.64 35.5992 270.944 36.2499 271.552C36.9112 272.149 37.2419 272.912 37.2419 273.84C37.2419 274.608 37.0339 275.291 36.6179 275.888C36.2019 276.485 35.4659 277.253 34.4099 278.192L31.4179 280.848H37.3539V282H29.5299ZM47.796 280.512C46.9213 281.632 45.78 282.192 44.372 282.192C42.964 282.192 41.8227 281.637 40.948 280.528C40.084 279.408 39.652 278.032 39.652 276.4C39.652 274.789 40.0893 273.424 40.964 272.304C41.8493 271.173 42.996 270.608 44.404 270.608C45.812 270.608 46.948 271.168 47.812 272.288C48.676 273.397 49.108 274.768 49.108 276.4C49.108 278.011 48.6707 279.381 47.796 280.512ZM41.924 279.68C42.564 280.587 43.3907 281.04 44.404 281.04C45.4173 281.04 46.2333 280.592 46.852 279.696C47.4813 278.789 47.796 277.691 47.796 276.4C47.796 275.131 47.476 274.043 46.836 273.136C46.2067 272.219 45.3853 271.76 44.372 271.76C43.3587 271.76 42.5373 272.213 41.908 273.12C41.2787 274.016 40.964 275.109 40.964 276.4C40.964 277.669 41.284 278.763 41.924 279.68ZM51.0292 282V281.024L55.0932 277.44C55.9679 276.672 56.5759 276.032 56.9172 275.52C57.2586 275.008 57.4292 274.475 57.4292 273.92C57.4292 273.28 57.2106 272.763 56.7732 272.368C56.3359 271.973 55.8026 271.776 55.1732 271.776C54.5652 271.776 54.0266 271.931 53.5572 272.24C53.0986 272.549 52.6346 273.035 52.1652 273.696L51.2372 273.024C51.7812 272.213 52.3572 271.616 52.9652 271.232C53.5732 270.837 54.3412 270.64 55.2692 270.64C56.2719 270.64 57.0986 270.944 57.7492 271.552C58.4106 272.149 58.7413 272.912 58.7413 273.84C58.7413 274.608 58.5333 275.291 58.1172 275.888C57.7012 276.485 56.9652 277.253 55.9092 278.192L52.9172 280.848H58.8532V282H51.0292Z" fill="#262626"/>
<path d="M26.1794 232.512C25.3048 233.632 24.1634 234.192 22.7554 234.192C21.3474 234.192 20.2061 233.637 19.3314 232.528C18.4674 231.408 18.0354 230.032 18.0354 228.4C18.0354 226.789 18.4728 225.424 19.3474 224.304C20.2328 223.173 21.3794 222.608 22.7874 222.608C24.1954 222.608 25.3314 223.168 26.1954 224.288C27.0594 225.397 27.4914 226.768 27.4914 228.4C27.4914 230.011 27.0541 231.381 26.1794 232.512ZM20.3074 231.68C20.9474 232.587 21.7741 233.04 22.7874 233.04C23.8008 233.04 24.6168 232.592 25.2354 231.696C25.8648 230.789 26.1794 229.691 26.1794 228.4C26.1794 227.131 25.8594 226.043 25.2194 225.136C24.5901 224.219 23.7688 223.76 22.7554 223.76C21.7421 223.76 20.9208 224.213 20.2914 225.12C19.6621 226.016 19.3474 227.109 19.3474 228.4C19.3474 229.669 19.6674 230.763 20.3074 231.68ZM29.4127 234V233.024L33.4767 229.44C34.3514 228.672 34.9594 228.032 35.3007 227.52C35.642 227.008 35.8127 226.475 35.8127 225.92C35.8127 225.28 35.594 224.763 35.1567 224.368C34.7194 223.973 34.186 223.776 33.5567 223.776C32.9487 223.776 32.41 223.931 31.9407 224.24C31.482 224.549 31.018 225.035 30.5487 225.696L29.6207 225.024C30.1647 224.213 30.7407 223.616 31.3487 223.232C31.9567 222.837 32.7247 222.64 33.6527 222.64C34.6554 222.64 35.482 222.944 36.1327 223.552C36.794 224.149 37.1247 224.912 37.1247 225.84C37.1247 226.608 36.9167 227.291 36.5007 227.888C36.0847 228.485 35.3487 229.253 34.2927 230.192L31.3007 232.848H37.2367V234H29.4127ZM47.6788 232.512C46.8041 233.632 45.6628 234.192 44.2548 234.192C42.8468 234.192 41.7055 233.637 40.8308 232.528C39.9668 231.408 39.5348 230.032 39.5348 228.4C39.5348 226.789 39.9721 225.424 40.8468 224.304C41.7321 223.173 42.8788 222.608 44.2868 222.608C45.6948 222.608 46.8308 223.168 47.6948 224.288C48.5588 225.397 48.9908 226.768 48.9908 228.4C48.9908 230.011 48.5535 231.381 47.6788 232.512ZM41.8068 231.68C42.4468 232.587 43.2735 233.04 44.2868 233.04C45.3001 233.04 46.1161 232.592 46.7348 231.696C47.3641 230.789 47.6788 229.691 47.6788 228.4C47.6788 227.131 47.3588 226.043 46.7188 225.136C46.0895 224.219 45.2681 223.76 44.2548 223.76C43.2415 223.76 42.4201 224.213 41.7908 225.12C41.1615 226.016 40.8468 227.109 40.8468 228.4C40.8468 229.669 41.1668 230.763 41.8068 231.68ZM55.1201 234.192C53.3601 234.192 51.9681 233.525 50.9441 232.192L51.8561 231.376C52.7627 232.485 53.8561 233.04 55.1361 233.04C55.8294 233.04 56.4107 232.837 56.8801 232.432C57.3494 232.027 57.5841 231.493 57.5841 230.832C57.5841 230.149 57.2961 229.621 56.7201 229.248C56.1441 228.864 55.3867 228.672 54.4481 228.672H53.7281L53.4721 227.92L57.0081 223.936H51.5361V222.8H58.6881V223.728L55.1681 227.632C56.2347 227.717 57.1147 228.027 57.8081 228.56C58.5121 229.083 58.8641 229.835 58.8641 230.816C58.8641 231.797 58.5014 232.608 57.7761 233.248C57.0614 233.877 56.1761 234.192 55.1201 234.192Z" fill="#262626"/>
<path d="M121.14 60.512C120.266 61.632 119.124 62.192 117.716 62.192C116.308 62.192 115.167 61.6373 114.292 60.528C113.428 59.408 112.996 58.032 112.996 56.4C112.996 54.7893 113.434 53.424 114.308 52.304C115.194 51.1733 116.34 50.608 117.748 50.608C119.156 50.608 120.292 51.168 121.156 52.288C122.02 53.3973 122.452 54.768 122.452 56.4C122.452 58.0107 122.015 59.3813 121.14 60.512ZM115.268 59.68C115.908 60.5867 116.735 61.04 117.748 61.04C118.762 61.04 119.578 60.592 120.196 59.696C120.826 58.7893 121.14 57.6907 121.14 56.4C121.14 55.1307 120.82 54.0427 120.18 53.136C119.551 52.2187 118.73 51.76 117.716 51.76C116.703 51.76 115.882 52.2133 115.252 53.12C114.623 54.016 114.308 55.1093 114.308 56.4C114.308 57.6693 114.628 58.7627 115.268 59.68ZM124.374 62V61.024L128.438 57.44C129.312 56.672 129.92 56.032 130.262 55.52C130.603 55.008 130.774 54.4747 130.774 53.92C130.774 53.28 130.555 52.7627 130.118 52.368C129.68 51.9733 129.147 51.776 128.518 51.776C127.91 51.776 127.371 51.9307 126.902 52.24C126.443 52.5493 125.979 53.0347 125.51 53.696L124.582 53.024C125.126 52.2133 125.702 51.616 126.31 51.232C126.918 50.8373 127.686 50.64 128.614 50.64C129.616 50.64 130.443 50.944 131.094 51.552C131.755 52.1493 132.086 52.912 132.086 53.84C132.086 54.608 131.878 55.2907 131.462 55.888C131.046 56.4853 130.31 57.2533 129.254 58.192L126.262 60.848H132.198V62H124.374ZM142.64 60.512C141.765 61.632 140.624 62.192 139.216 62.192C137.808 62.192 136.666 61.6373 135.792 60.528C134.928 59.408 134.496 58.032 134.496 56.4C134.496 54.7893 134.933 53.424 135.808 52.304C136.693 51.1733 137.84 50.608 139.248 50.608C140.656 50.608 141.792 51.168 142.656 52.288C143.52 53.3973 143.952 54.768 143.952 56.4C143.952 58.0107 143.514 59.3813 142.64 60.512ZM136.768 59.68C137.408 60.5867 138.234 61.04 139.248 61.04C140.261 61.04 141.077 60.592 141.696 59.696C142.325 58.7893 142.64 57.6907 142.64 56.4C142.64 55.1307 142.32 54.0427 141.68 53.136C141.05 52.2187 140.229 51.76 139.216 51.76C138.202 51.76 137.381 52.2133 136.752 53.12C136.122 54.016 135.808 55.1093 135.808 56.4C135.808 57.6693 136.128 58.7627 136.768 59.68ZM152.173 62V59.344H146.269L145.949 58.432L152.285 50.72H153.389V58.288H155.133V59.344H153.389V62H152.173ZM147.469 58.288H152.173V52.512L147.469 58.288Z" fill="#262626"/>
<path d="M165.14 301.512C164.266 302.632 163.124 303.192 161.716 303.192C160.308 303.192 159.167 302.637 158.292 301.528C157.428 300.408 156.996 299.032 156.996 297.4C156.996 295.789 157.434 294.424 158.308 293.304C159.194 292.173 160.34 291.608 161.748 291.608C163.156 291.608 164.292 292.168 165.156 293.288C166.02 294.397 166.452 295.768 166.452 297.4C166.452 299.011 166.015 300.381 165.14 301.512ZM159.268 300.68C159.908 301.587 160.735 302.04 161.748 302.04C162.762 302.04 163.578 301.592 164.196 300.696C164.826 299.789 165.14 298.691 165.14 297.4C165.14 296.131 164.82 295.043 164.18 294.136C163.551 293.219 162.73 292.76 161.716 292.76C160.703 292.76 159.882 293.213 159.252 294.12C158.623 295.016 158.308 296.109 158.308 297.4C158.308 298.669 158.628 299.763 159.268 300.68ZM168.374 303V302.024L172.438 298.44C173.312 297.672 173.92 297.032 174.262 296.52C174.603 296.008 174.774 295.475 174.774 294.92C174.774 294.28 174.555 293.763 174.118 293.368C173.68 292.973 173.147 292.776 172.518 292.776C171.91 292.776 171.371 292.931 170.902 293.24C170.443 293.549 169.979 294.035 169.51 294.696L168.582 294.024C169.126 293.213 169.702 292.616 170.31 292.232C170.918 291.837 171.686 291.64 172.614 291.64C173.616 291.64 174.443 291.944 175.094 292.552C175.755 293.149 176.086 293.912 176.086 294.84C176.086 295.608 175.878 296.291 175.462 296.888C175.046 297.485 174.31 298.253 173.254 299.192L170.262 301.848H176.198V303H168.374ZM186.64 301.512C185.765 302.632 184.624 303.192 183.216 303.192C181.808 303.192 180.666 302.637 179.792 301.528C178.928 300.408 178.496 299.032 178.496 297.4C178.496 295.789 178.933 294.424 179.808 293.304C180.693 292.173 181.84 291.608 183.248 291.608C184.656 291.608 185.792 292.168 186.656 293.288C187.52 294.397 187.952 295.768 187.952 297.4C187.952 299.011 187.514 300.381 186.64 301.512ZM180.768 300.68C181.408 301.587 182.234 302.04 183.248 302.04C184.261 302.04 185.077 301.592 185.696 300.696C186.325 299.789 186.64 298.691 186.64 297.4C186.64 296.131 186.32 295.043 185.68 294.136C185.05 293.219 184.229 292.76 183.216 292.76C182.202 292.76 181.381 293.213 180.752 294.12C180.122 295.016 179.808 296.109 179.808 297.4C179.808 298.669 180.128 299.763 180.768 300.68ZM192.125 303V293.032L190.013 293.688L189.709 292.664L192.445 291.72H193.373V303H192.125Z" fill="#262626"/>
<path d="M304.463 173.128C303.961 173.128 303.476 173.037 303.007 172.856L303.263 171.832C303.497 171.939 303.828 171.992 304.255 171.992C304.468 171.992 304.66 171.96 304.831 171.896C305.001 171.821 305.204 171.629 305.439 171.32C305.673 171 305.865 170.568 306.015 170.024C306.164 169.469 306.292 168.664 306.399 167.608C306.516 166.541 306.575 165.283 306.575 163.832V161.8H313.823V173H312.559V162.952H307.791V164.168C307.791 165.683 307.727 166.995 307.599 168.104C307.481 169.213 307.321 170.088 307.119 170.728C306.927 171.357 306.676 171.859 306.367 172.232C306.068 172.605 305.769 172.851 305.471 172.968C305.183 173.075 304.847 173.128 304.463 173.128ZM317.095 173V164.728H318.327V171.272L323.239 164.728H324.439V173H323.207V166.456L318.279 173H317.095ZM332.485 175.56V172.328C331.823 172.893 331.135 173.176 330.421 173.176C329.418 173.176 328.607 172.792 327.989 172.024C327.37 171.245 327.061 170.184 327.061 168.84C327.061 167.517 327.37 166.472 327.989 165.704C328.607 164.936 329.418 164.552 330.421 164.552C331.135 164.552 331.823 164.851 332.485 165.448V161.8H333.733V165.448C334.394 164.851 335.082 164.552 335.797 164.552C336.81 164.552 337.626 164.941 338.245 165.72C338.863 166.488 339.173 167.539 339.173 168.872C339.173 170.195 338.858 171.245 338.229 172.024C337.61 172.792 336.799 173.176 335.797 173.176C335.338 173.176 334.959 173.107 334.661 172.968C334.373 172.819 334.063 172.605 333.733 172.328V175.56H332.485ZM330.677 172.088C331.37 172.088 331.973 171.816 332.485 171.272V166.472C331.973 165.928 331.37 165.656 330.677 165.656C329.909 165.656 329.327 165.944 328.933 166.52C328.538 167.096 328.341 167.891 328.341 168.904C328.341 171.027 329.119 172.088 330.677 172.088ZM335.557 172.088C337.114 172.088 337.893 171.016 337.893 168.872C337.893 167.869 337.695 167.085 337.301 166.52C336.906 165.944 336.325 165.656 335.557 165.656C334.863 165.656 334.255 165.928 333.733 166.472V171.272C334.255 171.816 334.863 172.088 335.557 172.088ZM343.798 173V165.816H340.838V164.728H348.006V165.816H345.046V173H343.798ZM350.118 173V164.728H351.35V167.832H353.558C354.518 167.832 355.302 168.04 355.91 168.456C356.518 168.861 356.822 169.48 356.822 170.312C356.822 171.133 356.539 171.789 355.974 172.28C355.408 172.76 354.651 173 353.702 173H350.118ZM351.35 171.912H353.59C354.219 171.912 354.704 171.779 355.046 171.512C355.398 171.245 355.574 170.856 355.574 170.344C355.574 169.875 355.392 169.517 355.03 169.272C354.678 169.016 354.182 168.888 353.542 168.888H351.35V171.912ZM358.31 173V164.728H359.542V173H358.31Z" fill="#262626"/>
<path d="M506.328 60.512C505.453 61.632 504.312 62.192 502.904 62.192C501.496 62.192 500.355 61.6373 499.48 60.528C498.616 59.408 498.184 58.032 498.184 56.4C498.184 54.7893 498.621 53.424 499.496 52.304C500.381 51.1733 501.528 50.608 502.936 50.608C504.344 50.608 505.48 51.168 506.344 52.288C507.208 53.3973 507.64 54.768 507.64 56.4C507.64 58.0107 507.203 59.3813 506.328 60.512ZM500.456 59.68C501.096 60.5867 501.923 61.04 502.936 61.04C503.949 61.04 504.765 60.592 505.384 59.696C506.013 58.7893 506.328 57.6907 506.328 56.4C506.328 55.1307 506.008 54.0427 505.368 53.136C504.739 52.2187 503.917 51.76 502.904 51.76C501.891 51.76 501.069 52.2133 500.44 53.12C499.811 54.016 499.496 55.1093 499.496 56.4C499.496 57.6693 499.816 58.7627 500.456 59.68ZM509.561 62V61.024L513.625 57.44C514.5 56.672 515.108 56.032 515.449 55.52C515.79 55.008 515.961 54.4747 515.961 53.92C515.961 53.28 515.742 52.7627 515.305 52.368C514.868 51.9733 514.334 51.776 513.705 51.776C513.097 51.776 512.558 51.9307 512.089 52.24C511.63 52.5493 511.166 53.0347 510.697 53.696L509.769 53.024C510.313 52.2133 510.889 51.616 511.497 51.232C512.105 50.8373 512.873 50.64 513.801 50.64C514.804 50.64 515.63 50.944 516.281 51.552C516.942 52.1493 517.273 52.912 517.273 53.84C517.273 54.608 517.065 55.2907 516.649 55.888C516.233 56.4853 515.497 57.2533 514.441 58.192L511.449 60.848H517.385V62H509.561ZM527.827 60.512C526.953 61.632 525.811 62.192 524.403 62.192C522.995 62.192 521.854 61.6373 520.979 60.528C520.115 59.408 519.683 58.032 519.683 56.4C519.683 54.7893 520.121 53.424 520.995 52.304C521.881 51.1733 523.027 50.608 524.435 50.608C525.843 50.608 526.979 51.168 527.843 52.288C528.707 53.3973 529.139 54.768 529.139 56.4C529.139 58.0107 528.702 59.3813 527.827 60.512ZM521.955 59.68C522.595 60.5867 523.422 61.04 524.435 61.04C525.449 61.04 526.265 60.592 526.883 59.696C527.513 58.7893 527.827 57.6907 527.827 56.4C527.827 55.1307 527.507 54.0427 526.867 53.136C526.238 52.2187 525.417 51.76 524.403 51.76C523.39 51.76 522.569 52.2133 521.939 53.12C521.31 54.016 520.995 55.1093 520.995 56.4C520.995 57.6693 521.315 58.7627 521.955 59.68ZM535.777 62.192C534.433 62.192 533.371 61.7493 532.593 60.864C531.814 59.9787 531.425 58.5867 531.425 56.688C531.425 54.9387 531.841 53.488 532.673 52.336C533.515 51.184 534.651 50.608 536.081 50.608C537.243 50.608 538.347 51.0347 539.393 51.888L538.657 52.864C537.782 52.128 536.902 51.76 536.017 51.76C535.025 51.76 534.23 52.2133 533.633 53.12C533.035 54.0267 532.737 55.2053 532.737 56.656V56.704C533.515 55.5627 534.577 54.992 535.921 54.992C536.998 54.992 537.91 55.312 538.657 55.952C539.414 56.592 539.793 57.4293 539.793 58.464C539.793 59.5413 539.409 60.432 538.641 61.136C537.873 61.84 536.918 62.192 535.777 62.192ZM535.793 61.072C536.603 61.072 537.254 60.8267 537.745 60.336C538.246 59.8453 538.497 59.2267 538.497 58.48C538.497 57.7867 538.241 57.216 537.729 56.768C537.217 56.3093 536.561 56.08 535.761 56.08C534.95 56.08 534.278 56.3307 533.745 56.832C533.222 57.3227 532.961 57.8987 532.961 58.56C532.961 59.2747 533.227 59.872 533.761 60.352C534.294 60.832 534.971 61.072 535.793 61.072Z" fill="#262626"/>
<path d="M643.476 60.512C642.602 61.632 641.46 62.192 640.052 62.192C638.644 62.192 637.503 61.6373 636.628 60.528C635.764 59.408 635.332 58.032 635.332 56.4C635.332 54.7893 635.77 53.424 636.644 52.304C637.53 51.1733 638.676 50.608 640.084 50.608C641.492 50.608 642.628 51.168 643.492 52.288C644.356 53.3973 644.788 54.768 644.788 56.4C644.788 58.0107 644.351 59.3813 643.476 60.512ZM637.604 59.68C638.244 60.5867 639.071 61.04 640.084 61.04C641.098 61.04 641.914 60.592 642.532 59.696C643.162 58.7893 643.476 57.6907 643.476 56.4C643.476 55.1307 643.156 54.0427 642.516 53.136C641.887 52.2187 641.066 51.76 640.052 51.76C639.039 51.76 638.218 52.2133 637.588 53.12C636.959 54.016 636.644 55.1093 636.644 56.4C636.644 57.6693 636.964 58.7627 637.604 59.68ZM646.71 62V61.024L650.774 57.44C651.648 56.672 652.256 56.032 652.598 55.52C652.939 55.008 653.11 54.4747 653.11 53.92C653.11 53.28 652.891 52.7627 652.454 52.368C652.016 51.9733 651.483 51.776 650.854 51.776C650.246 51.776 649.707 51.9307 649.238 52.24C648.779 52.5493 648.315 53.0347 647.846 53.696L646.918 53.024C647.462 52.2133 648.038 51.616 648.646 51.232C649.254 50.8373 650.022 50.64 650.95 50.64C651.952 50.64 652.779 50.944 653.43 51.552C654.091 52.1493 654.422 52.912 654.422 53.84C654.422 54.608 654.214 55.2907 653.798 55.888C653.382 56.4853 652.646 57.2533 651.59 58.192L648.598 60.848H654.534V62H646.71ZM664.976 60.512C664.101 61.632 662.96 62.192 661.552 62.192C660.144 62.192 659.002 61.6373 658.128 60.528C657.264 59.408 656.832 58.032 656.832 56.4C656.832 54.7893 657.269 53.424 658.144 52.304C659.029 51.1733 660.176 50.608 661.584 50.608C662.992 50.608 664.128 51.168 664.992 52.288C665.856 53.3973 666.288 54.768 666.288 56.4C666.288 58.0107 665.85 59.3813 664.976 60.512ZM659.104 59.68C659.744 60.5867 660.57 61.04 661.584 61.04C662.597 61.04 663.413 60.592 664.032 59.696C664.661 58.7893 664.976 57.6907 664.976 56.4C664.976 55.1307 664.656 54.0427 664.016 53.136C663.386 52.2187 662.565 51.76 661.552 51.76C660.538 51.76 659.717 52.2133 659.088 53.12C658.458 54.016 658.144 55.1093 658.144 56.4C658.144 57.6693 658.464 58.7627 659.104 59.68ZM669.32 62L674.376 51.952H668.216V50.8H675.816V51.744L670.728 62H669.32Z" fill="#262626"/>
<path d="M648.469 232.512C647.594 233.632 646.453 234.192 645.045 234.192C643.637 234.192 642.495 233.637 641.621 232.528C640.757 231.408 640.325 230.032 640.325 228.4C640.325 226.789 640.762 225.424 641.637 224.304C642.522 223.173 643.669 222.608 645.077 222.608C646.485 222.608 647.621 223.168 648.485 224.288C649.349 225.397 649.781 226.768 649.781 228.4C649.781 230.011 649.343 231.381 648.469 232.512ZM642.597 231.68C643.237 232.587 644.063 233.04 645.077 233.04C646.09 233.04 646.906 232.592 647.525 231.696C648.154 230.789 648.469 229.691 648.469 228.4C648.469 227.131 648.149 226.043 647.509 225.136C646.879 224.219 646.058 223.76 645.045 223.76C644.031 223.76 643.21 224.213 642.581 225.12C641.951 226.016 641.637 227.109 641.637 228.4C641.637 229.669 641.957 230.763 642.597 231.68ZM651.702 234V233.024L655.766 229.44C656.64 228.672 657.248 228.032 657.59 227.52C657.931 227.008 658.102 226.475 658.102 225.92C658.102 225.28 657.883 224.763 657.446 224.368C657.008 223.973 656.475 223.776 655.846 223.776C655.238 223.776 654.699 223.931 654.23 224.24C653.771 224.549 653.307 225.035 652.838 225.696L651.91 225.024C652.454 224.213 653.03 223.616 653.638 223.232C654.246 222.837 655.014 222.64 655.942 222.64C656.944 222.64 657.771 222.944 658.422 223.552C659.083 224.149 659.414 224.912 659.414 225.84C659.414 226.608 659.206 227.291 658.79 227.888C658.374 228.485 657.638 229.253 656.582 230.192L653.59 232.848H659.526V234H651.702ZM669.968 232.512C669.093 233.632 667.952 234.192 666.544 234.192C665.136 234.192 663.995 233.637 663.12 232.528C662.256 231.408 661.824 230.032 661.824 228.4C661.824 226.789 662.261 225.424 663.136 224.304C664.021 223.173 665.168 222.608 666.576 222.608C667.984 222.608 669.12 223.168 669.984 224.288C670.848 225.397 671.28 226.768 671.28 228.4C671.28 230.011 670.843 231.381 669.968 232.512ZM664.096 231.68C664.736 232.587 665.563 233.04 666.576 233.04C667.589 233.04 668.405 232.592 669.024 231.696C669.653 230.789 669.968 229.691 669.968 228.4C669.968 227.131 669.648 226.043 669.008 225.136C668.379 224.219 667.557 223.76 666.544 223.76C665.531 223.76 664.709 224.213 664.08 225.12C663.451 226.016 663.136 227.109 663.136 228.4C663.136 229.669 663.456 230.763 664.096 231.68ZM680.637 233.28C679.837 233.867 678.835 234.16 677.629 234.16C676.424 234.16 675.421 233.861 674.621 233.264C673.821 232.667 673.421 231.899 673.421 230.96C673.421 230.32 673.629 229.765 674.045 229.296C674.461 228.827 675.021 228.464 675.725 228.208C674.445 227.621 673.805 226.752 673.805 225.6C673.805 224.757 674.179 224.053 674.925 223.488C675.683 222.923 676.584 222.64 677.629 222.64C678.675 222.64 679.571 222.923 680.317 223.488C681.075 224.053 681.453 224.768 681.453 225.632C681.453 226.763 680.813 227.621 679.533 228.208C681.069 228.784 681.837 229.707 681.837 230.976C681.837 231.915 681.437 232.683 680.637 233.28ZM675.805 227.184C676.296 227.568 676.904 227.76 677.629 227.76C678.355 227.76 678.963 227.568 679.453 227.184C679.944 226.8 680.189 226.299 680.189 225.68C680.189 225.125 679.944 224.667 679.453 224.304C678.963 223.931 678.355 223.744 677.629 223.744C676.893 223.744 676.28 223.931 675.789 224.304C675.309 224.667 675.069 225.136 675.069 225.712C675.069 226.309 675.315 226.8 675.805 227.184ZM675.485 232.448C676.019 232.853 676.733 233.056 677.629 233.056C678.525 233.056 679.235 232.853 679.757 232.448C680.291 232.043 680.557 231.536 680.557 230.928C680.557 230.309 680.275 229.803 679.709 229.408C679.144 229.003 678.451 228.8 677.629 228.8C676.797 228.8 676.099 229.003 675.533 229.408C674.979 229.813 674.701 230.331 674.701 230.96C674.701 231.547 674.963 232.043 675.485 232.448Z" fill="#262626"/>
<path d="M525.328 232.512C524.453 233.632 523.312 234.192 521.904 234.192C520.496 234.192 519.355 233.637 518.48 232.528C517.616 231.408 517.184 230.032 517.184 228.4C517.184 226.789 517.621 225.424 518.496 224.304C519.381 223.173 520.528 222.608 521.936 222.608C523.344 222.608 524.48 223.168 525.344 224.288C526.208 225.397 526.64 226.768 526.64 228.4C526.64 230.011 526.203 231.381 525.328 232.512ZM519.456 231.68C520.096 232.587 520.923 233.04 521.936 233.04C522.949 233.04 523.765 232.592 524.384 231.696C525.013 230.789 525.328 229.691 525.328 228.4C525.328 227.131 525.008 226.043 524.368 225.136C523.739 224.219 522.917 223.76 521.904 223.76C520.891 223.76 520.069 224.213 519.44 225.12C518.811 226.016 518.496 227.109 518.496 228.4C518.496 229.669 518.816 230.763 519.456 231.68ZM528.561 234V233.024L532.625 229.44C533.5 228.672 534.108 228.032 534.449 227.52C534.79 227.008 534.961 226.475 534.961 225.92C534.961 225.28 534.742 224.763 534.305 224.368C533.868 223.973 533.334 223.776 532.705 223.776C532.097 223.776 531.558 223.931 531.089 224.24C530.63 224.549 530.166 225.035 529.697 225.696L528.769 225.024C529.313 224.213 529.889 223.616 530.497 223.232C531.105 222.837 531.873 222.64 532.801 222.64C533.804 222.64 534.63 222.944 535.281 223.552C535.942 224.149 536.273 224.912 536.273 225.84C536.273 226.608 536.065 227.291 535.649 227.888C535.233 228.485 534.497 229.253 533.441 230.192L530.449 232.848H536.385V234H528.561ZM546.827 232.512C545.953 233.632 544.811 234.192 543.403 234.192C541.995 234.192 540.854 233.637 539.979 232.528C539.115 231.408 538.683 230.032 538.683 228.4C538.683 226.789 539.121 225.424 539.995 224.304C540.881 223.173 542.027 222.608 543.435 222.608C544.843 222.608 545.979 223.168 546.843 224.288C547.707 225.397 548.139 226.768 548.139 228.4C548.139 230.011 547.702 231.381 546.827 232.512ZM540.955 231.68C541.595 232.587 542.422 233.04 543.435 233.04C544.449 233.04 545.265 232.592 545.883 231.696C546.513 230.789 546.827 229.691 546.827 228.4C546.827 227.131 546.507 226.043 545.867 225.136C545.238 224.219 544.417 223.76 543.403 223.76C542.39 223.76 541.569 224.213 540.939 225.12C540.31 226.016 539.995 227.109 539.995 228.4C539.995 229.669 540.315 230.763 540.955 231.68ZM554.169 234.192C552.974 234.192 551.822 233.733 550.713 232.816L551.449 231.84C552.355 232.64 553.273 233.04 554.201 233.04C555.193 233.04 555.993 232.597 556.601 231.712C557.219 230.816 557.529 229.669 557.529 228.272V228.128C556.782 229.323 555.726 229.92 554.361 229.92C553.209 229.92 552.27 229.595 551.545 228.944C550.819 228.283 550.457 227.44 550.457 226.416C550.457 225.339 550.835 224.437 551.593 223.712C552.35 222.976 553.315 222.608 554.489 222.608C555.811 222.608 556.862 223.051 557.641 223.936C558.43 224.821 558.825 226.219 558.825 228.128C558.825 229.909 558.393 231.365 557.529 232.496C556.665 233.627 555.545 234.192 554.169 234.192ZM554.505 228.832C555.326 228.832 555.993 228.576 556.505 228.064C557.027 227.552 557.289 226.955 557.289 226.272C557.289 225.547 557.022 224.944 556.489 224.464C555.955 223.973 555.273 223.728 554.441 223.728C553.63 223.728 552.979 223.989 552.489 224.512C551.998 225.024 551.753 225.648 551.753 226.384C551.753 227.099 552.009 227.685 552.521 228.144C553.033 228.603 553.694 228.832 554.505 228.832Z" fill="#262626"/>
<path d="M14.8346 163V151.8H22.8666V152.952H16.0986V156.392H19.4106C20.6693 156.392 21.6933 156.669 22.4826 157.224C23.272 157.768 23.6666 158.579 23.6666 159.656C23.6666 160.733 23.2933 161.56 22.5466 162.136C21.8106 162.712 20.808 163 19.5386 163H14.8346ZM16.0986 161.848H19.4426C21.416 161.848 22.4026 161.096 22.4026 159.592C22.4026 158.899 22.136 158.381 21.6026 158.04C21.0693 157.688 20.328 157.512 19.3786 157.512H16.0986V161.848ZM27.5548 165.608C26.9574 165.608 26.3708 165.469 25.7948 165.192L26.2108 164.216C26.6054 164.419 27.0374 164.52 27.5068 164.52C27.8801 164.52 28.1948 164.403 28.4508 164.168C28.7068 163.944 28.9574 163.544 29.2028 162.968L25.4428 154.728H26.8028L29.8108 161.624L32.4668 154.728H33.7788L30.3068 163.272C29.9548 164.115 29.5654 164.712 29.1388 165.064C28.7121 165.427 28.1841 165.608 27.5548 165.608ZM41.0239 165.56V162.328C40.3625 162.893 39.6745 163.176 38.9599 163.176C37.9572 163.176 37.1465 162.792 36.5279 162.024C35.9092 161.245 35.5999 160.184 35.5999 158.84C35.5999 157.517 35.9092 156.472 36.5279 155.704C37.1465 154.936 37.9572 154.552 38.9599 154.552C39.6745 154.552 40.3625 154.851 41.0239 155.448V151.8H42.2719V155.448C42.9332 154.851 43.6212 154.552 44.3359 154.552C45.3492 154.552 46.1652 154.941 46.7839 155.72C47.4025 156.488 47.7119 157.539 47.7119 158.872C47.7119 160.195 47.3972 161.245 46.7679 162.024C46.1492 162.792 45.3385 163.176 44.3359 163.176C43.8772 163.176 43.4985 163.107 43.1999 162.968C42.9119 162.819 42.6025 162.605 42.2719 162.328V165.56H41.0239ZM39.2159 162.088C39.9092 162.088 40.5119 161.816 41.0239 161.272V156.472C40.5119 155.928 39.9092 155.656 39.2159 155.656C38.4479 155.656 37.8665 155.944 37.4719 156.52C37.0772 157.096 36.8799 157.891 36.8799 158.904C36.8799 161.027 37.6585 162.088 39.2159 162.088ZM44.0959 162.088C45.6532 162.088 46.4319 161.016 46.4319 158.872C46.4319 157.869 46.2345 157.085 45.8399 156.52C45.4452 155.944 44.8639 155.656 44.0959 155.656C43.4025 155.656 42.7945 155.928 42.2719 156.472V161.272C42.7945 161.816 43.4025 162.088 44.0959 162.088ZM53.9526 163.192C52.79 163.192 51.8086 162.792 51.0086 161.992C50.2193 161.181 49.8246 160.141 49.8246 158.872C49.8246 157.667 50.2033 156.648 50.9606 155.816C51.718 154.973 52.662 154.552 53.7926 154.552C54.9766 154.552 55.9153 154.968 56.6086 155.8C57.302 156.632 57.6486 157.677 57.6486 158.936C57.6486 159.096 57.6433 159.24 57.6326 159.368H51.0726C51.158 160.211 51.4726 160.883 52.0166 161.384C52.5713 161.875 53.2273 162.12 53.9846 162.12C54.9766 162.12 55.846 161.731 56.5926 160.952L57.3606 161.64C56.4326 162.675 55.2966 163.192 53.9526 163.192ZM51.0726 158.376H56.4006C56.326 157.576 56.0593 156.915 55.6006 156.392C55.1526 155.859 54.5393 155.592 53.7606 155.592C53.0566 155.592 52.454 155.853 51.9526 156.376C51.4513 156.899 51.158 157.565 51.0726 158.376ZM62.1254 163V155.816H59.1654V154.728H66.3334V155.816H63.3734V163H62.1254Z" fill="#262626"/>
<rect x="191" y="233" width="10" height="16" rx="1" fill="#615FC5"/>
<path d="M195.039 203.328C195.317 202.365 196.683 202.365 196.961 203.328L200.827 216.723C201.012 217.362 200.532 218 199.867 218H192.133C191.468 218 190.988 217.362 191.173 216.723L195.039 203.328Z" fill="#615FC5"/>
<circle cx="196" cy="197" r="3" fill="#615FC5"/>
<circle cx="196" cy="228" r="3" fill="#615FC5"/>
<g filter="url(#filter3_f_48_13)">
<rect x="191" y="233" width="10" height="16" rx="1" fill="#E7E7FF"/>
<path d="M195.039 203.328C195.317 202.365 196.683 202.365 196.961 203.328L200.827 216.723C201.012 217.362 200.532 218 199.867 218H192.133C191.468 218 190.988 217.362 191.173 216.723L195.039 203.328Z" fill="#E7E7FF"/>
<circle cx="196" cy="197" r="3" fill="#E7E7FF"/>
<circle cx="196" cy="228" r="3" fill="#E7E7FF"/>
</g>
<defs>
<filter id="filter0_f_48_13" x="5" y="5" width="705.5" height="341" filterUnits="userSpaceOnUse" color-interpolation-filters="sRGB">
<feFlood flood-opacity="0" result="BackgroundImageFix"/>
<feBlend mode="normal" in="SourceGraphic" in2="BackgroundImageFix" result="shape"/>
<feGaussianBlur stdDeviation="0.5" result="effect1_foregroundBlur_48_13"/>
</filter>
<filter id="filter1_f_48_13" x="0.5" y="0.5" width="714.5" height="348.5" filterUnits="userSpaceOnUse" color-interpolation-filters="sRGB">
<feFlood flood-opacity="0" result="BackgroundImageFix"/>
<feBlend mode="normal" in="SourceGraphic" in2="BackgroundImageFix" result="shape"/>
<feGaussianBlur stdDeviation="2" result="effect1_foregroundBlur_48_13"/>
</filter>
<filter id="filter2_f_48_13" x="4" y="4" width="707.5" height="342" filterUnits="userSpaceOnUse" color-interpolation-filters="sRGB">
<feFlood flood-opacity="0" result="BackgroundImageFix"/>
<feBlend mode="normal" in="SourceGraphic" in2="BackgroundImageFix" result="shape"/>
<feGaussianBlur stdDeviation="0.5" result="effect1_foregroundBlur_48_13"/>
</filter>
<filter id="filter3_f_48_13" x="187" y="190" width="18" height="63" filterUnits="userSpaceOnUse" color-interpolation-filters="sRGB">
<feFlood flood-opacity="0" result="BackgroundImageFix"/>
<feBlend mode="normal" in="SourceGraphic" in2="BackgroundImageFix" result="shape"/>
<feGaussianBlur stdDeviation="2" result="effect1_foregroundBlur_48_13"/>
</filter>
</defs>
</svg>
