<svg width="503" height="348" viewBox="0 0 503 348" fill="none" xmlns="http://www.w3.org/2000/svg">
<g filter="url(#filter0_f_48_18)">
<path d="M497 6V125.5V196.5V329.5H440.5H348H308.5H194.5V334.5H119.5V342.5H85.5V329.5H19V293V256.5V207.5H6V132V6H175H214H348H440.5H497Z" fill="#F1F1FF" fill-opacity="0.2"/>
</g>
<g filter="url(#filter1_f_48_18)">
<path d="M214 125.5V89M214 89V6H348M214 89H348M348 89V125.5H440.5M348 89V6M440.5 125.5H497V6H440.5M440.5 125.5V6M440.5 6H348M71.5 132V207.5H6V132M71.5 132H175V6H6V132M71.5 132H6M194.5 207.5H119.5V298M85.5 329.5V342.5H119.5V334.5M85.5 329.5H19V293M85.5 329.5V320.5M85.5 293V256.5H19V293M85.5 293H19M85.5 293V320.5M119.5 334.5H194.5V298H119.5M119.5 334.5V320.5M119.5 298V320.5M214 173.5V285.5M308.5 173.5V196.5M308.5 196.5V329.5H348M308.5 196.5H348M348 196.5V329.5M348 196.5H440.5M348 329.5H440.5M440.5 329.5H497V196.5H440.5M440.5 329.5V196.5M85.5 320.5H119.5" stroke="#615FC5" stroke-width="3"/>
</g>
<path d="M214 125.5V89M214 89V6H348M214 89H348M348 89V125.5H440.5M348 89V6M440.5 125.5H497V6H440.5M440.5 125.5V6M440.5 6H348M71.5 132V207.5H6V132M71.5 132H175V6H6V132M71.5 132H6M194.5 207.5H119.5V298M85.5 329.5V342.5H119.5V334.5M85.5 329.5H19V293M85.5 329.5V321M85.5 293V256.5H19V293M85.5 293H19M85.5 293V321M119.5 334.5H194.5V298H119.5M119.5 334.5V321M119.5 298V321M214 173.5V285.5M308.5 173.5V196.5M308.5 196.5V329.5H348M308.5 196.5H348M348 196.5V329.5M348 196.5H440.5M348 329.5H440.5M440.5 329.5H497V196.5H440.5M440.5 329.5V196.5M85.5 321H119.5" stroke="#4548B7" stroke-width="3"/>
<g filter="url(#filter2_f_48_18)">
<path d="M214 125.5V89M214 89V6H348M214 89H348M348 89V125.5H440.5M348 89V6M440.5 125.5H497V6H440.5M440.5 125.5V6M440.5 6H348M71.5 132V207.5H6V132M71.5 132H175V6H6V132M71.5 132H6M194.5 207.5H119.5V298M85.5 329.5V342.5H119.5V334.5M85.5 329.5H19V293M85.5 329.5V321M85.5 293V256.5H19V293M85.5 293H19M85.5 293V321M119.5 334.5H194.5V298H119.5M119.5 334.5V321M119.5 298V321M214 173.5V285.5M308.5 173.5V196.5M308.5 196.5V329.5H348M308.5 196.5H348M348 196.5V329.5M348 196.5H440.5M348 329.5H440.5M440.5 329.5H497V196.5H440.5M440.5 329.5V196.5M85.5 321H119.5" stroke="#E7E7FF" stroke-width="2"/>
</g>
<path d="M236.463 162.128C235.961 162.128 235.476 162.037 235.007 161.856L235.263 160.832C235.497 160.939 235.828 160.992 236.255 160.992C236.468 160.992 236.66 160.96 236.831 160.896C237.001 160.821 237.204 160.629 237.439 160.32C237.673 160 237.865 159.568 238.015 159.024C238.164 158.469 238.292 157.664 238.399 156.608C238.516 155.541 238.575 154.283 238.575 152.832V150.8H245.823V162H244.559V151.952H239.791V153.168C239.791 154.683 239.727 155.995 239.599 157.104C239.481 158.213 239.321 159.088 239.119 159.728C238.927 160.357 238.676 160.859 238.367 161.232C238.068 161.605 237.769 161.851 237.471 161.968C237.183 162.075 236.847 162.128 236.463 162.128ZM249.095 162V153.728H250.327V160.272L255.239 153.728H256.439V162H255.207V155.456L250.279 162H249.095ZM264.485 164.56V161.328C263.823 161.893 263.135 162.176 262.421 162.176C261.418 162.176 260.607 161.792 259.989 161.024C259.37 160.245 259.061 159.184 259.061 157.84C259.061 156.517 259.37 155.472 259.989 154.704C260.607 153.936 261.418 153.552 262.421 153.552C263.135 153.552 263.823 153.851 264.485 154.448V150.8H265.733V154.448C266.394 153.851 267.082 153.552 267.797 153.552C268.81 153.552 269.626 153.941 270.245 154.72C270.863 155.488 271.173 156.539 271.173 157.872C271.173 159.195 270.858 160.245 270.229 161.024C269.61 161.792 268.799 162.176 267.797 162.176C267.338 162.176 266.959 162.107 266.661 161.968C266.373 161.819 266.063 161.605 265.733 161.328V164.56H264.485ZM262.677 161.088C263.37 161.088 263.973 160.816 264.485 160.272V155.472C263.973 154.928 263.37 154.656 262.677 154.656C261.909 154.656 261.327 154.944 260.933 155.52C260.538 156.096 260.341 156.891 260.341 157.904C260.341 160.027 261.119 161.088 262.677 161.088ZM267.557 161.088C269.114 161.088 269.893 160.016 269.893 157.872C269.893 156.869 269.695 156.085 269.301 155.52C268.906 154.944 268.325 154.656 267.557 154.656C266.863 154.656 266.255 154.928 265.733 155.472V160.272C266.255 160.816 266.863 161.088 267.557 161.088ZM275.798 162V154.816H272.838V153.728H280.006V154.816H277.046V162H275.798ZM282.118 162V153.728H283.35V156.832H285.558C286.518 156.832 287.302 157.04 287.91 157.456C288.518 157.861 288.822 158.48 288.822 159.312C288.822 160.133 288.539 160.789 287.974 161.28C287.408 161.76 286.651 162 285.702 162H282.118ZM283.35 160.912H285.59C286.219 160.912 286.704 160.779 287.046 160.512C287.398 160.245 287.574 159.856 287.574 159.344C287.574 158.875 287.392 158.517 287.03 158.272C286.678 158.016 286.182 157.888 285.542 157.888H283.35V160.912ZM290.31 162V153.728H291.542V162H290.31Z" fill="#262626"/>
<path d="M78.2107 73.512C77.336 74.632 76.1947 75.192 74.7867 75.192C73.3787 75.192 72.2374 74.6373 71.3627 73.528C70.4987 72.408 70.0667 71.032 70.0667 69.4C70.0667 67.7893 70.504 66.424 71.3787 65.304C72.264 64.1733 73.4107 63.608 74.8187 63.608C76.2267 63.608 77.3627 64.168 78.2267 65.288C79.0907 66.3973 79.5227 67.768 79.5227 69.4C79.5227 71.0107 79.0854 72.3813 78.2107 73.512ZM72.3387 72.68C72.9787 73.5867 73.8054 74.04 74.8187 74.04C75.832 74.04 76.648 73.592 77.2667 72.696C77.896 71.7893 78.2107 70.6907 78.2107 69.4C78.2107 68.1307 77.8907 67.0427 77.2507 66.136C76.6214 65.2187 75.8 64.76 74.7867 64.76C73.7734 64.76 72.952 65.2133 72.3227 66.12C71.6934 67.016 71.3787 68.1093 71.3787 69.4C71.3787 70.6693 71.6987 71.7627 72.3387 72.68ZM85.6519 75.192C83.8919 75.192 82.4999 74.5253 81.4759 73.192L82.3879 72.376C83.2946 73.4853 84.3879 74.04 85.6679 74.04C86.3613 74.04 86.9426 73.8373 87.4119 73.432C87.8813 73.0267 88.1159 72.4933 88.1159 71.832C88.1159 71.1493 87.8279 70.6213 87.2519 70.248C86.6759 69.864 85.9186 69.672 84.9799 69.672H84.2599L84.0039 68.92L87.5399 64.936H82.0679V63.8H89.2199V64.728L85.6999 68.632C86.7666 68.7173 87.6466 69.0267 88.3399 69.56C89.0439 70.0827 89.3959 70.8347 89.3959 71.816C89.3959 72.7973 89.0333 73.608 88.3079 74.248C87.5933 74.8773 86.7079 75.192 85.6519 75.192ZM99.9444 73.512C99.0698 74.632 97.9284 75.192 96.5204 75.192C95.1124 75.192 93.9711 74.6373 93.0964 73.528C92.2324 72.408 91.8004 71.032 91.8004 69.4C91.8004 67.7893 92.2378 66.424 93.1124 65.304C93.9978 64.1733 95.1444 63.608 96.5524 63.608C97.9604 63.608 99.0964 64.168 99.9604 65.288C100.824 66.3973 101.256 67.768 101.256 69.4C101.256 71.0107 100.819 72.3813 99.9444 73.512ZM94.0724 72.68C94.7124 73.5867 95.5391 74.04 96.5524 74.04C97.5658 74.04 98.3818 73.592 99.0004 72.696C99.6298 71.7893 99.9444 70.6907 99.9444 69.4C99.9444 68.1307 99.6244 67.0427 98.9844 66.136C98.3551 65.2187 97.5338 64.76 96.5204 64.76C95.5071 64.76 94.6858 65.2133 94.0564 66.12C93.4271 67.016 93.1124 68.1093 93.1124 69.4C93.1124 70.6693 93.4324 71.7627 94.0724 72.68ZM107.894 75.192C106.55 75.192 105.489 74.7493 104.71 73.864C103.931 72.9787 103.542 71.5867 103.542 69.688C103.542 67.9387 103.958 66.488 104.79 65.336C105.633 64.184 106.769 63.608 108.198 63.608C109.361 63.608 110.465 64.0347 111.51 64.888L110.774 65.864C109.899 65.128 109.019 64.76 108.134 64.76C107.142 64.76 106.347 65.2133 105.75 66.12C105.153 67.0267 104.854 68.2053 104.854 69.656V69.704C105.633 68.5627 106.694 67.992 108.038 67.992C109.115 67.992 110.027 68.312 110.774 68.952C111.531 69.592 111.91 70.4293 111.91 71.464C111.91 72.5413 111.526 73.432 110.758 74.136C109.99 74.84 109.035 75.192 107.894 75.192ZM107.91 74.072C108.721 74.072 109.371 73.8267 109.862 73.336C110.363 72.8453 110.614 72.2267 110.614 71.48C110.614 70.7867 110.358 70.216 109.846 69.768C109.334 69.3093 108.678 69.08 107.878 69.08C107.067 69.08 106.395 69.3307 105.862 69.832C105.339 70.3227 105.078 70.8987 105.078 71.56C105.078 72.2747 105.345 72.872 105.878 73.352C106.411 73.832 107.089 74.072 107.91 74.072Z" fill="#262626"/>
<path d="M25.4919 174.512C24.6173 175.632 23.4759 176.192 22.0679 176.192C20.6599 176.192 19.5186 175.637 18.6439 174.528C17.7799 173.408 17.3479 172.032 17.3479 170.4C17.3479 168.789 17.7853 167.424 18.6599 166.304C19.5453 165.173 20.6919 164.608 22.0999 164.608C23.5079 164.608 24.6439 165.168 25.5079 166.288C26.3719 167.397 26.8039 168.768 26.8039 170.4C26.8039 172.011 26.3666 173.381 25.4919 174.512ZM19.6199 173.68C20.2599 174.587 21.0866 175.04 22.0999 175.04C23.1133 175.04 23.9293 174.592 24.5479 173.696C25.1773 172.789 25.4919 171.691 25.4919 170.4C25.4919 169.131 25.1719 168.043 24.5319 167.136C23.9026 166.219 23.0813 165.76 22.0679 165.76C21.0546 165.76 20.2333 166.213 19.6039 167.12C18.9746 168.016 18.6599 169.109 18.6599 170.4C18.6599 171.669 18.9799 172.763 19.6199 173.68ZM32.9332 176.192C31.1732 176.192 29.7812 175.525 28.7572 174.192L29.6692 173.376C30.5759 174.485 31.6692 175.04 32.9492 175.04C33.6425 175.04 34.2239 174.837 34.6932 174.432C35.1625 174.027 35.3972 173.493 35.3972 172.832C35.3972 172.149 35.1092 171.621 34.5332 171.248C33.9572 170.864 33.1999 170.672 32.2612 170.672H31.5412L31.2852 169.92L34.8212 165.936H29.3492V164.8H36.5012V165.728L32.9812 169.632C34.0479 169.717 34.9279 170.027 35.6212 170.56C36.3252 171.083 36.6772 171.835 36.6772 172.816C36.6772 173.797 36.3145 174.608 35.5892 175.248C34.8745 175.877 33.9892 176.192 32.9332 176.192ZM47.2257 174.512C46.351 175.632 45.2097 176.192 43.8017 176.192C42.3937 176.192 41.2524 175.637 40.3777 174.528C39.5137 173.408 39.0817 172.032 39.0817 170.4C39.0817 168.789 39.519 167.424 40.3937 166.304C41.279 165.173 42.4257 164.608 43.8337 164.608C45.2417 164.608 46.3777 165.168 47.2417 166.288C48.1057 167.397 48.5377 168.768 48.5377 170.4C48.5377 172.011 48.1004 173.381 47.2257 174.512ZM41.3537 173.68C41.9937 174.587 42.8204 175.04 43.8337 175.04C44.847 175.04 45.663 174.592 46.2817 173.696C46.911 172.789 47.2257 171.691 47.2257 170.4C47.2257 169.131 46.9057 168.043 46.2657 167.136C45.6364 166.219 44.815 165.76 43.8017 165.76C42.7884 165.76 41.967 166.213 41.3377 167.12C40.7084 168.016 40.3937 169.109 40.3937 170.4C40.3937 171.669 40.7137 172.763 41.3537 173.68ZM54.6952 176.192C53.2125 176.192 51.8792 175.6 50.6952 174.416L51.5272 173.504C52.5832 174.528 53.6445 175.04 54.7112 175.04C55.5112 175.04 56.1619 174.805 56.6632 174.336C57.1645 173.867 57.4152 173.264 57.4152 172.528C57.4152 171.835 57.1539 171.269 56.6312 170.832C56.1192 170.395 55.4525 170.176 54.6312 170.176C53.8632 170.176 53.0792 170.389 52.2792 170.816L51.4312 170.256L51.7512 164.8H58.1992V165.968H52.8552L52.6152 169.552C53.3725 169.221 54.1085 169.056 54.8232 169.056C55.9432 169.056 56.8659 169.371 57.5912 170C58.3272 170.619 58.6952 171.456 58.6952 172.512C58.6952 173.6 58.3219 174.485 57.5752 175.168C56.8285 175.851 55.8685 176.192 54.6952 176.192Z" fill="#262626"/>
<path d="M39.5232 278.512C38.6485 279.632 37.5072 280.192 36.0992 280.192C34.6912 280.192 33.5499 279.637 32.6752 278.528C31.8112 277.408 31.3792 276.032 31.3792 274.4C31.3792 272.789 31.8165 271.424 32.6912 270.304C33.5765 269.173 34.7232 268.608 36.1312 268.608C37.5392 268.608 38.6752 269.168 39.5392 270.288C40.4032 271.397 40.8352 272.768 40.8352 274.4C40.8352 276.011 40.3979 277.381 39.5232 278.512ZM33.6512 277.68C34.2912 278.587 35.1179 279.04 36.1312 279.04C37.1445 279.04 37.9605 278.592 38.5792 277.696C39.2085 276.789 39.5232 275.691 39.5232 274.4C39.5232 273.131 39.2032 272.043 38.5632 271.136C37.9339 270.219 37.1125 269.76 36.0992 269.76C35.0859 269.76 34.2645 270.213 33.6352 271.12C33.0059 272.016 32.6912 273.109 32.6912 274.4C32.6912 275.669 33.0112 276.763 33.6512 277.68ZM46.9644 280.192C45.2044 280.192 43.8124 279.525 42.7884 278.192L43.7004 277.376C44.6071 278.485 45.7004 279.04 46.9804 279.04C47.6738 279.04 48.2551 278.837 48.7244 278.432C49.1938 278.027 49.4284 277.493 49.4284 276.832C49.4284 276.149 49.1404 275.621 48.5644 275.248C47.9884 274.864 47.2311 274.672 46.2924 274.672H45.5724L45.3164 273.92L48.8524 269.936H43.3804V268.8H50.5324V269.728L47.0124 273.632C48.0791 273.717 48.9591 274.027 49.6524 274.56C50.3564 275.083 50.7084 275.835 50.7084 276.816C50.7084 277.797 50.3458 278.608 49.6204 279.248C48.9058 279.877 48.0204 280.192 46.9644 280.192ZM61.2569 278.512C60.3823 279.632 59.2409 280.192 57.8329 280.192C56.4249 280.192 55.2836 279.637 54.4089 278.528C53.5449 277.408 53.1129 276.032 53.1129 274.4C53.1129 272.789 53.5503 271.424 54.4249 270.304C55.3103 269.173 56.4569 268.608 57.8649 268.608C59.2729 268.608 60.4089 269.168 61.2729 270.288C62.1369 271.397 62.5689 272.768 62.5689 274.4C62.5689 276.011 62.1316 277.381 61.2569 278.512ZM55.3849 277.68C56.0249 278.587 56.8516 279.04 57.8649 279.04C58.8783 279.04 59.6943 278.592 60.3129 277.696C60.9423 276.789 61.2569 275.691 61.2569 274.4C61.2569 273.131 60.9369 272.043 60.2969 271.136C59.6676 270.219 58.8463 269.76 57.8329 269.76C56.8196 269.76 55.9983 270.213 55.3689 271.12C54.7396 272.016 54.4249 273.109 54.4249 274.4C54.4249 275.669 54.7449 276.763 55.3849 277.68ZM70.7904 280V277.344H64.8864L64.5664 276.432L70.9024 268.72H72.0064V276.288H73.7504V277.344H72.0064V280H70.7904ZM66.0864 276.288H70.7904V270.512L66.0864 276.288Z" fill="#262626"/>
<path d="M39.5623 315.512C38.6876 316.632 37.5463 317.192 36.1383 317.192C34.7303 317.192 33.5889 316.637 32.7143 315.528C31.8503 314.408 31.4183 313.032 31.4183 311.4C31.4183 309.789 31.8556 308.424 32.7303 307.304C33.6156 306.173 34.7623 305.608 36.1703 305.608C37.5783 305.608 38.7143 306.168 39.5783 307.288C40.4423 308.397 40.8743 309.768 40.8743 311.4C40.8743 313.011 40.4369 314.381 39.5623 315.512ZM33.6903 314.68C34.3303 315.587 35.1569 316.04 36.1703 316.04C37.1836 316.04 37.9996 315.592 38.6183 314.696C39.2476 313.789 39.5623 312.691 39.5623 311.4C39.5623 310.131 39.2423 309.043 38.6023 308.136C37.9729 307.219 37.1516 306.76 36.1383 306.76C35.1249 306.76 34.3036 307.213 33.6743 308.12C33.0449 309.016 32.7303 310.109 32.7303 311.4C32.7303 312.669 33.0503 313.763 33.6903 314.68ZM47.0035 317.192C45.2435 317.192 43.8515 316.525 42.8275 315.192L43.7395 314.376C44.6462 315.485 45.7395 316.04 47.0195 316.04C47.7128 316.04 48.2942 315.837 48.7635 315.432C49.2328 315.027 49.4675 314.493 49.4675 313.832C49.4675 313.149 49.1795 312.621 48.6035 312.248C48.0275 311.864 47.2702 311.672 46.3315 311.672H45.6115L45.3555 310.92L48.8915 306.936H43.4195V305.8H50.5715V306.728L47.0515 310.632C48.1182 310.717 48.9982 311.027 49.6915 311.56C50.3955 312.083 50.7475 312.835 50.7475 313.816C50.7475 314.797 50.3848 315.608 49.6595 316.248C48.9448 316.877 48.0595 317.192 47.0035 317.192ZM61.296 315.512C60.4213 316.632 59.28 317.192 57.872 317.192C56.464 317.192 55.3227 316.637 54.448 315.528C53.584 314.408 53.152 313.032 53.152 311.4C53.152 309.789 53.5893 308.424 54.464 307.304C55.3493 306.173 56.496 305.608 57.904 305.608C59.312 305.608 60.448 306.168 61.312 307.288C62.176 308.397 62.608 309.768 62.608 311.4C62.608 313.011 62.1707 314.381 61.296 315.512ZM55.424 314.68C56.064 315.587 56.8907 316.04 57.904 316.04C58.9173 316.04 59.7333 315.592 60.352 314.696C60.9813 313.789 61.296 312.691 61.296 311.4C61.296 310.131 60.976 309.043 60.336 308.136C59.7067 307.219 58.8853 306.76 57.872 306.76C56.8587 306.76 56.0373 307.213 55.408 308.12C54.7787 309.016 54.464 310.109 54.464 311.4C54.464 312.669 54.784 313.763 55.424 314.68ZM68.7372 317.192C66.9772 317.192 65.5852 316.525 64.5612 315.192L65.4732 314.376C66.3799 315.485 67.4732 316.04 68.7532 316.04C69.4466 316.04 70.0279 315.837 70.4973 315.432C70.9666 315.027 71.2013 314.493 71.2013 313.832C71.2013 313.149 70.9132 312.621 70.3372 312.248C69.7612 311.864 69.0039 311.672 68.0652 311.672H67.3452L67.0892 310.92L70.6252 306.936H65.1532V305.8H72.3053V306.728L68.7852 310.632C69.8519 310.717 70.7319 311.027 71.4253 311.56C72.1292 312.083 72.4812 312.835 72.4812 313.816C72.4812 314.797 72.1186 315.608 71.3932 316.248C70.6786 316.877 69.7932 317.192 68.7372 317.192Z" fill="#262626"/>
<path d="M146.523 319.512C145.649 320.632 144.507 321.192 143.099 321.192C141.691 321.192 140.55 320.637 139.675 319.528C138.811 318.408 138.379 317.032 138.379 315.4C138.379 313.789 138.817 312.424 139.691 311.304C140.577 310.173 141.723 309.608 143.131 309.608C144.539 309.608 145.675 310.168 146.539 311.288C147.403 312.397 147.835 313.768 147.835 315.4C147.835 317.011 147.398 318.381 146.523 319.512ZM140.651 318.68C141.291 319.587 142.118 320.04 143.131 320.04C144.145 320.04 144.961 319.592 145.579 318.696C146.209 317.789 146.523 316.691 146.523 315.4C146.523 314.131 146.203 313.043 145.563 312.136C144.934 311.219 144.113 310.76 143.099 310.76C142.086 310.76 141.265 311.213 140.635 312.12C140.006 313.016 139.691 314.109 139.691 315.4C139.691 316.669 140.011 317.763 140.651 318.68ZM153.964 321.192C152.204 321.192 150.812 320.525 149.788 319.192L150.7 318.376C151.607 319.485 152.7 320.04 153.98 320.04C154.674 320.04 155.255 319.837 155.724 319.432C156.194 319.027 156.428 318.493 156.428 317.832C156.428 317.149 156.14 316.621 155.564 316.248C154.988 315.864 154.231 315.672 153.292 315.672H152.572L152.316 314.92L155.852 310.936H150.38V309.8H157.532V310.728L154.012 314.632C155.079 314.717 155.959 315.027 156.652 315.56C157.356 316.083 157.708 316.835 157.708 317.816C157.708 318.797 157.346 319.608 156.62 320.248C155.906 320.877 155.02 321.192 153.964 321.192ZM168.257 319.512C167.382 320.632 166.241 321.192 164.833 321.192C163.425 321.192 162.284 320.637 161.409 319.528C160.545 318.408 160.113 317.032 160.113 315.4C160.113 313.789 160.55 312.424 161.425 311.304C162.31 310.173 163.457 309.608 164.865 309.608C166.273 309.608 167.409 310.168 168.273 311.288C169.137 312.397 169.569 313.768 169.569 315.4C169.569 317.011 169.132 318.381 168.257 319.512ZM162.385 318.68C163.025 319.587 163.852 320.04 164.865 320.04C165.878 320.04 166.694 319.592 167.313 318.696C167.942 317.789 168.257 316.691 168.257 315.4C168.257 314.131 167.937 313.043 167.297 312.136C166.668 311.219 165.846 310.76 164.833 310.76C163.82 310.76 162.998 311.213 162.369 312.12C161.74 313.016 161.425 314.109 161.425 315.4C161.425 316.669 161.745 317.763 162.385 318.68ZM173.742 321V311.032L171.63 311.688L171.326 310.664L174.062 309.72H174.99V321H173.742Z" fill="#262626"/>
<path d="M381.351 70.512C380.477 71.632 379.335 72.192 377.927 72.192C376.519 72.192 375.378 71.6373 374.503 70.528C373.639 69.408 373.207 68.032 373.207 66.4C373.207 64.7893 373.645 63.424 374.519 62.304C375.405 61.1733 376.551 60.608 377.959 60.608C379.367 60.608 380.503 61.168 381.367 62.288C382.231 63.3973 382.663 64.768 382.663 66.4C382.663 68.0107 382.226 69.3813 381.351 70.512ZM375.479 69.68C376.119 70.5867 376.946 71.04 377.959 71.04C378.973 71.04 379.789 70.592 380.407 69.696C381.037 68.7893 381.351 67.6907 381.351 66.4C381.351 65.1307 381.031 64.0427 380.391 63.136C379.762 62.2187 378.941 61.76 377.927 61.76C376.914 61.76 376.093 62.2133 375.463 63.12C374.834 64.016 374.519 65.1093 374.519 66.4C374.519 67.6693 374.839 68.7627 375.479 69.68ZM388.793 72.192C387.033 72.192 385.641 71.5253 384.617 70.192L385.529 69.376C386.435 70.4853 387.529 71.04 388.809 71.04C389.502 71.04 390.083 70.8373 390.553 70.432C391.022 70.0267 391.257 69.4933 391.257 68.832C391.257 68.1493 390.969 67.6213 390.393 67.248C389.817 66.864 389.059 66.672 388.121 66.672H387.401L387.145 65.92L390.681 61.936H385.209V60.8H392.361V61.728L388.841 65.632C389.907 65.7173 390.787 66.0267 391.481 66.56C392.185 67.0827 392.537 67.8347 392.537 68.816C392.537 69.7973 392.174 70.608 391.449 71.248C390.734 71.8773 389.849 72.192 388.793 72.192ZM403.085 70.512C402.21 71.632 401.069 72.192 399.661 72.192C398.253 72.192 397.112 71.6373 396.237 70.528C395.373 69.408 394.941 68.032 394.941 66.4C394.941 64.7893 395.378 63.424 396.253 62.304C397.138 61.1733 398.285 60.608 399.693 60.608C401.101 60.608 402.237 61.168 403.101 62.288C403.965 63.3973 404.397 64.768 404.397 66.4C404.397 68.0107 403.96 69.3813 403.085 70.512ZM397.213 69.68C397.853 70.5867 398.68 71.04 399.693 71.04C400.706 71.04 401.522 70.592 402.141 69.696C402.77 68.7893 403.085 67.6907 403.085 66.4C403.085 65.1307 402.765 64.0427 402.125 63.136C401.496 62.2187 400.674 61.76 399.661 61.76C398.648 61.76 397.826 62.2133 397.197 63.12C396.568 64.016 396.253 65.1093 396.253 66.4C396.253 67.6693 396.573 68.7627 397.213 69.68ZM413.755 71.28C412.955 71.8667 411.952 72.16 410.747 72.16C409.541 72.16 408.539 71.8613 407.739 71.264C406.939 70.6667 406.539 69.8987 406.539 68.96C406.539 68.32 406.747 67.7653 407.163 67.296C407.579 66.8267 408.139 66.464 408.843 66.208C407.563 65.6213 406.923 64.752 406.923 63.6C406.923 62.7573 407.296 62.0533 408.043 61.488C408.8 60.9227 409.701 60.64 410.747 60.64C411.792 60.64 412.688 60.9227 413.435 61.488C414.192 62.0533 414.571 62.768 414.571 63.632C414.571 64.7627 413.931 65.6213 412.651 66.208C414.187 66.784 414.955 67.7067 414.955 68.976C414.955 69.9147 414.555 70.6827 413.755 71.28ZM408.923 65.184C409.413 65.568 410.021 65.76 410.747 65.76C411.472 65.76 412.08 65.568 412.571 65.184C413.061 64.8 413.307 64.2987 413.307 63.68C413.307 63.1253 413.061 62.6667 412.571 62.304C412.08 61.9307 411.472 61.744 410.747 61.744C410.011 61.744 409.397 61.9307 408.907 62.304C408.427 62.6667 408.187 63.136 408.187 63.712C408.187 64.3093 408.432 64.8 408.923 65.184ZM408.603 70.448C409.136 70.8533 409.851 71.056 410.747 71.056C411.643 71.056 412.352 70.8533 412.875 70.448C413.408 70.0427 413.675 69.536 413.675 68.928C413.675 68.3093 413.392 67.8027 412.827 67.408C412.261 67.0027 411.568 66.8 410.747 66.8C409.915 66.8 409.216 67.0027 408.651 67.408C408.096 67.8133 407.819 68.3307 407.819 68.96C407.819 69.5467 408.08 70.0427 408.603 70.448Z" fill="#262626"/>
<path d="M457.211 70.512C456.336 71.632 455.195 72.192 453.787 72.192C452.379 72.192 451.237 71.6373 450.363 70.528C449.499 69.408 449.067 68.032 449.067 66.4C449.067 64.7893 449.504 63.424 450.379 62.304C451.264 61.1733 452.411 60.608 453.819 60.608C455.227 60.608 456.363 61.168 457.227 62.288C458.091 63.3973 458.523 64.768 458.523 66.4C458.523 68.0107 458.085 69.3813 457.211 70.512ZM451.339 69.68C451.979 70.5867 452.805 71.04 453.819 71.04C454.832 71.04 455.648 70.592 456.267 69.696C456.896 68.7893 457.211 67.6907 457.211 66.4C457.211 65.1307 456.891 64.0427 456.251 63.136C455.621 62.2187 454.8 61.76 453.787 61.76C452.773 61.76 451.952 62.2133 451.323 63.12C450.693 64.016 450.379 65.1093 450.379 66.4C450.379 67.6693 450.699 68.7627 451.339 69.68ZM464.652 72.192C462.892 72.192 461.5 71.5253 460.476 70.192L461.388 69.376C462.295 70.4853 463.388 71.04 464.668 71.04C465.361 71.04 465.943 70.8373 466.412 70.432C466.881 70.0267 467.116 69.4933 467.116 68.832C467.116 68.1493 466.828 67.6213 466.252 67.248C465.676 66.864 464.919 66.672 463.98 66.672H463.26L463.004 65.92L466.54 61.936H461.068V60.8H468.22V61.728L464.7 65.632C465.767 65.7173 466.647 66.0267 467.34 66.56C468.044 67.0827 468.396 67.8347 468.396 68.816C468.396 69.7973 468.033 70.608 467.308 71.248C466.593 71.8773 465.708 72.192 464.652 72.192ZM478.944 70.512C478.07 71.632 476.928 72.192 475.52 72.192C474.112 72.192 472.971 71.6373 472.096 70.528C471.232 69.408 470.8 68.032 470.8 66.4C470.8 64.7893 471.238 63.424 472.112 62.304C472.998 61.1733 474.144 60.608 475.552 60.608C476.96 60.608 478.096 61.168 478.96 62.288C479.824 63.3973 480.256 64.768 480.256 66.4C480.256 68.0107 479.819 69.3813 478.944 70.512ZM473.072 69.68C473.712 70.5867 474.539 71.04 475.552 71.04C476.566 71.04 477.382 70.592 478 69.696C478.63 68.7893 478.944 67.6907 478.944 66.4C478.944 65.1307 478.624 64.0427 477.984 63.136C477.355 62.2187 476.534 61.76 475.52 61.76C474.507 61.76 473.686 62.2133 473.056 63.12C472.427 64.016 472.112 65.1093 472.112 66.4C472.112 67.6693 472.432 68.7627 473.072 69.68ZM486.286 72.192C485.091 72.192 483.939 71.7333 482.83 70.816L483.566 69.84C484.473 70.64 485.39 71.04 486.318 71.04C487.31 71.04 488.11 70.5973 488.718 69.712C489.337 68.816 489.646 67.6693 489.646 66.272V66.128C488.899 67.3227 487.843 67.92 486.478 67.92C485.326 67.92 484.387 67.5947 483.662 66.944C482.937 66.2827 482.574 65.44 482.574 64.416C482.574 63.3387 482.953 62.4373 483.71 61.712C484.467 60.976 485.433 60.608 486.606 60.608C487.929 60.608 488.979 61.0507 489.758 61.936C490.547 62.8213 490.942 64.2187 490.942 66.128C490.942 67.9093 490.51 69.3653 489.646 70.496C488.782 71.6267 487.662 72.192 486.286 72.192ZM486.622 66.832C487.443 66.832 488.11 66.576 488.622 66.064C489.145 65.552 489.406 64.9547 489.406 64.272C489.406 63.5467 489.139 62.944 488.606 62.464C488.073 61.9733 487.39 61.728 486.558 61.728C485.747 61.728 485.097 61.9893 484.606 62.512C484.115 63.024 483.87 63.648 483.87 64.384C483.87 65.0987 484.126 65.6853 484.638 66.144C485.15 66.6027 485.811 66.832 486.622 66.832Z" fill="#262626"/>
<path d="M462.375 265.512C461.5 266.632 460.359 267.192 458.951 267.192C457.543 267.192 456.401 266.637 455.527 265.528C454.663 264.408 454.231 263.032 454.231 261.4C454.231 259.789 454.668 258.424 455.543 257.304C456.428 256.173 457.575 255.608 458.983 255.608C460.391 255.608 461.527 256.168 462.391 257.288C463.255 258.397 463.687 259.768 463.687 261.4C463.687 263.011 463.249 264.381 462.375 265.512ZM456.503 264.68C457.143 265.587 457.969 266.04 458.983 266.04C459.996 266.04 460.812 265.592 461.431 264.696C462.06 263.789 462.375 262.691 462.375 261.4C462.375 260.131 462.055 259.043 461.415 258.136C460.785 257.219 459.964 256.76 458.951 256.76C457.937 256.76 457.116 257.213 456.487 258.12C455.857 259.016 455.543 260.109 455.543 261.4C455.543 262.669 455.863 263.763 456.503 264.68ZM469.816 267.192C468.056 267.192 466.664 266.525 465.64 265.192L466.552 264.376C467.459 265.485 468.552 266.04 469.832 266.04C470.525 266.04 471.107 265.837 471.576 265.432C472.045 265.027 472.28 264.493 472.28 263.832C472.28 263.149 471.992 262.621 471.416 262.248C470.84 261.864 470.083 261.672 469.144 261.672H468.424L468.168 260.92L471.704 256.936H466.232V255.8H473.384V256.728L469.864 260.632C470.931 260.717 471.811 261.027 472.504 261.56C473.208 262.083 473.56 262.835 473.56 263.816C473.56 264.797 473.197 265.608 472.472 266.248C471.757 266.877 470.872 267.192 469.816 267.192ZM477.836 267V257.032L475.724 257.688L475.42 256.664L478.157 255.72H479.084V267H477.836ZM483.891 267V257.032L481.779 257.688L481.475 256.664L484.211 255.72H485.139V267H483.891Z" fill="#262626"/>
<path d="M385.453 265.512C384.578 266.632 383.437 267.192 382.029 267.192C380.621 267.192 379.48 266.637 378.605 265.528C377.741 264.408 377.309 263.032 377.309 261.4C377.309 259.789 377.746 258.424 378.621 257.304C379.506 256.173 380.653 255.608 382.061 255.608C383.469 255.608 384.605 256.168 385.469 257.288C386.333 258.397 386.765 259.768 386.765 261.4C386.765 263.011 386.328 264.381 385.453 265.512ZM379.581 264.68C380.221 265.587 381.048 266.04 382.061 266.04C383.074 266.04 383.89 265.592 384.509 264.696C385.138 263.789 385.453 262.691 385.453 261.4C385.453 260.131 385.133 259.043 384.493 258.136C383.864 257.219 383.042 256.76 382.029 256.76C381.016 256.76 380.194 257.213 379.565 258.12C378.936 259.016 378.621 260.109 378.621 261.4C378.621 262.669 378.941 263.763 379.581 264.68ZM392.894 267.192C391.134 267.192 389.742 266.525 388.718 265.192L389.63 264.376C390.537 265.485 391.63 266.04 392.91 266.04C393.603 266.04 394.185 265.837 394.654 265.432C395.123 265.027 395.358 264.493 395.358 263.832C395.358 263.149 395.07 262.621 394.494 262.248C393.918 261.864 393.161 261.672 392.222 261.672H391.502L391.246 260.92L394.782 256.936H389.31V255.8H396.462V256.728L392.942 260.632C394.009 260.717 394.889 261.027 395.582 261.56C396.286 262.083 396.638 262.835 396.638 263.816C396.638 264.797 396.275 265.608 395.55 266.248C394.835 266.877 393.95 267.192 392.894 267.192ZM400.915 267V257.032L398.803 257.688L398.499 256.664L401.235 255.72H402.163V267H400.915ZM404.873 267V266.024L408.937 262.44C409.812 261.672 410.42 261.032 410.761 260.52C411.102 260.008 411.273 259.475 411.273 258.92C411.273 258.28 411.054 257.763 410.617 257.368C410.18 256.973 409.646 256.776 409.017 256.776C408.409 256.776 407.87 256.931 407.401 257.24C406.942 257.549 406.478 258.035 406.009 258.696L405.081 258.024C405.625 257.213 406.201 256.616 406.809 256.232C407.417 255.837 408.185 255.64 409.113 255.64C410.116 255.64 410.942 255.944 411.593 256.552C412.254 257.149 412.585 257.912 412.585 258.84C412.585 259.608 412.377 260.291 411.961 260.888C411.545 261.485 410.809 262.253 409.753 263.192L406.761 265.848H412.697V267H404.873Z" fill="#262626"/>
<path d="M246.951 54.192C245.341 54.192 244.002 53.6373 242.935 52.528C241.869 51.408 241.335 50.032 241.335 48.4C241.335 46.7893 241.874 45.424 242.951 44.304C244.029 43.1733 245.378 42.608 246.999 42.608C247.938 42.608 248.738 42.7627 249.399 43.072C250.061 43.3707 250.706 43.8187 251.335 44.416L250.503 45.312C249.426 44.288 248.253 43.776 246.983 43.776C245.746 43.776 244.711 44.2187 243.879 45.104C243.058 45.9893 242.647 47.088 242.647 48.4C242.647 49.7013 243.063 50.8 243.895 51.696C244.727 52.5813 245.757 53.024 246.983 53.024C247.709 53.024 248.349 52.8907 248.903 52.624C249.458 52.3573 250.023 51.952 250.599 51.408L251.431 52.288C250.802 52.9173 250.141 53.392 249.447 53.712C248.754 54.032 247.922 54.192 246.951 54.192ZM255.756 54V46.816H252.796V45.728H259.964V46.816H257.004V54H255.756ZM268.94 52.928C268.108 53.7707 267.078 54.192 265.852 54.192C264.625 54.192 263.601 53.7707 262.78 52.928C261.969 52.0853 261.564 51.0667 261.564 49.872C261.564 48.688 261.974 47.6747 262.796 46.832C263.628 45.9787 264.657 45.552 265.884 45.552C267.11 45.552 268.134 45.9733 268.956 46.816C269.777 47.6587 270.188 48.6773 270.188 49.872C270.188 51.056 269.772 52.0747 268.94 52.928ZM265.884 53.088C266.769 53.088 267.494 52.7787 268.06 52.16C268.636 51.5413 268.924 50.7787 268.924 49.872C268.924 48.976 268.625 48.2133 268.028 47.584C267.441 46.9547 266.716 46.64 265.852 46.64C264.966 46.64 264.241 46.9547 263.676 47.584C263.11 48.2027 262.828 48.9653 262.828 49.872C262.828 50.768 263.121 51.5307 263.708 52.16C264.294 52.7787 265.02 53.088 265.884 53.088ZM272.339 54.128C272.019 54.128 271.689 54.0853 271.347 54L271.491 52.944C271.737 53.0187 271.934 53.056 272.083 53.056C272.318 53.056 272.51 53.0293 272.659 52.976C272.809 52.912 272.969 52.7573 273.139 52.512C273.321 52.256 273.459 51.8987 273.555 51.44C273.651 50.9813 273.731 50.3307 273.795 49.488C273.87 48.6453 273.907 47.6213 273.907 46.416V45.728H279.763V54H278.531V46.816H275.075V47.008C275.075 48.2667 275.027 49.3387 274.931 50.224C274.835 51.1093 274.713 51.8027 274.563 52.304C274.425 52.8053 274.227 53.1947 273.971 53.472C273.715 53.7493 273.465 53.9253 273.219 54C272.985 54.0853 272.691 54.128 272.339 54.128ZM289.705 52.928C288.873 53.7707 287.843 54.192 286.617 54.192C285.39 54.192 284.366 53.7707 283.545 52.928C282.734 52.0853 282.329 51.0667 282.329 49.872C282.329 48.688 282.739 47.6747 283.561 46.832C284.393 45.9787 285.422 45.552 286.649 45.552C287.875 45.552 288.899 45.9733 289.721 46.816C290.542 47.6587 290.953 48.6773 290.953 49.872C290.953 51.056 290.537 52.0747 289.705 52.928ZM286.649 53.088C287.534 53.088 288.259 52.7787 288.825 52.16C289.401 51.5413 289.689 50.7787 289.689 49.872C289.689 48.976 289.39 48.2133 288.793 47.584C288.206 46.9547 287.481 46.64 286.617 46.64C285.731 46.64 285.006 46.9547 284.441 47.584C283.875 48.2027 283.593 48.9653 283.593 49.872C283.593 50.768 283.886 51.5307 284.473 52.16C285.059 52.7787 285.785 53.088 286.649 53.088ZM293.504 54V45.728H297.504C298.326 45.728 298.982 45.9147 299.472 46.288C299.963 46.6613 300.208 47.1627 300.208 47.792C300.208 48.6773 299.75 49.312 298.832 49.696C300.048 50.0267 300.656 50.7093 300.656 51.744C300.656 52.4373 300.384 52.9867 299.84 53.392C299.296 53.7973 298.566 54 297.648 54H293.504ZM294.736 52.944H297.488C298.075 52.944 298.539 52.8213 298.88 52.576C299.222 52.3307 299.392 51.9893 299.392 51.552C299.392 51.1467 299.211 50.832 298.848 50.608C298.496 50.384 297.99 50.272 297.328 50.272H294.736V52.944ZM294.736 49.28H297.28C297.792 49.28 298.198 49.168 298.496 48.944C298.806 48.7093 298.96 48.3787 298.96 47.952C298.96 47.6 298.816 47.3173 298.528 47.104C298.24 46.8907 297.835 46.784 297.312 46.784H294.736V49.28ZM305.663 54.176C304.821 54.176 304.095 53.9467 303.487 53.488C302.879 53.0293 302.575 52.3893 302.575 51.568C302.575 50.704 302.895 50.0373 303.535 49.568C304.175 49.0987 305.034 48.864 306.111 48.864C306.965 48.864 307.807 48.9813 308.639 49.216V48.96C308.639 48.2347 308.426 47.68 307.999 47.296C307.573 46.912 306.97 46.72 306.191 46.72C305.381 46.72 304.543 46.9173 303.679 47.312L303.311 46.304C304.335 45.8347 305.338 45.6 306.319 45.6C307.493 45.6 308.383 45.904 308.991 46.512C309.567 47.088 309.855 47.8987 309.855 48.944V54H308.639V52.768C307.903 53.7067 306.911 54.176 305.663 54.176ZM305.903 53.184C306.671 53.184 307.322 52.976 307.855 52.56C308.389 52.144 308.655 51.6107 308.655 50.96V50.192C307.845 49.9573 307.039 49.84 306.239 49.84C305.482 49.84 304.89 49.9947 304.463 50.304C304.037 50.6027 303.823 51.0133 303.823 51.536C303.823 52.0373 304.021 52.4373 304.415 52.736C304.821 53.0347 305.317 53.184 305.903 53.184ZM312.049 54L314.577 50.8C313.926 50.6507 313.393 50.3573 312.977 49.92C312.572 49.4827 312.369 48.944 312.369 48.304C312.369 47.536 312.646 46.9173 313.201 46.448C313.756 45.968 314.518 45.728 315.489 45.728H319.377V54H318.145V50.992H315.857C315.761 51.12 315.43 51.5573 314.865 52.304C314.3 53.0507 313.868 53.616 313.569 54H312.049ZM315.585 49.952H318.145V46.816H315.553C314.945 46.816 314.465 46.9547 314.113 47.232C313.772 47.4987 313.601 47.872 313.601 48.352C313.601 48.8427 313.782 49.232 314.145 49.52C314.518 49.808 314.998 49.952 315.585 49.952Z" fill="#262626"/>
<rect x="152" y="263" width="10" height="16" rx="1" fill="#615FC5"/>
<path d="M156.039 233.328C156.317 232.365 157.683 232.365 157.961 233.328L161.827 246.723C162.012 247.362 161.532 248 160.867 248H153.133C152.468 248 151.988 247.362 152.173 246.723L156.039 233.328Z" fill="#615FC5"/>
<circle cx="157" cy="227" r="3" fill="#615FC5"/>
<circle cx="157" cy="258" r="3" fill="#615FC5"/>
<g filter="url(#filter3_f_48_18)">
<rect x="152" y="263" width="10" height="16" rx="1" fill="#E7E7FF"/>
<path d="M156.039 233.328C156.317 232.365 157.683 232.365 157.961 233.328L161.827 246.723C162.012 247.362 161.532 248 160.867 248H153.133C152.468 248 151.988 247.362 152.173 246.723L156.039 233.328Z" fill="#E7E7FF"/>
<circle cx="157" cy="227" r="3" fill="#E7E7FF"/>
<circle cx="157" cy="258" r="3" fill="#E7E7FF"/>
</g>
<defs>
<filter id="filter0_f_48_18" x="5" y="5" width="493" height="338.5" filterUnits="userSpaceOnUse" color-interpolation-filters="sRGB">
<feFlood flood-opacity="0" result="BackgroundImageFix"/>
<feBlend mode="normal" in="SourceGraphic" in2="BackgroundImageFix" result="shape"/>
<feGaussianBlur stdDeviation="0.5" result="effect1_foregroundBlur_48_18"/>
</filter>
<filter id="filter1_f_48_18" x="0.5" y="0.5" width="502" height="347.5" filterUnits="userSpaceOnUse" color-interpolation-filters="sRGB">
<feFlood flood-opacity="0" result="BackgroundImageFix"/>
<feBlend mode="normal" in="SourceGraphic" in2="BackgroundImageFix" result="shape"/>
<feGaussianBlur stdDeviation="2" result="effect1_foregroundBlur_48_18"/>
</filter>
<filter id="filter2_f_48_18" x="4" y="4" width="495" height="340.5" filterUnits="userSpaceOnUse" color-interpolation-filters="sRGB">
<feFlood flood-opacity="0" result="BackgroundImageFix"/>
<feBlend mode="normal" in="SourceGraphic" in2="BackgroundImageFix" result="shape"/>
<feGaussianBlur stdDeviation="0.5" result="effect1_foregroundBlur_48_18"/>
</filter>
<filter id="filter3_f_48_18" x="148" y="220" width="18" height="63" filterUnits="userSpaceOnUse" color-interpolation-filters="sRGB">
<feFlood flood-opacity="0" result="BackgroundImageFix"/>
<feBlend mode="normal" in="SourceGraphic" in2="BackgroundImageFix" result="shape"/>
<feGaussianBlur stdDeviation="2" result="effect1_foregroundBlur_48_18"/>
</filter>
</defs>
</svg>
