<svg width="587" height="388" viewBox="0 0 587 388" fill="none" xmlns="http://www.w3.org/2000/svg">
<g filter="url(#filter0_f_55_1149)">
<path d="M372 22V6H434H521.5V88.25V109H570V153V207H581V317H491.5V289.5H434V340.5H331V289.5H254V353.5H212V289.5H197V353.5H157V289.5H144.5V382H101V358H39V328H101V311H39V279H101V250.5H67.5V244V225.5V202.5H6V170.5H67.5V159.5H101V121H39V91H101V79H39V49.5H101V35H39V6H101H146H191V56.5H220V6H261V56.5H372V43V22Z" fill="#F1F1FF" fill-opacity="0.2"/>
</g>
<g filter="url(#filter1_f_55_1149)">
<path d="M372 22V6H434M434 6V88.25M434 6H521.5V88.25H434M434 170.5V88.25M372 43V56.5H261M261 56.5V6H220V56.5M261 56.5H220M220 56.5H191M191 56.5V6H146M191 56.5H146V6M101 35H39V6H101M101 35V49.5M101 35V6M101 49.5H39V79H101M101 49.5V79M101 79V91M101 91H39V121H101M101 91V121M101 121V159.5H67.5V170.5M67.5 170.5H6V202.5H67.5M67.5 170.5V202.5M67.5 202.5V225.5M67.5 244V250.5H101V279M101 279H39V311H101M101 279V311M101 311V328M101 328H39V358H101M101 328V358M101 358V382H144.5V289.5H157M157 289.5V353.5H197V289.5M157 289.5H197M197 289.5H212M212 289.5V353.5H254V289.5M212 289.5H254M254 289.5H331M331 289.5V340.5H434V289.5M331 289.5H434M434 289.5H491.5M434 289.5V229.5M491.5 289.5V317H581V207H491.5V229.5M491.5 289.5V229.5M491.5 229.5H434M434 229.5V200M101 6H146M355 128.5H399.5V170.5M399.5 207V250.5H292V128.5H331M182.5 88.25H144.5V121M182.5 88.25V124.5H207.5V88.25M182.5 88.25H207.5M207.5 88.25H280.5V250.5H254M144.5 121H171.5V153H144.5M144.5 121V153M144.5 153V170.5M144.5 170.5H171.5V202.5H144.5M144.5 170.5V202.5M144.5 202.5V212.5M144.5 212.5V250.5H220M144.5 212.5H220V250.5M220 250.5H230M230 250.5V212.5H254V250.5M230 250.5H254M521.5 109V153H570V109H521.5Z" stroke="#615FC5" stroke-width="3"/>
</g>
<path d="M372 22V6H434M434 6V88.25M434 6H521.5V88.25H434M434 170.5V88.25M372 43V56.5H261M261 56.5V6H220V56.5M261 56.5H220M220 56.5H191M191 56.5V6H146M191 56.5H146V6M101 35H39V6H101M101 35V49.5M101 35V6M101 49.5H39V79H101M101 49.5V79M101 79V91M101 91H39V121H101M101 91V121M101 121V159.5H67.5V170.5M67.5 170.5H6V202.5H67.5M67.5 170.5V202.5M67.5 202.5V225.5M67.5 244V250.5H101V279M101 279H39V311H101M101 279V311M101 311V328M101 328H39V358H101M101 328V358M101 358V382H144.5V289.5H157M157 289.5V353.5H197V289.5M157 289.5H197M197 289.5H212M212 289.5V353.5H254V289.5M212 289.5H254M254 289.5H331M331 289.5V340.5H434V289.5M331 289.5H434M434 289.5H491.5M434 289.5V229.5M491.5 289.5V317H581V207H491.5V229.5M491.5 289.5V229.5M491.5 229.5H434M434 229.5V200M101 6H146M355 128.5H399.5V170.5M399.5 207V250.5H292V128.5H331M182.5 88.25H144.5V121M182.5 88.25V124.5H207.5V88.25M182.5 88.25H207.5M207.5 88.25H280.5V250.5H254M144.5 121H171.5V153H144.5M144.5 121V153M144.5 153V170.5M144.5 170.5H171.5V202.5H144.5M144.5 170.5V202.5M144.5 202.5V212.5M144.5 212.5V250.5H220M144.5 212.5H220V250.5M220 250.5H230M230 250.5V212.5H254V250.5M230 250.5H254M521.5 109V153H570V109H521.5Z" stroke="#4548B7" stroke-width="3"/>
<g filter="url(#filter2_f_55_1149)">
<path d="M372 22V6H434M434 6V88.25M434 6H521.5V88.25H434M434 170.5V88.25M372 43V56.5H261M261 56.5V6H220V56.5M261 56.5H220M220 56.5H191M191 56.5V6H146M191 56.5H146V6M101 35H39V6H101M101 35V49.5M101 35V6M101 49.5H39V79H101M101 49.5V79M101 79V91M101 91H39V121H101M101 91V121M101 121V159.5H67.5V170.5M67.5 170.5H6V202.5H67.5M67.5 170.5V202.5M67.5 202.5V225.5M67.5 244V250.5H101V279M101 279H39V311H101M101 279V311M101 311V328M101 328H39V358H101M101 328V358M101 358V382H144.5V289.5H157M157 289.5V353.5H197V289.5M157 289.5H197M197 289.5H212M212 289.5V353.5H254V289.5M212 289.5H254M254 289.5H331M331 289.5V340.5H434V289.5M331 289.5H434M434 289.5H491.5M434 289.5V229.5M491.5 289.5V317H581V207H491.5V229.5M491.5 289.5V229.5M491.5 229.5H434M434 229.5V200M101 6H146M355 128.5H399.5V170.5M399.5 207V250.5H292V128.5H331M182.5 88.25H144.5V121M182.5 88.25V124.5H207.5V88.25M182.5 88.25H207.5M207.5 88.25H280.5V250.5H254M144.5 121H171.5V153H144.5M144.5 121V153M144.5 153V170.5M144.5 170.5H171.5V202.5H144.5M144.5 170.5V202.5M144.5 202.5V212.5M144.5 212.5V250.5H220M144.5 212.5H220V250.5M220 250.5H230M230 250.5V212.5H254V250.5M230 250.5H254M521.5 109V153H570V109H521.5Z" stroke="#E7E7FF" stroke-width="2"/>
</g>
<path d="M60.2732 24.512C59.3985 25.632 58.2572 26.192 56.8492 26.192C55.4412 26.192 54.2999 25.6373 53.4252 24.528C52.5612 23.408 52.1292 22.032 52.1292 20.4C52.1292 18.7893 52.5665 17.424 53.4412 16.304C54.3265 15.1733 55.4732 14.608 56.8812 14.608C58.2892 14.608 59.4252 15.168 60.2892 16.288C61.1532 17.3973 61.5852 18.768 61.5852 20.4C61.5852 22.0107 61.1479 23.3813 60.2732 24.512ZM54.4012 23.68C55.0412 24.5867 55.8679 25.04 56.8812 25.04C57.8945 25.04 58.7105 24.592 59.3292 23.696C59.9585 22.7893 60.2732 21.6907 60.2732 20.4C60.2732 19.1307 59.9532 18.0427 59.3132 17.136C58.6839 16.2187 57.8625 15.76 56.8492 15.76C55.8359 15.76 55.0145 16.2133 54.3852 17.12C53.7559 18.016 53.4412 19.1093 53.4412 20.4C53.4412 21.6693 53.7612 22.7627 54.4012 23.68ZM67.7427 26.192C66.26 26.192 64.9267 25.6 63.7427 24.416L64.5747 23.504C65.6307 24.528 66.692 25.04 67.7587 25.04C68.5587 25.04 69.2094 24.8053 69.7107 24.336C70.212 23.8667 70.4627 23.264 70.4627 22.528C70.4627 21.8347 70.2014 21.2693 69.6787 20.832C69.1667 20.3947 68.5 20.176 67.6787 20.176C66.9107 20.176 66.1267 20.3893 65.3267 20.816L64.4787 20.256L64.7987 14.8H71.2467V15.968H65.9027L65.6627 19.552C66.42 19.2213 67.156 19.056 67.8707 19.056C68.9907 19.056 69.9134 19.3707 70.6387 20C71.3747 20.6187 71.7427 21.456 71.7427 22.512C71.7427 23.6 71.3694 24.4853 70.6227 25.168C69.876 25.8507 68.916 26.192 67.7427 26.192ZM75.8756 26V16.032L73.7636 16.688L73.4596 15.664L76.1956 14.72H77.1236V26H75.8756ZM83.9139 26.192C82.4313 26.192 81.0979 25.6 79.9139 24.416L80.7459 23.504C81.8019 24.528 82.8633 25.04 83.9299 25.04C84.7299 25.04 85.3806 24.8053 85.8819 24.336C86.3833 23.8667 86.6339 23.264 86.6339 22.528C86.6339 21.8347 86.3726 21.2693 85.8499 20.832C85.3379 20.3947 84.6713 20.176 83.8499 20.176C83.0819 20.176 82.2979 20.3893 81.4979 20.816L80.6499 20.256L80.9699 14.8H87.4179V15.968H82.0739L81.8339 19.552C82.5913 19.2213 83.3273 19.056 84.0419 19.056C85.1619 19.056 86.0846 19.3707 86.8099 20C87.5459 20.6187 87.9139 21.456 87.9139 22.512C87.9139 23.6 87.5406 24.4853 86.7939 25.168C86.0473 25.8507 85.0873 26.192 83.9139 26.192Z" fill="#262626"/>
<path d="M60.3044 68.512C59.4298 69.632 58.2884 70.192 56.8804 70.192C55.4724 70.192 54.3311 69.6373 53.4564 68.528C52.5924 67.408 52.1604 66.032 52.1604 64.4C52.1604 62.7893 52.5978 61.424 53.4724 60.304C54.3578 59.1733 55.5044 58.608 56.9124 58.608C58.3204 58.608 59.4564 59.168 60.3204 60.288C61.1844 61.3973 61.6164 62.768 61.6164 64.4C61.6164 66.0107 61.1791 67.3813 60.3044 68.512ZM54.4324 67.68C55.0724 68.5867 55.8991 69.04 56.9124 69.04C57.9258 69.04 58.7418 68.592 59.3604 67.696C59.9898 66.7893 60.3044 65.6907 60.3044 64.4C60.3044 63.1307 59.9844 62.0427 59.3444 61.136C58.7151 60.2187 57.8938 59.76 56.8804 59.76C55.8671 59.76 55.0458 60.2133 54.4164 61.12C53.7871 62.016 53.4724 63.1093 53.4724 64.4C53.4724 65.6693 53.7924 66.7627 54.4324 67.68ZM67.7739 70.192C66.2913 70.192 64.9579 69.6 63.7739 68.416L64.6059 67.504C65.6619 68.528 66.7233 69.04 67.7899 69.04C68.5899 69.04 69.2406 68.8053 69.7419 68.336C70.2433 67.8667 70.4939 67.264 70.4939 66.528C70.4939 65.8347 70.2326 65.2693 69.7099 64.832C69.1979 64.3947 68.5313 64.176 67.7099 64.176C66.9419 64.176 66.1579 64.3893 65.3579 64.816L64.5099 64.256L64.8299 58.8H71.2779V59.968H65.9339L65.6939 63.552C66.4513 63.2213 67.1873 63.056 67.9019 63.056C69.0219 63.056 69.9446 63.3707 70.6699 64C71.4059 64.6187 71.7739 65.456 71.7739 66.512C71.7739 67.6 71.4006 68.4853 70.6539 69.168C69.9073 69.8507 68.9473 70.192 67.7739 70.192ZM75.9068 70V60.032L73.7948 60.688L73.4908 59.664L76.2268 58.72H77.1548V70H75.9068ZM86.0092 70V67.344H80.1052L79.7852 66.432L86.1212 58.72H87.2252V66.288H88.9692V67.344H87.2252V70H86.0092ZM81.3052 66.288H86.0092V60.512L81.3052 66.288Z" fill="#262626"/>
<path d="M60.2654 110.512C59.3907 111.632 58.2494 112.192 56.8414 112.192C55.4334 112.192 54.292 111.637 53.4174 110.528C52.5534 109.408 52.1214 108.032 52.1214 106.4C52.1214 104.789 52.5587 103.424 53.4334 102.304C54.3187 101.173 55.4654 100.608 56.8734 100.608C58.2814 100.608 59.4174 101.168 60.2814 102.288C61.1454 103.397 61.5774 104.768 61.5774 106.4C61.5774 108.011 61.14 109.381 60.2654 110.512ZM54.3934 109.68C55.0334 110.587 55.86 111.04 56.8734 111.04C57.8867 111.04 58.7027 110.592 59.3214 109.696C59.9507 108.789 60.2654 107.691 60.2654 106.4C60.2654 105.131 59.9454 104.043 59.3054 103.136C58.676 102.219 57.8547 101.76 56.8414 101.76C55.828 101.76 55.0067 102.213 54.3774 103.12C53.748 104.016 53.4334 105.109 53.4334 106.4C53.4334 107.669 53.7534 108.763 54.3934 109.68ZM67.7349 112.192C66.2522 112.192 64.9189 111.6 63.7349 110.416L64.5669 109.504C65.6229 110.528 66.6842 111.04 67.7509 111.04C68.5509 111.04 69.2015 110.805 69.7029 110.336C70.2042 109.867 70.4549 109.264 70.4549 108.528C70.4549 107.835 70.1935 107.269 69.6709 106.832C69.1589 106.395 68.4922 106.176 67.6709 106.176C66.9029 106.176 66.1189 106.389 65.3189 106.816L64.4709 106.256L64.7909 100.8H71.2389V101.968H65.8949L65.6549 105.552C66.4122 105.221 67.1482 105.056 67.8629 105.056C68.9829 105.056 69.9055 105.371 70.6309 106C71.3669 106.619 71.7349 107.456 71.7349 108.512C71.7349 109.6 71.3615 110.485 70.6149 111.168C69.8682 111.851 68.9082 112.192 67.7349 112.192ZM75.8677 112V102.032L73.7557 102.688L73.4517 101.664L76.1878 100.72H77.1157V112H75.8677ZM84.0341 112.192C82.2741 112.192 80.8821 111.525 79.8581 110.192L80.7701 109.376C81.6768 110.485 82.7701 111.04 84.0501 111.04C84.7435 111.04 85.3248 110.837 85.7941 110.432C86.2635 110.027 86.4981 109.493 86.4981 108.832C86.4981 108.149 86.2101 107.621 85.6341 107.248C85.0581 106.864 84.3008 106.672 83.3621 106.672H82.6421L82.3861 105.92L85.9221 101.936H80.4501V100.8H87.6021V101.728L84.0821 105.632C85.1488 105.717 86.0288 106.027 86.7221 106.56C87.4261 107.083 87.7781 107.835 87.7781 108.816C87.7781 109.797 87.4155 110.608 86.6901 111.248C85.9755 111.877 85.0901 112.192 84.0341 112.192Z" fill="#262626"/>
<path d="M29.3044 190.512C28.4298 191.632 27.2884 192.192 25.8804 192.192C24.4724 192.192 23.3311 191.637 22.4564 190.528C21.5924 189.408 21.1604 188.032 21.1604 186.4C21.1604 184.789 21.5978 183.424 22.4724 182.304C23.3578 181.173 24.5044 180.608 25.9124 180.608C27.3204 180.608 28.4564 181.168 29.3204 182.288C30.1844 183.397 30.6164 184.768 30.6164 186.4C30.6164 188.011 30.1791 189.381 29.3044 190.512ZM23.4324 189.68C24.0724 190.587 24.8991 191.04 25.9124 191.04C26.9258 191.04 27.7418 190.592 28.3604 189.696C28.9898 188.789 29.3044 187.691 29.3044 186.4C29.3044 185.131 28.9844 184.043 28.3444 183.136C27.7151 182.219 26.8938 181.76 25.8804 181.76C24.8671 181.76 24.0458 182.213 23.4164 183.12C22.7871 184.016 22.4724 185.109 22.4724 186.4C22.4724 187.669 22.7924 188.763 23.4324 189.68ZM36.7739 192.192C35.2913 192.192 33.9579 191.6 32.7739 190.416L33.6059 189.504C34.6619 190.528 35.7233 191.04 36.7899 191.04C37.5899 191.04 38.2406 190.805 38.7419 190.336C39.2433 189.867 39.4939 189.264 39.4939 188.528C39.4939 187.835 39.2326 187.269 38.7099 186.832C38.1979 186.395 37.5313 186.176 36.7099 186.176C35.9419 186.176 35.1579 186.389 34.3579 186.816L33.5099 186.256L33.8299 180.8H40.2779V181.968H34.9339L34.6939 185.552C35.4513 185.221 36.1873 185.056 36.9019 185.056C38.0219 185.056 38.9446 185.371 39.6699 186C40.4059 186.619 40.7739 187.456 40.7739 188.512C40.7739 189.6 40.4006 190.485 39.6539 191.168C38.9073 191.851 37.9473 192.192 36.7739 192.192ZM44.9068 192V182.032L42.7948 182.688L42.4908 181.664L45.2268 180.72H46.1548V192H44.9068ZM50.9612 192V182.032L48.8492 182.688L48.5452 181.664L51.2812 180.72H52.2092V192H50.9612Z" fill="#262626"/>
<path d="M59.4529 299.512C58.5782 300.632 57.4369 301.192 56.0289 301.192C54.6209 301.192 53.4795 300.637 52.6049 299.528C51.7409 298.408 51.3089 297.032 51.3089 295.4C51.3089 293.789 51.7462 292.424 52.6209 291.304C53.5062 290.173 54.6529 289.608 56.0609 289.608C57.4689 289.608 58.6049 290.168 59.4689 291.288C60.3329 292.397 60.7649 293.768 60.7649 295.4C60.7649 297.011 60.3275 298.381 59.4529 299.512ZM53.5809 298.68C54.2209 299.587 55.0475 300.04 56.0609 300.04C57.0742 300.04 57.8902 299.592 58.5089 298.696C59.1382 297.789 59.4529 296.691 59.4529 295.4C59.4529 294.131 59.1329 293.043 58.4929 292.136C57.8635 291.219 57.0422 290.76 56.0289 290.76C55.0155 290.76 54.1942 291.213 53.5649 292.12C52.9355 293.016 52.6209 294.109 52.6209 295.4C52.6209 296.669 52.9409 297.763 53.5809 298.68ZM66.9224 301.192C65.4397 301.192 64.1064 300.6 62.9224 299.416L63.7544 298.504C64.8104 299.528 65.8717 300.04 66.9384 300.04C67.7384 300.04 68.389 299.805 68.8904 299.336C69.3917 298.867 69.6424 298.264 69.6424 297.528C69.6424 296.835 69.381 296.269 68.8584 295.832C68.3464 295.395 67.6797 295.176 66.8584 295.176C66.0904 295.176 65.3064 295.389 64.5064 295.816L63.6584 295.256L63.9784 289.8H70.4264V290.968H65.0824L64.8424 294.552C65.5997 294.221 66.3357 294.056 67.0504 294.056C68.1704 294.056 69.093 294.371 69.8184 295C70.5544 295.619 70.9224 296.456 70.9224 297.512C70.9224 298.6 70.549 299.485 69.8024 300.168C69.0557 300.851 68.0957 301.192 66.9224 301.192ZM75.0552 301V291.032L72.9432 291.688L72.6392 290.664L75.3753 289.72H76.3032V301H75.0552ZM87.3816 299.512C86.507 300.632 85.3656 301.192 83.9576 301.192C82.5496 301.192 81.4083 300.637 80.5336 299.528C79.6696 298.408 79.2376 297.032 79.2376 295.4C79.2376 293.789 79.675 292.424 80.5496 291.304C81.435 290.173 82.5816 289.608 83.9896 289.608C85.3976 289.608 86.5336 290.168 87.3976 291.288C88.2616 292.397 88.6936 293.768 88.6936 295.4C88.6936 297.011 88.2563 298.381 87.3816 299.512ZM81.5096 298.68C82.1496 299.587 82.9763 300.04 83.9896 300.04C85.003 300.04 85.819 299.592 86.4376 298.696C87.067 297.789 87.3816 296.691 87.3816 295.4C87.3816 294.131 87.0616 293.043 86.4216 292.136C85.7923 291.219 84.971 290.76 83.9576 290.76C82.9443 290.76 82.123 291.213 81.4936 292.12C80.8643 293.016 80.5496 294.109 80.5496 295.4C80.5496 296.669 80.8696 297.763 81.5096 298.68Z" fill="#262626"/>
<path d="M173.488 309.281C172.368 308.406 171.808 307.265 171.808 305.857C171.808 304.449 172.363 303.308 173.472 302.433C174.592 301.569 175.968 301.137 177.6 301.137C179.211 301.137 180.576 301.574 181.696 302.449C182.827 303.334 183.392 304.481 183.392 305.889C183.392 307.297 182.832 308.433 181.712 309.297C180.603 310.161 179.232 310.593 177.6 310.593C175.989 310.593 174.619 310.156 173.488 309.281ZM174.32 303.409C173.413 304.049 172.96 304.876 172.96 305.889C172.96 306.902 173.408 307.718 174.304 308.337C175.211 308.966 176.309 309.281 177.6 309.281C178.869 309.281 179.957 308.961 180.864 308.321C181.781 307.692 182.24 306.87 182.24 305.857C182.24 304.844 181.787 304.022 180.88 303.393C179.984 302.764 178.891 302.449 177.6 302.449C176.331 302.449 175.237 302.769 174.32 303.409ZM171.808 316.751C171.808 315.268 172.4 313.935 173.584 312.751L174.496 313.583C173.472 314.639 172.96 315.7 172.96 316.767C172.96 317.567 173.195 318.217 173.664 318.719C174.133 319.22 174.736 319.471 175.472 319.471C176.165 319.471 176.731 319.209 177.168 318.687C177.605 318.175 177.824 317.508 177.824 316.687C177.824 315.919 177.611 315.135 177.184 314.335L177.744 313.487L183.2 313.807V320.255H182.032V314.911L178.448 314.671C178.779 315.428 178.944 316.164 178.944 316.879C178.944 317.999 178.629 318.921 178 319.647C177.381 320.383 176.544 320.751 175.488 320.751C174.4 320.751 173.515 320.377 172.832 319.631C172.149 318.884 171.808 317.924 171.808 316.751ZM173.488 331.155C172.368 330.281 171.808 329.139 171.808 327.731C171.808 326.323 172.363 325.182 173.472 324.307C174.592 323.443 175.968 323.011 177.6 323.011C179.211 323.011 180.576 323.449 181.696 324.323C182.827 325.209 183.392 326.355 183.392 327.763C183.392 329.171 182.832 330.307 181.712 331.171C180.603 332.035 179.232 332.467 177.6 332.467C175.989 332.467 174.619 332.03 173.488 331.155ZM174.32 325.283C173.413 325.923 172.96 326.75 172.96 327.763C172.96 328.777 173.408 329.593 174.304 330.211C175.211 330.841 176.309 331.155 177.6 331.155C178.869 331.155 179.957 330.835 180.864 330.195C181.781 329.566 182.24 328.745 182.24 327.731C182.24 326.718 181.787 325.897 180.88 325.267C179.984 324.638 178.891 324.323 177.6 324.323C176.331 324.323 175.237 324.643 174.32 325.283ZM172.72 341.825C172.133 341.025 171.84 340.022 171.84 338.817C171.84 337.612 172.139 336.609 172.736 335.809C173.333 335.009 174.101 334.609 175.04 334.609C175.68 334.609 176.235 334.817 176.704 335.233C177.173 335.649 177.536 336.209 177.792 336.913C178.379 335.633 179.248 334.993 180.4 334.993C181.243 334.993 181.947 335.366 182.512 336.113C183.077 336.87 183.36 337.772 183.36 338.817C183.36 339.862 183.077 340.758 182.512 341.505C181.947 342.262 181.232 342.641 180.368 342.641C179.237 342.641 178.379 342.001 177.792 340.721C177.216 342.257 176.293 343.025 175.024 343.025C174.085 343.025 173.317 342.625 172.72 341.825ZM178.816 336.993C178.432 337.484 178.24 338.092 178.24 338.817C178.24 339.542 178.432 340.15 178.816 340.641C179.2 341.132 179.701 341.377 180.32 341.377C180.875 341.377 181.333 341.132 181.696 340.641C182.069 340.15 182.256 339.542 182.256 338.817C182.256 338.081 182.069 337.468 181.696 336.977C181.333 336.497 180.864 336.257 180.288 336.257C179.691 336.257 179.2 336.502 178.816 336.993ZM173.552 336.673C173.147 337.206 172.944 337.921 172.944 338.817C172.944 339.713 173.147 340.422 173.552 340.945C173.957 341.478 174.464 341.745 175.072 341.745C175.691 341.745 176.197 341.462 176.592 340.897C176.997 340.332 177.2 339.638 177.2 338.817C177.2 337.985 176.997 337.286 176.592 336.721C176.187 336.166 175.669 335.889 175.04 335.889C174.453 335.889 173.957 336.15 173.552 336.673Z" fill="#262626"/>
<path d="M229.488 309.289C228.368 308.414 227.808 307.273 227.808 305.865C227.808 304.457 228.363 303.315 229.472 302.441C230.592 301.577 231.968 301.145 233.6 301.145C235.211 301.145 236.576 301.582 237.696 302.457C238.827 303.342 239.392 304.489 239.392 305.897C239.392 307.305 238.832 308.441 237.712 309.305C236.603 310.169 235.232 310.601 233.6 310.601C231.989 310.601 230.619 310.163 229.488 309.289ZM230.32 303.417C229.413 304.057 228.96 304.883 228.96 305.897C228.96 306.91 229.408 307.726 230.304 308.345C231.211 308.974 232.309 309.289 233.6 309.289C234.869 309.289 235.957 308.969 236.864 308.329C237.781 307.699 238.24 306.878 238.24 305.865C238.24 304.851 237.787 304.03 236.88 303.401C235.984 302.771 234.891 302.457 233.6 302.457C232.331 302.457 231.237 302.777 230.32 303.417ZM227.808 316.758C227.808 315.276 228.4 313.942 229.584 312.758L230.496 313.59C229.472 314.646 228.96 315.708 228.96 316.774C228.96 317.574 229.195 318.225 229.664 318.726C230.133 319.228 230.736 319.478 231.472 319.478C232.165 319.478 232.731 319.217 233.168 318.694C233.605 318.182 233.824 317.516 233.824 316.694C233.824 315.926 233.611 315.142 233.184 314.342L233.744 313.494L239.2 313.814V320.262H238.032V314.918L234.448 314.678C234.779 315.436 234.944 316.172 234.944 316.886C234.944 318.006 234.629 318.929 234 319.654C233.381 320.39 232.544 320.758 231.488 320.758C230.4 320.758 229.515 320.385 228.832 319.638C228.149 318.892 227.808 317.932 227.808 316.758ZM229.488 331.163C228.368 330.289 227.808 329.147 227.808 327.739C227.808 326.331 228.363 325.19 229.472 324.315C230.592 323.451 231.968 323.019 233.6 323.019C235.211 323.019 236.576 323.457 237.696 324.331C238.827 325.217 239.392 326.363 239.392 327.771C239.392 329.179 238.832 330.315 237.712 331.179C236.603 332.043 235.232 332.475 233.6 332.475C231.989 332.475 230.619 332.038 229.488 331.163ZM230.32 325.291C229.413 325.931 228.96 326.758 228.96 327.771C228.96 328.785 229.408 329.601 230.304 330.219C231.211 330.849 232.309 331.163 233.6 331.163C234.869 331.163 235.957 330.843 236.864 330.203C237.781 329.574 238.24 328.753 238.24 327.739C238.24 326.726 237.787 325.905 236.88 325.275C235.984 324.646 234.891 324.331 233.6 324.331C232.331 324.331 231.237 324.651 230.32 325.291ZM228 335.508L238.048 340.564V334.404H239.2V342.004H238.256L228 336.916V335.508Z" fill="#262626"/>
<path d="M173.512 42.5081C174.632 43.3827 175.192 44.5241 175.192 45.9321C175.192 47.3401 174.637 48.4814 173.528 49.3561C172.408 50.2201 171.032 50.6521 169.4 50.6521C167.789 50.6521 166.424 50.2147 165.304 49.3401C164.173 48.4547 163.608 47.3081 163.608 45.9001C163.608 44.4921 164.168 43.3561 165.288 42.4921C166.397 41.6281 167.768 41.1961 169.4 41.1961C171.011 41.1961 172.381 41.6334 173.512 42.5081ZM172.68 48.3801C173.587 47.7401 174.04 46.9134 174.04 45.9001C174.04 44.8867 173.592 44.0707 172.696 43.4521C171.789 42.8227 170.691 42.5081 169.4 42.5081C168.131 42.5081 167.043 42.8281 166.136 43.4681C165.219 44.0974 164.76 44.9187 164.76 45.9321C164.76 46.9454 165.213 47.7667 166.12 48.3961C167.016 49.0254 168.109 49.3401 169.4 49.3401C170.669 49.3401 171.763 49.0201 172.68 48.3801ZM175.192 35.0386C175.192 36.5212 174.6 37.8546 173.416 39.0386L172.504 38.2066C173.528 37.1506 174.04 36.0892 174.04 35.0226C174.04 34.2226 173.805 33.5719 173.336 33.0706C172.867 32.5692 172.264 32.3186 171.528 32.3186C170.835 32.3186 170.269 32.5799 169.832 33.1026C169.395 33.6146 169.176 34.2812 169.176 35.1026C169.176 35.8706 169.389 36.6546 169.816 37.4546L169.256 38.3026L163.8 37.9826V31.5346H164.968V36.8786L168.552 37.1186C168.221 36.3612 168.056 35.6252 168.056 34.9106C168.056 33.7906 168.371 32.8679 169 32.1426C169.619 31.4066 170.456 31.0386 171.512 31.0386C172.6 31.0386 173.485 31.4119 174.168 32.1586C174.851 32.9052 175.192 33.8652 175.192 35.0386ZM175 26.9057H165.032L165.688 29.0177L164.664 29.3217L163.72 26.5857V25.6577H175V26.9057ZM175.192 18.3873C175.192 19.7313 174.749 20.7926 173.864 21.5713C172.979 22.35 171.587 22.7393 169.688 22.7393C167.939 22.7393 166.488 22.3233 165.336 21.4913C164.184 20.6486 163.608 19.5126 163.608 18.0833C163.608 16.9206 164.035 15.8166 164.888 14.7713L165.864 15.5073C165.128 16.382 164.76 17.262 164.76 18.1473C164.76 19.1393 165.213 19.934 166.12 20.5313C167.027 21.1286 168.205 21.4273 169.656 21.4273H169.704C168.563 20.6486 167.992 19.5873 167.992 18.2433C167.992 17.166 168.312 16.254 168.952 15.5073C169.592 14.75 170.429 14.3713 171.464 14.3713C172.541 14.3713 173.432 14.7553 174.136 15.5233C174.84 16.2913 175.192 17.246 175.192 18.3873ZM174.072 18.3713C174.072 17.5606 173.827 16.91 173.336 16.4193C172.845 15.918 172.227 15.6673 171.48 15.6673C170.787 15.6673 170.216 15.9233 169.768 16.4353C169.309 16.9473 169.08 17.6033 169.08 18.4033C169.08 19.214 169.331 19.886 169.832 20.4193C170.323 20.942 170.899 21.2033 171.56 21.2033C172.275 21.2033 172.872 20.9366 173.352 20.4033C173.832 19.87 174.072 19.1926 174.072 18.3713Z" fill="#262626"/>
<path d="M244.512 41.594C245.632 42.4687 246.192 43.61 246.192 45.018C246.192 46.426 245.637 47.5673 244.528 48.442C243.408 49.306 242.032 49.738 240.4 49.738C238.789 49.738 237.424 49.3007 236.304 48.426C235.173 47.5407 234.608 46.394 234.608 44.986C234.608 43.578 235.168 42.442 236.288 41.578C237.397 40.714 238.768 40.282 240.4 40.282C242.011 40.282 243.381 40.7193 244.512 41.594ZM243.68 47.466C244.587 46.826 245.04 45.9993 245.04 44.986C245.04 43.9727 244.592 43.1567 243.696 42.538C242.789 41.9087 241.691 41.594 240.4 41.594C239.131 41.594 238.043 41.914 237.136 42.554C236.219 43.1833 235.76 44.0047 235.76 45.018C235.76 46.0313 236.213 46.8527 237.12 47.482C238.016 48.1113 239.109 48.426 240.4 48.426C241.669 48.426 242.763 48.106 243.68 47.466ZM246.192 34.1245C246.192 35.6072 245.6 36.9405 244.416 38.1245L243.504 37.2925C244.528 36.2365 245.04 35.1752 245.04 34.1085C245.04 33.3085 244.805 32.6578 244.336 32.1565C243.867 31.6552 243.264 31.4045 242.528 31.4045C241.835 31.4045 241.269 31.6658 240.832 32.1885C240.395 32.7005 240.176 33.3672 240.176 34.1885C240.176 34.9565 240.389 35.7405 240.816 36.5405L240.256 37.3885L234.8 37.0685V30.6205H235.968V35.9645L239.552 36.2045C239.221 35.4472 239.056 34.7112 239.056 33.9965C239.056 32.8765 239.371 31.9538 240 31.2285C240.619 30.4925 241.456 30.1245 242.512 30.1245C243.6 30.1245 244.485 30.4978 245.168 31.2445C245.851 31.9912 246.192 32.9512 246.192 34.1245ZM246 25.9916H236.032L236.688 28.1036L235.664 28.4076L234.72 25.6716V24.7436H246V25.9916ZM246 20.6093L235.952 15.5533V21.7133H234.8V14.1132H235.744L246 19.2013V20.6093Z" fill="#262626"/>
<path d="M57.1404 346.512C56.2657 347.632 55.1244 348.192 53.7164 348.192C52.3084 348.192 51.167 347.637 50.2924 346.528C49.4284 345.408 48.9964 344.032 48.9964 342.4C48.9964 340.789 49.4337 339.424 50.3084 338.304C51.1937 337.173 52.3404 336.608 53.7484 336.608C55.1564 336.608 56.2924 337.168 57.1564 338.288C58.0204 339.397 58.4524 340.768 58.4524 342.4C58.4524 344.011 58.015 345.381 57.1404 346.512ZM51.2684 345.68C51.9084 346.587 52.735 347.04 53.7484 347.04C54.7617 347.04 55.5777 346.592 56.1964 345.696C56.8257 344.789 57.1404 343.691 57.1404 342.4C57.1404 341.131 56.8204 340.043 56.1804 339.136C55.551 338.219 54.7297 337.76 53.7164 337.76C52.703 337.76 51.8817 338.213 51.2524 339.12C50.623 340.016 50.3084 341.109 50.3084 342.4C50.3084 343.669 50.6284 344.763 51.2684 345.68ZM64.6099 348.192C63.1272 348.192 61.7939 347.6 60.6099 346.416L61.4419 345.504C62.4979 346.528 63.5592 347.04 64.6259 347.04C65.4259 347.04 66.0765 346.805 66.5779 346.336C67.0792 345.867 67.3299 345.264 67.3299 344.528C67.3299 343.835 67.0685 343.269 66.5459 342.832C66.0339 342.395 65.3672 342.176 64.5459 342.176C63.7779 342.176 62.9939 342.389 62.1939 342.816L61.3459 342.256L61.6659 336.8H68.1139V337.968H62.7699L62.5299 341.552C63.2872 341.221 64.0232 341.056 64.7379 341.056C65.8579 341.056 66.7805 341.371 67.5059 342C68.2419 342.619 68.6099 343.456 68.6099 344.512C68.6099 345.6 68.2365 346.485 67.4899 347.168C66.7432 347.851 65.7832 348.192 64.6099 348.192ZM79.0148 346.512C78.1401 347.632 76.9988 348.192 75.5908 348.192C74.1828 348.192 73.0414 347.637 72.1667 346.528C71.3027 345.408 70.8707 344.032 70.8707 342.4C70.8707 340.789 71.3081 339.424 72.1827 338.304C73.0681 337.173 74.2148 336.608 75.6228 336.608C77.0308 336.608 78.1668 337.168 79.0308 338.288C79.8948 339.397 80.3268 340.768 80.3268 342.4C80.3268 344.011 79.8894 345.381 79.0148 346.512ZM73.1428 345.68C73.7827 346.587 74.6094 347.04 75.6228 347.04C76.6361 347.04 77.4521 346.592 78.0708 345.696C78.7001 344.789 79.0148 343.691 79.0148 342.4C79.0148 341.131 78.6948 340.043 78.0548 339.136C77.4254 338.219 76.6041 337.76 75.5908 337.76C74.5774 337.76 73.7561 338.213 73.1267 339.12C72.4974 340.016 72.1827 341.109 72.1827 342.4C72.1827 343.669 72.5027 344.763 73.1428 345.68ZM86.3562 348.192C85.1616 348.192 84.0096 347.733 82.9002 346.816L83.6362 345.84C84.5429 346.64 85.4602 347.04 86.3882 347.04C87.3802 347.04 88.1802 346.597 88.7882 345.712C89.4069 344.816 89.7162 343.669 89.7162 342.272V342.128C88.9696 343.323 87.9136 343.92 86.5482 343.92C85.3962 343.92 84.4576 343.595 83.7322 342.944C83.0069 342.283 82.6442 341.44 82.6442 340.416C82.6442 339.339 83.0229 338.437 83.7802 337.712C84.5376 336.976 85.5029 336.608 86.6762 336.608C87.9989 336.608 89.0496 337.051 89.8282 337.936C90.6176 338.821 91.0122 340.219 91.0122 342.128C91.0122 343.909 90.5802 345.365 89.7162 346.496C88.8522 347.627 87.7322 348.192 86.3562 348.192ZM86.6922 342.832C87.5136 342.832 88.1802 342.576 88.6922 342.064C89.2149 341.552 89.4762 340.955 89.4762 340.272C89.4762 339.547 89.2096 338.944 88.6762 338.464C88.1429 337.973 87.4602 337.728 86.6282 337.728C85.8176 337.728 85.1669 337.989 84.6762 338.512C84.1856 339.024 83.9402 339.648 83.9402 340.384C83.9402 341.099 84.1962 341.685 84.7082 342.144C85.2202 342.603 85.8816 342.832 86.6922 342.832Z" fill="#262626"/>
<path d="M169.14 234.512C168.266 235.632 167.124 236.192 165.716 236.192C164.308 236.192 163.167 235.637 162.292 234.528C161.428 233.408 160.996 232.032 160.996 230.4C160.996 228.789 161.434 227.424 162.308 226.304C163.194 225.173 164.34 224.608 165.748 224.608C167.156 224.608 168.292 225.168 169.156 226.288C170.02 227.397 170.452 228.768 170.452 230.4C170.452 232.011 170.015 233.381 169.14 234.512ZM163.268 233.68C163.908 234.587 164.735 235.04 165.748 235.04C166.762 235.04 167.578 234.592 168.196 233.696C168.826 232.789 169.14 231.691 169.14 230.4C169.14 229.131 168.82 228.043 168.18 227.136C167.551 226.219 166.73 225.76 165.716 225.76C164.703 225.76 163.882 226.213 163.252 227.12C162.623 228.016 162.308 229.109 162.308 230.4C162.308 231.669 162.628 232.763 163.268 233.68ZM176.61 236.192C175.127 236.192 173.794 235.6 172.61 234.416L173.442 233.504C174.498 234.528 175.559 235.04 176.626 235.04C177.426 235.04 178.077 234.805 178.578 234.336C179.079 233.867 179.33 233.264 179.33 232.528C179.33 231.835 179.069 231.269 178.546 230.832C178.034 230.395 177.367 230.176 176.546 230.176C175.778 230.176 174.994 230.389 174.194 230.816L173.346 230.256L173.666 224.8H180.114V225.968H174.77L174.53 229.552C175.287 229.221 176.023 229.056 176.738 229.056C177.858 229.056 178.781 229.371 179.506 230C180.242 230.619 180.61 231.456 180.61 232.512C180.61 233.6 180.237 234.485 179.49 235.168C178.743 235.851 177.783 236.192 176.61 236.192ZM191.015 234.512C190.14 235.632 188.999 236.192 187.591 236.192C186.183 236.192 185.041 235.637 184.167 234.528C183.303 233.408 182.871 232.032 182.871 230.4C182.871 228.789 183.308 227.424 184.183 226.304C185.068 225.173 186.215 224.608 187.623 224.608C189.031 224.608 190.167 225.168 191.031 226.288C191.895 227.397 192.327 228.768 192.327 230.4C192.327 232.011 191.889 233.381 191.015 234.512ZM185.143 233.68C185.783 234.587 186.609 235.04 187.623 235.04C188.636 235.04 189.452 234.592 190.071 233.696C190.7 232.789 191.015 231.691 191.015 230.4C191.015 229.131 190.695 228.043 190.055 227.136C189.425 226.219 188.604 225.76 187.591 225.76C186.577 225.76 185.756 226.213 185.127 227.12C184.497 228.016 184.183 229.109 184.183 230.4C184.183 231.669 184.503 232.763 185.143 233.68ZM198.964 236.192C197.62 236.192 196.559 235.749 195.78 234.864C195.002 233.979 194.612 232.587 194.612 230.688C194.612 228.939 195.028 227.488 195.86 226.336C196.703 225.184 197.839 224.608 199.268 224.608C200.431 224.608 201.535 225.035 202.58 225.888L201.844 226.864C200.97 226.128 200.09 225.76 199.204 225.76C198.212 225.76 197.418 226.213 196.82 227.12C196.223 228.027 195.924 229.205 195.924 230.656V230.704C196.703 229.563 197.764 228.992 199.108 228.992C200.186 228.992 201.098 229.312 201.844 229.952C202.602 230.592 202.98 231.429 202.98 232.464C202.98 233.541 202.596 234.432 201.828 235.136C201.06 235.84 200.106 236.192 198.964 236.192ZM198.98 235.072C199.791 235.072 200.442 234.827 200.932 234.336C201.434 233.845 201.684 233.227 201.684 232.48C201.684 231.787 201.428 231.216 200.916 230.768C200.404 230.309 199.748 230.08 198.948 230.08C198.138 230.08 197.466 230.331 196.932 230.832C196.41 231.323 196.148 231.899 196.148 232.56C196.148 233.275 196.415 233.872 196.948 234.352C197.482 234.832 198.159 235.072 198.98 235.072Z" fill="#262626"/>
<path d="M467.453 52.512C466.578 53.632 465.437 54.192 464.029 54.192C462.621 54.192 461.48 53.6373 460.605 52.528C459.741 51.408 459.309 50.032 459.309 48.4C459.309 46.7893 459.746 45.424 460.621 44.304C461.506 43.1733 462.653 42.608 464.061 42.608C465.469 42.608 466.605 43.168 467.469 44.288C468.333 45.3973 468.765 46.768 468.765 48.4C468.765 50.0107 468.328 51.3813 467.453 52.512ZM461.581 51.68C462.221 52.5867 463.048 53.04 464.061 53.04C465.074 53.04 465.89 52.592 466.509 51.696C467.138 50.7893 467.453 49.6907 467.453 48.4C467.453 47.1307 467.133 46.0427 466.493 45.136C465.864 44.2187 465.042 43.76 464.029 43.76C463.016 43.76 462.194 44.2133 461.565 45.12C460.936 46.016 460.621 47.1093 460.621 48.4C460.621 49.6693 460.941 50.7627 461.581 51.68ZM474.922 54.192C473.44 54.192 472.106 53.6 470.922 52.416L471.754 51.504C472.81 52.528 473.872 53.04 474.938 53.04C475.738 53.04 476.389 52.8053 476.89 52.336C477.392 51.8667 477.642 51.264 477.642 50.528C477.642 49.8347 477.381 49.2693 476.858 48.832C476.346 48.3947 475.68 48.176 474.858 48.176C474.09 48.176 473.306 48.3893 472.506 48.816L471.658 48.256L471.978 42.8H478.426V43.968H473.082L472.842 47.552C473.6 47.2213 474.336 47.056 475.05 47.056C476.17 47.056 477.093 47.3707 477.818 48C478.554 48.6187 478.922 49.456 478.922 50.512C478.922 51.6 478.549 52.4853 477.802 53.168C477.056 53.8507 476.096 54.192 474.922 54.192ZM489.327 52.512C488.453 53.632 487.311 54.192 485.903 54.192C484.495 54.192 483.354 53.6373 482.479 52.528C481.615 51.408 481.183 50.032 481.183 48.4C481.183 46.7893 481.621 45.424 482.495 44.304C483.381 43.1733 484.527 42.608 485.935 42.608C487.343 42.608 488.479 43.168 489.343 44.288C490.207 45.3973 490.639 46.768 490.639 48.4C490.639 50.0107 490.202 51.3813 489.327 52.512ZM483.455 51.68C484.095 52.5867 484.922 53.04 485.935 53.04C486.949 53.04 487.765 52.592 488.383 51.696C489.013 50.7893 489.327 49.6907 489.327 48.4C489.327 47.1307 489.007 46.0427 488.367 45.136C487.738 44.2187 486.917 43.76 485.903 43.76C484.89 43.76 484.069 44.2133 483.439 45.12C482.81 46.016 482.495 47.1093 482.495 48.4C482.495 49.6693 482.815 50.7627 483.455 51.68ZM494.813 54V44.032L492.701 44.688L492.397 43.664L495.133 42.72H496.061V54H494.813Z" fill="#262626"/>
<path d="M533.609 136.512C532.734 137.632 531.593 138.192 530.185 138.192C528.777 138.192 527.636 137.637 526.761 136.528C525.897 135.408 525.465 134.032 525.465 132.4C525.465 130.789 525.902 129.424 526.777 128.304C527.662 127.173 528.809 126.608 530.217 126.608C531.625 126.608 532.761 127.168 533.625 128.288C534.489 129.397 534.921 130.768 534.921 132.4C534.921 134.011 534.484 135.381 533.609 136.512ZM527.737 135.68C528.377 136.587 529.204 137.04 530.217 137.04C531.23 137.04 532.046 136.592 532.665 135.696C533.294 134.789 533.609 133.691 533.609 132.4C533.609 131.131 533.289 130.043 532.649 129.136C532.02 128.219 531.198 127.76 530.185 127.76C529.172 127.76 528.35 128.213 527.721 129.12C527.092 130.016 526.777 131.109 526.777 132.4C526.777 133.669 527.097 134.763 527.737 135.68ZM541.079 138.192C539.596 138.192 538.263 137.6 537.079 136.416L537.911 135.504C538.967 136.528 540.028 137.04 541.095 137.04C541.895 137.04 542.545 136.805 543.047 136.336C543.548 135.867 543.799 135.264 543.799 134.528C543.799 133.835 543.537 133.269 543.015 132.832C542.503 132.395 541.836 132.176 541.015 132.176C540.247 132.176 539.463 132.389 538.663 132.816L537.815 132.256L538.135 126.8H544.583V127.968H539.239L538.999 131.552C539.756 131.221 540.492 131.056 541.207 131.056C542.327 131.056 543.249 131.371 543.975 132C544.711 132.619 545.079 133.456 545.079 134.512C545.079 135.6 544.705 136.485 543.959 137.168C543.212 137.851 542.252 138.192 541.079 138.192ZM555.484 136.512C554.609 137.632 553.468 138.192 552.06 138.192C550.652 138.192 549.51 137.637 548.635 136.528C547.771 135.408 547.339 134.032 547.339 132.4C547.339 130.789 547.777 129.424 548.651 128.304C549.537 127.173 550.684 126.608 552.092 126.608C553.5 126.608 554.636 127.168 555.5 128.288C556.364 129.397 556.796 130.768 556.796 132.4C556.796 134.011 556.358 135.381 555.484 136.512ZM549.612 135.68C550.251 136.587 551.078 137.04 552.092 137.04C553.105 137.04 553.921 136.592 554.54 135.696C555.169 134.789 555.484 133.691 555.484 132.4C555.484 131.131 555.164 130.043 554.524 129.136C553.894 128.219 553.073 127.76 552.06 127.76C551.046 127.76 550.225 128.213 549.595 129.12C548.966 130.016 548.651 131.109 548.651 132.4C548.651 133.669 548.971 134.763 549.612 135.68ZM558.717 138V137.024L562.781 133.44C563.655 132.672 564.263 132.032 564.605 131.52C564.946 131.008 565.117 130.475 565.117 129.92C565.117 129.28 564.898 128.763 564.461 128.368C564.023 127.973 563.49 127.776 562.861 127.776C562.253 127.776 561.714 127.931 561.245 128.24C560.786 128.549 560.322 129.035 559.853 129.696L558.925 129.024C559.469 128.213 560.045 127.616 560.653 127.232C561.261 126.837 562.029 126.64 562.957 126.64C563.959 126.64 564.786 126.944 565.437 127.552C566.098 128.149 566.429 128.912 566.429 129.84C566.429 130.608 566.221 131.291 565.805 131.888C565.389 132.485 564.653 133.253 563.597 134.192L560.605 136.848H566.541V138H558.717Z" fill="#262626"/>
<path d="M450.453 263.512C449.578 264.632 448.437 265.192 447.029 265.192C445.621 265.192 444.48 264.637 443.605 263.528C442.741 262.408 442.309 261.032 442.309 259.4C442.309 257.789 442.746 256.424 443.621 255.304C444.506 254.173 445.653 253.608 447.061 253.608C448.469 253.608 449.605 254.168 450.469 255.288C451.333 256.397 451.765 257.768 451.765 259.4C451.765 261.011 451.328 262.381 450.453 263.512ZM444.581 262.68C445.221 263.587 446.048 264.04 447.061 264.04C448.074 264.04 448.89 263.592 449.509 262.696C450.138 261.789 450.453 260.691 450.453 259.4C450.453 258.131 450.133 257.043 449.493 256.136C448.864 255.219 448.042 254.76 447.029 254.76C446.016 254.76 445.194 255.213 444.565 256.12C443.936 257.016 443.621 258.109 443.621 259.4C443.621 260.669 443.941 261.763 444.581 262.68ZM457.922 265.192C456.44 265.192 455.106 264.6 453.922 263.416L454.754 262.504C455.81 263.528 456.872 264.04 457.938 264.04C458.738 264.04 459.389 263.805 459.89 263.336C460.392 262.867 460.642 262.264 460.642 261.528C460.642 260.835 460.381 260.269 459.858 259.832C459.346 259.395 458.68 259.176 457.858 259.176C457.09 259.176 456.306 259.389 455.506 259.816L454.658 259.256L454.978 253.8H461.426V254.968H456.082L455.842 258.552C456.6 258.221 457.336 258.056 458.05 258.056C459.17 258.056 460.093 258.371 460.818 259C461.554 259.619 461.922 260.456 461.922 261.512C461.922 262.6 461.549 263.485 460.802 264.168C460.056 264.851 459.096 265.192 457.922 265.192ZM472.327 263.512C471.453 264.632 470.311 265.192 468.903 265.192C467.495 265.192 466.354 264.637 465.479 263.528C464.615 262.408 464.183 261.032 464.183 259.4C464.183 257.789 464.621 256.424 465.495 255.304C466.381 254.173 467.527 253.608 468.935 253.608C470.343 253.608 471.479 254.168 472.343 255.288C473.207 256.397 473.639 257.768 473.639 259.4C473.639 261.011 473.202 262.381 472.327 263.512ZM466.455 262.68C467.095 263.587 467.922 264.04 468.935 264.04C469.949 264.04 470.765 263.592 471.383 262.696C472.013 261.789 472.327 260.691 472.327 259.4C472.327 258.131 472.007 257.043 471.367 256.136C470.738 255.219 469.917 254.76 468.903 254.76C467.89 254.76 467.069 255.213 466.439 256.12C465.81 257.016 465.495 258.109 465.495 259.4C465.495 260.669 465.815 261.763 466.455 262.68ZM481.861 265V262.344H475.957L475.637 261.432L481.973 253.72H483.077V261.288H484.821V262.344H483.077V265H481.861ZM477.157 261.288H481.861V255.512L477.157 261.288Z" fill="#262626"/>
<path d="M369.422 317.512C368.547 318.632 367.406 319.192 365.998 319.192C364.59 319.192 363.448 318.637 362.574 317.528C361.71 316.408 361.278 315.032 361.278 313.4C361.278 311.789 361.715 310.424 362.59 309.304C363.475 308.173 364.622 307.608 366.03 307.608C367.438 307.608 368.574 308.168 369.438 309.288C370.302 310.397 370.734 311.768 370.734 313.4C370.734 315.011 370.296 316.381 369.422 317.512ZM363.55 316.68C364.19 317.587 365.016 318.04 366.03 318.04C367.043 318.04 367.859 317.592 368.478 316.696C369.107 315.789 369.422 314.691 369.422 313.4C369.422 312.131 369.102 311.043 368.462 310.136C367.832 309.219 367.011 308.76 365.998 308.76C364.984 308.76 364.163 309.213 363.534 310.12C362.904 311.016 362.59 312.109 362.59 313.4C362.59 314.669 362.91 315.763 363.55 316.68ZM376.891 319.192C375.408 319.192 374.075 318.6 372.891 317.416L373.723 316.504C374.779 317.528 375.84 318.04 376.907 318.04C377.707 318.04 378.358 317.805 378.859 317.336C379.36 316.867 379.611 316.264 379.611 315.528C379.611 314.835 379.35 314.269 378.827 313.832C378.315 313.395 377.648 313.176 376.827 313.176C376.059 313.176 375.275 313.389 374.475 313.816L373.627 313.256L373.947 307.8H380.395V308.968H375.051L374.811 312.552C375.568 312.221 376.304 312.056 377.019 312.056C378.139 312.056 379.062 312.371 379.787 313C380.523 313.619 380.891 314.456 380.891 315.512C380.891 316.6 380.518 317.485 379.771 318.168C379.024 318.851 378.064 319.192 376.891 319.192ZM391.296 317.512C390.421 318.632 389.28 319.192 387.872 319.192C386.464 319.192 385.323 318.637 384.448 317.528C383.584 316.408 383.152 315.032 383.152 313.4C383.152 311.789 383.589 310.424 384.464 309.304C385.349 308.173 386.496 307.608 387.904 307.608C389.312 307.608 390.448 308.168 391.312 309.288C392.176 310.397 392.608 311.768 392.608 313.4C392.608 315.011 392.171 316.381 391.296 317.512ZM385.424 316.68C386.064 317.587 386.891 318.04 387.904 318.04C388.917 318.04 389.733 317.592 390.352 316.696C390.981 315.789 391.296 314.691 391.296 313.4C391.296 312.131 390.976 311.043 390.336 310.136C389.707 309.219 388.885 308.76 387.872 308.76C386.859 308.76 386.037 309.213 385.408 310.12C384.779 311.016 384.464 312.109 384.464 313.4C384.464 314.669 384.784 315.763 385.424 316.68ZM398.765 319.192C397.283 319.192 395.949 318.6 394.765 317.416L395.597 316.504C396.653 317.528 397.715 318.04 398.781 318.04C399.581 318.04 400.232 317.805 400.734 317.336C401.235 316.867 401.485 316.264 401.485 315.528C401.485 314.835 401.224 314.269 400.701 313.832C400.189 313.395 399.523 313.176 398.701 313.176C397.933 313.176 397.149 313.389 396.349 313.816L395.501 313.256L395.821 307.8H402.269V308.968H396.925L396.685 312.552C397.443 312.221 398.179 312.056 398.893 312.056C400.013 312.056 400.936 312.371 401.661 313C402.398 313.619 402.766 314.456 402.766 315.512C402.766 316.6 402.392 317.485 401.645 318.168C400.899 318.851 399.939 319.192 398.765 319.192Z" fill="#262626"/>
<path d="M319.463 194.128C318.961 194.128 318.476 194.037 318.007 193.856L318.263 192.832C318.497 192.939 318.828 192.992 319.255 192.992C319.468 192.992 319.66 192.96 319.831 192.896C320.001 192.821 320.204 192.629 320.439 192.32C320.673 192 320.865 191.568 321.015 191.024C321.164 190.469 321.292 189.664 321.399 188.608C321.516 187.541 321.575 186.283 321.575 184.832V182.8H328.823V194H327.559V183.952H322.791V185.168C322.791 186.683 322.727 187.995 322.599 189.104C322.481 190.213 322.321 191.088 322.119 191.728C321.927 192.357 321.676 192.859 321.367 193.232C321.068 193.605 320.769 193.851 320.471 193.968C320.183 194.075 319.847 194.128 319.463 194.128ZM332.095 194V185.728H333.327V192.272L338.239 185.728H339.439V194H338.207V187.456L333.279 194H332.095ZM347.485 196.56V193.328C346.823 193.893 346.135 194.176 345.421 194.176C344.418 194.176 343.607 193.792 342.989 193.024C342.37 192.245 342.061 191.184 342.061 189.84C342.061 188.517 342.37 187.472 342.989 186.704C343.607 185.936 344.418 185.552 345.421 185.552C346.135 185.552 346.823 185.851 347.485 186.448V182.8H348.733V186.448C349.394 185.851 350.082 185.552 350.797 185.552C351.81 185.552 352.626 185.941 353.245 186.72C353.863 187.488 354.173 188.539 354.173 189.872C354.173 191.195 353.858 192.245 353.229 193.024C352.61 193.792 351.799 194.176 350.797 194.176C350.338 194.176 349.959 194.107 349.661 193.968C349.373 193.819 349.063 193.605 348.733 193.328V196.56H347.485ZM345.677 193.088C346.37 193.088 346.973 192.816 347.485 192.272V187.472C346.973 186.928 346.37 186.656 345.677 186.656C344.909 186.656 344.327 186.944 343.933 187.52C343.538 188.096 343.341 188.891 343.341 189.904C343.341 192.027 344.119 193.088 345.677 193.088ZM350.557 193.088C352.114 193.088 352.893 192.016 352.893 189.872C352.893 188.869 352.695 188.085 352.301 187.52C351.906 186.944 351.325 186.656 350.557 186.656C349.863 186.656 349.255 186.928 348.733 187.472V192.272C349.255 192.816 349.863 193.088 350.557 193.088ZM358.798 194V186.816H355.838V185.728H363.006V186.816H360.046V194H358.798ZM365.118 194V185.728H366.35V188.832H368.558C369.518 188.832 370.302 189.04 370.91 189.456C371.518 189.861 371.822 190.48 371.822 191.312C371.822 192.133 371.539 192.789 370.974 193.28C370.408 193.76 369.651 194 368.702 194H365.118ZM366.35 192.912H368.59C369.219 192.912 369.704 192.779 370.046 192.512C370.398 192.245 370.574 191.856 370.574 191.344C370.574 190.875 370.392 190.517 370.03 190.272C369.678 190.016 369.182 189.888 368.542 189.888H366.35V192.912ZM373.31 194V185.728H374.542V194H373.31Z" fill="#262626"/>
<defs>
<filter id="filter0_f_55_1149" x="5" y="5" width="577" height="378" filterUnits="userSpaceOnUse" color-interpolation-filters="sRGB">
<feFlood flood-opacity="0" result="BackgroundImageFix"/>
<feBlend mode="normal" in="SourceGraphic" in2="BackgroundImageFix" result="shape"/>
<feGaussianBlur stdDeviation="0.5" result="effect1_foregroundBlur_55_1149"/>
</filter>
<filter id="filter1_f_55_1149" x="0.5" y="0.5" width="586" height="387" filterUnits="userSpaceOnUse" color-interpolation-filters="sRGB">
<feFlood flood-opacity="0" result="BackgroundImageFix"/>
<feBlend mode="normal" in="SourceGraphic" in2="BackgroundImageFix" result="shape"/>
<feGaussianBlur stdDeviation="2" result="effect1_foregroundBlur_55_1149"/>
</filter>
<filter id="filter2_f_55_1149" x="4" y="4" width="579" height="380" filterUnits="userSpaceOnUse" color-interpolation-filters="sRGB">
<feFlood flood-opacity="0" result="BackgroundImageFix"/>
<feBlend mode="normal" in="SourceGraphic" in2="BackgroundImageFix" result="shape"/>
<feGaussianBlur stdDeviation="0.5" result="effect1_foregroundBlur_55_1149"/>
</filter>
</defs>
</svg>
