<svg width="606" height="391" viewBox="0 0 606 391" fill="none" xmlns="http://www.w3.org/2000/svg">
<g filter="url(#filter0_f_48_23)">
<path d="M13 97.5V28.5H155H210V67H364.5V6H535H593V89.5V222.5H600.5V274.5H549.5H424H416V285.5H391V346.5V367.5H364.5V346.5V321.5V252.5H210V314H182.5H166.5V349.5H109.5V385H71V349.5H6V314H13V236.5V97.5Z" fill="#F1F1FF" fill-opacity="0.2"/>
</g>
<g filter="url(#filter1_f_48_23)">
<path d="M13 236.5V97.5M13 97.5V28.5H155M13 97.5H155M210 97.5V144.5M210 97.5H155M210 97.5V67M155 28.5H210V67M155 28.5V97.5M210 177V252.5M109.5 314V222.5H182.5V314M109.5 314H166.5M109.5 314V385H71V314M182.5 314H210V252.5M182.5 314H166.5M166.5 314V349.5H6V314H26M26 314V282.5H90V314H71M26 314H71M364.5 153.5V89.5M364.5 89.5H535M364.5 89.5V67M535 6H364.5V67M535 6H593V89.5H535M535 6V89.5M364.5 67H210M364.5 183.5V252.5M364.5 321.5V252.5M364.5 252.5H210M391 217.5V242.5M391 346.5V367.5H364.5V346.5H391ZM391 346.5V285.5M391 242.5H416V285.5H391M391 242.5V285.5M549.5 222.5H600.5V274.5H549.5M549.5 222.5H424V274.5H549.5M549.5 222.5V274.5M40.5 222.5H90V258.5" stroke="#615FC5" stroke-width="3"/>
</g>
<path d="M13 236.5V97.5M13 97.5V28.5H155M13 97.5H155M210 97.5V144.5M210 97.5H155M210 97.5V67M155 28.5H210V67M155 28.5V97.5M210 177V252.5M109.5 314V222.5H182.5V314M109.5 314H166.5M109.5 314V385H71V314M182.5 314H210V252.5M182.5 314H166.5M166.5 314V349.5H6V314H26M26 314V282.5H90V314H71M26 314H71M364.5 153.5V89.5M364.5 89.5H535M364.5 89.5V67M535 6H364.5V67M535 6H593V89.5H535M535 6V89.5M364.5 67H210M364.5 183.5V252.5M364.5 321.5V252.5M364.5 252.5H210M391 217.5V242.5M391 346.5V367.5H364.5V346.5H391ZM391 346.5V285.5M391 242.5H416V285.5H391M391 242.5V285.5M549.5 222.5H600.5V274.5H549.5M549.5 222.5H424V274.5H549.5M549.5 222.5V274.5M40.5 222.5H90V258.5" stroke="#4548B7" stroke-width="3"/>
<g filter="url(#filter2_f_48_23)">
<path d="M13 236.5V97.5M13 97.5V28.5H155M13 97.5H155M210 97.5V144.5M210 97.5H155M210 97.5V67M155 28.5H210V67M155 28.5V97.5M210 177V252.5M109.5 314V222.5H182.5V314M109.5 314H166.5M109.5 314V385H71V314M182.5 314H210V252.5M182.5 314H166.5M166.5 314V349.5H6V314H26M26 314V282.5H90V314H71M26 314H71M364.5 153.5V89.5M364.5 89.5H535M364.5 89.5V67M535 6H364.5V67M535 6H593V89.5H535M535 6V89.5M364.5 67H210M364.5 183.5V252.5M364.5 321.5V252.5M364.5 252.5H210M391 217.5V242.5M391 346.5V367.5H364.5V346.5H391ZM391 346.5V285.5M391 242.5H416V285.5H391M391 242.5V285.5M549.5 222.5H600.5V274.5H549.5M549.5 222.5H424V274.5H549.5M549.5 222.5V274.5M40.5 222.5H90V258.5" stroke="#E7E7FF" stroke-width="2"/>
</g>
<rect x="141" y="280" width="10" height="16" rx="1" fill="#615FC5"/>
<path d="M145.039 250.328C145.317 249.365 146.683 249.365 146.961 250.328L150.827 263.723C151.012 264.362 150.532 265 149.867 265H142.133C141.468 265 140.988 264.362 141.173 263.723L145.039 250.328Z" fill="#615FC5"/>
<circle cx="146" cy="244" r="3" fill="#615FC5"/>
<circle cx="146" cy="275" r="3" fill="#615FC5"/>
<g filter="url(#filter3_f_48_23)">
<rect x="141" y="280" width="10" height="16" rx="1" fill="#E7E7FF"/>
<path d="M145.039 250.328C145.317 249.365 146.683 249.365 146.961 250.328L150.827 263.723C151.012 264.362 150.532 265 149.867 265H142.133C141.468 265 140.988 264.362 141.173 263.723L145.039 250.328Z" fill="#E7E7FF"/>
<circle cx="146" cy="244" r="3" fill="#E7E7FF"/>
<circle cx="146" cy="275" r="3" fill="#E7E7FF"/>
</g>
<path d="M125.14 335.512C124.266 336.632 123.124 337.192 121.716 337.192C120.308 337.192 119.167 336.637 118.292 335.528C117.428 334.408 116.996 333.032 116.996 331.4C116.996 329.789 117.434 328.424 118.308 327.304C119.194 326.173 120.34 325.608 121.748 325.608C123.156 325.608 124.292 326.168 125.156 327.288C126.02 328.397 126.452 329.768 126.452 331.4C126.452 333.011 126.015 334.381 125.14 335.512ZM119.268 334.68C119.908 335.587 120.735 336.04 121.748 336.04C122.762 336.04 123.578 335.592 124.196 334.696C124.826 333.789 125.14 332.691 125.14 331.4C125.14 330.131 124.82 329.043 124.18 328.136C123.551 327.219 122.73 326.76 121.716 326.76C120.703 326.76 119.882 327.213 119.252 328.12C118.623 329.016 118.308 330.109 118.308 331.4C118.308 332.669 118.628 333.763 119.268 334.68ZM134.674 337V334.344H128.77L128.45 333.432L134.786 325.72H135.89V333.288H137.634V334.344H135.89V337H134.674ZM129.97 333.288H134.674V327.512L129.97 333.288ZM147.952 335.512C147.078 336.632 145.936 337.192 144.528 337.192C143.12 337.192 141.979 336.637 141.104 335.528C140.24 334.408 139.808 333.032 139.808 331.4C139.808 329.789 140.246 328.424 141.12 327.304C142.006 326.173 143.152 325.608 144.56 325.608C145.968 325.608 147.104 326.168 147.968 327.288C148.832 328.397 149.264 329.768 149.264 331.4C149.264 333.011 148.827 334.381 147.952 335.512ZM142.08 334.68C142.72 335.587 143.547 336.04 144.56 336.04C145.574 336.04 146.39 335.592 147.008 334.696C147.638 333.789 147.952 332.691 147.952 331.4C147.952 330.131 147.632 329.043 146.992 328.136C146.363 327.219 145.542 326.76 144.528 326.76C143.515 326.76 142.694 327.213 142.064 328.12C141.435 329.016 141.12 330.109 141.12 331.4C141.12 332.669 141.44 333.763 142.08 334.68ZM151.185 337V336.024L155.249 332.44C156.124 331.672 156.732 331.032 157.073 330.52C157.415 330.008 157.585 329.475 157.585 328.92C157.585 328.28 157.367 327.763 156.929 327.368C156.492 326.973 155.959 326.776 155.329 326.776C154.721 326.776 154.183 326.931 153.713 327.24C153.255 327.549 152.791 328.035 152.321 328.696L151.393 328.024C151.937 327.213 152.513 326.616 153.121 326.232C153.729 325.837 154.497 325.64 155.425 325.64C156.428 325.64 157.255 325.944 157.905 326.552C158.567 327.149 158.898 327.912 158.898 328.84C158.898 329.608 158.69 330.291 158.273 330.888C157.857 331.485 157.121 332.253 156.065 333.192L153.073 335.848H159.009V337H151.185Z" fill="#262626"/>
<path d="M25.4841 335.512C24.6095 336.632 23.4681 337.192 22.0601 337.192C20.6521 337.192 19.5108 336.637 18.6361 335.528C17.7721 334.408 17.3401 333.032 17.3401 331.4C17.3401 329.789 17.7775 328.424 18.6521 327.304C19.5375 326.173 20.6841 325.608 22.0921 325.608C23.5001 325.608 24.6361 326.168 25.5001 327.288C26.3641 328.397 26.7961 329.768 26.7961 331.4C26.7961 333.011 26.3588 334.381 25.4841 335.512ZM19.6121 334.68C20.2521 335.587 21.0788 336.04 22.0921 336.04C23.1055 336.04 23.9215 335.592 24.5401 334.696C25.1695 333.789 25.4841 332.691 25.4841 331.4C25.4841 330.131 25.1641 329.043 24.5241 328.136C23.8948 327.219 23.0735 326.76 22.0601 326.76C21.0468 326.76 20.2255 327.213 19.5961 328.12C18.9668 329.016 18.6521 330.109 18.6521 331.4C18.6521 332.669 18.9721 333.763 19.6121 334.68ZM35.0176 337V334.344H29.1136L28.7936 333.432L35.1296 325.72H36.2336V333.288H37.9776V334.344H36.2336V337H35.0176ZM30.3136 333.288H35.0176V327.512L30.3136 333.288ZM48.296 335.512C47.4213 336.632 46.28 337.192 44.872 337.192C43.464 337.192 42.3227 336.637 41.448 335.528C40.584 334.408 40.152 333.032 40.152 331.4C40.152 329.789 40.5893 328.424 41.464 327.304C42.3493 326.173 43.496 325.608 44.904 325.608C46.312 325.608 47.448 326.168 48.312 327.288C49.176 328.397 49.608 329.768 49.608 331.4C49.608 333.011 49.1707 334.381 48.296 335.512ZM42.424 334.68C43.064 335.587 43.8907 336.04 44.904 336.04C45.9173 336.04 46.7333 335.592 47.352 334.696C47.9813 333.789 48.296 332.691 48.296 331.4C48.296 330.131 47.976 329.043 47.336 328.136C46.7067 327.219 45.8853 326.76 44.872 326.76C43.8587 326.76 43.0373 327.213 42.408 328.12C41.7787 329.016 41.464 330.109 41.464 331.4C41.464 332.669 41.784 333.763 42.424 334.68ZM57.8295 337V334.344H51.9255L51.6055 333.432L57.9415 325.72H59.0455V333.288H60.7895V334.344H59.0455V337H57.8295ZM53.1255 333.288H57.8295V327.512L53.1255 333.288Z" fill="#262626"/>
<path d="M44.4529 302.512C43.5782 303.632 42.4369 304.192 41.0289 304.192C39.6209 304.192 38.4795 303.637 37.6049 302.528C36.7409 301.408 36.3089 300.032 36.3089 298.4C36.3089 296.789 36.7462 295.424 37.6209 294.304C38.5062 293.173 39.6529 292.608 41.0609 292.608C42.4689 292.608 43.6049 293.168 44.4689 294.288C45.3329 295.397 45.7649 296.768 45.7649 298.4C45.7649 300.011 45.3275 301.381 44.4529 302.512ZM38.5809 301.68C39.2209 302.587 40.0475 303.04 41.0609 303.04C42.0742 303.04 42.8902 302.592 43.5089 301.696C44.1382 300.789 44.4529 299.691 44.4529 298.4C44.4529 297.131 44.1329 296.043 43.4929 295.136C42.8635 294.219 42.0422 293.76 41.0289 293.76C40.0155 293.76 39.1942 294.213 38.5649 295.12C37.9355 296.016 37.6209 297.109 37.6209 298.4C37.6209 299.669 37.9409 300.763 38.5809 301.68ZM53.9864 304V301.344H48.0824L47.7624 300.432L54.0984 292.72H55.2024V300.288H56.9464V301.344H55.2024V304H53.9864ZM49.2824 300.288H53.9864V294.512L49.2824 300.288ZM67.2648 302.512C66.3901 303.632 65.2488 304.192 63.8408 304.192C62.4328 304.192 61.2914 303.637 60.4167 302.528C59.5527 301.408 59.1207 300.032 59.1207 298.4C59.1207 296.789 59.5581 295.424 60.4327 294.304C61.3181 293.173 62.4648 292.608 63.8728 292.608C65.2808 292.608 66.4168 293.168 67.2808 294.288C68.1448 295.397 68.5768 296.768 68.5768 298.4C68.5768 300.011 68.1394 301.381 67.2648 302.512ZM61.3928 301.68C62.0327 302.587 62.8594 303.04 63.8728 303.04C64.8861 303.04 65.7021 302.592 66.3208 301.696C66.9501 300.789 67.2648 299.691 67.2648 298.4C67.2648 297.131 66.9448 296.043 66.3048 295.136C65.6754 294.219 64.8541 293.76 63.8408 293.76C62.8274 293.76 62.0061 294.213 61.3767 295.12C60.7474 296.016 60.4327 297.109 60.4327 298.4C60.4327 299.669 60.7527 300.763 61.3928 301.68ZM74.7342 304.192C73.2516 304.192 71.9182 303.6 70.7342 302.416L71.5662 301.504C72.6222 302.528 73.6836 303.04 74.7502 303.04C75.5502 303.04 76.2009 302.805 76.7023 302.336C77.2036 301.867 77.4542 301.264 77.4542 300.528C77.4542 299.835 77.1929 299.269 76.6702 298.832C76.1582 298.395 75.4916 298.176 74.6702 298.176C73.9022 298.176 73.1182 298.389 72.3182 298.816L71.4702 298.256L71.7902 292.8H78.2382V293.968H72.8942L72.6542 297.552C73.4116 297.221 74.1476 297.056 74.8622 297.056C75.9822 297.056 76.9049 297.371 77.6302 298C78.3663 298.619 78.7343 299.456 78.7343 300.512C78.7343 301.6 78.3609 302.485 77.6142 303.168C76.8676 303.851 75.9076 304.192 74.7342 304.192Z" fill="#262626"/>
<path d="M74.1716 67.512C73.297 68.632 72.1556 69.192 70.7476 69.192C69.3396 69.192 68.1983 68.6373 67.3236 67.528C66.4596 66.408 66.0276 65.032 66.0276 63.4C66.0276 61.7893 66.465 60.424 67.3396 59.304C68.225 58.1733 69.3716 57.608 70.7796 57.608C72.1876 57.608 73.3236 58.168 74.1876 59.288C75.0516 60.3973 75.4836 61.768 75.4836 63.4C75.4836 65.0107 75.0463 66.3813 74.1716 67.512ZM68.2996 66.68C68.9396 67.5867 69.7663 68.04 70.7796 68.04C71.793 68.04 72.609 67.592 73.2276 66.696C73.857 65.7893 74.1716 64.6907 74.1716 63.4C74.1716 62.1307 73.8516 61.0427 73.2116 60.136C72.5823 59.2187 71.761 58.76 70.7476 58.76C69.7343 58.76 68.913 59.2133 68.2836 60.12C67.6543 61.016 67.3396 62.1093 67.3396 63.4C67.3396 64.6693 67.6596 65.7627 68.2996 66.68ZM83.7051 69V66.344H77.8011L77.4811 65.432L83.8171 57.72H84.9211V65.288H86.6651V66.344H84.9211V69H83.7051ZM79.0011 65.288H83.7051V59.512L79.0011 65.288ZM96.9835 67.512C96.1088 68.632 94.9675 69.192 93.5595 69.192C92.1515 69.192 91.0102 68.6373 90.1355 67.528C89.2715 66.408 88.8395 65.032 88.8395 63.4C88.8395 61.7893 89.2768 60.424 90.1515 59.304C91.0368 58.1733 92.1835 57.608 93.5915 57.608C94.9995 57.608 96.1355 58.168 96.9995 59.288C97.8635 60.3973 98.2955 61.768 98.2955 63.4C98.2955 65.0107 97.8582 66.3813 96.9835 67.512ZM91.1115 66.68C91.7515 67.5867 92.5782 68.04 93.5915 68.04C94.6048 68.04 95.4208 67.592 96.0395 66.696C96.6688 65.7893 96.9835 64.6907 96.9835 63.4C96.9835 62.1307 96.6635 61.0427 96.0235 60.136C95.3942 59.2187 94.5728 58.76 93.5595 58.76C92.5462 58.76 91.7248 59.2133 91.0955 60.12C90.4662 61.016 90.1515 62.1093 90.1515 63.4C90.1515 64.6693 90.4715 65.7627 91.1115 66.68ZM104.933 69.192C103.589 69.192 102.528 68.7493 101.749 67.864C100.97 66.9787 100.581 65.5867 100.581 63.688C100.581 61.9387 100.997 60.488 101.829 59.336C102.672 58.184 103.808 57.608 105.237 57.608C106.4 57.608 107.504 58.0347 108.549 58.888L107.813 59.864C106.938 59.128 106.058 58.76 105.173 58.76C104.181 58.76 103.386 59.2133 102.789 60.12C102.192 61.0267 101.893 62.2053 101.893 63.656V63.704C102.672 62.5627 103.733 61.992 105.077 61.992C106.154 61.992 107.066 62.312 107.813 62.952C108.57 63.592 108.949 64.4293 108.949 65.464C108.949 66.5413 108.565 67.432 107.797 68.136C107.029 68.84 106.074 69.192 104.933 69.192ZM104.949 68.072C105.76 68.072 106.41 67.8267 106.901 67.336C107.402 66.8453 107.653 66.2267 107.653 65.48C107.653 64.7867 107.397 64.216 106.885 63.768C106.373 63.3093 105.717 63.08 104.917 63.08C104.106 63.08 103.434 63.3307 102.901 63.832C102.378 64.3227 102.117 64.8987 102.117 65.56C102.117 66.2747 102.384 66.872 102.917 67.352C103.45 67.832 104.128 68.072 104.949 68.072Z" fill="#262626"/>
<path d="M170.32 67.512C169.445 68.632 168.304 69.192 166.896 69.192C165.488 69.192 164.347 68.6373 163.472 67.528C162.608 66.408 162.176 65.032 162.176 63.4C162.176 61.7893 162.613 60.424 163.488 59.304C164.373 58.1733 165.52 57.608 166.928 57.608C168.336 57.608 169.472 58.168 170.336 59.288C171.2 60.3973 171.632 61.768 171.632 63.4C171.632 65.0107 171.195 66.3813 170.32 67.512ZM164.448 66.68C165.088 67.5867 165.915 68.04 166.928 68.04C167.941 68.04 168.757 67.592 169.376 66.696C170.005 65.7893 170.32 64.6907 170.32 63.4C170.32 62.1307 170 61.0427 169.36 60.136C168.731 59.2187 167.909 58.76 166.896 58.76C165.883 58.76 165.061 59.2133 164.432 60.12C163.803 61.016 163.488 62.1093 163.488 63.4C163.488 64.6693 163.808 65.7627 164.448 66.68ZM179.854 69V66.344H173.95L173.63 65.432L179.966 57.72H181.07V65.288H182.814V66.344H181.07V69H179.854ZM175.15 65.288H179.854V59.512L175.15 65.288ZM193.132 67.512C192.257 68.632 191.116 69.192 189.708 69.192C188.3 69.192 187.159 68.6373 186.284 67.528C185.42 66.408 184.988 65.032 184.988 63.4C184.988 61.7893 185.425 60.424 186.3 59.304C187.185 58.1733 188.332 57.608 189.74 57.608C191.148 57.608 192.284 58.168 193.148 59.288C194.012 60.3973 194.444 61.768 194.444 63.4C194.444 65.0107 194.007 66.3813 193.132 67.512ZM187.26 66.68C187.9 67.5867 188.727 68.04 189.74 68.04C190.753 68.04 191.569 67.592 192.188 66.696C192.817 65.7893 193.132 64.6907 193.132 63.4C193.132 62.1307 192.812 61.0427 192.172 60.136C191.543 59.2187 190.721 58.76 189.708 58.76C188.695 58.76 187.873 59.2133 187.244 60.12C186.615 61.016 186.3 62.1093 186.3 63.4C186.3 64.6693 186.62 65.7627 187.26 66.68ZM197.477 69L202.533 58.952H196.373V57.8H203.973V58.744L198.885 69H197.477Z" fill="#262626"/>
<path d="M438.312 50.512C437.438 51.632 436.296 52.192 434.888 52.192C433.48 52.192 432.339 51.6373 431.464 50.528C430.6 49.408 430.168 48.032 430.168 46.4C430.168 44.7893 430.606 43.424 431.48 42.304C432.366 41.1733 433.512 40.608 434.92 40.608C436.328 40.608 437.464 41.168 438.328 42.288C439.192 43.3973 439.624 44.768 439.624 46.4C439.624 48.0107 439.187 49.3813 438.312 50.512ZM432.44 49.68C433.08 50.5867 433.907 51.04 434.92 51.04C435.934 51.04 436.75 50.592 437.368 49.696C437.998 48.7893 438.312 47.6907 438.312 46.4C438.312 45.1307 437.992 44.0427 437.352 43.136C436.723 42.2187 435.902 41.76 434.888 41.76C433.875 41.76 433.054 42.2133 432.424 43.12C431.795 44.016 431.48 45.1093 431.48 46.4C431.48 47.6693 431.8 48.7627 432.44 49.68ZM447.846 52V49.344H441.942L441.622 48.432L447.958 40.72H449.062V48.288H450.806V49.344H449.062V52H447.846ZM443.142 48.288H447.846V42.512L443.142 48.288ZM461.124 50.512C460.249 51.632 459.108 52.192 457.7 52.192C456.292 52.192 455.151 51.6373 454.276 50.528C453.412 49.408 452.98 48.032 452.98 46.4C452.98 44.7893 453.417 43.424 454.292 42.304C455.177 41.1733 456.324 40.608 457.732 40.608C459.14 40.608 460.276 41.168 461.14 42.288C462.004 43.3973 462.436 44.768 462.436 46.4C462.436 48.0107 461.999 49.3813 461.124 50.512ZM455.252 49.68C455.892 50.5867 456.719 51.04 457.732 51.04C458.745 51.04 459.561 50.592 460.18 49.696C460.809 48.7893 461.124 47.6907 461.124 46.4C461.124 45.1307 460.804 44.0427 460.164 43.136C459.535 42.2187 458.713 41.76 457.7 41.76C456.687 41.76 455.865 42.2133 455.236 43.12C454.607 44.016 454.292 45.1093 454.292 46.4C454.292 47.6693 454.612 48.7627 455.252 49.68ZM471.794 51.28C470.994 51.8667 469.991 52.16 468.786 52.16C467.58 52.16 466.578 51.8613 465.778 51.264C464.978 50.6667 464.578 49.8987 464.578 48.96C464.578 48.32 464.786 47.7653 465.202 47.296C465.618 46.8267 466.178 46.464 466.882 46.208C465.602 45.6213 464.962 44.752 464.962 43.6C464.962 42.7573 465.335 42.0533 466.082 41.488C466.839 40.9227 467.74 40.64 468.786 40.64C469.831 40.64 470.727 40.9227 471.474 41.488C472.231 42.0533 472.61 42.768 472.61 43.632C472.61 44.7627 471.97 45.6213 470.69 46.208C472.226 46.784 472.994 47.7067 472.994 48.976C472.994 49.9147 472.594 50.6827 471.794 51.28ZM466.962 45.184C467.452 45.568 468.06 45.76 468.786 45.76C469.511 45.76 470.119 45.568 470.61 45.184C471.1 44.8 471.346 44.2987 471.346 43.68C471.346 43.1253 471.1 42.6667 470.61 42.304C470.119 41.9307 469.511 41.744 468.786 41.744C468.05 41.744 467.436 41.9307 466.946 42.304C466.466 42.6667 466.226 43.136 466.226 43.712C466.226 44.3093 466.471 44.8 466.962 45.184ZM466.642 50.448C467.175 50.8533 467.89 51.056 468.786 51.056C469.682 51.056 470.391 50.8533 470.914 50.448C471.447 50.0427 471.714 49.536 471.714 48.928C471.714 48.3093 471.431 47.8027 470.866 47.408C470.3 47.0027 469.607 46.8 468.786 46.8C467.954 46.8 467.255 47.0027 466.69 47.408C466.135 47.8133 465.858 48.3307 465.858 48.96C465.858 49.5467 466.119 50.0427 466.642 50.448Z" fill="#262626"/>
<path d="M551.172 50.512C550.297 51.632 549.156 52.192 547.748 52.192C546.34 52.192 545.198 51.6373 544.324 50.528C543.46 49.408 543.028 48.032 543.028 46.4C543.028 44.7893 543.465 43.424 544.34 42.304C545.225 41.1733 546.372 40.608 547.78 40.608C549.188 40.608 550.324 41.168 551.188 42.288C552.052 43.3973 552.484 44.768 552.484 46.4C552.484 48.0107 552.046 49.3813 551.172 50.512ZM545.3 49.68C545.94 50.5867 546.766 51.04 547.78 51.04C548.793 51.04 549.609 50.592 550.228 49.696C550.857 48.7893 551.172 47.6907 551.172 46.4C551.172 45.1307 550.852 44.0427 550.212 43.136C549.582 42.2187 548.761 41.76 547.748 41.76C546.734 41.76 545.913 42.2133 545.284 43.12C544.654 44.016 544.34 45.1093 544.34 46.4C544.34 47.6693 544.66 48.7627 545.3 49.68ZM560.705 52V49.344H554.801L554.481 48.432L560.817 40.72H561.921V48.288H563.665V49.344H561.921V52H560.705ZM556.001 48.288H560.705V42.512L556.001 48.288ZM573.984 50.512C573.109 51.632 571.968 52.192 570.56 52.192C569.152 52.192 568.01 51.6373 567.135 50.528C566.271 49.408 565.839 48.032 565.839 46.4C565.839 44.7893 566.277 43.424 567.151 42.304C568.037 41.1733 569.184 40.608 570.592 40.608C572 40.608 573.136 41.168 574 42.288C574.864 43.3973 575.296 44.768 575.296 46.4C575.296 48.0107 574.858 49.3813 573.984 50.512ZM568.112 49.68C568.751 50.5867 569.578 51.04 570.592 51.04C571.605 51.04 572.421 50.592 573.04 49.696C573.669 48.7893 573.984 47.6907 573.984 46.4C573.984 45.1307 573.664 44.0427 573.024 43.136C572.394 42.2187 571.573 41.76 570.56 41.76C569.546 41.76 568.725 42.2133 568.095 43.12C567.466 44.016 567.151 45.1093 567.151 46.4C567.151 47.6693 567.471 48.7627 568.112 49.68ZM581.325 52.192C580.13 52.192 578.978 51.7333 577.869 50.816L578.605 49.84C579.512 50.64 580.429 51.04 581.357 51.04C582.349 51.04 583.149 50.5973 583.757 49.712C584.376 48.816 584.685 47.6693 584.685 46.272V46.128C583.938 47.3227 582.882 47.92 581.517 47.92C580.365 47.92 579.426 47.5947 578.701 46.944C577.976 46.2827 577.613 45.44 577.613 44.416C577.613 43.3387 577.992 42.4373 578.749 41.712C579.506 40.976 580.472 40.608 581.645 40.608C582.968 40.608 584.018 41.0507 584.797 41.936C585.586 42.8213 585.981 44.2187 585.981 46.128C585.981 47.9093 585.549 49.3653 584.685 50.496C583.821 51.6267 582.701 52.192 581.325 52.192ZM581.661 46.832C582.482 46.832 583.149 46.576 583.661 46.064C584.184 45.552 584.445 44.9547 584.445 44.272C584.445 43.5467 584.178 42.944 583.645 42.464C583.112 41.9733 582.429 41.728 581.597 41.728C580.786 41.728 580.136 41.9893 579.645 42.512C579.154 43.024 578.909 43.648 578.909 44.384C578.909 45.0987 579.165 45.6853 579.677 46.144C580.189 46.6027 580.85 46.832 581.661 46.832Z" fill="#262626"/>
<path d="M564.14 253.512C563.266 254.632 562.124 255.192 560.716 255.192C559.308 255.192 558.167 254.637 557.292 253.528C556.428 252.408 555.996 251.032 555.996 249.4C555.996 247.789 556.434 246.424 557.308 245.304C558.194 244.173 559.34 243.608 560.748 243.608C562.156 243.608 563.292 244.168 564.156 245.288C565.02 246.397 565.452 247.768 565.452 249.4C565.452 251.011 565.015 252.381 564.14 253.512ZM558.268 252.68C558.908 253.587 559.735 254.04 560.748 254.04C561.762 254.04 562.578 253.592 563.196 252.696C563.826 251.789 564.14 250.691 564.14 249.4C564.14 248.131 563.82 247.043 563.18 246.136C562.551 245.219 561.73 244.76 560.716 244.76C559.703 244.76 558.882 245.213 558.252 246.12C557.623 247.016 557.308 248.109 557.308 249.4C557.308 250.669 557.628 251.763 558.268 252.68ZM573.674 255V252.344H567.77L567.45 251.432L573.786 243.72H574.89V251.288H576.634V252.344H574.89V255H573.674ZM568.97 251.288H573.674V245.512L568.97 251.288ZM580.368 255V245.032L578.256 245.688L577.952 244.664L580.688 243.72H581.616V255H580.368ZM592.694 253.512C591.819 254.632 590.678 255.192 589.27 255.192C587.862 255.192 586.721 254.637 585.846 253.528C584.982 252.408 584.55 251.032 584.55 249.4C584.55 247.789 584.987 246.424 585.862 245.304C586.747 244.173 587.894 243.608 589.302 243.608C590.71 243.608 591.846 244.168 592.71 245.288C593.574 246.397 594.006 247.768 594.006 249.4C594.006 251.011 593.569 252.381 592.694 253.512ZM586.822 252.68C587.462 253.587 588.289 254.04 589.302 254.04C590.315 254.04 591.131 253.592 591.75 252.696C592.379 251.789 592.694 250.691 592.694 249.4C592.694 248.131 592.374 247.043 591.734 246.136C591.105 245.219 590.283 244.76 589.27 244.76C588.257 244.76 587.435 245.213 586.806 246.12C586.177 247.016 585.862 248.109 585.862 249.4C585.862 250.669 586.182 251.763 586.822 252.68Z" fill="#262626"/>
<path d="M480.492 253.512C479.617 254.632 478.476 255.192 477.068 255.192C475.66 255.192 474.519 254.637 473.644 253.528C472.78 252.408 472.348 251.032 472.348 249.4C472.348 247.789 472.785 246.424 473.66 245.304C474.545 244.173 475.692 243.608 477.1 243.608C478.508 243.608 479.644 244.168 480.508 245.288C481.372 246.397 481.804 247.768 481.804 249.4C481.804 251.011 481.367 252.381 480.492 253.512ZM474.62 252.68C475.26 253.587 476.087 254.04 477.1 254.04C478.113 254.04 478.929 253.592 479.548 252.696C480.177 251.789 480.492 250.691 480.492 249.4C480.492 248.131 480.172 247.043 479.532 246.136C478.903 245.219 478.081 244.76 477.068 244.76C476.055 244.76 475.233 245.213 474.604 246.12C473.975 247.016 473.66 248.109 473.66 249.4C473.66 250.669 473.98 251.763 474.62 252.68ZM490.025 255V252.344H484.121L483.801 251.432L490.137 243.72H491.241V251.288H492.985V252.344H491.241V255H490.025ZM485.321 251.288H490.025V245.512L485.321 251.288ZM496.719 255V245.032L494.607 245.688L494.303 244.664L497.039 243.72H497.967V255H496.719ZM502.774 255V245.032L500.662 245.688L500.358 244.664L503.094 243.72H504.022V255H502.774Z" fill="#262626"/>
<path d="M261.463 169.128C260.961 169.128 260.476 169.037 260.007 168.856L260.263 167.832C260.497 167.939 260.828 167.992 261.255 167.992C261.468 167.992 261.66 167.96 261.831 167.896C262.001 167.821 262.204 167.629 262.439 167.32C262.673 167 262.865 166.568 263.015 166.024C263.164 165.469 263.292 164.664 263.399 163.608C263.516 162.541 263.575 161.283 263.575 159.832V157.8H270.823V169H269.559V158.952H264.791V160.168C264.791 161.683 264.727 162.995 264.599 164.104C264.481 165.213 264.321 166.088 264.119 166.728C263.927 167.357 263.676 167.859 263.367 168.232C263.068 168.605 262.769 168.851 262.471 168.968C262.183 169.075 261.847 169.128 261.463 169.128ZM274.095 169V160.728H275.327V167.272L280.239 160.728H281.439V169H280.207V162.456L275.279 169H274.095ZM289.485 171.56V168.328C288.823 168.893 288.135 169.176 287.421 169.176C286.418 169.176 285.607 168.792 284.989 168.024C284.37 167.245 284.061 166.184 284.061 164.84C284.061 163.517 284.37 162.472 284.989 161.704C285.607 160.936 286.418 160.552 287.421 160.552C288.135 160.552 288.823 160.851 289.485 161.448V157.8H290.733V161.448C291.394 160.851 292.082 160.552 292.797 160.552C293.81 160.552 294.626 160.941 295.245 161.72C295.863 162.488 296.173 163.539 296.173 164.872C296.173 166.195 295.858 167.245 295.229 168.024C294.61 168.792 293.799 169.176 292.797 169.176C292.338 169.176 291.959 169.107 291.661 168.968C291.373 168.819 291.063 168.605 290.733 168.328V171.56H289.485ZM287.677 168.088C288.37 168.088 288.973 167.816 289.485 167.272V162.472C288.973 161.928 288.37 161.656 287.677 161.656C286.909 161.656 286.327 161.944 285.933 162.52C285.538 163.096 285.341 163.891 285.341 164.904C285.341 167.027 286.119 168.088 287.677 168.088ZM292.557 168.088C294.114 168.088 294.893 167.016 294.893 164.872C294.893 163.869 294.695 163.085 294.301 162.52C293.906 161.944 293.325 161.656 292.557 161.656C291.863 161.656 291.255 161.928 290.733 162.472V167.272C291.255 167.816 291.863 168.088 292.557 168.088ZM300.798 169V161.816H297.838V160.728H305.006V161.816H302.046V169H300.798ZM307.118 169V160.728H308.35V163.832H310.558C311.518 163.832 312.302 164.04 312.91 164.456C313.518 164.861 313.822 165.48 313.822 166.312C313.822 167.133 313.539 167.789 312.974 168.28C312.408 168.76 311.651 169 310.702 169H307.118ZM308.35 167.912H310.59C311.219 167.912 311.704 167.779 312.046 167.512C312.398 167.245 312.574 166.856 312.574 166.344C312.574 165.875 312.392 165.517 312.03 165.272C311.678 165.016 311.182 164.888 310.542 164.888H308.35V167.912ZM315.31 169V160.728H316.542V169H315.31Z" fill="#262626"/>
<defs>
<filter id="filter0_f_48_23" x="5" y="5" width="596.5" height="381" filterUnits="userSpaceOnUse" color-interpolation-filters="sRGB">
<feFlood flood-opacity="0" result="BackgroundImageFix"/>
<feBlend mode="normal" in="SourceGraphic" in2="BackgroundImageFix" result="shape"/>
<feGaussianBlur stdDeviation="0.5" result="effect1_foregroundBlur_48_23"/>
</filter>
<filter id="filter1_f_48_23" x="0.5" y="0.5" width="605.5" height="390" filterUnits="userSpaceOnUse" color-interpolation-filters="sRGB">
<feFlood flood-opacity="0" result="BackgroundImageFix"/>
<feBlend mode="normal" in="SourceGraphic" in2="BackgroundImageFix" result="shape"/>
<feGaussianBlur stdDeviation="2" result="effect1_foregroundBlur_48_23"/>
</filter>
<filter id="filter2_f_48_23" x="4" y="4" width="598.5" height="383" filterUnits="userSpaceOnUse" color-interpolation-filters="sRGB">
<feFlood flood-opacity="0" result="BackgroundImageFix"/>
<feBlend mode="normal" in="SourceGraphic" in2="BackgroundImageFix" result="shape"/>
<feGaussianBlur stdDeviation="0.5" result="effect1_foregroundBlur_48_23"/>
</filter>
<filter id="filter3_f_48_23" x="137" y="237" width="18" height="63" filterUnits="userSpaceOnUse" color-interpolation-filters="sRGB">
<feFlood flood-opacity="0" result="BackgroundImageFix"/>
<feBlend mode="normal" in="SourceGraphic" in2="BackgroundImageFix" result="shape"/>
<feGaussianBlur stdDeviation="2" result="effect1_foregroundBlur_48_23"/>
</filter>
</defs>
</svg>
