<svg width="852" height="375" viewBox="0 0 852 375" fill="none" xmlns="http://www.w3.org/2000/svg">
<g filter="url(#filter0_f_55_1134)">
<path d="M724.5 233H847.5V325.5H724.5V369H621.5V233H170V369H94.5V233H6V147V6H80.625H155.25H229.875H304.5H379.125H453.75H528.375H603V147H724.5V233Z" fill="#F1F1FF" fill-opacity="0.2"/>
</g>
<g filter="url(#filter1_f_55_1134)">
<path d="M847.5 233H724.5V147H603M603 147V6H528.375M603 147H528.375M847.5 325.5H724.5V369H621.5V233H170M170 233H94.5V369H170V233ZM304.5 6V147M304.5 6H379.125M304.5 6H229.875M304.5 147H379.125M304.5 147H229.875M453.75 6V147M453.75 6H528.375M453.75 6H379.125M453.75 147H528.375M453.75 147H379.125M528.375 6V147M379.125 6V147M155.25 6V147M155.25 6H229.875M155.25 6H80.625M155.25 147H229.875M155.25 147H80.625M229.875 6V147M80.625 6H6V147H80.625M80.625 6V147" stroke="#615FC5" stroke-width="3"/>
</g>
<path d="M847.5 233H724.5V147H603M603 147V6H528.375M603 147H528.375M847.5 325.5H724.5V369H621.5V233H170M170 233H94.5V369H170V233ZM304.5 6V147M304.5 6H379.125M304.5 6H229.875M304.5 147H379.125M304.5 147H229.875M453.75 6V147M453.75 6H528.375M453.75 6H379.125M453.75 147H528.375M453.75 147H379.125M528.375 6V147M379.125 6V147M155.25 6V147M155.25 6H229.875M155.25 6H80.625M155.25 147H229.875M155.25 147H80.625M229.875 6V147M80.625 6H6V147H80.625M80.625 6V147" stroke="#4548B7" stroke-width="3"/>
<g filter="url(#filter2_f_55_1134)">
<path d="M847.5 233H724.5V147H603M603 147V6H528.375M603 147H528.375M847.5 325.5H724.5V369H621.5V233H170M170 233H94.5V369H170V233ZM304.5 6V147M304.5 6H379.125M304.5 6H229.875M304.5 147H379.125M304.5 147H229.875M453.75 6V147M453.75 6H528.375M453.75 6H379.125M453.75 147H528.375M453.75 147H379.125M528.375 6V147M379.125 6V147M155.25 6V147M155.25 6H229.875M155.25 6H80.625M155.25 147H229.875M155.25 147H80.625M229.875 6V147M80.625 6H6V147H80.625M80.625 6V147" stroke="#E7E7FF" stroke-width="2"/>
</g>
<path d="M26.9278 82V80.902L31.4998 76.87C32.4838 76.006 33.1678 75.286 33.5518 74.71C33.9358 74.134 34.1278 73.534 34.1278 72.91C34.1278 72.19 33.8818 71.608 33.3898 71.164C32.8978 70.72 32.2978 70.498 31.5898 70.498C30.9058 70.498 30.2998 70.672 29.7718 71.02C29.2558 71.368 28.7338 71.914 28.2058 72.658L27.1618 71.902C27.7738 70.99 28.4218 70.318 29.1058 69.886C29.7898 69.442 30.6538 69.22 31.6978 69.22C32.8258 69.22 33.7558 69.562 34.4878 70.246C35.2318 70.918 35.6038 71.776 35.6038 72.82C35.6038 73.684 35.3698 74.452 34.9018 75.124C34.4338 75.796 33.6058 76.66 32.4178 77.716L29.0518 80.704H35.7298V82H26.9278ZM38.0632 82V80.902L42.6352 76.87C43.6192 76.006 44.3032 75.286 44.6872 74.71C45.0712 74.134 45.2632 73.534 45.2632 72.91C45.2632 72.19 45.0172 71.608 44.5252 71.164C44.0332 70.72 43.4332 70.498 42.7252 70.498C42.0412 70.498 41.4352 70.672 40.9072 71.02C40.3912 71.368 39.8692 71.914 39.3412 72.658L38.2972 71.902C38.9092 70.99 39.5572 70.318 40.2412 69.886C40.9252 69.442 41.7892 69.22 42.8332 69.22C43.9612 69.22 44.8912 69.562 45.6232 70.246C46.3672 70.918 46.7392 71.776 46.7392 72.82C46.7392 73.684 46.5052 74.452 46.0372 75.124C45.5692 75.796 44.7412 76.66 43.5532 77.716L40.1872 80.704H46.8652V82H38.0632ZM55.636 82V79.012H48.994L48.634 77.986L55.762 69.31H57.004V77.824H58.966V79.012H57.004V82H55.636ZM50.344 77.824H55.636V71.326L50.344 77.824Z" fill="#262626"/>
<path d="M101.901 82V80.902L106.473 76.87C107.457 76.006 108.141 75.286 108.525 74.71C108.909 74.134 109.101 73.534 109.101 72.91C109.101 72.19 108.855 71.608 108.363 71.164C107.871 70.72 107.271 70.498 106.563 70.498C105.879 70.498 105.273 70.672 104.745 71.02C104.229 71.368 103.707 71.914 103.179 72.658L102.135 71.902C102.747 70.99 103.395 70.318 104.079 69.886C104.763 69.442 105.627 69.22 106.671 69.22C107.799 69.22 108.729 69.562 109.461 70.246C110.205 70.918 110.577 71.776 110.577 72.82C110.577 73.684 110.343 74.452 109.875 75.124C109.407 75.796 108.579 76.66 107.391 77.716L104.025 80.704H110.703V82H101.901ZM113.037 82V80.902L117.609 76.87C118.593 76.006 119.277 75.286 119.661 74.71C120.045 74.134 120.237 73.534 120.237 72.91C120.237 72.19 119.991 71.608 119.499 71.164C119.007 70.72 118.407 70.498 117.699 70.498C117.015 70.498 116.409 70.672 115.881 71.02C115.365 71.368 114.843 71.914 114.315 72.658L113.271 71.902C113.883 70.99 114.531 70.318 115.215 69.886C115.899 69.442 116.763 69.22 117.807 69.22C118.935 69.22 119.865 69.562 120.597 70.246C121.341 70.918 121.713 71.776 121.713 72.82C121.713 73.684 121.479 74.452 121.011 75.124C120.543 75.796 119.715 76.66 118.527 77.716L115.161 80.704H121.839V82H113.037ZM129.302 82.216C127.79 82.216 126.596 81.718 125.72 80.722C124.844 79.726 124.406 78.16 124.406 76.024C124.406 74.056 124.874 72.424 125.81 71.128C126.758 69.832 128.036 69.184 129.644 69.184C130.952 69.184 132.194 69.664 133.37 70.624L132.542 71.722C131.558 70.894 130.568 70.48 129.572 70.48C128.456 70.48 127.562 70.99 126.89 72.01C126.218 73.03 125.882 74.356 125.882 75.988V76.042C126.758 74.758 127.952 74.116 129.464 74.116C130.676 74.116 131.702 74.476 132.542 75.196C133.394 75.916 133.82 76.858 133.82 78.022C133.82 79.234 133.388 80.236 132.524 81.028C131.66 81.82 130.586 82.216 129.302 82.216ZM129.32 80.956C130.232 80.956 130.964 80.68 131.516 80.128C132.08 79.576 132.362 78.88 132.362 78.04C132.362 77.26 132.074 76.618 131.498 76.114C130.922 75.598 130.184 75.34 129.284 75.34C128.372 75.34 127.616 75.622 127.016 76.186C126.428 76.738 126.134 77.386 126.134 78.13C126.134 78.934 126.434 79.606 127.034 80.146C127.634 80.686 128.396 80.956 129.32 80.956Z" fill="#262626"/>
<path d="M177.973 82V80.902L182.545 76.87C183.529 76.006 184.213 75.286 184.597 74.71C184.981 74.134 185.173 73.534 185.173 72.91C185.173 72.19 184.927 71.608 184.435 71.164C183.943 70.72 183.343 70.498 182.635 70.498C181.951 70.498 181.345 70.672 180.817 71.02C180.301 71.368 179.779 71.914 179.251 72.658L178.207 71.902C178.819 70.99 179.467 70.318 180.151 69.886C180.835 69.442 181.699 69.22 182.743 69.22C183.871 69.22 184.801 69.562 185.533 70.246C186.277 70.918 186.649 71.776 186.649 72.82C186.649 73.684 186.415 74.452 185.947 75.124C185.479 75.796 184.651 76.66 183.463 77.716L180.097 80.704H186.775V82H177.973ZM189.108 82V80.902L193.68 76.87C194.664 76.006 195.348 75.286 195.732 74.71C196.116 74.134 196.308 73.534 196.308 72.91C196.308 72.19 196.062 71.608 195.57 71.164C195.078 70.72 194.478 70.498 193.77 70.498C193.086 70.498 192.48 70.672 191.952 71.02C191.436 71.368 190.914 71.914 190.386 72.658L189.342 71.902C189.954 70.99 190.602 70.318 191.286 69.886C191.97 69.442 192.834 69.22 193.878 69.22C195.006 69.22 195.936 69.562 196.668 70.246C197.412 70.918 197.784 71.776 197.784 72.82C197.784 73.684 197.55 74.452 197.082 75.124C196.614 75.796 195.786 76.66 194.598 77.716L191.232 80.704H197.91V82H189.108ZM201.635 82L207.323 70.696H200.393V69.4H208.943V70.462L203.219 82H201.635Z" fill="#262626"/>
<path d="M252.06 82V80.902L256.632 76.87C257.616 76.006 258.3 75.286 258.684 74.71C259.068 74.134 259.26 73.534 259.26 72.91C259.26 72.19 259.014 71.608 258.522 71.164C258.03 70.72 257.43 70.498 256.722 70.498C256.038 70.498 255.432 70.672 254.904 71.02C254.388 71.368 253.866 71.914 253.338 72.658L252.294 71.902C252.906 70.99 253.554 70.318 254.238 69.886C254.922 69.442 255.786 69.22 256.83 69.22C257.958 69.22 258.888 69.562 259.62 70.246C260.364 70.918 260.736 71.776 260.736 72.82C260.736 73.684 260.502 74.452 260.034 75.124C259.566 75.796 258.738 76.66 257.55 77.716L254.184 80.704H260.862V82H252.06ZM263.195 82V80.902L267.767 76.87C268.751 76.006 269.435 75.286 269.819 74.71C270.203 74.134 270.395 73.534 270.395 72.91C270.395 72.19 270.149 71.608 269.657 71.164C269.165 70.72 268.565 70.498 267.857 70.498C267.173 70.498 266.567 70.672 266.039 71.02C265.523 71.368 265.001 71.914 264.473 72.658L263.429 71.902C264.041 70.99 264.689 70.318 265.373 69.886C266.057 69.442 266.921 69.22 267.965 69.22C269.093 69.22 270.023 69.562 270.755 70.246C271.499 70.918 271.871 71.776 271.871 72.82C271.871 73.684 271.637 74.452 271.169 75.124C270.701 75.796 269.873 76.66 268.685 77.716L265.319 80.704H271.997V82H263.195ZM282.52 81.19C281.62 81.85 280.492 82.18 279.136 82.18C277.78 82.18 276.652 81.844 275.752 81.172C274.852 80.5 274.402 79.636 274.402 78.58C274.402 77.86 274.636 77.236 275.104 76.708C275.572 76.18 276.202 75.772 276.994 75.484C275.554 74.824 274.834 73.846 274.834 72.55C274.834 71.602 275.254 70.81 276.094 70.174C276.946 69.538 277.96 69.22 279.136 69.22C280.312 69.22 281.32 69.538 282.16 70.174C283.012 70.81 283.438 71.614 283.438 72.586C283.438 73.858 282.718 74.824 281.278 75.484C283.006 76.132 283.87 77.17 283.87 78.598C283.87 79.654 283.42 80.518 282.52 81.19ZM277.084 74.332C277.636 74.764 278.32 74.98 279.136 74.98C279.952 74.98 280.636 74.764 281.188 74.332C281.74 73.9 282.016 73.336 282.016 72.64C282.016 72.016 281.74 71.5 281.188 71.092C280.636 70.672 279.952 70.462 279.136 70.462C278.308 70.462 277.618 70.672 277.066 71.092C276.526 71.5 276.256 72.028 276.256 72.676C276.256 73.348 276.532 73.9 277.084 74.332ZM276.724 80.254C277.324 80.71 278.128 80.938 279.136 80.938C280.144 80.938 280.942 80.71 281.53 80.254C282.13 79.798 282.43 79.228 282.43 78.544C282.43 77.848 282.112 77.278 281.476 76.834C280.84 76.378 280.06 76.15 279.136 76.15C278.2 76.15 277.414 76.378 276.778 76.834C276.154 77.29 275.842 77.872 275.842 78.58C275.842 79.24 276.136 79.798 276.724 80.254Z" fill="#262626"/>
<path d="M326.901 82V80.902L331.473 76.87C332.457 76.006 333.141 75.286 333.525 74.71C333.909 74.134 334.101 73.534 334.101 72.91C334.101 72.19 333.855 71.608 333.363 71.164C332.871 70.72 332.271 70.498 331.563 70.498C330.879 70.498 330.273 70.672 329.745 71.02C329.229 71.368 328.707 71.914 328.179 72.658L327.135 71.902C327.747 70.99 328.395 70.318 329.079 69.886C329.763 69.442 330.627 69.22 331.671 69.22C332.799 69.22 333.729 69.562 334.461 70.246C335.205 70.918 335.577 71.776 335.577 72.82C335.577 73.684 335.343 74.452 334.875 75.124C334.407 75.796 333.579 76.66 332.391 77.716L329.025 80.704H335.703V82H326.901ZM338.037 82V80.902L342.609 76.87C343.593 76.006 344.277 75.286 344.661 74.71C345.045 74.134 345.237 73.534 345.237 72.91C345.237 72.19 344.991 71.608 344.499 71.164C344.007 70.72 343.407 70.498 342.699 70.498C342.015 70.498 341.409 70.672 340.881 71.02C340.365 71.368 339.843 71.914 339.315 72.658L338.271 71.902C338.883 70.99 339.531 70.318 340.215 69.886C340.899 69.442 341.763 69.22 342.807 69.22C343.935 69.22 344.865 69.562 345.597 70.246C346.341 70.918 346.713 71.776 346.713 72.82C346.713 73.684 346.479 74.452 346.011 75.124C345.543 75.796 344.715 76.66 343.527 77.716L340.161 80.704H346.839V82H338.037ZM353.618 82.216C352.274 82.216 350.978 81.7 349.73 80.668L350.558 79.57C351.578 80.47 352.61 80.92 353.654 80.92C354.77 80.92 355.67 80.422 356.354 79.426C357.05 78.418 357.398 77.128 357.398 75.556V75.394C356.558 76.738 355.37 77.41 353.834 77.41C352.538 77.41 351.482 77.044 350.666 76.312C349.85 75.568 349.442 74.62 349.442 73.468C349.442 72.256 349.868 71.242 350.72 70.426C351.572 69.598 352.658 69.184 353.978 69.184C355.466 69.184 356.648 69.682 357.524 70.678C358.412 71.674 358.856 73.246 358.856 75.394C358.856 77.398 358.37 79.036 357.398 80.308C356.426 81.58 355.166 82.216 353.618 82.216ZM353.996 76.186C354.92 76.186 355.67 75.898 356.246 75.322C356.834 74.746 357.128 74.074 357.128 73.306C357.128 72.49 356.828 71.812 356.228 71.272C355.628 70.72 354.86 70.444 353.924 70.444C353.012 70.444 352.28 70.738 351.728 71.326C351.176 71.902 350.9 72.604 350.9 73.432C350.9 74.236 351.188 74.896 351.764 75.412C352.34 75.928 353.084 76.186 353.996 76.186Z" fill="#262626"/>
<path d="M401.163 82V80.902L405.735 76.87C406.719 76.006 407.403 75.286 407.787 74.71C408.171 74.134 408.363 73.534 408.363 72.91C408.363 72.19 408.117 71.608 407.625 71.164C407.133 70.72 406.533 70.498 405.825 70.498C405.141 70.498 404.535 70.672 404.007 71.02C403.491 71.368 402.969 71.914 402.441 72.658L401.397 71.902C402.009 70.99 402.657 70.318 403.341 69.886C404.025 69.442 404.889 69.22 405.933 69.22C407.061 69.22 407.991 69.562 408.723 70.246C409.467 70.918 409.839 71.776 409.839 72.82C409.839 73.684 409.605 74.452 409.137 75.124C408.669 75.796 407.841 76.66 406.653 77.716L403.287 80.704H409.965V82H401.163ZM417.033 82.216C415.053 82.216 413.487 81.466 412.335 79.966L413.361 79.048C414.381 80.296 415.611 80.92 417.051 80.92C417.831 80.92 418.485 80.692 419.013 80.236C419.541 79.78 419.805 79.18 419.805 78.436C419.805 77.668 419.481 77.074 418.833 76.654C418.185 76.222 417.333 76.006 416.277 76.006H415.467L415.179 75.16L419.157 70.678H413.001V69.4H421.047V70.444L417.087 74.836C418.287 74.932 419.277 75.28 420.057 75.88C420.849 76.468 421.245 77.314 421.245 78.418C421.245 79.522 420.837 80.434 420.021 81.154C419.217 81.862 418.221 82.216 417.033 82.216ZM433.112 80.326C432.128 81.586 430.844 82.216 429.26 82.216C427.676 82.216 426.392 81.592 425.408 80.344C424.436 79.084 423.95 77.536 423.95 75.7C423.95 73.888 424.442 72.352 425.426 71.092C426.422 69.82 427.712 69.184 429.296 69.184C430.88 69.184 432.158 69.814 433.13 71.074C434.102 72.322 434.588 73.864 434.588 75.7C434.588 77.512 434.096 79.054 433.112 80.326ZM426.506 79.39C427.226 80.41 428.156 80.92 429.296 80.92C430.436 80.92 431.354 80.416 432.05 79.408C432.758 78.388 433.112 77.152 433.112 75.7C433.112 74.272 432.752 73.048 432.032 72.028C431.324 70.996 430.4 70.48 429.26 70.48C428.12 70.48 427.196 70.99 426.488 72.01C425.78 73.018 425.426 74.248 425.426 75.7C425.426 77.128 425.786 78.358 426.506 79.39Z" fill="#262626"/>
<path d="M479.871 82V80.902L484.443 76.87C485.427 76.006 486.111 75.286 486.495 74.71C486.879 74.134 487.071 73.534 487.071 72.91C487.071 72.19 486.825 71.608 486.333 71.164C485.841 70.72 485.241 70.498 484.533 70.498C483.849 70.498 483.243 70.672 482.715 71.02C482.199 71.368 481.677 71.914 481.149 72.658L480.105 71.902C480.717 70.99 481.365 70.318 482.049 69.886C482.733 69.442 483.597 69.22 484.641 69.22C485.769 69.22 486.699 69.562 487.431 70.246C488.175 70.918 488.547 71.776 488.547 72.82C488.547 73.684 488.313 74.452 487.845 75.124C487.377 75.796 486.549 76.66 485.361 77.716L481.995 80.704H488.673V82H479.871ZM495.741 82.216C493.761 82.216 492.195 81.466 491.043 79.966L492.069 79.048C493.089 80.296 494.319 80.92 495.759 80.92C496.539 80.92 497.193 80.692 497.721 80.236C498.249 79.78 498.513 79.18 498.513 78.436C498.513 77.668 498.189 77.074 497.541 76.654C496.893 76.222 496.041 76.006 494.985 76.006H494.175L493.887 75.16L497.865 70.678H491.709V69.4H499.755V70.444L495.795 74.836C496.995 74.932 497.985 75.28 498.765 75.88C499.557 76.468 499.953 77.314 499.953 78.418C499.953 79.522 499.545 80.434 498.729 81.154C497.925 81.862 496.929 82.216 495.741 82.216ZM504.764 82V70.786L502.388 71.524L502.046 70.372L505.124 69.31H506.168V82H504.764Z" fill="#262626"/>
<path d="M552.209 82V80.902L556.781 76.87C557.765 76.006 558.449 75.286 558.833 74.71C559.217 74.134 559.409 73.534 559.409 72.91C559.409 72.19 559.163 71.608 558.671 71.164C558.179 70.72 557.579 70.498 556.871 70.498C556.187 70.498 555.581 70.672 555.053 71.02C554.537 71.368 554.015 71.914 553.487 72.658L552.443 71.902C553.055 70.99 553.703 70.318 554.387 69.886C555.071 69.442 555.935 69.22 556.979 69.22C558.107 69.22 559.037 69.562 559.769 70.246C560.513 70.918 560.885 71.776 560.885 72.82C560.885 73.684 560.651 74.452 560.183 75.124C559.715 75.796 558.887 76.66 557.699 77.716L554.333 80.704H561.011V82H552.209ZM568.078 82.216C566.098 82.216 564.532 81.466 563.38 79.966L564.406 79.048C565.426 80.296 566.656 80.92 568.096 80.92C568.876 80.92 569.53 80.692 570.058 80.236C570.586 79.78 570.85 79.18 570.85 78.436C570.85 77.668 570.526 77.074 569.878 76.654C569.23 76.222 568.378 76.006 567.322 76.006H566.512L566.224 75.16L570.202 70.678H564.046V69.4H572.092V70.444L568.132 74.836C569.332 74.932 570.322 75.28 571.102 75.88C571.894 76.468 572.29 77.314 572.29 78.418C572.29 79.522 571.882 80.434 571.066 81.154C570.262 81.862 569.266 82.216 568.078 82.216ZM574.744 82V80.902L579.316 76.87C580.3 76.006 580.984 75.286 581.368 74.71C581.752 74.134 581.944 73.534 581.944 72.91C581.944 72.19 581.698 71.608 581.206 71.164C580.714 70.72 580.114 70.498 579.406 70.498C578.722 70.498 578.116 70.672 577.588 71.02C577.072 71.368 576.55 71.914 576.022 72.658L574.978 71.902C575.59 70.99 576.238 70.318 576.922 69.886C577.606 69.442 578.47 69.22 579.514 69.22C580.642 69.22 581.572 69.562 582.304 70.246C583.048 70.918 583.42 71.776 583.42 72.82C583.42 73.684 583.186 74.452 582.718 75.124C582.25 75.796 581.422 76.66 580.234 77.716L576.868 80.704H583.546V82H574.744Z" fill="#262626"/>
<path d="M118.209 309V307.902L122.781 303.87C123.765 303.006 124.449 302.286 124.833 301.71C125.217 301.134 125.409 300.534 125.409 299.91C125.409 299.19 125.163 298.608 124.671 298.164C124.179 297.72 123.579 297.498 122.871 297.498C122.187 297.498 121.581 297.672 121.053 298.02C120.537 298.368 120.015 298.914 119.487 299.658L118.443 298.902C119.055 297.99 119.703 297.318 120.387 296.886C121.071 296.442 121.935 296.22 122.979 296.22C124.107 296.22 125.037 296.562 125.769 297.246C126.513 297.918 126.885 298.776 126.885 299.82C126.885 300.684 126.651 301.452 126.183 302.124C125.715 302.796 124.887 303.66 123.699 304.716L120.333 307.704H127.011V309H118.209ZM134.078 309.216C132.098 309.216 130.532 308.466 129.38 306.966L130.406 306.048C131.426 307.296 132.656 307.92 134.096 307.92C134.876 307.92 135.53 307.692 136.058 307.236C136.586 306.78 136.85 306.18 136.85 305.436C136.85 304.668 136.526 304.074 135.878 303.654C135.23 303.222 134.378 303.006 133.322 303.006H132.512L132.224 302.16L136.202 297.678H130.046V296.4H138.092V297.444L134.132 301.836C135.332 301.932 136.322 302.28 137.102 302.88C137.894 303.468 138.29 304.314 138.29 305.418C138.29 306.522 137.882 307.434 137.066 308.154C136.262 308.862 135.266 309.216 134.078 309.216ZM140.744 309V307.902L145.316 303.87C146.3 303.006 146.984 302.286 147.368 301.71C147.752 301.134 147.944 300.534 147.944 299.91C147.944 299.19 147.698 298.608 147.206 298.164C146.714 297.72 146.114 297.498 145.406 297.498C144.722 297.498 144.116 297.672 143.588 298.02C143.072 298.368 142.55 298.914 142.022 299.658L140.978 298.902C141.59 297.99 142.238 297.318 142.922 296.886C143.606 296.442 144.47 296.22 145.514 296.22C146.642 296.22 147.572 296.562 148.304 297.246C149.048 297.918 149.42 298.776 149.42 299.82C149.42 300.684 149.186 301.452 148.718 302.124C148.25 302.796 147.422 303.66 146.234 304.716L142.868 307.704H149.546V309H140.744Z" fill="#262626"/>
<defs>
<filter id="filter0_f_55_1134" x="5" y="5" width="843.5" height="365" filterUnits="userSpaceOnUse" color-interpolation-filters="sRGB">
<feFlood flood-opacity="0" result="BackgroundImageFix"/>
<feBlend mode="normal" in="SourceGraphic" in2="BackgroundImageFix" result="shape"/>
<feGaussianBlur stdDeviation="0.5" result="effect1_foregroundBlur_55_1134"/>
</filter>
<filter id="filter1_f_55_1134" x="0.5" y="0.5" width="851" height="374" filterUnits="userSpaceOnUse" color-interpolation-filters="sRGB">
<feFlood flood-opacity="0" result="BackgroundImageFix"/>
<feBlend mode="normal" in="SourceGraphic" in2="BackgroundImageFix" result="shape"/>
<feGaussianBlur stdDeviation="2" result="effect1_foregroundBlur_55_1134"/>
</filter>
<filter id="filter2_f_55_1134" x="4" y="4" width="844.5" height="367" filterUnits="userSpaceOnUse" color-interpolation-filters="sRGB">
<feFlood flood-opacity="0" result="BackgroundImageFix"/>
<feBlend mode="normal" in="SourceGraphic" in2="BackgroundImageFix" result="shape"/>
<feGaussianBlur stdDeviation="0.5" result="effect1_foregroundBlur_55_1134"/>
</filter>
</defs>
</svg>
