<svg width="1128" height="424" viewBox="0 0 1128 424" fill="none" xmlns="http://www.w3.org/2000/svg">
<path d="M437.832 115.48C433.725 115.48 430.298 114.093 427.552 111.32C424.832 108.52 423.472 105.08 423.472 101C423.472 96.9467 424.845 93.52 427.592 90.72C430.338 87.92 433.832 86.52 438.072 86.52C440.498 86.52 442.538 86.92 444.192 87.72C445.845 88.4933 447.418 89.6133 448.912 91.08L445.232 95.32C444.032 94.2267 442.898 93.44 441.832 92.96C440.792 92.4533 439.525 92.2 438.032 92.2C435.685 92.2 433.738 93.0533 432.192 94.76C430.672 96.44 429.912 98.52 429.912 101C429.912 103.453 430.672 105.533 432.192 107.24C433.738 108.947 435.685 109.8 438.032 109.8C439.525 109.8 440.818 109.533 441.912 109C443.005 108.467 444.165 107.64 445.392 106.52L449.312 110.72C447.792 112.347 446.138 113.547 444.352 114.32C442.592 115.093 440.418 115.48 437.832 115.48ZM473.083 93.56V115H467.003V98.76H459.683V115H453.603V93.56H473.083ZM498.485 93.56V115H492.605V102.52L484.245 115H478.525V93.56H484.405V106.08L492.765 93.56H498.485ZM514.035 115.48C510.835 115.48 508.169 114.4 506.035 112.24C503.929 110.08 502.875 107.44 502.875 104.32C502.875 101.227 503.942 98.6 506.075 96.44C508.209 94.2533 510.889 93.16 514.115 93.16C517.555 93.16 520.395 94.4133 522.635 96.92L519.075 100.52C517.582 99.1067 515.915 98.4 514.075 98.4C512.582 98.4 511.342 98.9733 510.355 100.12C509.369 101.267 508.875 102.667 508.875 104.32C508.875 106 509.369 107.413 510.355 108.56C511.369 109.68 512.689 110.24 514.315 110.24C515.995 110.24 517.635 109.48 519.235 107.96L522.795 111.56C521.622 112.84 520.369 113.813 519.035 114.48C517.702 115.147 516.035 115.48 514.035 115.48ZM526.767 115V93.56H532.847V102.36L540.527 93.56H547.527L539.647 102.36L548.527 115H541.327L535.607 106.84L532.847 109.84V115H526.767ZM571.18 93.56V115H565.3V102.52L556.94 115H551.22V93.56H557.1V106.08L565.46 93.56H571.18ZM604.243 98.76H594.683V115H588.603V93.56H604.243V98.76ZM607.548 121.4V93.56H613.628V96.64C615.335 94.32 617.561 93.16 620.308 93.16C622.975 93.16 625.268 94.16 627.188 96.16C629.108 98.16 630.068 100.88 630.068 104.32C630.068 107.733 629.108 110.44 627.188 112.44C625.295 114.413 623.001 115.4 620.308 115.4C617.641 115.4 615.415 114.333 613.628 112.2V121.4H607.548ZM615.028 108.6C616.041 109.693 617.281 110.24 618.748 110.24C620.215 110.24 621.455 109.693 622.468 108.6C623.481 107.48 623.988 106.027 623.988 104.24C623.988 102.507 623.481 101.093 622.468 100C621.455 98.88 620.215 98.32 618.748 98.32C617.281 98.32 616.041 98.88 615.028 100C614.041 101.093 613.548 102.533 613.548 104.32C613.548 106.053 614.041 107.48 615.028 108.6ZM639.66 121.52C637.74 121.52 635.94 121.027 634.26 120.04L636.3 115.64C637.234 116.2 638.1 116.48 638.9 116.48C639.86 116.48 640.567 116.013 641.02 115.08L632.62 93.56H639.06L643.94 108.16L648.62 93.56H654.94L646.7 115.52C645.874 117.733 644.94 119.28 643.9 120.16C642.86 121.067 641.447 121.52 639.66 121.52ZM678.005 93.56V115H671.925V98.76H664.605V115H658.525V93.56H678.005ZM702.927 93.56V115H696.847V98.76H689.527V115H683.447V93.56H702.927Z" fill="#262626"/>
<path d="M453.693 145.192C453.032 145.192 452.402 145.037 451.805 144.728L452.301 143.72C452.717 143.944 453.192 144.056 453.725 144.056C454.632 144.056 455.378 143.496 455.965 142.376L451.037 133.8H452.477L456.605 141.112L460.173 133.8H461.549L457.117 142.648C456.274 144.344 455.133 145.192 453.693 145.192ZM466.437 145.192C465.168 145.192 464.027 144.781 463.013 143.96L463.637 143.048C464.48 143.763 465.403 144.12 466.405 144.12C466.971 144.12 467.451 143.992 467.845 143.736C468.251 143.469 468.453 143.107 468.453 142.648C468.453 142.221 468.272 141.891 467.909 141.656C467.547 141.411 467.035 141.288 466.373 141.288H465.269V140.28H466.389C466.933 140.28 467.376 140.152 467.717 139.896C468.059 139.629 468.229 139.283 468.229 138.856C468.229 138.483 468.059 138.184 467.717 137.96C467.387 137.736 466.96 137.624 466.437 137.624C465.456 137.624 464.619 137.901 463.925 138.456L463.317 137.592C464.213 136.899 465.28 136.552 466.517 136.552C467.435 136.552 468.16 136.76 468.693 137.176C469.237 137.581 469.509 138.109 469.509 138.76C469.509 139.667 469.067 140.301 468.181 140.664C469.205 141.027 469.717 141.704 469.717 142.696C469.717 143.389 469.419 143.981 468.821 144.472C468.224 144.952 467.429 145.192 466.437 145.192ZM472.321 145V136.728H473.553V140.296H478.321V136.728H479.553V145H478.321V141.384H473.553V145H472.321ZM485.089 145.176C484.246 145.176 483.521 144.947 482.913 144.488C482.305 144.029 482.001 143.389 482.001 142.568C482.001 141.704 482.321 141.037 482.961 140.568C483.601 140.099 484.46 139.864 485.537 139.864C486.39 139.864 487.233 139.981 488.065 140.216V139.96C488.065 139.235 487.852 138.68 487.425 138.296C486.998 137.912 486.396 137.72 485.617 137.72C484.806 137.72 483.969 137.917 483.105 138.312L482.737 137.304C483.761 136.835 484.764 136.6 485.745 136.6C486.918 136.6 487.809 136.904 488.417 137.512C488.993 138.088 489.281 138.899 489.281 139.944V145H488.065V143.768C487.329 144.707 486.337 145.176 485.089 145.176ZM485.329 144.184C486.097 144.184 486.748 143.976 487.281 143.56C487.814 143.144 488.081 142.611 488.081 141.96V141.192C487.27 140.957 486.465 140.84 485.665 140.84C484.908 140.84 484.316 140.995 483.889 141.304C483.462 141.603 483.249 142.013 483.249 142.536C483.249 143.037 483.446 143.437 483.841 143.736C484.246 144.035 484.742 144.184 485.329 144.184ZM492.211 145V136.728H493.443V143.272L498.355 136.728H499.555V145H498.323V138.456L493.395 145H492.211ZM497.331 135C496.925 135.363 496.429 135.544 495.843 135.544C495.256 135.544 494.755 135.363 494.339 135C493.933 134.637 493.683 134.168 493.587 133.592L494.435 133.416C494.648 134.163 495.117 134.536 495.843 134.536C496.568 134.536 497.037 134.163 497.251 133.416L498.099 133.592C498.003 134.168 497.747 134.637 497.331 135ZM504.624 145V137.816H501.664V136.728H508.832V137.816H505.872V145H504.624ZM514.56 145.192C513.398 145.192 512.416 144.792 511.616 143.992C510.827 143.181 510.432 142.141 510.432 140.872C510.432 139.667 510.811 138.648 511.568 137.816C512.326 136.973 513.27 136.552 514.4 136.552C515.584 136.552 516.523 136.968 517.216 137.8C517.91 138.632 518.256 139.677 518.256 140.936C518.256 141.096 518.251 141.24 518.24 141.368H511.68C511.766 142.211 512.08 142.883 512.624 143.384C513.179 143.875 513.835 144.12 514.592 144.12C515.584 144.12 516.454 143.731 517.2 142.952L517.968 143.64C517.04 144.675 515.904 145.192 514.56 145.192ZM511.68 140.376H517.008C516.934 139.576 516.667 138.915 516.208 138.392C515.76 137.859 515.147 137.592 514.368 137.592C513.664 137.592 513.062 137.853 512.56 138.376C512.059 138.899 511.766 139.565 511.68 140.376ZM520.285 146.952L520.093 146.392C520.808 146.125 521.165 145.715 521.165 145.16V145H520.589V143.32H522.061V144.76C522.061 145.4 521.917 145.891 521.629 146.232C521.352 146.573 520.904 146.813 520.285 146.952ZM533.82 145.192C532.625 145.192 531.617 144.771 530.796 143.928C529.985 143.075 529.58 142.056 529.58 140.872C529.58 139.688 529.985 138.675 530.796 137.832C531.617 136.979 532.625 136.552 533.82 136.552C535.1 136.552 536.204 137.043 537.132 138.024L536.348 138.856C535.58 138.045 534.732 137.64 533.804 137.64C532.972 137.64 532.268 137.955 531.692 138.584C531.127 139.203 530.844 139.965 530.844 140.872C530.844 141.768 531.132 142.531 531.708 143.16C532.295 143.779 533.02 144.088 533.884 144.088C534.769 144.088 535.601 143.672 536.38 142.84L537.196 143.592C536.236 144.659 535.111 145.192 533.82 145.192ZM544.669 145V136.728H545.901V141.496L550.429 136.728H551.949L548.493 140.312L552.045 145H550.589L547.645 141.208L545.901 143V145H544.669ZM557.684 145.192C556.521 145.192 555.54 144.792 554.74 143.992C553.95 143.181 553.556 142.141 553.556 140.872C553.556 139.667 553.934 138.648 554.692 137.816C555.449 136.973 556.393 136.552 557.524 136.552C558.708 136.552 559.646 136.968 560.34 137.8C561.033 138.632 561.38 139.677 561.38 140.936C561.38 141.096 561.374 141.24 561.364 141.368H554.804C554.889 142.211 555.204 142.883 555.748 143.384C556.302 143.875 556.958 144.12 557.716 144.12C558.708 144.12 559.577 143.731 560.324 142.952L561.092 143.64C560.164 144.675 559.028 145.192 557.684 145.192ZM554.804 140.376H560.132C560.057 139.576 559.79 138.915 559.332 138.392C558.884 137.859 558.27 137.592 557.492 137.592C556.788 137.592 556.185 137.853 555.684 138.376C555.182 138.899 554.889 139.565 554.804 140.376ZM563.856 145V136.728H565.024L568.112 141.08L571.2 136.728H572.384V145H571.136V138.696L568.08 142.888L565.056 138.696V145H563.856ZM580.574 145V136.728H584.574C585.396 136.728 586.052 136.915 586.542 137.288C587.033 137.661 587.278 138.163 587.278 138.792C587.278 139.677 586.82 140.312 585.902 140.696C587.118 141.027 587.726 141.709 587.726 142.744C587.726 143.437 587.454 143.987 586.91 144.392C586.366 144.797 585.636 145 584.718 145H580.574ZM581.806 143.944H584.558C585.145 143.944 585.609 143.821 585.95 143.576C586.292 143.331 586.462 142.989 586.462 142.552C586.462 142.147 586.281 141.832 585.918 141.608C585.566 141.384 585.06 141.272 584.398 141.272H581.806V143.944ZM581.806 140.28H584.35C584.862 140.28 585.268 140.168 585.566 139.944C585.876 139.709 586.03 139.379 586.03 138.952C586.03 138.6 585.886 138.317 585.598 138.104C585.31 137.891 584.905 137.784 584.382 137.784H581.806V140.28ZM590.269 145V136.728H591.501V139.832H593.709C594.669 139.832 595.453 140.04 596.061 140.456C596.669 140.861 596.973 141.48 596.973 142.312C596.973 143.133 596.691 143.789 596.125 144.28C595.56 144.76 594.803 145 593.853 145H590.269ZM591.501 143.912H593.741C594.371 143.912 594.856 143.779 595.197 143.512C595.549 143.245 595.725 142.856 595.725 142.344C595.725 141.875 595.544 141.517 595.181 141.272C594.829 141.016 594.333 140.888 593.693 140.888H591.501V143.912ZM598.461 145V136.728H599.693V145H598.461ZM609.158 147.608C608.561 147.608 607.974 147.469 607.398 147.192L607.814 146.216C608.209 146.419 608.641 146.52 609.11 146.52C609.484 146.52 609.798 146.403 610.054 146.168C610.31 145.944 610.561 145.544 610.806 144.968L607.046 136.728H608.406L611.414 143.624L614.07 136.728H615.382L611.91 145.272C611.558 146.115 611.169 146.712 610.742 147.064C610.316 147.427 609.788 147.608 609.158 147.608ZM622.899 145V141.592C622.569 141.784 622.137 141.96 621.603 142.12C621.07 142.269 620.579 142.344 620.131 142.344C619.299 142.344 618.633 142.131 618.131 141.704C617.641 141.277 617.395 140.664 617.395 139.864V136.728H618.627V139.688C618.627 140.179 618.771 140.568 619.059 140.856C619.358 141.133 619.769 141.272 620.291 141.272C621.273 141.272 622.142 141.011 622.899 140.488V136.728H624.131V145H622.899ZM627.206 145V136.728H628.438V143.272L633.35 136.728H634.55V145H633.318V138.456L628.39 145H627.206ZM639.619 145V137.816H636.659V136.728H643.827V137.816H640.867V145H639.619ZM649.555 145.192C648.393 145.192 647.411 144.792 646.611 143.992C645.822 143.181 645.427 142.141 645.427 140.872C645.427 139.667 645.806 138.648 646.563 137.816C647.321 136.973 648.265 136.552 649.395 136.552C650.579 136.552 651.518 136.968 652.211 137.8C652.905 138.632 653.251 139.677 653.251 140.936C653.251 141.096 653.246 141.24 653.235 141.368H646.675C646.761 142.211 647.075 142.883 647.619 143.384C648.174 143.875 648.83 144.12 649.587 144.12C650.579 144.12 651.449 143.731 652.195 142.952L652.963 143.64C652.035 144.675 650.899 145.192 649.555 145.192ZM646.675 140.376H652.003C651.929 139.576 651.662 138.915 651.203 138.392C650.755 137.859 650.142 137.592 649.363 137.592C648.659 137.592 648.057 137.853 647.555 138.376C647.054 138.899 646.761 139.565 646.675 140.376ZM659.456 145.192C658.262 145.192 657.254 144.771 656.432 143.928C655.622 143.075 655.216 142.056 655.216 140.872C655.216 139.688 655.622 138.675 656.432 137.832C657.254 136.979 658.262 136.552 659.456 136.552C660.736 136.552 661.84 137.043 662.768 138.024L661.984 138.856C661.216 138.045 660.368 137.64 659.44 137.64C658.608 137.64 657.904 137.955 657.328 138.584C656.763 139.203 656.48 139.965 656.48 140.872C656.48 141.768 656.768 142.531 657.344 143.16C657.931 143.779 658.656 144.088 659.52 144.088C660.406 144.088 661.238 143.672 662.016 142.84L662.832 143.592C661.872 144.659 660.747 145.192 659.456 145.192ZM665.189 145V136.728H666.421V139.832H668.629C669.589 139.832 670.373 140.04 670.981 140.456C671.589 140.861 671.893 141.48 671.893 142.312C671.893 143.133 671.61 143.789 671.045 144.28C670.479 144.76 669.722 145 668.773 145H665.189ZM666.421 143.912H668.661C669.29 143.912 669.775 143.779 670.117 143.512C670.469 143.245 670.645 142.856 670.645 142.344C670.645 141.875 670.463 141.517 670.101 141.272C669.749 141.016 669.253 140.888 668.613 140.888H666.421V143.912ZM483.226 169V160.728H484.458V167.272L489.37 160.728H490.57V169H489.338V162.456L484.41 169H483.226ZM498.757 169V160.728H499.989V165.496L504.517 160.728H506.037L502.581 164.312L506.133 169H504.677L501.733 165.208L499.989 167V169H498.757ZM510.155 169V161.816H507.195V160.728H514.363V161.816H511.403V169H510.155ZM523.339 167.928C522.507 168.771 521.478 169.192 520.251 169.192C519.024 169.192 518 168.771 517.179 167.928C516.368 167.085 515.963 166.067 515.963 164.872C515.963 163.688 516.374 162.675 517.195 161.832C518.027 160.979 519.056 160.552 520.283 160.552C521.51 160.552 522.534 160.973 523.355 161.816C524.176 162.659 524.587 163.677 524.587 164.872C524.587 166.056 524.171 167.075 523.339 167.928ZM520.283 168.088C521.168 168.088 521.894 167.779 522.459 167.16C523.035 166.541 523.323 165.779 523.323 164.872C523.323 163.976 523.024 163.213 522.427 162.584C521.84 161.955 521.115 161.64 520.251 161.64C519.366 161.64 518.64 161.955 518.075 162.584C517.51 163.203 517.227 163.965 517.227 164.872C517.227 165.768 517.52 166.531 518.107 167.16C518.694 167.779 519.419 168.088 520.283 168.088ZM532.256 169V160.728H536.256C537.077 160.728 537.733 160.915 538.224 161.288C538.714 161.661 538.96 162.163 538.96 162.792C538.96 163.677 538.501 164.312 537.584 164.696C538.8 165.027 539.408 165.709 539.408 166.744C539.408 167.437 539.136 167.987 538.592 168.392C538.048 168.797 537.317 169 536.4 169H532.256ZM533.488 167.944H536.24C536.826 167.944 537.29 167.821 537.632 167.576C537.973 167.331 538.144 166.989 538.144 166.552C538.144 166.147 537.962 165.832 537.6 165.608C537.248 165.384 536.741 165.272 536.08 165.272H533.488V167.944ZM533.488 164.28H536.032C536.544 164.28 536.949 164.168 537.248 163.944C537.557 163.709 537.712 163.379 537.712 162.952C537.712 162.6 537.568 162.317 537.28 162.104C536.992 161.891 536.586 161.784 536.064 161.784H533.488V164.28ZM544.415 169.176C543.572 169.176 542.847 168.947 542.239 168.488C541.631 168.029 541.327 167.389 541.327 166.568C541.327 165.704 541.647 165.037 542.287 164.568C542.927 164.099 543.785 163.864 544.863 163.864C545.716 163.864 546.559 163.981 547.391 164.216V163.96C547.391 163.235 547.177 162.68 546.751 162.296C546.324 161.912 545.721 161.72 544.943 161.72C544.132 161.72 543.295 161.917 542.431 162.312L542.063 161.304C543.087 160.835 544.089 160.6 545.071 160.6C546.244 160.6 547.135 160.904 547.743 161.512C548.319 162.088 548.607 162.899 548.607 163.944V169H547.391V167.768C546.655 168.707 545.663 169.176 544.415 169.176ZM544.655 168.184C545.423 168.184 546.073 167.976 546.607 167.56C547.14 167.144 547.407 166.611 547.407 165.96V165.192C546.596 164.957 545.791 164.84 544.991 164.84C544.233 164.84 543.641 164.995 543.215 165.304C542.788 165.603 542.575 166.013 542.575 166.536C542.575 167.037 542.772 167.437 543.167 167.736C543.572 168.035 544.068 168.184 544.655 168.184ZM551.536 169V160.728H552.768V167.912H556.8V160.728H558.032V167.912H562.064V160.728H563.312V169H551.536ZM575.232 169.192C574.038 169.192 573.03 168.771 572.208 167.928C571.398 167.075 570.992 166.056 570.992 164.872C570.992 163.688 571.398 162.675 572.208 161.832C573.03 160.979 574.038 160.552 575.232 160.552C576.512 160.552 577.616 161.043 578.544 162.024L577.76 162.856C576.992 162.045 576.144 161.64 575.216 161.64C574.384 161.64 573.68 161.955 573.104 162.584C572.539 163.203 572.256 163.965 572.256 164.872C572.256 165.768 572.544 166.531 573.12 167.16C573.707 167.779 574.432 168.088 575.296 168.088C576.182 168.088 577.014 167.672 577.792 166.84L578.608 167.592C577.648 168.659 576.523 169.192 575.232 169.192ZM582.965 169V161.816H580.005V160.728H587.173V161.816H584.213V169H582.965ZM591.749 169.176C590.906 169.176 590.181 168.947 589.573 168.488C588.965 168.029 588.661 167.389 588.661 166.568C588.661 165.704 588.981 165.037 589.621 164.568C590.261 164.099 591.12 163.864 592.197 163.864C593.05 163.864 593.893 163.981 594.725 164.216V163.96C594.725 163.235 594.512 162.68 594.085 162.296C593.658 161.912 593.056 161.72 592.277 161.72C591.466 161.72 590.629 161.917 589.765 162.312L589.397 161.304C590.421 160.835 591.424 160.6 592.405 160.6C593.578 160.6 594.469 160.904 595.077 161.512C595.653 162.088 595.941 162.899 595.941 163.944V169H594.725V167.768C593.989 168.707 592.997 169.176 591.749 169.176ZM591.989 168.184C592.757 168.184 593.408 167.976 593.941 167.56C594.474 167.144 594.741 166.611 594.741 165.96V165.192C593.93 164.957 593.125 164.84 592.325 164.84C591.568 164.84 590.976 164.995 590.549 165.304C590.122 165.603 589.909 166.013 589.909 166.536C589.909 167.037 590.106 167.437 590.501 167.736C590.906 168.035 591.402 168.184 591.989 168.184ZM598.871 171.56V160.728H600.103V162.392C600.935 161.165 601.991 160.552 603.271 160.552C604.327 160.552 605.249 160.947 606.039 161.736C606.828 162.515 607.223 163.56 607.223 164.872C607.223 166.163 606.828 167.203 606.039 167.992C605.249 168.781 604.327 169.176 603.271 169.176C601.969 169.176 600.913 168.589 600.103 167.416V171.56H598.871ZM603.047 168.072C603.879 168.072 604.572 167.784 605.127 167.208C605.681 166.621 605.959 165.837 605.959 164.856C605.959 163.907 605.676 163.139 605.111 162.552C604.545 161.955 603.857 161.656 603.047 161.656C602.247 161.656 601.548 161.96 600.951 162.568C600.353 163.176 600.055 163.944 600.055 164.872C600.055 165.8 600.353 166.568 600.951 167.176C601.548 167.773 602.247 168.072 603.047 168.072ZM616.68 167.928C615.848 168.771 614.818 169.192 613.592 169.192C612.365 169.192 611.341 168.771 610.52 167.928C609.709 167.085 609.304 166.067 609.304 164.872C609.304 163.688 609.714 162.675 610.536 161.832C611.368 160.979 612.397 160.552 613.624 160.552C614.85 160.552 615.874 160.973 616.696 161.816C617.517 162.659 617.928 163.677 617.928 164.872C617.928 166.056 617.512 167.075 616.68 167.928ZM613.624 168.088C614.509 168.088 615.234 167.779 615.8 167.16C616.376 166.541 616.664 165.779 616.664 164.872C616.664 163.976 616.365 163.213 615.768 162.584C615.181 161.955 614.456 161.64 613.592 161.64C612.706 161.64 611.981 161.955 611.416 162.584C610.85 163.203 610.568 163.965 610.568 164.872C610.568 165.768 610.861 166.531 611.448 167.16C612.034 167.779 612.76 168.088 613.624 168.088ZM624.207 169.192C623.013 169.192 622.005 168.771 621.183 167.928C620.373 167.075 619.967 166.056 619.967 164.872C619.967 163.688 620.373 162.675 621.183 161.832C622.005 160.979 623.013 160.552 624.207 160.552C625.487 160.552 626.591 161.043 627.519 162.024L626.735 162.856C625.967 162.045 625.119 161.64 624.191 161.64C623.359 161.64 622.655 161.955 622.079 162.584C621.514 163.203 621.231 163.965 621.231 164.872C621.231 165.768 621.519 166.531 622.095 167.16C622.682 167.779 623.407 168.088 624.271 168.088C625.157 168.088 625.989 167.672 626.767 166.84L627.583 167.592C626.623 168.659 625.498 169.192 624.207 169.192ZM631.94 169V161.816H628.98V160.728H636.148V161.816H633.188V169H631.94ZM640.724 169.176C639.881 169.176 639.156 168.947 638.548 168.488C637.94 168.029 637.636 167.389 637.636 166.568C637.636 165.704 637.956 165.037 638.596 164.568C639.236 164.099 640.095 163.864 641.172 163.864C642.025 163.864 642.868 163.981 643.7 164.216V163.96C643.7 163.235 643.487 162.68 643.06 162.296C642.633 161.912 642.031 161.72 641.252 161.72C640.441 161.72 639.604 161.917 638.74 162.312L638.372 161.304C639.396 160.835 640.399 160.6 641.38 160.6C642.553 160.6 643.444 160.904 644.052 161.512C644.628 162.088 644.916 162.899 644.916 163.944V169H643.7V167.768C642.964 168.707 641.972 169.176 640.724 169.176ZM640.964 168.184C641.732 168.184 642.383 167.976 642.916 167.56C643.449 167.144 643.716 166.611 643.716 165.96V165.192C642.905 164.957 642.1 164.84 641.3 164.84C640.543 164.84 639.951 164.995 639.524 165.304C639.097 165.603 638.884 166.013 638.884 166.536C638.884 167.037 639.081 167.437 639.476 167.736C639.881 168.035 640.377 168.184 640.964 168.184Z" fill="#262626"/>
<path d="M576.5 260C576.5 247.021 587.021 236.5 600 236.5H720C732.979 236.5 743.5 247.021 743.5 260V308C743.5 320.979 732.979 331.5 720 331.5H600C587.021 331.5 576.5 320.979 576.5 308V260Z" fill="white"/>
<path d="M716 270C721.523 270 726 265.523 726 260C726 254.477 721.523 250 716 250C710.477 250 706 254.477 706 260C706 265.523 710.477 270 716 270Z" fill="white" stroke="#615FC5" stroke-width="2" stroke-linecap="round" stroke-linejoin="round"/>
<path d="M712 259L716 263L720 259" stroke="#615FC5" stroke-width="2" stroke-linecap="round" stroke-linejoin="round"/>
<path d="M618.037 313V301.8H619.301V308.488L625.733 301.8H627.365L622.565 306.696L627.573 313H625.989L621.685 307.576L619.301 309.992V313H618.037ZM636.513 311.928C635.681 312.771 634.652 313.192 633.425 313.192C632.199 313.192 631.175 312.771 630.353 311.928C629.543 311.085 629.137 310.067 629.137 308.872C629.137 307.688 629.548 306.675 630.369 305.832C631.201 304.979 632.231 304.552 633.457 304.552C634.684 304.552 635.708 304.973 636.529 305.816C637.351 306.659 637.761 307.677 637.761 308.872C637.761 310.056 637.345 311.075 636.513 311.928ZM633.457 312.088C634.343 312.088 635.068 311.779 635.633 311.16C636.209 310.541 636.497 309.779 636.497 308.872C636.497 307.976 636.199 307.213 635.601 306.584C635.015 305.955 634.289 305.64 633.425 305.64C632.54 305.64 631.815 305.955 631.249 306.584C630.684 307.203 630.401 307.965 630.401 308.872C630.401 309.768 630.695 310.531 631.281 311.16C631.868 311.779 632.593 312.088 633.457 312.088ZM639.097 315.064V311.912H639.993C640.729 310.557 641.097 308.643 641.097 306.168V304.728H646.985V311.912H648.233L648.041 315.064H647.017V313H640.329L640.105 315.064H639.097ZM641.305 311.912H645.753V305.816H642.281V306.968C642.281 309.048 641.956 310.696 641.305 311.912Z" fill="#262626"/>
<path d="M576.5 260C576.5 247.021 587.021 236.5 600 236.5H720C732.979 236.5 743.5 247.021 743.5 260V308C743.5 320.979 732.979 331.5 720 331.5H600C587.021 331.5 576.5 320.979 576.5 308V260Z" stroke="#615FC5"/>
<path d="M934.5 266C938.642 266 942 262.642 942 258.5C942 254.358 938.642 251 934.5 251C930.358 251 927 254.358 927 258.5C927 262.642 930.358 266 934.5 266Z" stroke="#615FC5" stroke-width="2" stroke-linecap="round" stroke-linejoin="round"/>
<path d="M945 269L940 264" stroke="#615FC5" stroke-width="2" stroke-linecap="round" stroke-linejoin="round"/>
<path d="M761.904 267.048V252.232H762.944V267.048H761.904Z" fill="#979797"/>
<path d="M576 260C576 246.745 586.745 236 600 236H720C733.255 236 744 246.745 744 260V284H576V260Z" fill="#615FC5"/>
<path d="M617.62 265V252.4H626.098V254.398H619.816V265H617.62ZM628.056 267.88V255.496H630.234V257.08C631.074 255.892 632.148 255.298 633.456 255.298C634.656 255.298 635.694 255.748 636.57 256.648C637.446 257.536 637.884 258.742 637.884 260.266C637.884 261.766 637.446 262.966 636.57 263.866C635.694 264.754 634.656 265.198 633.456 265.198C632.148 265.198 631.074 264.64 630.234 263.524V267.88H628.056ZM632.952 263.308C633.72 263.308 634.362 263.026 634.878 262.462C635.406 261.898 635.67 261.154 635.67 260.23C635.67 259.33 635.406 258.598 634.878 258.034C634.35 257.47 633.708 257.188 632.952 257.188C632.196 257.188 631.542 257.476 630.99 258.052C630.45 258.628 630.18 259.366 630.18 260.266C630.18 261.154 630.45 261.886 630.99 262.462C631.542 263.026 632.196 263.308 632.952 263.308ZM642.058 267.934C641.266 267.934 640.516 267.742 639.808 267.358L640.546 265.738C640.99 265.978 641.416 266.098 641.824 266.098C642.136 266.098 642.394 266.014 642.598 265.846C642.802 265.69 642.994 265.408 643.174 265L639.214 255.496H641.536L644.236 262.552L646.702 255.496H648.97L645.19 265.27C644.806 266.242 644.38 266.926 643.912 267.322C643.444 267.73 642.826 267.934 642.058 267.934ZM650.837 265V255.496H659.315V265H657.137V257.368H653.015V265H650.837ZM662.052 265V255.496H670.53V265H668.352V257.368H664.23V265H662.052ZM681.24 265H679.08V263.83C678.312 264.742 677.286 265.198 676.002 265.198C675.054 265.198 674.25 264.94 673.59 264.424C672.942 263.896 672.618 263.164 672.618 262.228C672.618 261.208 672.972 260.434 673.68 259.906C674.388 259.378 675.318 259.114 676.47 259.114C677.394 259.114 678.27 259.246 679.098 259.51V259.33C679.098 258.67 678.894 258.166 678.486 257.818C678.09 257.47 677.514 257.296 676.758 257.296C675.894 257.296 674.988 257.494 674.04 257.89L673.446 256.144C674.622 255.616 675.828 255.352 677.064 255.352C678.444 255.352 679.482 255.7 680.178 256.396C680.886 257.092 681.24 258.082 681.24 259.366V265ZM679.134 261.562V261.022C678.486 260.77 677.76 260.644 676.956 260.644C676.272 260.644 675.738 260.776 675.354 261.04C674.97 261.304 674.778 261.676 674.778 262.156C674.778 262.588 674.952 262.93 675.3 263.182C675.648 263.434 676.086 263.56 676.614 263.56C677.346 263.56 677.946 263.374 678.414 263.002C678.894 262.63 679.134 262.15 679.134 261.562Z" fill="white"/>
<path d="M716 270C721.523 270 726 265.523 726 260C726 254.477 721.523 250 716 250C710.477 250 706 254.477 706 260C706 265.523 710.477 270 716 270Z" fill="white" stroke="#615FC5" stroke-width="2" stroke-linecap="round" stroke-linejoin="round"/>
<path d="M712 261L716 257L720 261" stroke="#615FC5" stroke-width="2" stroke-linecap="round" stroke-linejoin="round"/>
<rect x="576.5" y="236.5" width="383" height="47" rx="23.5" stroke="#615FC5"/>
<path d="M168.16 315.496V311.848H169.312C170.443 310.045 171.008 307.347 171.008 303.752V301.8H178.336V311.848H179.792L179.6 315.496H178.544V313H169.456L169.232 315.496H168.16ZM170.736 311.848H177.072V302.952H172.224V304.408C172.224 305.88 172.091 307.299 171.824 308.664C171.557 310.029 171.195 311.091 170.736 311.848ZM181.358 313.128C181.038 313.128 180.708 313.085 180.366 313L180.51 311.944C180.756 312.019 180.953 312.056 181.102 312.056C181.337 312.056 181.529 312.029 181.678 311.976C181.828 311.912 181.988 311.757 182.158 311.512C182.34 311.256 182.478 310.899 182.574 310.44C182.67 309.981 182.75 309.331 182.814 308.488C182.889 307.645 182.926 306.621 182.926 305.416V304.728H188.783V313H187.55V305.816H184.094V306.008C184.094 307.267 184.046 308.339 183.95 309.224C183.854 310.109 183.732 310.803 183.582 311.304C183.444 311.805 183.246 312.195 182.99 312.472C182.734 312.749 182.484 312.925 182.238 313C182.004 313.085 181.71 313.128 181.358 313.128ZM191.124 313L193.652 309.8C193.001 309.651 192.468 309.357 192.052 308.92C191.646 308.483 191.444 307.944 191.444 307.304C191.444 306.536 191.721 305.917 192.276 305.448C192.83 304.968 193.593 304.728 194.564 304.728H198.452V313H197.22V309.992H194.932C194.836 310.12 194.505 310.557 193.94 311.304C193.374 312.051 192.942 312.616 192.644 313H191.124ZM194.66 308.952H197.22V305.816H194.628C194.02 305.816 193.54 305.955 193.188 306.232C192.846 306.499 192.676 306.872 192.676 307.352C192.676 307.843 192.857 308.232 193.22 308.52C193.593 308.808 194.073 308.952 194.66 308.952ZM209.296 313.192C208.539 313.192 207.894 313.059 207.36 312.792C206.838 312.525 206.352 312.125 205.904 311.592L206.72 310.824C207.51 311.688 208.342 312.12 209.216 312.12C210.006 312.12 210.688 311.853 211.264 311.32C211.84 310.787 212.171 310.131 212.256 309.352H208.48V308.312H212.24C212.155 307.565 211.83 306.931 211.264 306.408C210.71 305.885 210.048 305.624 209.28 305.624C208.342 305.624 207.488 306.035 206.72 306.856L206 306.056C206.896 305.053 208.016 304.552 209.36 304.552C210.555 304.552 211.547 304.979 212.336 305.832C213.136 306.685 213.536 307.709 213.536 308.904C213.536 310.077 213.126 311.085 212.304 311.928C211.483 312.771 210.48 313.192 209.296 313.192ZM218.101 313V305.816H215.141V304.728H222.309V305.816H219.349V313H218.101ZM231.285 311.928C230.453 312.771 229.424 313.192 228.197 313.192C226.97 313.192 225.946 312.771 225.125 311.928C224.314 311.085 223.909 310.067 223.909 308.872C223.909 307.688 224.32 306.675 225.141 305.832C225.973 304.979 227.002 304.552 228.229 304.552C229.456 304.552 230.48 304.973 231.301 305.816C232.122 306.659 232.533 307.677 232.533 308.872C232.533 310.056 232.117 311.075 231.285 311.928ZM228.229 312.088C229.114 312.088 229.84 311.779 230.405 311.16C230.981 310.541 231.269 309.779 231.269 308.872C231.269 307.976 230.97 307.213 230.373 306.584C229.786 305.955 229.061 305.64 228.197 305.64C227.312 305.64 226.586 305.955 226.021 306.584C225.456 307.203 225.173 307.965 225.173 308.872C225.173 309.768 225.466 310.531 226.053 311.16C226.64 311.779 227.365 312.088 228.229 312.088ZM235.085 313V304.728H240.701V305.816H236.317V313H235.085ZM249.675 311.928C248.843 312.771 247.814 313.192 246.587 313.192C245.36 313.192 244.336 312.771 243.515 311.928C242.704 311.085 242.299 310.067 242.299 308.872C242.299 307.688 242.71 306.675 243.531 305.832C244.363 304.979 245.392 304.552 246.619 304.552C247.846 304.552 248.87 304.973 249.691 305.816C250.512 306.659 250.923 307.677 250.923 308.872C250.923 310.056 250.507 311.075 249.675 311.928ZM246.619 312.088C247.504 312.088 248.23 311.779 248.795 311.16C249.371 310.541 249.659 309.779 249.659 308.872C249.659 307.976 249.36 307.213 248.763 306.584C248.176 305.955 247.451 305.64 246.587 305.64C245.702 305.64 244.976 305.955 244.411 306.584C243.846 307.203 243.563 307.965 243.563 308.872C243.563 309.768 243.856 310.531 244.443 311.16C245.03 311.779 245.755 312.088 246.619 312.088ZM258.592 313V304.728H262.592C263.413 304.728 264.069 304.915 264.56 305.288C265.05 305.661 265.296 306.163 265.296 306.792C265.296 307.677 264.837 308.312 263.92 308.696C265.136 309.027 265.744 309.709 265.744 310.744C265.744 311.437 265.472 311.987 264.928 312.392C264.384 312.797 263.653 313 262.736 313H258.592ZM259.824 311.944H262.576C263.162 311.944 263.626 311.821 263.968 311.576C264.309 311.331 264.48 310.989 264.48 310.552C264.48 310.147 264.298 309.832 263.936 309.608C263.584 309.384 263.077 309.272 262.416 309.272H259.824V311.944ZM259.824 308.28H262.368C262.88 308.28 263.285 308.168 263.584 307.944C263.893 307.709 264.048 307.379 264.048 306.952C264.048 306.6 263.904 306.317 263.616 306.104C263.328 305.891 262.922 305.784 262.4 305.784H259.824V308.28ZM268.287 313V304.728H272.287C273.108 304.728 273.764 304.915 274.255 305.288C274.745 305.661 274.991 306.163 274.991 306.792C274.991 307.677 274.532 308.312 273.615 308.696C274.831 309.027 275.439 309.709 275.439 310.744C275.439 311.437 275.167 311.987 274.623 312.392C274.079 312.797 273.348 313 272.431 313H268.287ZM269.519 311.944H272.271C272.857 311.944 273.321 311.821 273.663 311.576C274.004 311.331 274.175 310.989 274.175 310.552C274.175 310.147 273.993 309.832 273.631 309.608C273.279 309.384 272.772 309.272 272.111 309.272H269.519V311.944ZM269.519 308.28H272.063C272.575 308.28 272.98 308.168 273.279 307.944C273.588 307.709 273.743 307.379 273.743 306.952C273.743 306.6 273.599 306.317 273.311 306.104C273.023 305.891 272.617 305.784 272.095 305.784H269.519V308.28ZM281.598 313.192C280.435 313.192 279.454 312.792 278.654 311.992C277.864 311.181 277.47 310.141 277.47 308.872C277.47 307.667 277.848 306.648 278.606 305.816C279.363 304.973 280.307 304.552 281.438 304.552C282.622 304.552 283.56 304.968 284.254 305.8C284.947 306.632 285.294 307.677 285.294 308.936C285.294 309.096 285.288 309.24 285.278 309.368H278.718C278.803 310.211 279.118 310.883 279.662 311.384C280.216 311.875 280.872 312.12 281.63 312.12C282.622 312.12 283.491 311.731 284.238 310.952L285.006 311.64C284.078 312.675 282.942 313.192 281.598 313.192ZM278.718 308.376H284.046C283.971 307.576 283.704 306.915 283.246 306.392C282.798 305.859 282.184 305.592 281.406 305.592C280.702 305.592 280.099 305.853 279.598 306.376C279.096 306.899 278.803 307.565 278.718 308.376ZM286.554 315.064V311.912H287.45C288.186 310.557 288.554 308.643 288.554 306.168V304.728H294.442V311.912H295.69L295.498 315.064H294.474V313H287.786L287.562 315.064H286.554ZM288.762 311.912H293.21V305.816H289.738V306.968C289.738 309.048 289.413 310.696 288.762 311.912ZM297.7 313V304.728H298.932V311.272L303.844 304.728H305.044V313H303.812V306.456L298.884 313H297.7ZM310.114 313V305.816H307.154V304.728H314.322V305.816H311.362V313H310.114ZM320.049 313.192C318.887 313.192 317.905 312.792 317.105 311.992C316.316 311.181 315.921 310.141 315.921 308.872C315.921 307.667 316.3 306.648 317.057 305.816C317.815 304.973 318.759 304.552 319.889 304.552C321.073 304.552 322.012 304.968 322.705 305.8C323.399 306.632 323.745 307.677 323.745 308.936C323.745 309.096 323.74 309.24 323.729 309.368H317.169C317.255 310.211 317.569 310.883 318.113 311.384C318.668 311.875 319.324 312.12 320.081 312.12C321.073 312.12 321.943 311.731 322.689 310.952L323.457 311.64C322.529 312.675 321.393 313.192 320.049 313.192ZM317.169 308.376H322.497C322.423 307.576 322.156 306.915 321.697 306.392C321.249 305.859 320.636 305.592 319.857 305.592C319.153 305.592 318.551 305.853 318.049 306.376C317.548 306.899 317.255 307.565 317.169 308.376ZM331.339 313V304.728H332.571V308.296H337.339V304.728H338.571V313H337.339V309.384H332.571V313H331.339ZM348.508 311.928C347.676 312.771 346.646 313.192 345.42 313.192C344.193 313.192 343.169 312.771 342.348 311.928C341.537 311.085 341.132 310.067 341.132 308.872C341.132 307.688 341.542 306.675 342.364 305.832C343.196 304.979 344.225 304.552 345.452 304.552C346.678 304.552 347.702 304.973 348.524 305.816C349.345 306.659 349.756 307.677 349.756 308.872C349.756 310.056 349.34 311.075 348.508 311.928ZM345.452 312.088C346.337 312.088 347.062 311.779 347.628 311.16C348.204 310.541 348.492 309.779 348.492 308.872C348.492 307.976 348.193 307.213 347.596 306.584C347.009 305.955 346.284 305.64 345.42 305.64C344.534 305.64 343.809 305.955 343.244 306.584C342.678 307.203 342.396 307.965 342.396 308.872C342.396 309.768 342.689 310.531 343.276 311.16C343.862 311.779 344.588 312.088 345.452 312.088ZM352.307 313V304.728H353.475L356.563 309.08L359.651 304.728H360.835V313H359.587V306.696L356.531 310.888L353.507 306.696V313H352.307ZM367.525 313.192C366.362 313.192 365.381 312.792 364.581 311.992C363.791 311.181 363.397 310.141 363.397 308.872C363.397 307.667 363.775 306.648 364.533 305.816C365.29 304.973 366.234 304.552 367.365 304.552C368.549 304.552 369.487 304.968 370.181 305.8C370.874 306.632 371.221 307.677 371.221 308.936C371.221 309.096 371.215 309.24 371.205 309.368H364.645C364.73 310.211 365.045 310.883 365.589 311.384C366.143 311.875 366.799 312.12 367.557 312.12C368.549 312.12 369.418 311.731 370.165 310.952L370.933 311.64C370.005 312.675 368.869 313.192 367.525 313.192ZM364.645 308.376H369.973C369.898 307.576 369.631 306.915 369.173 306.392C368.725 305.859 368.111 305.592 367.333 305.592C366.629 305.592 366.026 305.853 365.525 306.376C365.023 306.899 364.73 307.565 364.645 308.376ZM373.697 315.56V304.728H374.929V306.392C375.761 305.165 376.817 304.552 378.097 304.552C379.153 304.552 380.076 304.947 380.865 305.736C381.655 306.515 382.049 307.56 382.049 308.872C382.049 310.163 381.655 311.203 380.865 311.992C380.076 312.781 379.153 313.176 378.097 313.176C376.796 313.176 375.74 312.589 374.929 311.416V315.56H373.697ZM377.873 312.072C378.705 312.072 379.399 311.784 379.953 311.208C380.508 310.621 380.785 309.837 380.785 308.856C380.785 307.907 380.503 307.139 379.937 306.552C379.372 305.955 378.684 305.656 377.873 305.656C377.073 305.656 376.375 305.96 375.777 306.568C375.18 307.176 374.881 307.944 374.881 308.872C374.881 309.8 375.18 310.568 375.777 311.176C376.375 311.773 377.073 312.072 377.873 312.072ZM389.759 313V304.728H395.375V305.816H390.991V313H389.759ZM397.485 315.56V304.728H398.717V306.392C399.549 305.165 400.605 304.552 401.885 304.552C402.941 304.552 403.864 304.947 404.653 305.736C405.443 306.515 405.837 307.56 405.837 308.872C405.837 310.163 405.443 311.203 404.653 311.992C403.864 312.781 402.941 313.176 401.885 313.176C400.584 313.176 399.528 312.589 398.717 311.416V315.56H397.485ZM401.661 312.072C402.493 312.072 403.187 311.784 403.741 311.208C404.296 310.621 404.573 309.837 404.573 308.856C404.573 307.907 404.291 307.139 403.725 306.552C403.16 305.955 402.472 305.656 401.661 305.656C400.861 305.656 400.163 305.96 399.565 306.568C398.968 307.176 398.669 307.944 398.669 308.872C398.669 309.8 398.968 310.568 399.565 311.176C400.163 311.773 400.861 312.072 401.661 312.072ZM409.71 315.608C409.113 315.608 408.526 315.469 407.95 315.192L408.366 314.216C408.761 314.419 409.193 314.52 409.662 314.52C410.036 314.52 410.35 314.403 410.606 314.168C410.862 313.944 411.113 313.544 411.358 312.968L407.598 304.728H408.958L411.966 311.624L414.622 304.728H415.934L412.462 313.272C412.11 314.115 411.721 314.712 411.294 315.064C410.868 315.427 410.34 315.608 409.71 315.608ZM418.203 313V304.728H425.372V313H424.139V305.816H419.435V313H418.203ZM428.445 313V304.728H435.613V313H434.381V305.816H429.677V313H428.445ZM438.687 313V304.728H439.919V307.832H442.127C443.087 307.832 443.871 308.04 444.479 308.456C445.087 308.861 445.391 309.48 445.391 310.312C445.391 311.133 445.109 311.789 444.543 312.28C443.978 312.76 443.221 313 442.271 313H438.687ZM439.919 311.912H442.159C442.789 311.912 443.274 311.779 443.615 311.512C443.967 311.245 444.143 310.856 444.143 310.344C444.143 309.875 443.962 309.517 443.599 309.272C443.247 309.016 442.751 308.888 442.111 308.888H439.919V311.912ZM446.879 313V304.728H448.111V313H446.879ZM169.376 337V328.728H170.608V335.272L175.52 328.728H176.72V337H175.488V330.456L170.56 337H169.376ZM179.39 337.128C179.07 337.128 178.739 337.085 178.398 337L178.542 335.944C178.787 336.019 178.984 336.056 179.134 336.056C179.368 336.056 179.56 336.029 179.71 335.976C179.859 335.912 180.019 335.757 180.19 335.512C180.371 335.256 180.51 334.899 180.606 334.44C180.702 333.981 180.782 333.331 180.846 332.488C180.92 331.645 180.958 330.621 180.958 329.416V328.728H186.814V337H185.582V329.816H182.126V330.008C182.126 331.267 182.078 332.339 181.982 333.224C181.886 334.109 181.763 334.803 181.614 335.304C181.475 335.805 181.278 336.195 181.022 336.472C180.766 336.749 180.515 336.925 180.27 337C180.035 337.085 179.742 337.128 179.39 337.128ZM189.891 337V328.728H191.123V335.272L196.035 328.728H197.235V337H196.003V330.456L191.075 337H189.891ZM205.422 337V328.728H206.654V333.496L211.182 328.728H212.702L209.246 332.312L212.798 337H211.342L208.398 333.208L206.654 335V337H205.422ZM221.684 335.928C220.852 336.771 219.822 337.192 218.596 337.192C217.369 337.192 216.345 336.771 215.524 335.928C214.713 335.085 214.308 334.067 214.308 332.872C214.308 331.688 214.718 330.675 215.54 329.832C216.372 328.979 217.401 328.552 218.628 328.552C219.854 328.552 220.878 328.973 221.7 329.816C222.521 330.659 222.932 331.677 222.932 332.872C222.932 334.056 222.516 335.075 221.684 335.928ZM218.628 336.088C219.513 336.088 220.238 335.779 220.804 335.16C221.38 334.541 221.668 333.779 221.668 332.872C221.668 331.976 221.369 331.213 220.772 330.584C220.185 329.955 219.46 329.64 218.596 329.64C217.71 329.64 216.985 329.955 216.42 330.584C215.854 331.203 215.572 331.965 215.572 332.872C215.572 333.768 215.865 334.531 216.452 335.16C217.038 335.779 217.764 336.088 218.628 336.088ZM224.267 339.064V335.912H225.163C225.899 334.557 226.267 332.643 226.267 330.168V328.728H232.155V335.912H233.403L233.211 339.064H232.187V337H225.499L225.275 339.064H224.267ZM226.475 335.912H230.923V329.816H227.451V330.968C227.451 333.048 227.126 334.696 226.475 335.912ZM244.258 337.192C243.063 337.192 242.055 336.771 241.234 335.928C240.423 335.075 240.018 334.056 240.018 332.872C240.018 331.688 240.423 330.675 241.234 329.832C242.055 328.979 243.063 328.552 244.258 328.552C245.538 328.552 246.642 329.043 247.57 330.024L246.786 330.856C246.018 330.045 245.17 329.64 244.242 329.64C243.41 329.64 242.706 329.955 242.13 330.584C241.564 331.203 241.282 331.965 241.282 332.872C241.282 333.768 241.57 334.531 242.146 335.16C242.732 335.779 243.458 336.088 244.322 336.088C245.207 336.088 246.039 335.672 246.818 334.84L247.634 335.592C246.674 336.659 245.548 337.192 244.258 337.192ZM249.99 337V328.728H257.158V337H255.926V329.816H251.222V337H249.99ZM263.848 337.192C262.686 337.192 261.704 336.792 260.904 335.992C260.115 335.181 259.72 334.141 259.72 332.872C259.72 331.667 260.099 330.648 260.856 329.816C261.614 328.973 262.558 328.552 263.688 328.552C264.872 328.552 265.811 328.968 266.504 329.8C267.198 330.632 267.544 331.677 267.544 332.936C267.544 333.096 267.539 333.24 267.528 333.368H260.968C261.054 334.211 261.368 334.883 261.912 335.384C262.467 335.875 263.123 336.12 263.88 336.12C264.872 336.12 265.742 335.731 266.488 334.952L267.256 335.64C266.328 336.675 265.192 337.192 263.848 337.192ZM260.968 332.376H266.296C266.222 331.576 265.955 330.915 265.496 330.392C265.048 329.859 264.435 329.592 263.656 329.592C262.952 329.592 262.35 329.853 261.848 330.376C261.347 330.899 261.054 331.565 260.968 332.376ZM277.157 339.064V337H270.021V328.728H271.253V335.912H275.893V328.728H277.125V335.912H278.373L278.181 339.064H277.157ZM280.388 337V328.728H281.62V335.272L286.532 328.728H287.732V337H286.5V330.456L281.572 337H280.388ZM293.266 337.176C292.423 337.176 291.698 336.947 291.09 336.488C290.482 336.029 290.178 335.389 290.178 334.568C290.178 333.704 290.498 333.037 291.138 332.568C291.778 332.099 292.636 331.864 293.714 331.864C294.567 331.864 295.41 331.981 296.242 332.216V331.96C296.242 331.235 296.028 330.68 295.602 330.296C295.175 329.912 294.572 329.72 293.794 329.72C292.983 329.72 292.146 329.917 291.282 330.312L290.914 329.304C291.938 328.835 292.94 328.6 293.922 328.6C295.095 328.6 295.986 328.904 296.594 329.512C297.17 330.088 297.458 330.899 297.458 331.944V337H296.242V335.768C295.506 336.707 294.514 337.176 293.266 337.176ZM293.506 336.184C294.274 336.184 294.924 335.976 295.458 335.56C295.991 335.144 296.258 334.611 296.258 333.96V333.192C295.447 332.957 294.642 332.84 293.842 332.84C293.084 332.84 292.492 332.995 292.066 333.304C291.639 333.603 291.426 334.013 291.426 334.536C291.426 335.037 291.623 335.437 292.018 335.736C292.423 336.035 292.919 336.184 293.506 336.184ZM299.987 337.128C299.667 337.128 299.337 337.085 298.995 337L299.139 335.944C299.385 336.019 299.582 336.056 299.731 336.056C299.966 336.056 300.158 336.029 300.307 335.976C300.457 335.912 300.617 335.757 300.787 335.512C300.969 335.256 301.107 334.899 301.203 334.44C301.299 333.981 301.379 333.331 301.443 332.488C301.518 331.645 301.555 330.621 301.555 329.416V328.728H307.411V337H306.179V329.816H302.723V330.008C302.723 331.267 302.675 332.339 302.579 333.224C302.483 334.109 302.361 334.803 302.211 335.304C302.073 335.805 301.875 336.195 301.619 336.472C301.363 336.749 301.113 336.925 300.867 337C300.633 337.085 300.339 337.128 299.987 337.128ZM310.489 337V328.728H311.721V331.832H313.929C314.889 331.832 315.673 332.04 316.281 332.456C316.889 332.861 317.193 333.48 317.193 334.312C317.193 335.133 316.91 335.789 316.345 336.28C315.779 336.76 315.022 337 314.073 337H310.489ZM311.721 335.912H313.961C314.59 335.912 315.075 335.779 315.417 335.512C315.769 335.245 315.945 334.856 315.945 334.344C315.945 333.875 315.763 333.517 315.401 333.272C315.049 333.016 314.553 332.888 313.913 332.888H311.721V335.912ZM319.418 337V328.728H320.65V332.296H325.418V328.728H326.65V337H325.418V333.384H320.65V337H319.418ZM336.586 335.928C335.754 336.771 334.725 337.192 333.498 337.192C332.272 337.192 331.248 336.771 330.426 335.928C329.616 335.085 329.21 334.067 329.21 332.872C329.21 331.688 329.621 330.675 330.442 329.832C331.274 328.979 332.304 328.552 333.53 328.552C334.757 328.552 335.781 328.973 336.602 329.816C337.424 330.659 337.834 331.677 337.834 332.872C337.834 334.056 337.418 335.075 336.586 335.928ZM333.53 336.088C334.416 336.088 335.141 335.779 335.706 335.16C336.282 334.541 336.57 333.779 336.57 332.872C336.57 331.976 336.272 331.213 335.674 330.584C335.088 329.955 334.362 329.64 333.498 329.64C332.613 329.64 331.888 329.955 331.322 330.584C330.757 331.203 330.474 331.965 330.474 332.872C330.474 333.768 330.768 334.531 331.354 335.16C331.941 335.779 332.666 336.088 333.53 336.088ZM344.114 337.192C342.919 337.192 341.911 336.771 341.09 335.928C340.279 335.075 339.874 334.056 339.874 332.872C339.874 331.688 340.279 330.675 341.09 329.832C341.911 328.979 342.919 328.552 344.114 328.552C345.394 328.552 346.498 329.043 347.426 330.024L346.642 330.856C345.874 330.045 345.026 329.64 344.098 329.64C343.266 329.64 342.562 329.955 341.986 330.584C341.421 331.203 341.138 331.965 341.138 332.872C341.138 333.768 341.426 334.531 342.002 335.16C342.589 335.779 343.314 336.088 344.178 336.088C345.063 336.088 345.895 335.672 346.674 334.84L347.49 335.592C346.53 336.659 345.405 337.192 344.114 337.192ZM351.847 337V329.816H348.887V328.728H356.055V329.816H353.095V337H351.847ZM358.167 337V328.728H359.399V335.272L364.311 328.728H365.511V337H364.279V330.456L359.351 337H358.167Z" fill="#262626"/>
<path d="M169.68 246V232H173L176.68 237.92L180.36 232H183.68V246H180.62V236.86L176.68 242.84H176.6L172.7 236.92V246H169.68ZM196.523 244.62C195.417 245.7 194.037 246.24 192.383 246.24C190.73 246.24 189.35 245.707 188.243 244.64C187.15 243.56 186.603 242.233 186.603 240.66C186.603 239.1 187.157 237.78 188.263 236.7C189.383 235.62 190.77 235.08 192.423 235.08C194.077 235.08 195.45 235.62 196.543 236.7C197.65 237.767 198.203 239.087 198.203 240.66C198.203 242.22 197.643 243.54 196.523 244.62ZM192.423 243.62C193.263 243.62 193.937 243.34 194.443 242.78C194.95 242.207 195.203 241.5 195.203 240.66C195.203 239.847 194.937 239.153 194.403 238.58C193.883 237.993 193.21 237.7 192.383 237.7C191.543 237.7 190.87 237.987 190.363 238.56C189.857 239.12 189.603 239.82 189.603 240.66C189.603 241.473 189.863 242.173 190.383 242.76C190.917 243.333 191.597 243.62 192.423 243.62ZM209.885 246H206.825V243.22L205.545 241.72L202.845 246H199.445L203.505 239.72L199.565 235.28H203.065L206.825 239.84V235.28H209.885V239.84L213.645 235.28H217.165L213.225 239.72L217.265 246H213.885L211.165 241.72L209.885 243.22V246ZM228.837 235.28V246H225.797V241.9H222.057V246H219.017V235.28H222.057V239.4H225.797V235.28H228.837ZM241.356 244.62C240.249 245.7 238.869 246.24 237.216 246.24C235.563 246.24 234.183 245.707 233.076 244.64C231.983 243.56 231.436 242.233 231.436 240.66C231.436 239.1 231.989 237.78 233.096 236.7C234.216 235.62 235.603 235.08 237.256 235.08C238.909 235.08 240.283 235.62 241.376 236.7C242.483 237.767 243.036 239.087 243.036 240.66C243.036 242.22 242.476 243.54 241.356 244.62ZM237.256 243.62C238.096 243.62 238.769 243.34 239.276 242.78C239.783 242.207 240.036 241.5 240.036 240.66C240.036 239.847 239.769 239.153 239.236 238.58C238.716 237.993 238.043 237.7 237.216 237.7C236.376 237.7 235.703 237.987 235.196 238.56C234.689 239.12 234.436 239.82 234.436 240.66C234.436 241.473 234.696 242.173 235.216 242.76C235.749 243.333 236.429 243.62 237.256 243.62ZM261.773 235.28V246H258.733V237.88H255.073V246H252.033V235.28H261.773ZM274.294 244.62C273.188 245.7 271.808 246.24 270.154 246.24C268.501 246.24 267.121 245.707 266.014 244.64C264.921 243.56 264.374 242.233 264.374 240.66C264.374 239.1 264.928 237.78 266.034 236.7C267.154 235.62 268.541 235.08 270.194 235.08C271.848 235.08 273.221 235.62 274.314 236.7C275.421 237.767 275.974 239.087 275.974 240.66C275.974 242.22 275.414 243.54 274.294 244.62ZM270.194 243.62C271.034 243.62 271.708 243.34 272.214 242.78C272.721 242.207 272.974 241.5 272.974 240.66C272.974 239.847 272.708 239.153 272.174 238.58C271.654 237.993 270.981 237.7 270.154 237.7C269.314 237.7 268.641 237.987 268.134 238.56C267.628 239.12 267.374 239.82 267.374 240.66C267.374 241.473 267.634 242.173 268.154 242.76C268.688 243.333 269.368 243.62 270.194 243.62ZM283.636 246.24C282.036 246.24 280.702 245.7 279.636 244.62C278.582 243.54 278.056 242.22 278.056 240.66C278.056 239.113 278.589 237.8 279.656 236.72C280.722 235.627 282.062 235.08 283.676 235.08C285.396 235.08 286.816 235.707 287.936 236.96L286.156 238.76C285.409 238.053 284.576 237.7 283.656 237.7C282.909 237.7 282.289 237.987 281.796 238.56C281.302 239.133 281.056 239.833 281.056 240.66C281.056 241.5 281.302 242.207 281.796 242.78C282.302 243.34 282.962 243.62 283.776 243.62C284.616 243.62 285.436 243.24 286.236 242.48L288.016 244.28C287.429 244.92 286.802 245.407 286.136 245.74C285.469 246.073 284.636 246.24 283.636 246.24ZM290.401 246V235.28H293.481L296.381 239.78L299.321 235.28H302.401V246H299.321V239.56L296.341 243.96L293.401 239.62V246H290.401ZM314.928 244.62C313.821 245.7 312.441 246.24 310.788 246.24C309.135 246.24 307.755 245.707 306.648 244.64C305.555 243.56 305.008 242.233 305.008 240.66C305.008 239.1 305.561 237.78 306.668 236.7C307.788 235.62 309.175 235.08 310.828 235.08C312.481 235.08 313.855 235.62 314.948 236.7C316.055 237.767 316.608 239.087 316.608 240.66C316.608 242.22 316.048 243.54 314.928 244.62ZM310.828 243.62C311.668 243.62 312.341 243.34 312.848 242.78C313.355 242.207 313.608 241.5 313.608 240.66C313.608 239.847 313.341 239.153 312.808 238.58C312.288 237.993 311.615 237.7 310.788 237.7C309.948 237.7 309.275 237.987 308.768 238.56C308.261 239.12 308.008 239.82 308.008 240.66C308.008 241.473 308.268 242.173 308.788 242.76C309.321 243.333 310.001 243.62 310.828 243.62ZM327.589 235.28V237.88H324.409V246H321.329V237.88H318.149V235.28H327.589ZM329.648 249.2V235.28H332.688V236.82C333.542 235.66 334.655 235.08 336.028 235.08C337.362 235.08 338.508 235.58 339.468 236.58C340.428 237.58 340.908 238.94 340.908 240.66C340.908 242.367 340.428 243.72 339.468 244.72C338.522 245.707 337.375 246.2 336.028 246.2C334.695 246.2 333.582 245.667 332.688 244.6V249.2H329.648ZM333.388 242.8C333.895 243.347 334.515 243.62 335.248 243.62C335.982 243.62 336.602 243.347 337.108 242.8C337.615 242.24 337.868 241.513 337.868 240.62C337.868 239.753 337.615 239.047 337.108 238.5C336.602 237.94 335.982 237.66 335.248 237.66C334.515 237.66 333.895 237.94 333.388 238.5C332.895 239.047 332.648 239.767 332.648 240.66C332.648 241.527 332.895 242.24 333.388 242.8ZM348.624 246.24C346.998 246.24 345.658 245.727 344.604 244.7C343.551 243.66 343.024 242.313 343.024 240.66C343.024 239.1 343.524 237.78 344.524 236.7C345.524 235.62 346.791 235.08 348.324 235.08C350.018 235.08 351.311 235.64 352.204 236.76C353.098 237.88 353.544 239.26 353.544 240.9C353.544 241.06 353.531 241.327 353.504 241.7H346.044C346.191 242.38 346.491 242.9 346.944 243.26C347.398 243.62 347.971 243.8 348.664 243.8C349.611 243.8 350.478 243.433 351.264 242.7L353.004 244.24C351.924 245.573 350.464 246.24 348.624 246.24ZM346.004 239.8H350.584C350.491 239.107 350.244 238.553 349.844 238.14C349.458 237.727 348.951 237.52 348.324 237.52C347.711 237.52 347.198 237.727 346.784 238.14C346.384 238.54 346.124 239.093 346.004 239.8ZM364.59 235.28V237.88H361.41V246H358.33V237.88H355.15V235.28H364.59ZM366.649 246V235.28H369.689V238.82H371.889C373.182 238.82 374.216 239.12 374.989 239.72C375.776 240.32 376.169 241.2 376.169 242.36C376.169 243.493 375.802 244.387 375.069 245.04C374.349 245.68 373.342 246 372.049 246H366.649ZM371.589 241.12H369.689V243.6H371.609C372.609 243.6 373.109 243.173 373.109 242.32C373.109 241.947 372.976 241.653 372.709 241.44C372.456 241.227 372.082 241.12 371.589 241.12ZM389.775 246.24C388.175 246.24 386.841 245.7 385.775 244.62C384.721 243.54 384.195 242.22 384.195 240.66C384.195 239.113 384.728 237.8 385.795 236.72C386.861 235.627 388.201 235.08 389.815 235.08C391.535 235.08 392.955 235.707 394.075 236.96L392.295 238.76C391.548 238.053 390.715 237.7 389.795 237.7C389.048 237.7 388.428 237.987 387.935 238.56C387.441 239.133 387.195 239.833 387.195 240.66C387.195 241.5 387.441 242.207 387.935 242.78C388.441 243.34 389.101 243.62 389.915 243.62C390.755 243.62 391.575 243.24 392.375 242.48L394.155 244.28C393.568 244.92 392.941 245.407 392.275 245.74C391.608 246.073 390.775 246.24 389.775 246.24ZM406.52 235.28V246H403.58V239.76L399.4 246H396.54V235.28H399.48V241.54L403.66 235.28H406.52ZM414.696 246.24C413.096 246.24 411.762 245.7 410.696 244.62C409.642 243.54 409.116 242.22 409.116 240.66C409.116 239.113 409.649 237.8 410.716 236.72C411.782 235.627 413.122 235.08 414.736 235.08C416.456 235.08 417.876 235.707 418.996 236.96L417.216 238.76C416.469 238.053 415.636 237.7 414.716 237.7C413.969 237.7 413.349 237.987 412.856 238.56C412.362 239.133 412.116 239.833 412.116 240.66C412.116 241.5 412.362 242.207 412.856 242.78C413.362 243.34 414.022 243.62 414.836 243.62C415.676 243.62 416.496 243.24 417.296 242.48L419.076 244.28C418.489 244.92 417.862 245.407 417.196 245.74C416.529 246.073 415.696 246.24 414.696 246.24ZM430.862 244.62C429.755 245.7 428.375 246.24 426.722 246.24C425.068 246.24 423.688 245.707 422.582 244.64C421.488 243.56 420.942 242.233 420.942 240.66C420.942 239.1 421.495 237.78 422.602 236.7C423.722 235.62 425.108 235.08 426.762 235.08C428.415 235.08 429.788 235.62 430.882 236.7C431.988 237.767 432.542 239.087 432.542 240.66C432.542 242.22 431.982 243.54 430.862 244.62ZM426.762 243.62C427.602 243.62 428.275 243.34 428.782 242.78C429.288 242.207 429.542 241.5 429.542 240.66C429.542 239.847 429.275 239.153 428.742 238.58C428.222 237.993 427.548 237.7 426.722 237.7C425.882 237.7 425.208 237.987 424.702 238.56C424.195 239.12 423.942 239.82 423.942 240.66C423.942 241.473 424.202 242.173 424.722 242.76C425.255 243.333 425.935 243.62 426.762 243.62ZM435.143 246V235.28H438.183V239.68L442.023 235.28H445.523L441.583 239.68L446.023 246H442.423L439.563 241.92L438.183 243.42V246H435.143ZM459.225 246.24C457.625 246.24 456.292 245.7 455.225 244.62C454.172 243.54 453.645 242.22 453.645 240.66C453.645 239.113 454.179 237.8 455.245 236.72C456.312 235.627 457.652 235.08 459.265 235.08C460.985 235.08 462.405 235.707 463.525 236.96L461.745 238.76C460.999 238.053 460.165 237.7 459.245 237.7C458.499 237.7 457.879 237.987 457.385 238.56C456.892 239.133 456.645 239.833 456.645 240.66C456.645 241.5 456.892 242.207 457.385 242.78C457.892 243.34 458.552 243.62 459.365 243.62C460.205 243.62 461.025 243.24 461.825 242.48L463.605 244.28C463.019 244.92 462.392 245.407 461.725 245.74C461.059 246.073 460.225 246.24 459.225 246.24ZM465.991 235.28H471.871C472.965 235.28 473.831 235.52 474.471 236C475.125 236.48 475.451 237.133 475.451 237.96C475.451 239.08 474.885 239.887 473.751 240.38C475.151 240.807 475.851 241.707 475.851 243.08C475.851 243.987 475.491 244.7 474.771 245.22C474.065 245.74 473.091 246 471.851 246H465.991V235.28ZM468.991 239.58H471.131C471.545 239.58 471.858 239.48 472.071 239.28C472.298 239.08 472.411 238.82 472.411 238.5C472.411 238.22 472.305 237.987 472.091 237.8C471.891 237.613 471.585 237.52 471.171 237.52H468.991V239.58ZM468.991 243.62H471.391C472.311 243.62 472.771 243.26 472.771 242.54C472.771 241.847 472.285 241.5 471.311 241.5H468.991V243.62ZM487.783 244.62C486.677 245.7 485.297 246.24 483.643 246.24C481.99 246.24 480.61 245.707 479.503 244.64C478.41 243.56 477.863 242.233 477.863 240.66C477.863 239.1 478.417 237.78 479.523 236.7C480.643 235.62 482.03 235.08 483.683 235.08C485.337 235.08 486.71 235.62 487.803 236.7C488.91 237.767 489.463 239.087 489.463 240.66C489.463 242.22 488.903 243.54 487.783 244.62ZM483.683 243.62C484.523 243.62 485.197 243.34 485.703 242.78C486.21 242.207 486.463 241.5 486.463 240.66C486.463 239.847 486.197 239.153 485.663 238.58C485.143 237.993 484.47 237.7 483.643 237.7C482.803 237.7 482.13 237.987 481.623 238.56C481.117 239.12 480.863 239.82 480.863 240.66C480.863 241.473 481.123 242.173 481.643 242.76C482.177 243.333 482.857 243.62 483.683 243.62ZM497.145 246.24C495.518 246.24 494.178 245.727 493.125 244.7C492.071 243.66 491.545 242.313 491.545 240.66C491.545 239.1 492.045 237.78 493.045 236.7C494.045 235.62 495.311 235.08 496.845 235.08C498.538 235.08 499.831 235.64 500.725 236.76C501.618 237.88 502.065 239.26 502.065 240.9C502.065 241.06 502.051 241.327 502.025 241.7H494.565C494.711 242.38 495.011 242.9 495.465 243.26C495.918 243.62 496.491 243.8 497.185 243.8C498.131 243.8 498.998 243.433 499.785 242.7L501.525 244.24C500.445 245.573 498.985 246.24 497.145 246.24ZM494.525 239.8H499.105C499.011 239.107 498.765 238.553 498.365 238.14C497.978 237.727 497.471 237.52 496.845 237.52C496.231 237.52 495.718 237.727 495.305 238.14C494.905 238.54 494.645 239.093 494.525 239.8ZM514.71 235.28V246H511.77V239.76L507.59 246H504.73V235.28H507.67V241.54L511.85 235.28H514.71ZM512.07 233.46C511.484 233.993 510.73 234.26 509.81 234.26C508.89 234.26 508.13 233.993 507.53 233.46C506.944 232.927 506.584 232.18 506.45 231.22L508.23 230.9C508.51 231.793 509.037 232.24 509.81 232.24C510.584 232.24 511.11 231.793 511.39 230.9L513.17 231.22C513.037 232.18 512.67 232.927 512.07 233.46ZM177.18 269.88H172.4V278H169.36V267.28H177.18V269.88ZM179.233 281.2V267.28H182.273V268.82C183.126 267.66 184.239 267.08 185.613 267.08C186.946 267.08 188.093 267.58 189.053 268.58C190.013 269.58 190.493 270.94 190.493 272.66C190.493 274.367 190.013 275.72 189.053 276.72C188.106 277.707 186.959 278.2 185.613 278.2C184.279 278.2 183.166 277.667 182.273 276.6V281.2H179.233ZM182.973 274.8C183.479 275.347 184.099 275.62 184.833 275.62C185.566 275.62 186.186 275.347 186.693 274.8C187.199 274.24 187.453 273.513 187.453 272.62C187.453 271.753 187.199 271.047 186.693 270.5C186.186 269.94 185.566 269.66 184.833 269.66C184.099 269.66 183.479 269.94 182.973 270.5C182.479 271.047 182.233 271.767 182.233 272.66C182.233 273.527 182.479 274.24 182.973 274.8ZM195.689 281.26C194.729 281.26 193.829 281.013 192.989 280.52L194.009 278.32C194.475 278.6 194.909 278.74 195.309 278.74C195.789 278.74 196.142 278.507 196.369 278.04L192.169 267.28H195.389L197.829 274.58L200.169 267.28H203.329L199.209 278.26C198.795 279.367 198.329 280.14 197.809 280.58C197.289 281.033 196.582 281.26 195.689 281.26ZM215.261 267.28V278H212.221V269.88H208.561V278H205.521V267.28H215.261ZM228.122 267.28V278H225.082V269.88H221.422V278H218.382V267.28H228.122ZM231.243 278V267.28H234.283V270.82H236.483C237.776 270.82 238.809 271.12 239.583 271.72C240.369 272.32 240.763 273.2 240.763 274.36C240.763 275.493 240.396 276.387 239.663 277.04C238.943 277.68 237.936 278 236.643 278H231.243ZM236.183 273.12H234.283V275.6H236.203C237.203 275.6 237.703 275.173 237.703 274.32C237.703 273.947 237.569 273.653 237.303 273.44C237.049 273.227 236.676 273.12 236.183 273.12ZM242.183 278V267.28H245.223V278H242.183ZM264.718 267.28V278H261.778V271.76L257.598 278H254.738V267.28H257.678V273.54L261.858 267.28H264.718ZM269.113 267.28H277.733V278H274.693V269.88H271.973C271.973 271.293 271.92 272.487 271.813 273.46C271.707 274.433 271.56 275.227 271.373 275.84C271.187 276.453 270.927 276.927 270.593 277.26C270.26 277.593 269.9 277.82 269.513 277.94C269.127 278.06 268.647 278.12 268.073 278.12C267.527 278.12 267.013 278.06 266.533 277.94L266.733 275.48C266.973 275.52 267.187 275.54 267.373 275.54C267.693 275.54 267.947 275.467 268.133 275.32C268.32 275.16 268.493 274.813 268.653 274.28C268.827 273.733 268.947 272.9 269.013 271.78C269.08 270.647 269.113 269.147 269.113 267.28ZM290.831 267.28V278H287.891V271.76L283.711 278H280.851V267.28H283.791V273.54L287.971 267.28H290.831ZM300.342 267.28H306.222C307.315 267.28 308.182 267.52 308.822 268C309.475 268.48 309.802 269.133 309.802 269.96C309.802 271.08 309.235 271.887 308.102 272.38C309.502 272.807 310.202 273.707 310.202 275.08C310.202 275.987 309.842 276.7 309.122 277.22C308.415 277.74 307.442 278 306.202 278H300.342V267.28ZM303.342 271.58H305.482C305.895 271.58 306.209 271.48 306.422 271.28C306.649 271.08 306.762 270.82 306.762 270.5C306.762 270.22 306.655 269.987 306.442 269.8C306.242 269.613 305.935 269.52 305.522 269.52H303.342V271.58ZM303.342 275.62H305.742C306.662 275.62 307.122 275.26 307.122 274.54C307.122 273.847 306.635 273.5 305.662 273.5H303.342V275.62ZM317.794 278.24C316.194 278.24 314.861 277.7 313.794 276.62C312.741 275.54 312.214 274.22 312.214 272.66C312.214 271.113 312.748 269.8 313.814 268.72C314.881 267.627 316.221 267.08 317.834 267.08C319.554 267.08 320.974 267.707 322.094 268.96L320.314 270.76C319.568 270.053 318.734 269.7 317.814 269.7C317.068 269.7 316.448 269.987 315.954 270.56C315.461 271.133 315.214 271.833 315.214 272.66C315.214 273.5 315.461 274.207 315.954 274.78C316.461 275.34 317.121 275.62 317.934 275.62C318.774 275.62 319.594 275.24 320.394 274.48L322.174 276.28C321.588 276.92 320.961 277.407 320.294 277.74C319.628 278.073 318.794 278.24 317.794 278.24ZM329.64 278.24C328.013 278.24 326.673 277.727 325.62 276.7C324.567 275.66 324.04 274.313 324.04 272.66C324.04 271.1 324.54 269.78 325.54 268.7C326.54 267.62 327.807 267.08 329.34 267.08C331.033 267.08 332.327 267.64 333.22 268.76C334.113 269.88 334.56 271.26 334.56 272.9C334.56 273.06 334.547 273.327 334.52 273.7H327.06C327.207 274.38 327.507 274.9 327.96 275.26C328.413 275.62 328.987 275.8 329.68 275.8C330.627 275.8 331.493 275.433 332.28 274.7L334.02 276.24C332.94 277.573 331.48 278.24 329.64 278.24ZM327.02 271.8H331.6C331.507 271.107 331.26 270.553 330.86 270.14C330.473 269.727 329.967 269.52 329.34 269.52C328.727 269.52 328.213 269.727 327.8 270.14C327.4 270.54 327.14 271.093 327.02 271.8ZM345.046 269.88H340.266V278H337.226V267.28H345.046V269.88ZM356.498 276.62C355.392 277.7 354.012 278.24 352.358 278.24C350.705 278.24 349.325 277.707 348.218 276.64C347.125 275.56 346.578 274.233 346.578 272.66C346.578 271.1 347.132 269.78 348.238 268.7C349.358 267.62 350.745 267.08 352.398 267.08C354.052 267.08 355.425 267.62 356.518 268.7C357.625 269.767 358.178 271.087 358.178 272.66C358.178 274.22 357.618 275.54 356.498 276.62ZM352.398 275.62C353.238 275.62 353.912 275.34 354.418 274.78C354.925 274.207 355.178 273.5 355.178 272.66C355.178 271.847 354.912 271.153 354.378 270.58C353.858 269.993 353.185 269.7 352.358 269.7C351.518 269.7 350.845 269.987 350.338 270.56C349.832 271.12 349.578 271.82 349.578 272.66C349.578 273.473 349.838 274.173 350.358 274.76C350.892 275.333 351.572 275.62 352.398 275.62ZM376.996 267.28V278H373.956V273.9H370.216V278H367.176V267.28H370.216V271.4H373.956V267.28H376.996ZM383.155 278.2C382.101 278.2 381.221 277.907 380.515 277.32C379.821 276.733 379.475 275.92 379.475 274.88C379.475 273.747 379.861 272.893 380.635 272.32C381.421 271.747 382.475 271.46 383.795 271.46C384.688 271.46 385.561 271.607 386.415 271.9V271.72C386.415 270.413 385.648 269.76 384.115 269.76C383.195 269.76 382.208 269.953 381.155 270.34L380.395 268.02C381.701 267.447 383.088 267.16 384.555 267.16C386.168 267.16 387.375 267.56 388.175 268.36C388.948 269.133 389.335 270.273 389.335 271.78V278H386.395V276.84C385.581 277.747 384.501 278.2 383.155 278.2ZM384.075 276.1C384.781 276.1 385.355 275.927 385.795 275.58C386.235 275.22 386.455 274.767 386.455 274.22V273.68C385.881 273.413 385.235 273.28 384.515 273.28C383.848 273.28 383.328 273.413 382.955 273.68C382.595 273.933 382.415 274.307 382.415 274.8C382.415 275.2 382.568 275.52 382.875 275.76C383.181 275.987 383.581 276.1 384.075 276.1ZM402.091 267.28V278H399.051V269.88H395.391V278H392.351V267.28H402.091ZM405.212 281.2V267.28H408.252V268.82C409.105 267.66 410.218 267.08 411.592 267.08C412.925 267.08 414.072 267.58 415.032 268.58C415.992 269.58 416.472 270.94 416.472 272.66C416.472 274.367 415.992 275.72 415.032 276.72C414.085 277.707 412.938 278.2 411.592 278.2C410.258 278.2 409.145 277.667 408.252 276.6V281.2H405.212ZM408.952 274.8C409.458 275.347 410.078 275.62 410.812 275.62C411.545 275.62 412.165 275.347 412.672 274.8C413.178 274.24 413.432 273.513 413.432 272.62C413.432 271.753 413.178 271.047 412.672 270.5C412.165 269.94 411.545 269.66 410.812 269.66C410.078 269.66 409.458 269.94 408.952 270.5C408.458 271.047 408.212 271.767 408.212 272.66C408.212 273.527 408.458 274.24 408.952 274.8ZM422.148 278.2C421.094 278.2 420.214 277.907 419.508 277.32C418.814 276.733 418.468 275.92 418.468 274.88C418.468 273.747 418.854 272.893 419.628 272.32C420.414 271.747 421.468 271.46 422.788 271.46C423.681 271.46 424.554 271.607 425.408 271.9V271.72C425.408 270.413 424.641 269.76 423.108 269.76C422.188 269.76 421.201 269.953 420.148 270.34L419.388 268.02C420.694 267.447 422.081 267.16 423.548 267.16C425.161 267.16 426.368 267.56 427.168 268.36C427.941 269.133 428.328 270.273 428.328 271.78V278H425.388V276.84C424.574 277.747 423.494 278.2 422.148 278.2ZM423.068 276.1C423.774 276.1 424.348 275.927 424.788 275.58C425.228 275.22 425.448 274.767 425.448 274.22V273.68C424.874 273.413 424.228 273.28 423.508 273.28C422.841 273.28 422.321 273.413 421.948 273.68C421.588 273.933 421.408 274.307 421.408 274.8C421.408 275.2 421.561 275.52 421.868 275.76C422.174 275.987 422.574 276.1 423.068 276.1ZM431.344 267.28H437.224C438.317 267.28 439.184 267.52 439.824 268C440.477 268.48 440.804 269.133 440.804 269.96C440.804 271.08 440.237 271.887 439.104 272.38C440.504 272.807 441.204 273.707 441.204 275.08C441.204 275.987 440.844 276.7 440.124 277.22C439.417 277.74 438.444 278 437.204 278H431.344V267.28ZM434.344 271.58H436.484C436.897 271.58 437.21 271.48 437.424 271.28C437.65 271.08 437.764 270.82 437.764 270.5C437.764 270.22 437.657 269.987 437.444 269.8C437.244 269.613 436.937 269.52 436.524 269.52H434.344V271.58ZM434.344 275.62H436.744C437.664 275.62 438.124 275.26 438.124 274.54C438.124 273.847 437.637 273.5 436.664 273.5H434.344V275.62ZM445.016 267.28H453.636V278H450.596V269.88H447.876C447.876 271.293 447.822 272.487 447.716 273.46C447.609 274.433 447.462 275.227 447.276 275.84C447.089 276.453 446.829 276.927 446.496 277.26C446.162 277.593 445.802 277.82 445.416 277.94C445.029 278.06 444.549 278.12 443.976 278.12C443.429 278.12 442.916 278.06 442.436 277.94L442.636 275.48C442.876 275.52 443.089 275.54 443.276 275.54C443.596 275.54 443.849 275.467 444.036 275.32C444.222 275.16 444.396 274.813 444.556 274.28C444.729 273.733 444.849 272.9 444.916 271.78C444.982 270.647 445.016 269.147 445.016 267.28ZM461.833 278.24C460.206 278.24 458.866 277.727 457.813 276.7C456.76 275.66 456.233 274.313 456.233 272.66C456.233 271.1 456.733 269.78 457.733 268.7C458.733 267.62 460 267.08 461.533 267.08C463.226 267.08 464.52 267.64 465.413 268.76C466.306 269.88 466.753 271.26 466.753 272.9C466.753 273.06 466.74 273.327 466.713 273.7H459.253C459.4 274.38 459.7 274.9 460.153 275.26C460.606 275.62 461.18 275.8 461.873 275.8C462.82 275.8 463.686 275.433 464.473 274.7L466.213 276.24C465.133 277.573 463.673 278.24 461.833 278.24ZM459.213 271.8H463.793C463.7 271.107 463.453 270.553 463.053 270.14C462.666 269.727 462.16 269.52 461.533 269.52C460.92 269.52 460.406 269.727 459.993 270.14C459.593 270.54 459.333 271.093 459.213 271.8ZM479.239 267.28V278H476.199V273.9H472.459V278H469.419V267.28H472.459V271.4H476.199V267.28H479.239ZM492.338 267.28V278H489.398V271.76L485.218 278H482.358V267.28H485.298V273.54L489.478 267.28H492.338ZM504.953 267.28V278H501.913V274.56H500.273L498.013 278H494.493L497.233 274.06C495.74 273.487 494.993 272.42 494.993 270.86C494.993 269.767 495.373 268.9 496.133 268.26C496.893 267.607 497.96 267.28 499.333 267.28H504.953ZM499.853 272.36H501.913V269.66H499.833C499.273 269.66 498.84 269.78 498.533 270.02C498.226 270.247 498.073 270.58 498.073 271.02C498.073 271.447 498.226 271.78 498.533 272.02C498.853 272.247 499.293 272.36 499.853 272.36Z" fill="#262626"/>
</svg>
