<svg width="1128" height="440" viewBox="0 0 1128 440" fill="none" xmlns="http://www.w3.org/2000/svg">
<g clip-path="url(#clip0_48_983)">
<path d="M0 7.99999C0 3.58171 3.58172 0 8 0H1120C1124.42 0 1128 3.58172 1128 8V432C1128 436.418 1124.42 440 1120 440H7.99998C3.5817 440 0 436.418 0 432V7.99999Z" fill="#1E162B"/>
<g filter="url(#filter0_f_48_983)">
<path d="M737.713 411.671C779.353 465.585 781.211 533.926 741.863 564.315C702.516 594.705 671.054 575.722 629.414 521.808C566.705 462.704 455.909 507.754 406.28 421.405C376.502 369.595 474.412 251.896 533.019 293.908C596.372 296.409 696.074 357.757 737.713 411.671Z" fill="#73BDDC"/>
</g>
<g filter="url(#filter1_f_48_983)">
<path d="M961.604 39.189C955.015 104.391 700.216 142.771 614.891 134.147C529.566 125.524 646.026 73.1634 652.615 7.96125C659.205 -57.2409 733.716 -103.107 819.041 -94.4838C904.366 -85.8605 968.194 -26.0132 961.604 39.189Z" fill="#4650BA"/>
</g>
<g filter="url(#filter2_f_48_983)">
<path d="M1332 454.118C1332 518.593 1263.31 530 1121.59 530C979.881 530 865 477.733 865 413.258C865 348.783 877.243 272 1018.96 272C1160.67 272 1332 389.643 1332 454.118Z" fill="#8458BC"/>
</g>
<g filter="url(#filter3_f_48_983)">
<ellipse cx="1091.5" cy="420" rx="134.5" ry="102" fill="#CCECF3"/>
</g>
<g filter="url(#filter4_f_48_983)">
<path d="M-227.66 121.849C-238.351 180.28 -226.324 267.12 -184.2 355.031C-142.077 442.942 -54.775 557.161 117.115 545.835C289.004 534.509 313.269 391.566 278.331 315.868C256.795 269.207 211.307 145.701 216.887 108.995C235.86 -15.8228 208.58 -113.66 114.739 -142.069C21.3901 -170.329 -32.8726 -117.376 -100.653 -51.2327L-101.724 -50.1873C-141.234 -11.6341 -204.6 -4.18238 -227.66 121.849Z" fill="url(#paint0_linear_48_983)"/>
</g>
<path d="M197.296 169.192C195.504 169.192 193.947 168.589 192.624 167.384L193.376 166.504C194.507 167.571 195.819 168.104 197.312 168.104C198.027 168.104 198.64 167.907 199.152 167.512C199.664 167.107 199.92 166.584 199.92 165.944C199.92 165.251 199.643 164.733 199.088 164.392C198.533 164.051 197.803 163.88 196.896 163.88H195.664V162.84H196.896C197.707 162.84 198.363 162.653 198.864 162.28C199.376 161.896 199.632 161.379 199.632 160.728C199.632 160.152 199.392 159.677 198.912 159.304C198.443 158.92 197.84 158.728 197.104 158.728C195.845 158.728 194.747 159.149 193.808 159.992L193.072 159.112C193.659 158.611 194.267 158.237 194.896 157.992C195.536 157.747 196.283 157.624 197.136 157.624C198.245 157.624 199.152 157.907 199.856 158.472C200.56 159.037 200.912 159.752 200.912 160.616C200.912 161.885 200.229 162.765 198.864 163.256C199.579 163.469 200.149 163.805 200.576 164.264C201.003 164.723 201.216 165.304 201.216 166.008C201.216 166.915 200.848 167.672 200.112 168.28C199.387 168.888 198.448 169.192 197.296 169.192ZM202.652 171.064V167.912H203.548C204.284 166.557 204.652 164.643 204.652 162.168V160.728H210.54V167.912H211.788L211.596 171.064H210.572V169H203.884L203.66 171.064H202.652ZM204.86 167.912H209.308V161.816H205.836V162.968C205.836 165.048 205.511 166.696 204.86 167.912ZM217.413 169.192C216.251 169.192 215.269 168.792 214.469 167.992C213.68 167.181 213.285 166.141 213.285 164.872C213.285 163.667 213.664 162.648 214.421 161.816C215.179 160.973 216.123 160.552 217.253 160.552C218.437 160.552 219.376 160.968 220.069 161.8C220.763 162.632 221.109 163.677 221.109 164.936C221.109 165.096 221.104 165.24 221.093 165.368H214.533C214.619 166.211 214.933 166.883 215.477 167.384C216.032 167.875 216.688 168.12 217.445 168.12C218.437 168.12 219.307 167.731 220.053 166.952L220.821 167.64C219.893 168.675 218.757 169.192 217.413 169.192ZM214.533 164.376H219.861C219.787 163.576 219.52 162.915 219.061 162.392C218.613 161.859 218 161.592 217.221 161.592C216.517 161.592 215.915 161.853 215.413 162.376C214.912 162.899 214.619 163.565 214.533 164.376ZM227.314 169.192C226.119 169.192 225.111 168.771 224.29 167.928C223.479 167.075 223.074 166.056 223.074 164.872C223.074 163.688 223.479 162.675 224.29 161.832C225.111 160.979 226.119 160.552 227.314 160.552C228.594 160.552 229.698 161.043 230.626 162.024L229.842 162.856C229.074 162.045 228.226 161.64 227.298 161.64C226.466 161.64 225.762 161.955 225.186 162.584C224.621 163.203 224.338 163.965 224.338 164.872C224.338 165.768 224.626 166.531 225.202 167.16C225.789 167.779 226.514 168.088 227.378 168.088C228.263 168.088 229.095 167.672 229.874 166.84L230.69 167.592C229.73 168.659 228.605 169.192 227.314 169.192ZM233.047 169V160.728H234.279V163.832H236.487C237.447 163.832 238.231 164.04 238.839 164.456C239.447 164.861 239.751 165.48 239.751 166.312C239.751 167.133 239.468 167.789 238.903 168.28C238.337 168.76 237.58 169 236.631 169H233.047ZM234.279 167.912H236.519C237.148 167.912 237.633 167.779 237.975 167.512C238.327 167.245 238.503 166.856 238.503 166.344C238.503 165.875 238.321 165.517 237.959 165.272C237.607 165.016 237.111 164.888 236.471 164.888H234.279V167.912ZM249.093 169V161.816H246.133V160.728H253.301V161.816H250.341V169H249.093ZM255.413 169V160.728H256.645V163.832H258.853C259.813 163.832 260.597 164.04 261.205 164.456C261.813 164.861 262.117 165.48 262.117 166.312C262.117 167.133 261.834 167.789 261.269 168.28C260.704 168.76 259.946 169 258.997 169H255.413ZM256.645 167.912H258.885C259.514 167.912 260 167.779 260.341 167.512C260.693 167.245 260.869 166.856 260.869 166.344C260.869 165.875 260.688 165.517 260.325 165.272C259.973 165.016 259.477 164.888 258.837 164.888H256.645V167.912ZM263.605 169V160.728H264.837V169H263.605ZM273.022 169V160.728H274.254V164.296H279.022V160.728H280.254V169H279.022V165.384H274.254V169H273.022ZM285.79 169.176C284.947 169.176 284.222 168.947 283.614 168.488C283.006 168.029 282.702 167.389 282.702 166.568C282.702 165.704 283.022 165.037 283.662 164.568C284.302 164.099 285.161 163.864 286.238 163.864C287.091 163.864 287.934 163.981 288.766 164.216V163.96C288.766 163.235 288.553 162.68 288.126 162.296C287.699 161.912 287.097 161.72 286.318 161.72C285.507 161.72 284.67 161.917 283.806 162.312L283.438 161.304C284.462 160.835 285.465 160.6 286.446 160.6C287.619 160.6 288.51 160.904 289.118 161.512C289.694 162.088 289.982 162.899 289.982 163.944V169H288.766V167.768C288.03 168.707 287.038 169.176 285.79 169.176ZM286.03 168.184C286.798 168.184 287.449 167.976 287.982 167.56C288.515 167.144 288.782 166.611 288.782 165.96V165.192C287.971 164.957 287.166 164.84 286.366 164.84C285.609 164.84 285.017 164.995 284.59 165.304C284.163 165.603 283.95 166.013 283.95 166.536C283.95 167.037 284.147 167.437 284.542 167.736C284.947 168.035 285.443 168.184 286.03 168.184ZM292.912 169V160.728H294.144V167.272L299.056 160.728H300.256V169H299.024V162.456L294.096 169H292.912ZM298.032 159C297.626 159.363 297.13 159.544 296.544 159.544C295.957 159.544 295.456 159.363 295.04 159C294.634 158.637 294.384 158.168 294.288 157.592L295.136 157.416C295.349 158.163 295.818 158.536 296.544 158.536C297.269 158.536 297.738 158.163 297.952 157.416L298.8 157.592C298.704 158.168 298.448 158.637 298.032 159ZM302.109 171.064V167.912H303.005C303.741 166.557 304.109 164.643 304.109 162.168V160.728H309.997V167.912H311.245L311.053 171.064H310.029V169H303.341L303.117 171.064H302.109ZM304.317 167.912H308.765V161.816H305.293V162.968C305.293 165.048 304.968 166.696 304.317 167.912ZM316.871 169.192C315.708 169.192 314.727 168.792 313.927 167.992C313.137 167.181 312.743 166.141 312.743 164.872C312.743 163.667 313.121 162.648 313.879 161.816C314.636 160.973 315.58 160.552 316.711 160.552C317.895 160.552 318.833 160.968 319.527 161.8C320.22 162.632 320.567 163.677 320.567 164.936C320.567 165.096 320.561 165.24 320.551 165.368H313.991C314.076 166.211 314.391 166.883 314.935 167.384C315.489 167.875 316.145 168.12 316.903 168.12C317.895 168.12 318.764 167.731 319.511 166.952L320.279 167.64C319.351 168.675 318.215 169.192 316.871 169.192ZM313.991 164.376H319.319C319.244 163.576 318.977 162.915 318.519 162.392C318.071 161.859 317.457 161.592 316.679 161.592C315.975 161.592 315.372 161.853 314.871 162.376C314.369 162.899 314.076 163.565 313.991 164.376ZM323.043 169V160.728H324.275V167.912H328.307V160.728H329.539V167.912H333.571V160.728H334.819V169H323.043ZM337.895 169V160.728H339.127V163.832H341.335C342.295 163.832 343.079 164.04 343.687 164.456C344.295 164.861 344.599 165.48 344.599 166.312C344.599 167.133 344.316 167.789 343.751 168.28C343.185 168.76 342.428 169 341.479 169H337.895ZM339.127 167.912H341.367C341.996 167.912 342.481 167.779 342.823 167.512C343.175 167.245 343.351 166.856 343.351 166.344C343.351 165.875 343.169 165.517 342.807 165.272C342.455 165.016 341.959 164.888 341.319 164.888H339.127V167.912ZM351.941 169V160.728H355.941C356.762 160.728 357.418 160.915 357.909 161.288C358.4 161.661 358.645 162.163 358.645 162.792C358.645 163.677 358.186 164.312 357.269 164.696C358.485 165.027 359.093 165.709 359.093 166.744C359.093 167.437 358.821 167.987 358.277 168.392C357.733 168.797 357.002 169 356.085 169H351.941ZM353.173 167.944H355.925C356.512 167.944 356.976 167.821 357.317 167.576C357.658 167.331 357.829 166.989 357.829 166.552C357.829 166.147 357.648 165.832 357.285 165.608C356.933 165.384 356.426 165.272 355.765 165.272H353.173V167.944ZM353.173 164.28H355.717C356.229 164.28 356.634 164.168 356.933 163.944C357.242 163.709 357.397 163.379 357.397 162.952C357.397 162.6 357.253 162.317 356.965 162.104C356.677 161.891 356.272 161.784 355.749 161.784H353.173V164.28ZM365.364 169.192C364.169 169.192 363.161 168.771 362.34 167.928C361.529 167.075 361.124 166.056 361.124 164.872C361.124 163.688 361.529 162.675 362.34 161.832C363.161 160.979 364.169 160.552 365.364 160.552C366.644 160.552 367.748 161.043 368.676 162.024L367.892 162.856C367.124 162.045 366.276 161.64 365.348 161.64C364.516 161.64 363.812 161.955 363.236 162.584C362.671 163.203 362.388 163.965 362.388 164.872C362.388 165.768 362.676 166.531 363.252 167.16C363.839 167.779 364.564 168.088 365.428 168.088C366.313 168.088 367.145 167.672 367.924 166.84L368.74 167.592C367.78 168.659 366.655 169.192 365.364 169.192ZM378.201 169.192C377.07 169.192 376.142 168.829 375.417 168.104C374.691 167.379 374.275 166.467 374.169 165.368H372.329V169H371.097V160.728H372.329V164.328H374.169C374.297 163.251 374.723 162.355 375.449 161.64C376.185 160.915 377.113 160.552 378.233 160.552C379.449 160.552 380.43 160.968 381.177 161.8C381.934 162.632 382.313 163.656 382.313 164.872C382.313 166.067 381.934 167.085 381.177 167.928C380.419 168.771 379.427 169.192 378.201 169.192ZM378.233 168.088C379.097 168.088 379.779 167.784 380.281 167.176C380.782 166.557 381.033 165.789 381.033 164.872C381.033 163.955 380.771 163.192 380.249 162.584C379.726 161.965 379.043 161.656 378.201 161.656C377.347 161.656 376.67 161.965 376.169 162.584C375.667 163.192 375.417 163.955 375.417 164.872C375.417 165.789 375.673 166.557 376.185 167.176C376.707 167.784 377.39 168.088 378.233 168.088ZM389.971 169V160.728H391.203V167.272L396.115 160.728H397.315V169H396.083V162.456L391.155 169H389.971ZM400.385 169V160.728H401.617V164.296H406.385V160.728H407.617V169H406.385V165.384H401.617V169H400.385ZM415.665 171.56V168.328C415.004 168.893 414.316 169.176 413.601 169.176C412.598 169.176 411.788 168.792 411.169 168.024C410.55 167.245 410.241 166.184 410.241 164.84C410.241 163.517 410.55 162.472 411.169 161.704C411.788 160.936 412.598 160.552 413.601 160.552C414.316 160.552 415.004 160.851 415.665 161.448V157.8H416.913V161.448C417.574 160.851 418.262 160.552 418.977 160.552C419.99 160.552 420.806 160.941 421.425 161.72C422.044 162.488 422.353 163.539 422.353 164.872C422.353 166.195 422.038 167.245 421.409 168.024C420.79 168.792 419.98 169.176 418.977 169.176C418.518 169.176 418.14 169.107 417.841 168.968C417.553 168.819 417.244 168.605 416.913 168.328V171.56H415.665ZM413.857 168.088C414.55 168.088 415.153 167.816 415.665 167.272V162.472C415.153 161.928 414.55 161.656 413.857 161.656C413.089 161.656 412.508 161.944 412.113 162.52C411.718 163.096 411.521 163.891 411.521 164.904C411.521 167.027 412.3 168.088 413.857 168.088ZM418.737 168.088C420.294 168.088 421.073 167.016 421.073 164.872C421.073 163.869 420.876 163.085 420.481 162.52C420.086 161.944 419.505 161.656 418.737 161.656C418.044 161.656 417.436 161.928 416.913 162.472V167.272C417.436 167.816 418.044 168.088 418.737 168.088ZM431.842 167.928C431.01 168.771 429.981 169.192 428.754 169.192C427.527 169.192 426.503 168.771 425.682 167.928C424.871 167.085 424.466 166.067 424.466 164.872C424.466 163.688 424.877 162.675 425.698 161.832C426.53 160.979 427.559 160.552 428.786 160.552C430.013 160.552 431.037 160.973 431.858 161.816C432.679 162.659 433.09 163.677 433.09 164.872C433.09 166.056 432.674 167.075 431.842 167.928ZM428.786 168.088C429.671 168.088 430.397 167.779 430.962 167.16C431.538 166.541 431.826 165.779 431.826 164.872C431.826 163.976 431.527 163.213 430.93 162.584C430.343 161.955 429.618 161.64 428.754 161.64C427.869 161.64 427.143 161.955 426.578 162.584C426.013 163.203 425.73 163.965 425.73 164.872C425.73 165.768 426.023 166.531 426.61 167.16C427.197 167.779 427.922 168.088 428.786 168.088ZM435.642 171.56V160.728H436.874V162.392C437.706 161.165 438.762 160.552 440.042 160.552C441.098 160.552 442.02 160.947 442.81 161.736C443.599 162.515 443.994 163.56 443.994 164.872C443.994 166.163 443.599 167.203 442.81 167.992C442.02 168.781 441.098 169.176 440.042 169.176C438.74 169.176 437.684 168.589 436.874 167.416V171.56H435.642ZM439.818 168.072C440.65 168.072 441.343 167.784 441.898 167.208C442.452 166.621 442.73 165.837 442.73 164.856C442.73 163.907 442.447 163.139 441.882 162.552C441.316 161.955 440.628 161.656 439.818 161.656C439.018 161.656 438.319 161.96 437.722 162.568C437.124 163.176 436.826 163.944 436.826 164.872C436.826 165.8 437.124 166.568 437.722 167.176C438.319 167.773 439.018 168.072 439.818 168.072ZM446.587 169V160.728H447.755L450.843 165.08L453.931 160.728H455.115V169H453.867V162.696L450.811 166.888L447.787 162.696V169H446.587ZM460.652 169.176C459.809 169.176 459.084 168.947 458.476 168.488C457.868 168.029 457.564 167.389 457.564 166.568C457.564 165.704 457.884 165.037 458.524 164.568C459.164 164.099 460.023 163.864 461.1 163.864C461.953 163.864 462.796 163.981 463.628 164.216V163.96C463.628 163.235 463.415 162.68 462.988 162.296C462.561 161.912 461.959 161.72 461.18 161.72C460.369 161.72 459.532 161.917 458.668 162.312L458.3 161.304C459.324 160.835 460.327 160.6 461.308 160.6C462.481 160.6 463.372 160.904 463.98 161.512C464.556 162.088 464.844 162.899 464.844 163.944V169H463.628V167.768C462.892 168.707 461.9 169.176 460.652 169.176ZM460.892 168.184C461.66 168.184 462.311 167.976 462.844 167.56C463.377 167.144 463.644 166.611 463.644 165.96V165.192C462.833 164.957 462.028 164.84 461.228 164.84C460.471 164.84 459.879 164.995 459.452 165.304C459.025 165.603 458.812 166.013 458.812 166.536C458.812 167.037 459.009 167.437 459.404 167.736C459.809 168.035 460.305 168.184 460.892 168.184ZM474.909 171.064V169H467.773V160.728H469.005V167.912H473.645V160.728H474.877V167.912H476.125L475.933 171.064H474.909ZM478.14 169V160.728H479.372V167.272L484.284 160.728H485.484V169H484.252V162.456L479.324 169H478.14ZM495.658 169.192C494.527 169.192 493.599 168.829 492.874 168.104C492.149 167.379 491.733 166.467 491.626 165.368H489.786V169H488.554V160.728H489.786V164.328H491.626C491.754 163.251 492.181 162.355 492.906 161.64C493.642 160.915 494.57 160.552 495.69 160.552C496.906 160.552 497.887 160.968 498.634 161.8C499.391 162.632 499.77 163.656 499.77 164.872C499.77 166.067 499.391 167.085 498.634 167.928C497.877 168.771 496.885 169.192 495.658 169.192ZM495.69 168.088C496.554 168.088 497.237 167.784 497.738 167.176C498.239 166.557 498.49 165.789 498.49 164.872C498.49 163.955 498.229 163.192 497.706 162.584C497.183 161.965 496.501 161.656 495.658 161.656C494.805 161.656 494.127 161.965 493.626 162.584C493.125 163.192 492.874 163.955 492.874 164.872C492.874 165.789 493.13 166.557 493.642 167.176C494.165 167.784 494.847 168.088 495.69 168.088ZM514.292 167.928C513.46 168.771 512.431 169.192 511.204 169.192C509.978 169.192 508.954 168.771 508.132 167.928C507.322 167.085 506.916 166.067 506.916 164.872C506.916 163.688 507.327 162.675 508.148 161.832C508.98 160.979 510.01 160.552 511.236 160.552C512.463 160.552 513.487 160.973 514.308 161.816C515.13 162.659 515.54 163.677 515.54 164.872C515.54 166.056 515.124 167.075 514.292 167.928ZM511.236 168.088C512.122 168.088 512.847 167.779 513.412 167.16C513.988 166.541 514.276 165.779 514.276 164.872C514.276 163.976 513.978 163.213 513.38 162.584C512.794 161.955 512.068 161.64 511.204 161.64C510.319 161.64 509.594 161.955 509.028 162.584C508.463 163.203 508.18 163.965 508.18 164.872C508.18 165.768 508.474 166.531 509.06 167.16C509.647 167.779 510.372 168.088 511.236 168.088ZM523.209 169V160.728H530.377V169H529.145V161.816H524.441V169H523.209ZM533.451 171.56V160.728H534.683V162.392C535.515 161.165 536.571 160.552 537.851 160.552C538.907 160.552 539.83 160.947 540.619 161.736C541.408 162.515 541.803 163.56 541.803 164.872C541.803 166.163 541.408 167.203 540.619 167.992C539.83 168.781 538.907 169.176 537.851 169.176C536.55 169.176 535.494 168.589 534.683 167.416V171.56H533.451ZM537.627 168.072C538.459 168.072 539.152 167.784 539.707 167.208C540.262 166.621 540.539 165.837 540.539 164.856C540.539 163.907 540.256 163.139 539.691 162.552C539.126 161.955 538.438 161.656 537.627 161.656C536.827 161.656 536.128 161.96 535.531 162.568C534.934 163.176 534.635 163.944 534.635 164.872C534.635 165.8 534.934 166.568 535.531 167.176C536.128 167.773 536.827 168.072 537.627 168.072ZM548.012 169.192C546.849 169.192 545.868 168.792 545.068 167.992C544.279 167.181 543.884 166.141 543.884 164.872C543.884 163.667 544.263 162.648 545.02 161.816C545.777 160.973 546.721 160.552 547.852 160.552C549.036 160.552 549.975 160.968 550.668 161.8C551.361 162.632 551.708 163.677 551.708 164.936C551.708 165.096 551.703 165.24 551.692 165.368H545.132C545.217 166.211 545.532 166.883 546.076 167.384C546.631 167.875 547.287 168.12 548.044 168.12C549.036 168.12 549.905 167.731 550.652 166.952L551.42 167.64C550.492 168.675 549.356 169.192 548.012 169.192ZM545.132 164.376H550.46C550.385 163.576 550.119 162.915 549.66 162.392C549.212 161.859 548.599 161.592 547.82 161.592C547.116 161.592 546.513 161.853 546.012 162.376C545.511 162.899 545.217 163.565 545.132 164.376ZM554.185 169V160.728H561.353V169H560.121V161.816H555.417V169H554.185ZM571.291 167.928C570.459 168.771 569.429 169.192 568.203 169.192C566.976 169.192 565.952 168.771 565.131 167.928C564.32 167.085 563.915 166.067 563.915 164.872C563.915 163.688 564.325 162.675 565.147 161.832C565.979 160.979 567.008 160.552 568.235 160.552C569.461 160.552 570.485 160.973 571.307 161.816C572.128 162.659 572.539 163.677 572.539 164.872C572.539 166.056 572.123 167.075 571.291 167.928ZM568.235 168.088C569.12 168.088 569.845 167.779 570.411 167.16C570.987 166.541 571.275 165.779 571.275 164.872C571.275 163.976 570.976 163.213 570.379 162.584C569.792 161.955 569.067 161.64 568.203 161.64C567.317 161.64 566.592 161.955 566.027 162.584C565.461 163.203 565.179 163.965 565.179 164.872C565.179 165.768 565.472 166.531 566.059 167.16C566.645 167.779 567.371 168.088 568.235 168.088ZM573.874 171.064V167.912H574.77C575.506 166.557 575.874 164.643 575.874 162.168V160.728H581.762V167.912H583.01L582.818 171.064H581.794V169H575.106L574.882 171.064H573.874ZM576.082 167.912H580.53V161.816H577.058V162.968C577.058 165.048 576.733 166.696 576.082 167.912ZM587.484 169.176C586.641 169.176 585.916 168.947 585.308 168.488C584.7 168.029 584.396 167.389 584.396 166.568C584.396 165.704 584.716 165.037 585.356 164.568C585.996 164.099 586.854 163.864 587.932 163.864C588.785 163.864 589.628 163.981 590.46 164.216V163.96C590.46 163.235 590.246 162.68 589.82 162.296C589.393 161.912 588.79 161.72 588.012 161.72C587.201 161.72 586.364 161.917 585.5 162.312L585.132 161.304C586.156 160.835 587.158 160.6 588.14 160.6C589.313 160.6 590.204 160.904 590.812 161.512C591.388 162.088 591.676 162.899 591.676 163.944V169H590.46V167.768C589.724 168.707 588.732 169.176 587.484 169.176ZM587.724 168.184C588.492 168.184 589.142 167.976 589.676 167.56C590.209 167.144 590.476 166.611 590.476 165.96V165.192C589.665 164.957 588.86 164.84 588.06 164.84C587.302 164.84 586.71 164.995 586.284 165.304C585.857 165.603 585.644 166.013 585.644 166.536C585.644 167.037 585.841 167.437 586.236 167.736C586.641 168.035 587.137 168.184 587.724 168.184ZM594.605 169V160.728H598.605C599.427 160.728 600.083 160.915 600.573 161.288C601.064 161.661 601.309 162.163 601.309 162.792C601.309 163.677 600.851 164.312 599.933 164.696C601.149 165.027 601.757 165.709 601.757 166.744C601.757 167.437 601.485 167.987 600.941 168.392C600.397 168.797 599.667 169 598.749 169H594.605ZM595.837 167.944H598.589C599.176 167.944 599.64 167.821 599.981 167.576C600.323 167.331 600.493 166.989 600.493 166.552C600.493 166.147 600.312 165.832 599.949 165.608C599.597 165.384 599.091 165.272 598.429 165.272H595.837V167.944ZM595.837 164.28H598.381C598.893 164.28 599.299 164.168 599.597 163.944C599.907 163.709 600.061 163.379 600.061 162.952C600.061 162.6 599.917 162.317 599.629 162.104C599.341 161.891 598.936 161.784 598.413 161.784H595.837V164.28ZM606.764 169.176C605.922 169.176 605.196 168.947 604.588 168.488C603.98 168.029 603.676 167.389 603.676 166.568C603.676 165.704 603.996 165.037 604.636 164.568C605.276 164.099 606.135 163.864 607.212 163.864C608.066 163.864 608.908 163.981 609.74 164.216V163.96C609.74 163.235 609.527 162.68 609.1 162.296C608.674 161.912 608.071 161.72 607.292 161.72C606.482 161.72 605.644 161.917 604.78 162.312L604.412 161.304C605.436 160.835 606.439 160.6 607.42 160.6C608.594 160.6 609.484 160.904 610.092 161.512C610.668 162.088 610.956 162.899 610.956 163.944V169H609.74V167.768C609.004 168.707 608.012 169.176 606.764 169.176ZM607.004 168.184C607.772 168.184 608.423 167.976 608.956 167.56C609.49 167.144 609.756 166.611 609.756 165.96V165.192C608.946 164.957 608.14 164.84 607.34 164.84C606.583 164.84 605.991 164.995 605.564 165.304C605.138 165.603 604.924 166.013 604.924 166.536C604.924 167.037 605.122 167.437 605.516 167.736C605.922 168.035 606.418 168.184 607.004 168.184ZM615.886 169V161.816H612.926V160.728H620.094V161.816H617.134V169H615.886ZM625.822 169.192C624.659 169.192 623.678 168.792 622.878 167.992C622.089 167.181 621.694 166.141 621.694 164.872C621.694 163.667 622.073 162.648 622.83 161.816C623.587 160.973 624.531 160.552 625.662 160.552C626.846 160.552 627.785 160.968 628.478 161.8C629.171 162.632 629.518 163.677 629.518 164.936C629.518 165.096 629.513 165.24 629.502 165.368H622.942C623.027 166.211 623.342 166.883 623.886 167.384C624.441 167.875 625.097 168.12 625.854 168.12C626.846 168.12 627.715 167.731 628.462 166.952L629.23 167.64C628.302 168.675 627.166 169.192 625.822 169.192ZM622.942 164.376H628.27C628.195 163.576 627.929 162.915 627.47 162.392C627.022 161.859 626.409 161.592 625.63 161.592C624.926 161.592 624.323 161.853 623.822 162.376C623.321 162.899 623.027 163.565 622.942 164.376ZM631.595 169.128C631.275 169.128 630.944 169.085 630.603 169L630.747 167.944C630.992 168.019 631.189 168.056 631.339 168.056C631.573 168.056 631.765 168.029 631.915 167.976C632.064 167.912 632.224 167.757 632.395 167.512C632.576 167.256 632.715 166.899 632.811 166.44C632.907 165.981 632.987 165.331 633.051 164.488C633.125 163.645 633.163 162.621 633.163 161.416V160.728H639.019V169H637.787V161.816H634.331V162.008C634.331 163.267 634.283 164.339 634.187 165.224C634.091 166.109 633.968 166.803 633.819 167.304C633.68 167.805 633.483 168.195 633.227 168.472C632.971 168.749 632.72 168.925 632.475 169C632.24 169.085 631.947 169.128 631.595 169.128ZM641.36 169L643.888 165.8C643.237 165.651 642.704 165.357 642.288 164.92C641.883 164.483 641.68 163.944 641.68 163.304C641.68 162.536 641.957 161.917 642.512 161.448C643.067 160.968 643.829 160.728 644.8 160.728H648.688V169H647.456V165.992H645.168C645.072 166.12 644.741 166.557 644.176 167.304C643.611 168.051 643.179 168.616 642.88 169H641.36ZM644.896 164.952H647.456V161.816H644.864C644.256 161.816 643.776 161.955 643.424 162.232C643.083 162.499 642.912 162.872 642.912 163.352C642.912 163.843 643.093 164.232 643.456 164.52C643.829 164.808 644.309 164.952 644.896 164.952ZM651.008 169L654.256 164.792L651.136 160.728H652.544L654.992 163.928L657.44 160.728H658.816L655.68 164.76L658.944 169H657.52L654.96 165.624L652.384 169H651.008Z" fill="#CECECE"/>
<path d="M195.36 139V111H218.72V139H212.56V116.56H201.52V139H195.36ZM224.798 145.4V117.56H230.878V120.64C232.585 118.32 234.811 117.16 237.558 117.16C240.225 117.16 242.518 118.16 244.438 120.16C246.358 122.16 247.318 124.88 247.318 128.32C247.318 131.733 246.358 134.44 244.438 136.44C242.545 138.413 240.251 139.4 237.558 139.4C234.891 139.4 232.665 138.333 230.878 136.2V145.4H224.798ZM232.278 132.6C233.291 133.693 234.531 134.24 235.998 134.24C237.465 134.24 238.705 133.693 239.718 132.6C240.731 131.48 241.238 130.027 241.238 128.24C241.238 126.507 240.731 125.093 239.718 124C238.705 122.88 237.465 122.32 235.998 122.32C234.531 122.32 233.291 122.88 232.278 124C231.291 125.093 230.798 126.533 230.798 128.32C230.798 130.053 231.291 131.48 232.278 132.6ZM261.95 139.48C258.697 139.48 256.017 138.453 253.91 136.4C251.804 134.32 250.75 131.627 250.75 128.32C250.75 125.2 251.75 122.56 253.75 120.4C255.75 118.24 258.284 117.16 261.35 117.16C264.737 117.16 267.324 118.28 269.11 120.52C270.897 122.76 271.79 125.52 271.79 128.8C271.79 129.12 271.764 129.653 271.71 130.4H256.79C257.084 131.76 257.684 132.8 258.59 133.52C259.497 134.24 260.644 134.6 262.03 134.6C263.924 134.6 265.657 133.867 267.23 132.4L270.71 135.48C268.55 138.147 265.63 139.48 261.95 139.48ZM256.71 126.6H265.87C265.684 125.213 265.19 124.107 264.39 123.28C263.617 122.453 262.604 122.04 261.35 122.04C260.124 122.04 259.097 122.453 258.27 123.28C257.47 124.08 256.95 125.187 256.71 126.6ZM295.802 117.56V139H289.722V122.76H282.402V139H276.322V117.56H295.802ZM320.043 136.24C317.83 138.4 315.07 139.48 311.763 139.48C308.457 139.48 305.697 138.413 303.483 136.28C301.297 134.12 300.203 131.467 300.203 128.32C300.203 125.2 301.31 122.56 303.523 120.4C305.763 118.24 308.537 117.16 311.843 117.16C315.15 117.16 317.897 118.24 320.083 120.4C322.297 122.533 323.403 125.173 323.403 128.32C323.403 131.44 322.283 134.08 320.043 136.24ZM311.843 134.24C313.523 134.24 314.87 133.68 315.883 132.56C316.897 131.413 317.403 130 317.403 128.32C317.403 126.693 316.87 125.307 315.803 124.16C314.763 122.987 313.417 122.4 311.763 122.4C310.083 122.4 308.737 122.973 307.723 124.12C306.71 125.24 306.203 126.64 306.203 128.32C306.203 129.947 306.723 131.347 307.763 132.52C308.83 133.667 310.19 134.24 311.843 134.24ZM333.966 133.8H341.286V122.76H335.566V123.24C335.513 127.853 334.979 131.373 333.966 133.8ZM344.446 139H331.006L330.566 144.04H325.446V133.8H327.766C329.153 130.84 329.846 126.04 329.846 119.4V117.56H347.366V133.8H350.286L349.566 144.04H344.446V139ZM359.667 139.4C357.561 139.4 355.801 138.813 354.387 137.64C353.001 136.467 352.307 134.84 352.307 132.76C352.307 130.493 353.081 128.787 354.627 127.64C356.201 126.493 358.307 125.92 360.947 125.92C362.734 125.92 364.481 126.213 366.187 126.8V126.44C366.187 123.827 364.654 122.52 361.587 122.52C359.747 122.52 357.774 122.907 355.667 123.68L354.147 119.04C356.761 117.893 359.534 117.32 362.467 117.32C365.694 117.32 368.107 118.12 369.707 119.72C371.254 121.267 372.027 123.547 372.027 126.56V139H366.147V136.68C364.521 138.493 362.361 139.4 359.667 139.4ZM361.507 135.2C362.921 135.2 364.067 134.853 364.947 134.16C365.827 133.44 366.267 132.533 366.267 131.44V130.36C365.121 129.827 363.827 129.56 362.387 129.56C361.054 129.56 360.014 129.827 359.267 130.36C358.547 130.867 358.187 131.613 358.187 132.6C358.187 133.4 358.494 134.04 359.107 134.52C359.721 134.973 360.521 135.2 361.507 135.2ZM377.259 117.56H389.019C391.206 117.56 392.939 118.04 394.219 119C395.526 119.96 396.179 121.267 396.179 122.92C396.179 125.16 395.046 126.773 392.779 127.76C395.579 128.613 396.979 130.413 396.979 133.16C396.979 134.973 396.259 136.4 394.819 137.44C393.406 138.48 391.459 139 388.979 139H377.259V117.56ZM383.259 126.16H387.539C388.366 126.16 388.992 125.96 389.419 125.56C389.872 125.16 390.099 124.64 390.099 124C390.099 123.44 389.886 122.973 389.459 122.6C389.059 122.227 388.446 122.04 387.619 122.04H383.259V126.16ZM383.259 134.24H388.059C389.899 134.24 390.819 133.52 390.819 132.08C390.819 130.693 389.846 130 387.899 130H383.259V134.24ZM407.323 139.4C405.217 139.4 403.457 138.813 402.043 137.64C400.657 136.467 399.963 134.84 399.963 132.76C399.963 130.493 400.737 128.787 402.283 127.64C403.857 126.493 405.963 125.92 408.603 125.92C410.39 125.92 412.137 126.213 413.843 126.8V126.44C413.843 123.827 412.31 122.52 409.243 122.52C407.403 122.52 405.43 122.907 403.323 123.68L401.803 119.04C404.417 117.893 407.19 117.32 410.123 117.32C413.35 117.32 415.763 118.12 417.363 119.72C418.91 121.267 419.683 123.547 419.683 126.56V139H413.803V136.68C412.177 138.493 410.017 139.4 407.323 139.4ZM409.163 135.2C410.577 135.2 411.723 134.853 412.603 134.16C413.483 133.44 413.923 132.533 413.923 131.44V130.36C412.777 129.827 411.483 129.56 410.043 129.56C408.71 129.56 407.67 129.827 406.923 130.36C406.203 130.867 405.843 131.613 405.843 132.6C405.843 133.4 406.15 134.04 406.763 134.52C407.377 134.973 408.177 135.2 409.163 135.2ZM441.675 117.56V122.76H435.315V139H429.155V122.76H422.795V117.56H441.675ZM455.153 139.48C451.9 139.48 449.22 138.453 447.113 136.4C445.007 134.32 443.953 131.627 443.953 128.32C443.953 125.2 444.953 122.56 446.953 120.4C448.953 118.24 451.487 117.16 454.553 117.16C457.94 117.16 460.527 118.28 462.313 120.52C464.1 122.76 464.993 125.52 464.993 128.8C464.993 129.12 464.967 129.653 464.913 130.4H449.993C450.287 131.76 450.887 132.8 451.793 133.52C452.7 134.24 453.847 134.6 455.233 134.6C457.127 134.6 458.86 133.867 460.433 132.4L463.913 135.48C461.753 138.147 458.833 139.48 455.153 139.48ZM449.913 126.6H459.073C458.887 125.213 458.393 124.107 457.593 123.28C456.82 122.453 455.807 122.04 454.553 122.04C453.327 122.04 452.3 122.453 451.473 123.28C450.673 124.08 450.153 125.187 449.913 126.6ZM472.085 117.56H489.325V139H483.245V122.76H477.805C477.805 125.587 477.698 127.973 477.485 129.92C477.271 131.867 476.978 133.453 476.605 134.68C476.231 135.907 475.711 136.853 475.045 137.52C474.378 138.187 473.658 138.64 472.885 138.88C472.111 139.12 471.151 139.24 470.005 139.24C468.911 139.24 467.885 139.12 466.925 138.88L467.325 133.96C467.805 134.04 468.231 134.08 468.605 134.08C469.245 134.08 469.751 133.933 470.125 133.64C470.498 133.32 470.845 132.627 471.165 131.56C471.511 130.467 471.751 128.8 471.885 126.56C472.018 124.293 472.085 121.293 472.085 117.56ZM514.719 117.56V139H508.839V126.52L500.479 139H494.759V117.56H500.639V130.08L508.999 117.56H514.719Z" fill="white"/>
<path d="M193.8 290V276H205.22V290H202.76V278.22H196.26V290H193.8ZM213.56 290.24C211.96 290.24 210.626 289.707 209.56 288.64C208.493 287.573 207.96 286.273 207.96 284.74C207.96 283.207 208.5 281.907 209.58 280.84C210.66 279.76 212 279.22 213.6 279.22C215.2 279.22 216.533 279.753 217.6 280.82C218.68 281.887 219.22 283.193 219.22 284.74C219.22 286.26 218.68 287.56 217.6 288.64C216.52 289.707 215.173 290.24 213.56 290.24ZM213.6 288.14C214.56 288.14 215.333 287.813 215.92 287.16C216.506 286.507 216.8 285.7 216.8 284.74C216.8 283.793 216.493 282.993 215.88 282.34C215.266 281.673 214.493 281.34 213.56 281.34C212.613 281.34 211.846 281.667 211.26 282.32C210.673 282.973 210.38 283.78 210.38 284.74C210.38 285.673 210.686 286.473 211.3 287.14C211.913 287.807 212.68 288.14 213.6 288.14ZM226.564 290.24C225.004 290.24 223.704 289.713 222.664 288.66C221.624 287.593 221.104 286.3 221.104 284.78V284.74C221.104 283.22 221.624 281.92 222.664 280.84C223.717 279.76 225.024 279.22 226.584 279.22C228.291 279.22 229.697 279.827 230.804 281.04L229.304 282.66C228.464 281.78 227.551 281.34 226.564 281.34C225.697 281.34 224.971 281.667 224.384 282.32C223.811 282.973 223.524 283.767 223.524 284.7V284.74C223.524 285.7 223.817 286.507 224.404 287.16C225.004 287.813 225.764 288.14 226.684 288.14C227.657 288.14 228.571 287.7 229.424 286.82L230.884 288.26C230.311 288.9 229.684 289.393 229.004 289.74C228.337 290.073 227.524 290.24 226.564 290.24ZM233.012 290V279.44H235.412L238.712 284.34L242.032 279.44H244.432V290H241.992V282.96L238.672 287.7L235.372 283V290H233.012ZM252.485 290.24C250.885 290.24 249.552 289.707 248.485 288.64C247.419 287.573 246.885 286.273 246.885 284.74C246.885 283.207 247.425 281.907 248.505 280.84C249.585 279.76 250.925 279.22 252.525 279.22C254.125 279.22 255.459 279.753 256.525 280.82C257.605 281.887 258.145 283.193 258.145 284.74C258.145 286.26 257.605 287.56 256.525 288.64C255.445 289.707 254.099 290.24 252.485 290.24ZM252.525 288.14C253.485 288.14 254.259 287.813 254.845 287.16C255.432 286.507 255.725 285.7 255.725 284.74C255.725 283.793 255.419 282.993 254.805 282.34C254.192 281.673 253.419 281.34 252.485 281.34C251.539 281.34 250.772 281.667 250.185 282.32C249.599 282.973 249.305 283.78 249.305 284.74C249.305 285.673 249.612 286.473 250.225 287.14C250.839 287.807 251.605 288.14 252.525 288.14ZM262.87 290V281.52H259.47V279.44H268.71V281.52H265.31V290H262.87ZM270.629 293.2V279.44H273.049V281.2C273.983 279.88 275.176 279.22 276.629 279.22C277.963 279.22 279.116 279.72 280.089 280.72C281.063 281.707 281.549 283.047 281.549 284.74C281.549 286.407 281.063 287.74 280.089 288.74C279.116 289.727 277.963 290.22 276.629 290.22C275.176 290.22 273.983 289.6 273.049 288.36V293.2H270.629ZM276.069 288.12C276.923 288.12 277.636 287.807 278.209 287.18C278.796 286.553 279.089 285.727 279.089 284.7C279.089 283.7 278.796 282.887 278.209 282.26C277.623 281.633 276.909 281.32 276.069 281.32C275.229 281.32 274.503 281.64 273.889 282.28C273.289 282.92 272.989 283.74 272.989 284.74C272.989 285.727 273.289 286.54 273.889 287.18C274.503 287.807 275.229 288.12 276.069 288.12ZM284.028 290V279.44H286.388V286.52C288.601 283.373 290.268 281.013 291.388 279.44H293.668V290H291.328V282.96L286.308 290H284.028ZM296.124 292.9L295.864 291.88C297.01 291.653 297.584 291.1 297.584 290.22C297.584 290.193 297.577 290.153 297.564 290.1C297.564 290.06 297.564 290.027 297.564 290H296.544V287.26H299.204V289.58C299.204 290.66 298.95 291.46 298.444 291.98C297.937 292.513 297.164 292.82 296.124 292.9ZM308.071 290V279.44H310.471V284.5L315.071 279.44H317.911L313.811 283.88L318.251 290H315.391L312.191 285.64L310.471 287.46V290H308.071ZM328.786 290H326.386V288.7C325.533 289.713 324.393 290.22 322.966 290.22C321.913 290.22 321.02 289.933 320.286 289.36C319.566 288.773 319.206 287.96 319.206 286.92C319.206 285.787 319.6 284.927 320.386 284.34C321.173 283.753 322.206 283.46 323.486 283.46C324.513 283.46 325.486 283.607 326.406 283.9V283.7C326.406 282.967 326.18 282.407 325.726 282.02C325.286 281.633 324.646 281.44 323.806 281.44C322.846 281.44 321.84 281.66 320.786 282.1L320.126 280.16C321.433 279.573 322.773 279.28 324.146 279.28C325.68 279.28 326.833 279.667 327.606 280.44C328.393 281.213 328.786 282.313 328.786 283.74V290ZM326.446 286.18V285.58C325.726 285.3 324.92 285.16 324.026 285.16C323.266 285.16 322.673 285.307 322.246 285.6C321.82 285.893 321.606 286.307 321.606 286.84C321.606 287.32 321.8 287.7 322.186 287.98C322.573 288.26 323.06 288.4 323.646 288.4C324.46 288.4 325.126 288.193 325.646 287.78C326.18 287.367 326.446 286.833 326.446 286.18ZM331.665 290V279.44H334.065V284.5L338.665 279.44H341.505L337.405 283.88L341.845 290H338.985L335.785 285.64L334.065 287.46V290H331.665ZM354.536 290.24C352.936 290.24 351.603 289.707 350.536 288.64C349.469 287.573 348.936 286.273 348.936 284.74C348.936 283.207 349.476 281.907 350.556 280.84C351.636 279.76 352.976 279.22 354.576 279.22C356.176 279.22 357.509 279.753 358.576 280.82C359.656 281.887 360.196 283.193 360.196 284.74C360.196 286.26 359.656 287.56 358.576 288.64C357.496 289.707 356.149 290.24 354.536 290.24ZM354.576 288.14C355.536 288.14 356.309 287.813 356.896 287.16C357.483 286.507 357.776 285.7 357.776 284.74C357.776 283.793 357.469 282.993 356.856 282.34C356.243 281.673 355.469 281.34 354.536 281.34C353.589 281.34 352.823 281.667 352.236 282.32C351.649 282.973 351.356 283.78 351.356 284.74C351.356 285.673 351.663 286.473 352.276 287.14C352.889 287.807 353.656 288.14 354.576 288.14ZM362.661 290V279.44H365.081V283.72H369.741V279.44H372.161V290H369.741V285.74H365.081V290H362.661ZM381.196 290V279.44H386.616C387.669 279.44 388.509 279.68 389.136 280.16C389.776 280.627 390.096 281.267 390.096 282.08C390.096 283.187 389.529 283.993 388.396 284.5C389.849 284.913 390.576 285.793 390.576 287.14C390.576 288.033 390.222 288.733 389.516 289.24C388.822 289.747 387.876 290 386.676 290H381.196ZM383.576 288.08H386.316C386.889 288.08 387.329 287.96 387.636 287.72C387.956 287.467 388.116 287.133 388.116 286.72C388.116 286.32 387.949 286.007 387.616 285.78C387.296 285.553 386.822 285.44 386.196 285.44H383.576V288.08ZM383.576 283.8H386.056C386.549 283.8 386.936 283.68 387.216 283.44C387.496 283.2 387.636 282.887 387.636 282.5C387.636 282.14 387.509 281.853 387.256 281.64C387.002 281.413 386.616 281.3 386.096 281.3H383.576V283.8ZM392.993 290V279.44H395.413V283.14H397.633C398.886 283.14 399.899 283.42 400.673 283.98C401.446 284.54 401.833 285.373 401.833 286.48C401.833 287.573 401.473 288.433 400.753 289.06C400.033 289.687 399.053 290 397.813 290H392.993ZM395.413 288.04H397.493C398.106 288.04 398.579 287.907 398.913 287.64C399.246 287.373 399.413 286.987 399.413 286.48C399.413 286.013 399.239 285.653 398.893 285.4C398.559 285.147 398.079 285.02 397.453 285.02H395.413V288.04ZM403.433 290V279.44H405.853V290H403.433ZM408.891 290V279.44H416.371V281.52H411.311V290H408.891ZM418.206 290.12C417.819 290.12 417.346 290.073 416.786 289.98L416.966 288C417.179 288.053 417.412 288.08 417.666 288.08C417.946 288.08 418.172 288.04 418.346 287.96C418.532 287.88 418.719 287.68 418.906 287.36C419.106 287.027 419.259 286.56 419.366 285.96C419.472 285.36 419.559 284.52 419.626 283.44C419.692 282.347 419.726 281.013 419.726 279.44H427.706V290H425.286V281.52H421.986C421.986 283.027 421.926 284.307 421.806 285.36C421.686 286.413 421.526 287.247 421.326 287.86C421.139 288.473 420.872 288.953 420.526 289.3C420.192 289.633 419.852 289.853 419.506 289.96C419.159 290.067 418.726 290.12 418.206 290.12ZM429.787 290L432.707 286.04C431.96 285.813 431.36 285.433 430.907 284.9C430.467 284.353 430.247 283.68 430.247 282.88C430.247 281.84 430.613 281.007 431.347 280.38C432.08 279.753 433.1 279.44 434.407 279.44H439.707V290H437.287V286.44H435.127L432.627 290H429.787ZM434.747 284.62H437.287V281.4H434.727C434.087 281.4 433.58 281.547 433.207 281.84C432.847 282.12 432.667 282.507 432.667 283C432.667 283.507 432.853 283.907 433.227 284.2C433.613 284.48 434.12 284.62 434.747 284.62ZM441.519 292.54V287.92H442.659C443.445 286.347 443.839 283.953 443.839 280.74V279.44H452.019V287.92H453.519L453.199 292.54H451.179V290H443.779L443.539 292.54H441.519ZM445.139 287.92H449.599V281.52H446.119V282.92C446.119 284.88 445.792 286.547 445.139 287.92ZM455.532 290V279.44H457.892V286.52C460.105 283.373 461.772 281.013 462.892 279.44H465.172V290H462.832V282.96L457.812 290H455.532ZM470.468 290V281.52H467.068V279.44H476.308V281.52H472.908V290H470.468Z" fill="white"/>
<path d="M192.2 333V327.8H193.56C194.747 325.453 195.34 322.18 195.34 317.98V316H205.1V327.8H206.84L206.5 333H204.46V330H194.6L194.36 333H192.2ZM196.18 327.8H202.64V318.22H197.7V319.82C197.7 323.087 197.193 325.747 196.18 327.8ZM213.594 330.24C212.048 330.24 210.754 329.727 209.714 328.7C208.688 327.673 208.174 326.347 208.174 324.72C208.174 323.187 208.661 321.887 209.634 320.82C210.608 319.753 211.841 319.22 213.334 319.22C214.934 319.22 216.174 319.767 217.054 320.86C217.948 321.94 218.394 323.287 218.394 324.9C218.394 325.193 218.381 325.42 218.354 325.58H210.594C210.728 326.42 211.068 327.08 211.614 327.56C212.161 328.027 212.834 328.26 213.634 328.26C214.674 328.26 215.628 327.84 216.494 327L217.914 328.26C216.821 329.58 215.381 330.24 213.594 330.24ZM210.574 323.98H215.994C215.914 323.167 215.641 322.5 215.174 321.98C214.708 321.46 214.088 321.2 213.314 321.2C212.581 321.2 211.968 321.46 211.474 321.98C210.981 322.487 210.681 323.153 210.574 323.98ZM220.745 330.12C220.358 330.12 219.885 330.073 219.325 329.98L219.505 328C219.718 328.053 219.951 328.08 220.205 328.08C220.485 328.08 220.711 328.04 220.885 327.96C221.071 327.88 221.258 327.68 221.445 327.36C221.645 327.027 221.798 326.56 221.905 325.96C222.011 325.36 222.098 324.52 222.165 323.44C222.231 322.347 222.265 321.013 222.265 319.44H230.245V330H227.825V321.52H224.525C224.525 323.027 224.465 324.307 224.345 325.36C224.225 326.413 224.065 327.247 223.865 327.86C223.678 328.473 223.411 328.953 223.065 329.3C222.731 329.633 222.391 329.853 222.045 329.96C221.698 330.067 221.265 330.12 220.745 330.12ZM233.286 330V319.44H235.646V326.52C237.859 323.373 239.526 321.013 240.646 319.44H242.926V330H240.586V322.96L235.566 330H233.286ZM250.841 330.24C249.281 330.24 247.981 329.713 246.941 328.66C245.901 327.593 245.381 326.3 245.381 324.78V324.74C245.381 323.22 245.901 321.92 246.941 320.84C247.995 319.76 249.301 319.22 250.861 319.22C252.568 319.22 253.975 319.827 255.081 321.04L253.581 322.66C252.741 321.78 251.828 321.34 250.841 321.34C249.975 321.34 249.248 321.667 248.661 322.32C248.088 322.973 247.801 323.767 247.801 324.7V324.74C247.801 325.7 248.095 326.507 248.681 327.16C249.281 327.813 250.041 328.14 250.961 328.14C251.935 328.14 252.848 327.7 253.701 326.82L255.161 328.26C254.588 328.9 253.961 329.393 253.281 329.74C252.615 330.073 251.801 330.24 250.841 330.24ZM257.29 330V319.44H259.71V323.14H262.13C263.383 323.14 264.396 323.42 265.17 323.98C265.943 324.54 266.33 325.373 266.33 326.48C266.33 327.573 265.97 328.433 265.25 329.06C264.53 329.687 263.55 330 262.31 330H257.29ZM259.71 328.04H261.99C262.603 328.04 263.076 327.907 263.41 327.64C263.743 327.373 263.91 326.987 263.91 326.48C263.91 326.013 263.736 325.653 263.39 325.4C263.056 325.147 262.576 325.02 261.95 325.02H259.71V328.04ZM274.438 330V319.44H276.798V326.52C279.011 323.373 280.678 321.013 281.798 319.44H284.078V330H281.738V322.96L276.718 330H274.438ZM295.27 333.26C294.39 333.26 293.557 333.047 292.77 332.62L293.59 330.82C294.083 331.087 294.557 331.22 295.01 331.22C295.357 331.22 295.643 331.127 295.87 330.94C296.097 330.767 296.31 330.453 296.51 330L292.11 319.44H294.69L297.69 327.28L300.43 319.44H302.95L298.75 330.3C298.323 331.38 297.85 332.14 297.33 332.58C296.81 333.033 296.123 333.26 295.27 333.26ZM308.624 330.24C306.811 330.24 305.271 329.7 304.004 328.62L305.144 327.02C306.131 327.86 307.237 328.28 308.464 328.28C309.024 328.28 309.497 328.147 309.884 327.88C310.271 327.6 310.464 327.247 310.464 326.82C310.464 326.42 310.277 326.1 309.904 325.86C309.531 325.62 309.004 325.5 308.324 325.5H307.024V323.76H308.324C308.884 323.76 309.331 323.633 309.664 323.38C310.011 323.113 310.184 322.78 310.184 322.38C310.184 322.02 310.017 321.733 309.684 321.52C309.364 321.293 308.951 321.18 308.444 321.18C307.271 321.18 306.271 321.54 305.444 322.26L304.364 320.74C305.524 319.727 306.957 319.22 308.664 319.22C309.824 319.22 310.771 319.487 311.504 320.02C312.237 320.553 312.604 321.233 312.604 322.06C312.604 323.18 312.051 323.98 310.944 324.46C312.224 324.913 312.864 325.767 312.864 327.02C312.864 327.927 312.471 328.693 311.684 329.32C310.897 329.933 309.877 330.24 308.624 330.24ZM315.375 330V319.44H317.795V323.72H322.455V319.44H324.875V330H322.455V325.74H317.795V330H315.375ZM336.775 330H334.375V328.7C333.521 329.713 332.381 330.22 330.955 330.22C329.901 330.22 329.008 329.933 328.275 329.36C327.555 328.773 327.195 327.96 327.195 326.92C327.195 325.787 327.588 324.927 328.375 324.34C329.161 323.753 330.195 323.46 331.475 323.46C332.501 323.46 333.475 323.607 334.395 323.9V323.7C334.395 322.967 334.168 322.407 333.715 322.02C333.275 321.633 332.635 321.44 331.795 321.44C330.835 321.44 329.828 321.66 328.775 322.1L328.115 320.16C329.421 319.573 330.761 319.28 332.135 319.28C333.668 319.28 334.821 319.667 335.595 320.44C336.381 321.213 336.775 322.313 336.775 323.74V330ZM334.435 326.18V325.58C333.715 325.3 332.908 325.16 332.015 325.16C331.255 325.16 330.661 325.307 330.235 325.6C329.808 325.893 329.595 326.307 329.595 326.84C329.595 327.32 329.788 327.7 330.175 327.98C330.561 328.26 331.048 328.4 331.635 328.4C332.448 328.4 333.115 328.193 333.635 327.78C334.168 327.367 334.435 326.833 334.435 326.18ZM339.653 330V319.44H345.073C346.126 319.44 346.966 319.68 347.593 320.16C348.233 320.627 348.553 321.267 348.553 322.08C348.553 323.187 347.986 323.993 346.853 324.5C348.306 324.913 349.033 325.793 349.033 327.14C349.033 328.033 348.679 328.733 347.973 329.24C347.279 329.747 346.333 330 345.133 330H339.653ZM342.033 328.08H344.773C345.346 328.08 345.786 327.96 346.093 327.72C346.413 327.467 346.573 327.133 346.573 326.72C346.573 326.32 346.406 326.007 346.073 325.78C345.753 325.553 345.279 325.44 344.653 325.44H342.033V328.08ZM342.033 323.8H344.513C345.006 323.8 345.393 323.68 345.673 323.44C345.953 323.2 346.093 322.887 346.093 322.5C346.093 322.14 345.966 321.853 345.713 321.64C345.459 321.413 345.073 321.3 344.553 321.3H342.033V323.8ZM360.31 330H357.91V328.7C357.056 329.713 355.916 330.22 354.49 330.22C353.436 330.22 352.543 329.933 351.81 329.36C351.09 328.773 350.73 327.96 350.73 326.92C350.73 325.787 351.123 324.927 351.91 324.34C352.696 323.753 353.73 323.46 355.01 323.46C356.036 323.46 357.01 323.607 357.93 323.9V323.7C357.93 322.967 357.703 322.407 357.25 322.02C356.81 321.633 356.17 321.44 355.33 321.44C354.37 321.44 353.363 321.66 352.31 322.1L351.65 320.16C352.956 319.573 354.296 319.28 355.67 319.28C357.203 319.28 358.356 319.667 359.13 320.44C359.916 321.213 360.31 322.313 360.31 323.74V330ZM357.97 326.18V325.58C357.25 325.3 356.443 325.16 355.55 325.16C354.79 325.16 354.196 325.307 353.77 325.6C353.343 325.893 353.13 326.307 353.13 326.84C353.13 327.32 353.323 327.7 353.71 327.98C354.096 328.26 354.583 328.4 355.17 328.4C355.983 328.4 356.65 328.193 357.17 327.78C357.703 327.367 357.97 326.833 357.97 326.18ZM370.108 317.48C369.561 317.973 368.868 318.22 368.028 318.22C367.188 318.22 366.488 317.973 365.928 317.48C365.368 316.973 365.021 316.293 364.888 315.44L366.368 315.16C366.648 316.067 367.201 316.52 368.028 316.52C368.855 316.52 369.408 316.067 369.688 315.16L371.148 315.44C371.015 316.293 370.668 316.973 370.108 317.48ZM363.188 330V319.44H365.548V326.52C367.761 323.373 369.428 321.013 370.548 319.44H372.828V330H370.488V322.96L365.468 330H363.188ZM375.284 332.9L375.024 331.88C376.17 331.653 376.744 331.1 376.744 330.22C376.744 330.193 376.737 330.153 376.724 330.1C376.724 330.06 376.724 330.027 376.724 330H375.704V327.26H378.364V329.58C378.364 330.66 378.11 331.46 377.604 331.98C377.097 332.513 376.324 332.82 375.284 332.9ZM387.231 330V319.44H394.711V321.52H389.651V330H387.231ZM395.405 332.54V327.92H396.545C397.332 326.347 397.725 323.953 397.725 320.74V319.44H405.905V327.92H407.405L407.085 332.54H405.065V330H397.665L397.425 332.54H395.405ZM399.025 327.92H403.485V321.52H400.005V322.92C400.005 324.88 399.679 326.547 399.025 327.92ZM414.258 330.24C412.712 330.24 411.418 329.727 410.378 328.7C409.352 327.673 408.838 326.347 408.838 324.72C408.838 323.187 409.325 321.887 410.298 320.82C411.272 319.753 412.505 319.22 413.998 319.22C415.598 319.22 416.838 319.767 417.718 320.86C418.612 321.94 419.058 323.287 419.058 324.9C419.058 325.193 419.045 325.42 419.018 325.58H411.258C411.392 326.42 411.732 327.08 412.278 327.56C412.825 328.027 413.498 328.26 414.298 328.26C415.338 328.26 416.292 327.84 417.158 327L418.578 328.26C417.485 329.58 416.045 330.24 414.258 330.24ZM411.238 323.98H416.658C416.578 323.167 416.305 322.5 415.838 321.98C415.372 321.46 414.752 321.2 413.978 321.2C413.245 321.2 412.632 321.46 412.138 321.98C411.645 322.487 411.345 323.153 411.238 323.98ZM427.485 330V319.44H429.905V323.72H434.565V319.44H436.985V330H434.565V325.74H429.905V330H427.485ZM448.884 330H446.484V328.7C445.631 329.713 444.491 330.22 443.064 330.22C442.011 330.22 441.117 329.933 440.384 329.36C439.664 328.773 439.304 327.96 439.304 326.92C439.304 325.787 439.697 324.927 440.484 324.34C441.271 323.753 442.304 323.46 443.584 323.46C444.611 323.46 445.584 323.607 446.504 323.9V323.7C446.504 322.967 446.277 322.407 445.824 322.02C445.384 321.633 444.744 321.44 443.904 321.44C442.944 321.44 441.937 321.66 440.884 322.1L440.224 320.16C441.531 319.573 442.871 319.28 444.244 319.28C445.777 319.28 446.931 319.667 447.704 320.44C448.491 321.213 448.884 322.313 448.884 323.74V330ZM446.544 326.18V325.58C445.824 325.3 445.017 325.16 444.124 325.16C443.364 325.16 442.771 325.307 442.344 325.6C441.917 325.893 441.704 326.307 441.704 326.84C441.704 327.32 441.897 327.7 442.284 327.98C442.671 328.26 443.157 328.4 443.744 328.4C444.557 328.4 445.224 328.193 445.744 327.78C446.277 327.367 446.544 326.833 446.544 326.18ZM458.682 317.48C458.136 317.973 457.442 318.22 456.602 318.22C455.762 318.22 455.062 317.973 454.502 317.48C453.942 316.973 453.596 316.293 453.462 315.44L454.942 315.16C455.222 316.067 455.776 316.52 456.602 316.52C457.429 316.52 457.982 316.067 458.262 315.16L459.722 315.44C459.589 316.293 459.242 316.973 458.682 317.48ZM451.762 330V319.44H454.122V326.52C456.336 323.373 458.002 321.013 459.122 319.44H461.402V330H459.062V322.96L454.042 330H451.762ZM466.698 330V321.52H463.298V319.44H472.538V321.52H469.138V330H466.698ZM474.458 330V319.44H476.818V326.52C479.031 323.373 480.698 321.013 481.818 319.44H484.098V330H481.758V322.96L476.738 330H474.458ZM493.129 330V319.44H502.549V330H500.129V321.52H495.549V330H493.129ZM505.59 333.2V319.44H508.01V321.2C508.944 319.88 510.137 319.22 511.59 319.22C512.924 319.22 514.077 319.72 515.05 320.72C516.024 321.707 516.51 323.047 516.51 324.74C516.51 326.407 516.024 327.74 515.05 328.74C514.077 329.727 512.924 330.22 511.59 330.22C510.137 330.22 508.944 329.6 508.01 328.36V333.2H505.59ZM511.03 328.12C511.884 328.12 512.597 327.807 513.17 327.18C513.757 326.553 514.05 325.727 514.05 324.7C514.05 323.7 513.757 322.887 513.17 322.26C512.584 321.633 511.87 321.32 511.03 321.32C510.19 321.32 509.464 321.64 508.85 322.28C508.25 322.92 507.95 323.74 507.95 324.74C507.95 325.727 508.25 326.54 508.85 327.18C509.464 327.807 510.19 328.12 511.03 328.12ZM523.829 330.24C522.282 330.24 520.989 329.727 519.949 328.7C518.922 327.673 518.409 326.347 518.409 324.72C518.409 323.187 518.895 321.887 519.869 320.82C520.842 319.753 522.075 319.22 523.569 319.22C525.169 319.22 526.409 319.767 527.289 320.86C528.182 321.94 528.629 323.287 528.629 324.9C528.629 325.193 528.615 325.42 528.589 325.58H520.829C520.962 326.42 521.302 327.08 521.849 327.56C522.395 328.027 523.069 328.26 523.869 328.26C524.909 328.26 525.862 327.84 526.729 327L528.149 328.26C527.055 329.58 525.615 330.24 523.829 330.24ZM520.809 323.98H526.229C526.149 323.167 525.875 322.5 525.409 321.98C524.942 321.46 524.322 321.2 523.549 321.2C522.815 321.2 522.202 321.46 521.709 321.98C521.215 322.487 520.915 323.153 520.809 323.98ZM531.059 330V319.44H540.479V330H538.059V321.52H533.479V330H531.059ZM548.54 330.24C546.94 330.24 545.607 329.707 544.54 328.64C543.473 327.573 542.94 326.273 542.94 324.74C542.94 323.207 543.48 321.907 544.56 320.84C545.64 319.76 546.98 319.22 548.58 319.22C550.18 319.22 551.513 319.753 552.58 320.82C553.66 321.887 554.2 323.193 554.2 324.74C554.2 326.26 553.66 327.56 552.58 328.64C551.5 329.707 550.153 330.24 548.54 330.24ZM548.58 328.14C549.54 328.14 550.313 327.813 550.9 327.16C551.487 326.507 551.78 325.7 551.78 324.74C551.78 323.793 551.473 322.993 550.86 322.34C550.247 321.673 549.473 321.34 548.54 321.34C547.593 321.34 546.827 321.667 546.24 322.32C545.653 322.973 545.36 323.78 545.36 324.74C545.36 325.673 545.667 326.473 546.28 327.14C546.893 327.807 547.66 328.14 548.58 328.14ZM555.445 332.54V327.92H556.585C557.371 326.347 557.765 323.953 557.765 320.74V319.44H565.945V327.92H567.445L567.125 332.54H565.105V330H557.705L557.465 332.54H555.445ZM559.065 327.92H563.525V321.52H560.045V322.92C560.045 324.88 559.718 326.547 559.065 327.92ZM578.318 330H575.918V328.7C575.064 329.713 573.924 330.22 572.498 330.22C571.444 330.22 570.551 329.933 569.818 329.36C569.098 328.773 568.738 327.96 568.738 326.92C568.738 325.787 569.131 324.927 569.918 324.34C570.704 323.753 571.738 323.46 573.018 323.46C574.044 323.46 575.018 323.607 575.938 323.9V323.7C575.938 322.967 575.711 322.407 575.258 322.02C574.818 321.633 574.178 321.44 573.338 321.44C572.378 321.44 571.371 321.66 570.318 322.1L569.658 320.16C570.964 319.573 572.304 319.28 573.678 319.28C575.211 319.28 576.364 319.667 577.138 320.44C577.924 321.213 578.318 322.313 578.318 323.74V330ZM575.978 326.18V325.58C575.258 325.3 574.451 325.16 573.558 325.16C572.798 325.16 572.204 325.307 571.778 325.6C571.351 325.893 571.138 326.307 571.138 326.84C571.138 327.32 571.331 327.7 571.718 327.98C572.104 328.26 572.591 328.4 573.178 328.4C573.991 328.4 574.658 328.193 575.178 327.78C575.711 327.367 575.978 326.833 575.978 326.18ZM581.196 330V319.44H586.616C587.669 319.44 588.509 319.68 589.136 320.16C589.776 320.627 590.096 321.267 590.096 322.08C590.096 323.187 589.529 323.993 588.396 324.5C589.849 324.913 590.576 325.793 590.576 327.14C590.576 328.033 590.222 328.733 589.516 329.24C588.822 329.747 587.876 330 586.676 330H581.196ZM583.576 328.08H586.316C586.889 328.08 587.329 327.96 587.636 327.72C587.956 327.467 588.116 327.133 588.116 326.72C588.116 326.32 587.949 326.007 587.616 325.78C587.296 325.553 586.822 325.44 586.196 325.44H583.576V328.08ZM583.576 323.8H586.056C586.549 323.8 586.936 323.68 587.216 323.44C587.496 323.2 587.636 322.887 587.636 322.5C587.636 322.14 587.509 321.853 587.256 321.64C587.002 321.413 586.616 321.3 586.096 321.3H583.576V323.8ZM601.853 330H599.453V328.7C598.599 329.713 597.459 330.22 596.033 330.22C594.979 330.22 594.086 329.933 593.353 329.36C592.633 328.773 592.273 327.96 592.273 326.92C592.273 325.787 592.666 324.927 593.453 324.34C594.239 323.753 595.273 323.46 596.553 323.46C597.579 323.46 598.553 323.607 599.473 323.9V323.7C599.473 322.967 599.246 322.407 598.793 322.02C598.353 321.633 597.713 321.44 596.873 321.44C595.913 321.44 594.906 321.66 593.853 322.1L593.193 320.16C594.499 319.573 595.839 319.28 597.213 319.28C598.746 319.28 599.899 319.667 600.673 320.44C601.459 321.213 601.853 322.313 601.853 323.74V330ZM599.513 326.18V325.58C598.793 325.3 597.986 325.16 597.093 325.16C596.333 325.16 595.739 325.307 595.313 325.6C594.886 325.893 594.673 326.307 594.673 326.84C594.673 327.32 594.866 327.7 595.253 327.98C595.639 328.26 596.126 328.4 596.713 328.4C597.526 328.4 598.193 328.193 598.713 327.78C599.246 327.367 599.513 326.833 599.513 326.18ZM606.991 330V321.52H603.591V319.44H612.831V321.52H609.431V330H606.991ZM619.59 330.24C618.044 330.24 616.75 329.727 615.71 328.7C614.684 327.673 614.17 326.347 614.17 324.72C614.17 323.187 614.657 321.887 615.63 320.82C616.604 319.753 617.837 319.22 619.33 319.22C620.93 319.22 622.17 319.767 623.05 320.86C623.944 321.94 624.39 323.287 624.39 324.9C624.39 325.193 624.377 325.42 624.35 325.58H616.59C616.724 326.42 617.064 327.08 617.61 327.56C618.157 328.027 618.83 328.26 619.63 328.26C620.67 328.26 621.624 327.84 622.49 327L623.91 328.26C622.817 329.58 621.377 330.24 619.59 330.24ZM616.57 323.98H621.99C621.91 323.167 621.637 322.5 621.17 321.98C620.704 321.46 620.084 321.2 619.31 321.2C618.577 321.2 617.964 321.46 617.47 321.98C616.977 322.487 616.677 323.153 616.57 323.98ZM626.741 330.12C626.354 330.12 625.881 330.073 625.321 329.98L625.501 328C625.714 328.053 625.947 328.08 626.201 328.08C626.481 328.08 626.707 328.04 626.881 327.96C627.067 327.88 627.254 327.68 627.441 327.36C627.641 327.027 627.794 326.56 627.901 325.96C628.007 325.36 628.094 324.52 628.161 323.44C628.227 322.347 628.261 321.013 628.261 319.44H636.241V330H633.821V321.52H630.521C630.521 323.027 630.461 324.307 630.341 325.36C630.221 326.413 630.061 327.247 629.861 327.86C629.674 328.473 629.407 328.953 629.061 329.3C628.727 329.633 628.387 329.853 628.041 329.96C627.694 330.067 627.261 330.12 626.741 330.12ZM638.322 330L641.242 326.04C640.495 325.813 639.895 325.433 639.442 324.9C639.002 324.353 638.782 323.68 638.782 322.88C638.782 321.84 639.148 321.007 639.882 320.38C640.615 319.753 641.635 319.44 642.942 319.44H648.242V330H645.822V326.44H643.662L641.162 330H638.322ZM643.282 324.62H645.822V321.4H643.262C642.622 321.4 642.115 321.547 641.742 321.84C641.382 322.12 641.202 322.507 641.202 323C641.202 323.507 641.388 323.907 641.762 324.2C642.148 324.48 642.655 324.62 643.282 324.62Z" fill="white"/>
<path d="M196.22 250.22C195.26 250.22 194.347 249.987 193.48 249.52L194.42 247.68C194.94 247.973 195.513 248.12 196.14 248.12C196.98 248.12 197.713 247.613 198.34 246.6L192.5 236H195.26L199.62 244.14L203.46 236H206.12L200.66 246.94C199.58 249.127 198.1 250.22 196.22 250.22ZM211.768 250.24C209.955 250.24 208.415 249.7 207.148 248.62L208.288 247.02C209.275 247.86 210.382 248.28 211.608 248.28C212.168 248.28 212.642 248.147 213.028 247.88C213.415 247.6 213.608 247.247 213.608 246.82C213.608 246.42 213.422 246.1 213.048 245.86C212.675 245.62 212.148 245.5 211.468 245.5H210.168V243.76H211.468C212.028 243.76 212.475 243.633 212.808 243.38C213.155 243.113 213.328 242.78 213.328 242.38C213.328 242.02 213.162 241.733 212.828 241.52C212.508 241.293 212.095 241.18 211.588 241.18C210.415 241.18 209.415 241.54 208.588 242.26L207.508 240.74C208.668 239.727 210.102 239.22 211.808 239.22C212.968 239.22 213.915 239.487 214.648 240.02C215.382 240.553 215.748 241.233 215.748 242.06C215.748 243.18 215.195 243.98 214.088 244.46C215.368 244.913 216.008 245.767 216.008 247.02C216.008 247.927 215.615 248.693 214.828 249.32C214.042 249.933 213.022 250.24 211.768 250.24ZM218.52 250V239.44H220.94V243.72H225.6V239.44H228.02V250H225.6V245.74H220.94V250H218.52ZM239.919 250H237.519V248.7C236.666 249.713 235.526 250.22 234.099 250.22C233.046 250.22 232.152 249.933 231.419 249.36C230.699 248.773 230.339 247.96 230.339 246.92C230.339 245.787 230.732 244.927 231.519 244.34C232.306 243.753 233.339 243.46 234.619 243.46C235.646 243.46 236.619 243.607 237.539 243.9V243.7C237.539 242.967 237.312 242.407 236.859 242.02C236.419 241.633 235.779 241.44 234.939 241.44C233.979 241.44 232.972 241.66 231.919 242.1L231.259 240.16C232.566 239.573 233.906 239.28 235.279 239.28C236.812 239.28 237.966 239.667 238.739 240.44C239.526 241.213 239.919 242.313 239.919 243.74V250ZM237.579 246.18V245.58C236.859 245.3 236.052 245.16 235.159 245.16C234.399 245.16 233.806 245.307 233.379 245.6C232.952 245.893 232.739 246.307 232.739 246.84C232.739 247.32 232.932 247.7 233.319 247.98C233.706 248.26 234.192 248.4 234.779 248.4C235.592 248.4 236.259 248.193 236.779 247.78C237.312 247.367 237.579 246.833 237.579 246.18ZM249.717 237.48C249.171 237.973 248.477 238.22 247.637 238.22C246.797 238.22 246.097 237.973 245.537 237.48C244.977 236.973 244.631 236.293 244.497 235.44L245.977 235.16C246.257 236.067 246.811 236.52 247.637 236.52C248.464 236.52 249.017 236.067 249.297 235.16L250.757 235.44C250.624 236.293 250.277 236.973 249.717 237.48ZM242.797 250V239.44H245.157V246.52C247.371 243.373 249.037 241.013 250.157 239.44H252.437V250H250.097V242.96L245.077 250H242.797ZM261.469 250V239.44H270.889V250H268.469V241.52H263.889V250H261.469ZM278.95 250.24C277.35 250.24 276.017 249.707 274.95 248.64C273.883 247.573 273.35 246.273 273.35 244.74C273.35 243.207 273.89 241.907 274.97 240.84C276.05 239.76 277.39 239.22 278.99 239.22C280.59 239.22 281.923 239.753 282.99 240.82C284.07 241.887 284.61 243.193 284.61 244.74C284.61 246.26 284.07 247.56 282.99 248.64C281.91 249.707 280.563 250.24 278.95 250.24ZM278.99 248.14C279.95 248.14 280.723 247.813 281.31 247.16C281.897 246.507 282.19 245.7 282.19 244.74C282.19 243.793 281.883 242.993 281.27 242.34C280.657 241.673 279.883 241.34 278.95 241.34C278.003 241.34 277.237 241.667 276.65 242.32C276.063 242.973 275.77 243.78 275.77 244.74C275.77 245.673 276.077 246.473 276.69 247.14C277.303 247.807 278.07 248.14 278.99 248.14ZM286.995 250.12C286.608 250.12 286.135 250.073 285.575 249.98L285.755 248C285.968 248.053 286.201 248.08 286.455 248.08C286.735 248.08 286.961 248.04 287.135 247.96C287.321 247.88 287.508 247.68 287.695 247.36C287.895 247.027 288.048 246.56 288.155 245.96C288.261 245.36 288.348 244.52 288.415 243.44C288.481 242.347 288.515 241.013 288.515 239.44H296.495V250H294.075V241.52H290.775C290.775 243.027 290.715 244.307 290.595 245.36C290.475 246.413 290.315 247.247 290.115 247.86C289.928 248.473 289.661 248.953 289.315 249.3C288.981 249.633 288.641 249.853 288.295 249.96C287.948 250.067 287.515 250.12 286.995 250.12ZM299.536 250V239.44H301.956V243.72H306.616V239.44H309.036V250H306.616V245.74H301.956V250H299.536ZM317.095 250.24C315.495 250.24 314.161 249.707 313.095 248.64C312.028 247.573 311.495 246.273 311.495 244.74C311.495 243.207 312.035 241.907 313.115 240.84C314.195 239.76 315.535 239.22 317.135 239.22C318.735 239.22 320.068 239.753 321.135 240.82C322.215 241.887 322.755 243.193 322.755 244.74C322.755 246.26 322.215 247.56 321.135 248.64C320.055 249.707 318.708 250.24 317.095 250.24ZM317.135 248.14C318.095 248.14 318.868 247.813 319.455 247.16C320.041 246.507 320.335 245.7 320.335 244.74C320.335 243.793 320.028 242.993 319.415 242.34C318.801 241.673 318.028 241.34 317.095 241.34C316.148 241.34 315.381 241.667 314.795 242.32C314.208 242.973 313.915 243.78 313.915 244.74C313.915 245.673 314.221 246.473 314.835 247.14C315.448 247.807 316.215 248.14 317.135 248.14ZM330.059 250.24C328.513 250.24 327.219 249.727 326.179 248.7C325.153 247.673 324.639 246.347 324.639 244.72C324.639 243.187 325.126 241.887 326.099 240.82C327.073 239.753 328.306 239.22 329.799 239.22C331.399 239.22 332.639 239.767 333.519 240.86C334.413 241.94 334.859 243.287 334.859 244.9C334.859 245.193 334.846 245.42 334.819 245.58H327.059C327.193 246.42 327.533 247.08 328.079 247.56C328.626 248.027 329.299 248.26 330.099 248.26C331.139 248.26 332.093 247.84 332.959 247L334.379 248.26C333.286 249.58 331.846 250.24 330.059 250.24ZM327.039 243.98H332.459C332.379 243.167 332.106 242.5 331.639 241.98C331.173 241.46 330.553 241.2 329.779 241.2C329.046 241.2 328.433 241.46 327.939 241.98C327.446 242.487 327.146 243.153 327.039 243.98ZM349.706 250.54V249.02C347.546 249.02 345.839 248.453 344.586 247.32C343.332 246.187 342.706 244.707 342.706 242.88C342.706 241.067 343.332 239.607 344.586 238.5C345.839 237.38 347.546 236.82 349.706 236.82V235.5H352.146V236.82C354.306 236.82 356.012 237.38 357.266 238.5C358.519 239.62 359.146 241.087 359.146 242.9C359.146 244.713 358.519 246.187 357.266 247.32C356.026 248.453 354.319 249.02 352.146 249.02V250.54H349.706ZM349.706 246.84V239.02C348.319 239.02 347.226 239.367 346.426 240.06C345.626 240.753 345.226 241.707 345.226 242.92C345.226 244.147 345.626 245.107 346.426 245.8C347.226 246.493 348.319 246.84 349.706 246.84ZM352.146 246.84C353.546 246.84 354.639 246.5 355.426 245.82C356.226 245.127 356.626 244.16 356.626 242.92C356.626 241.707 356.226 240.753 355.426 240.06C354.626 239.367 353.532 239.02 352.146 239.02V246.84ZM361.905 250V236H364.325V246.22L371.405 236H373.705V250H371.285V239.8L364.225 250H361.905ZM389.275 248.12C387.888 249.533 386.135 250.24 384.015 250.24C381.895 250.24 380.148 249.54 378.775 248.14C377.402 246.74 376.715 245.027 376.715 243C376.715 241 377.408 239.293 378.795 237.88C380.182 236.467 381.935 235.76 384.055 235.76C386.175 235.76 387.922 236.46 389.295 237.86C390.668 239.26 391.355 240.973 391.355 243C391.355 245 390.662 246.707 389.275 248.12ZM380.635 246.54C381.542 247.5 382.682 247.98 384.055 247.98C385.428 247.98 386.555 247.5 387.435 246.54C388.328 245.58 388.775 244.4 388.775 243C388.775 241.613 388.322 240.44 387.415 239.48C386.522 238.507 385.388 238.02 384.015 238.02C382.642 238.02 381.508 238.5 380.615 239.46C379.735 240.42 379.295 241.6 379.295 243C379.295 244.387 379.742 245.567 380.635 246.54ZM404.923 250.24C403.363 250.24 402.063 249.713 401.023 248.66C399.983 247.593 399.463 246.3 399.463 244.78V244.74C399.463 243.22 399.983 241.92 401.023 240.84C402.077 239.76 403.383 239.22 404.943 239.22C406.65 239.22 408.057 239.827 409.163 241.04L407.663 242.66C406.823 241.78 405.91 241.34 404.923 241.34C404.057 241.34 403.33 241.667 402.743 242.32C402.17 242.973 401.883 243.767 401.883 244.7V244.74C401.883 245.7 402.177 246.507 402.763 247.16C403.363 247.813 404.123 248.14 405.043 248.14C406.017 248.14 406.93 247.7 407.783 246.82L409.243 248.26C408.67 248.9 408.043 249.393 407.363 249.74C406.697 250.073 405.883 250.24 404.923 250.24ZM411.372 250V239.44H416.792C417.845 239.44 418.685 239.68 419.312 240.16C419.952 240.627 420.272 241.267 420.272 242.08C420.272 243.187 419.705 243.993 418.572 244.5C420.025 244.913 420.752 245.793 420.752 247.14C420.752 248.033 420.398 248.733 419.692 249.24C418.998 249.747 418.052 250 416.852 250H411.372ZM413.752 248.08H416.492C417.065 248.08 417.505 247.96 417.812 247.72C418.132 247.467 418.292 247.133 418.292 246.72C418.292 246.32 418.125 246.007 417.792 245.78C417.472 245.553 416.998 245.44 416.372 245.44H413.752V248.08ZM413.752 243.8H416.232C416.725 243.8 417.112 243.68 417.392 243.44C417.672 243.2 417.812 242.887 417.812 242.5C417.812 242.14 417.685 241.853 417.432 241.64C417.178 241.413 416.792 241.3 416.272 241.3H413.752V243.8ZM428.188 250.24C426.588 250.24 425.255 249.707 424.188 248.64C423.122 247.573 422.588 246.273 422.588 244.74C422.588 243.207 423.128 241.907 424.208 240.84C425.288 239.76 426.628 239.22 428.228 239.22C429.828 239.22 431.162 239.753 432.228 240.82C433.308 241.887 433.848 243.193 433.848 244.74C433.848 246.26 433.308 247.56 432.228 248.64C431.148 249.707 429.802 250.24 428.188 250.24ZM428.228 248.14C429.188 248.14 429.962 247.813 430.548 247.16C431.135 246.507 431.428 245.7 431.428 244.74C431.428 243.793 431.122 242.993 430.508 242.34C429.895 241.673 429.122 241.34 428.188 241.34C427.242 241.34 426.475 241.667 425.888 242.32C425.302 242.973 425.008 243.78 425.008 244.74C425.008 245.673 425.315 246.473 425.928 247.14C426.542 247.807 427.308 248.14 428.228 248.14ZM441.153 250.24C439.606 250.24 438.313 249.727 437.273 248.7C436.246 247.673 435.733 246.347 435.733 244.72C435.733 243.187 436.22 241.887 437.193 240.82C438.166 239.753 439.4 239.22 440.893 239.22C442.493 239.22 443.733 239.767 444.613 240.86C445.506 241.94 445.953 243.287 445.953 244.9C445.953 245.193 445.94 245.42 445.913 245.58H438.153C438.286 246.42 438.626 247.08 439.173 247.56C439.72 248.027 440.393 248.26 441.193 248.26C442.233 248.26 443.186 247.84 444.053 247L445.473 248.26C444.38 249.58 442.94 250.24 441.153 250.24ZM438.133 243.98H443.553C443.473 243.167 443.2 242.5 442.733 241.98C442.266 241.46 441.646 241.2 440.873 241.2C440.14 241.2 439.526 241.46 439.033 241.98C438.54 242.487 438.24 243.153 438.133 243.98ZM448.383 250V239.44H455.863V241.52H450.803V250H448.383ZM462.798 250.24C461.198 250.24 459.864 249.707 458.798 248.64C457.731 247.573 457.198 246.273 457.198 244.74C457.198 243.207 457.738 241.907 458.818 240.84C459.898 239.76 461.238 239.22 462.838 239.22C464.438 239.22 465.771 239.753 466.838 240.82C467.918 241.887 468.458 243.193 468.458 244.74C468.458 246.26 467.918 247.56 466.838 248.64C465.758 249.707 464.411 250.24 462.798 250.24ZM462.838 248.14C463.798 248.14 464.571 247.813 465.158 247.16C465.744 246.507 466.038 245.7 466.038 244.74C466.038 243.793 465.731 242.993 465.118 242.34C464.504 241.673 463.731 241.34 462.798 241.34C461.851 241.34 461.084 241.667 460.498 242.32C459.911 242.973 459.618 243.78 459.618 244.74C459.618 245.673 459.924 246.473 460.538 247.14C461.151 247.807 461.918 248.14 462.838 248.14ZM476.918 250V239.44H486.338V250H483.918V241.52H479.338V250H476.918ZM489.379 253.2V239.44H491.799V241.2C492.733 239.88 493.926 239.22 495.379 239.22C496.713 239.22 497.866 239.72 498.839 240.72C499.813 241.707 500.299 243.047 500.299 244.74C500.299 246.407 499.813 247.74 498.839 248.74C497.866 249.727 496.713 250.22 495.379 250.22C493.926 250.22 492.733 249.6 491.799 248.36V253.2H489.379ZM494.819 248.12C495.673 248.12 496.386 247.807 496.959 247.18C497.546 246.553 497.839 245.727 497.839 244.7C497.839 243.7 497.546 242.887 496.959 242.26C496.373 241.633 495.659 241.32 494.819 241.32C493.979 241.32 493.253 241.64 492.639 242.28C492.039 242.92 491.739 243.74 491.739 244.74C491.739 245.727 492.039 246.54 492.639 247.18C493.253 247.807 493.979 248.12 494.819 248.12ZM507.618 250.24C506.071 250.24 504.778 249.727 503.738 248.7C502.711 247.673 502.198 246.347 502.198 244.72C502.198 243.187 502.684 241.887 503.658 240.82C504.631 239.753 505.864 239.22 507.358 239.22C508.958 239.22 510.198 239.767 511.078 240.86C511.971 241.94 512.418 243.287 512.418 244.9C512.418 245.193 512.404 245.42 512.378 245.58H504.618C504.751 246.42 505.091 247.08 505.638 247.56C506.184 248.027 506.858 248.26 507.658 248.26C508.698 248.26 509.651 247.84 510.518 247L511.938 248.26C510.844 249.58 509.404 250.24 507.618 250.24ZM504.598 243.98H510.018C509.938 243.167 509.664 242.5 509.198 241.98C508.731 241.46 508.111 241.2 507.338 241.2C506.604 241.2 505.991 241.46 505.498 241.98C505.004 242.487 504.704 243.153 504.598 243.98ZM514.848 250V239.44H524.268V250H521.848V241.52H517.268V250H514.848ZM532.329 250.24C530.729 250.24 529.396 249.707 528.329 248.64C527.262 247.573 526.729 246.273 526.729 244.74C526.729 243.207 527.269 241.907 528.349 240.84C529.429 239.76 530.769 239.22 532.369 239.22C533.969 239.22 535.302 239.753 536.369 240.82C537.449 241.887 537.989 243.193 537.989 244.74C537.989 246.26 537.449 247.56 536.369 248.64C535.289 249.707 533.942 250.24 532.329 250.24ZM532.369 248.14C533.329 248.14 534.102 247.813 534.689 247.16C535.276 246.507 535.569 245.7 535.569 244.74C535.569 243.793 535.262 242.993 534.649 242.34C534.036 241.673 533.262 241.34 532.329 241.34C531.382 241.34 530.616 241.667 530.029 242.32C529.442 242.973 529.149 243.78 529.149 244.74C529.149 245.673 529.456 246.473 530.069 247.14C530.682 247.807 531.449 248.14 532.369 248.14ZM539.234 252.54V247.92H540.374C541.16 246.347 541.554 243.953 541.554 240.74V239.44H549.734V247.92H551.234L550.914 252.54H548.894V250H541.494L541.254 252.54H539.234ZM542.854 247.92H547.314V241.52H543.834V242.92C543.834 244.88 543.507 246.547 542.854 247.92ZM562.107 250H559.707V248.7C558.853 249.713 557.713 250.22 556.287 250.22C555.233 250.22 554.34 249.933 553.607 249.36C552.887 248.773 552.527 247.96 552.527 246.92C552.527 245.787 552.92 244.927 553.707 244.34C554.493 243.753 555.527 243.46 556.807 243.46C557.833 243.46 558.807 243.607 559.727 243.9V243.7C559.727 242.967 559.5 242.407 559.047 242.02C558.607 241.633 557.967 241.44 557.127 241.44C556.167 241.44 555.16 241.66 554.107 242.1L553.447 240.16C554.753 239.573 556.093 239.28 557.467 239.28C559 239.28 560.153 239.667 560.927 240.44C561.713 241.213 562.107 242.313 562.107 243.74V250ZM559.767 246.18V245.58C559.047 245.3 558.24 245.16 557.347 245.16C556.587 245.16 555.993 245.307 555.567 245.6C555.14 245.893 554.927 246.307 554.927 246.84C554.927 247.32 555.12 247.7 555.507 247.98C555.893 248.26 556.38 248.4 556.967 248.4C557.78 248.4 558.447 248.193 558.967 247.78C559.5 247.367 559.767 246.833 559.767 246.18ZM564.985 250V239.44H570.405C571.458 239.44 572.298 239.68 572.925 240.16C573.565 240.627 573.885 241.267 573.885 242.08C573.885 243.187 573.318 243.993 572.185 244.5C573.638 244.913 574.365 245.793 574.365 247.14C574.365 248.033 574.012 248.733 573.305 249.24C572.612 249.747 571.665 250 570.465 250H564.985ZM567.365 248.08H570.105C570.678 248.08 571.118 247.96 571.425 247.72C571.745 247.467 571.905 247.133 571.905 246.72C571.905 246.32 571.738 246.007 571.405 245.78C571.085 245.553 570.612 245.44 569.985 245.44H567.365V248.08ZM567.365 243.8H569.845C570.338 243.8 570.725 243.68 571.005 243.44C571.285 243.2 571.425 242.887 571.425 242.5C571.425 242.14 571.298 241.853 571.045 241.64C570.792 241.413 570.405 241.3 569.885 241.3H567.365V243.8ZM585.642 250H583.242V248.7C582.388 249.713 581.248 250.22 579.822 250.22C578.768 250.22 577.875 249.933 577.142 249.36C576.422 248.773 576.062 247.96 576.062 246.92C576.062 245.787 576.455 244.927 577.242 244.34C578.028 243.753 579.062 243.46 580.342 243.46C581.368 243.46 582.342 243.607 583.262 243.9V243.7C583.262 242.967 583.035 242.407 582.582 242.02C582.142 241.633 581.502 241.44 580.662 241.44C579.702 241.44 578.695 241.66 577.642 242.1L576.982 240.16C578.288 239.573 579.628 239.28 581.002 239.28C582.535 239.28 583.688 239.667 584.462 240.44C585.248 241.213 585.642 242.313 585.642 243.74V250ZM583.302 246.18V245.58C582.582 245.3 581.775 245.16 580.882 245.16C580.122 245.16 579.528 245.307 579.102 245.6C578.675 245.893 578.462 246.307 578.462 246.84C578.462 247.32 578.655 247.7 579.042 247.98C579.428 248.26 579.915 248.4 580.502 248.4C581.315 248.4 581.982 248.193 582.502 247.78C583.035 247.367 583.302 246.833 583.302 246.18ZM590.78 250V241.52H587.38V239.44H596.62V241.52H593.22V250H590.78ZM603.38 250.24C601.833 250.24 600.54 249.727 599.5 248.7C598.473 247.673 597.96 246.347 597.96 244.72C597.96 243.187 598.446 241.887 599.42 240.82C600.393 239.753 601.626 239.22 603.12 239.22C604.72 239.22 605.96 239.767 606.84 240.86C607.733 241.94 608.18 243.287 608.18 244.9C608.18 245.193 608.166 245.42 608.14 245.58H600.38C600.513 246.42 600.853 247.08 601.4 247.56C601.946 248.027 602.62 248.26 603.42 248.26C604.46 248.26 605.413 247.84 606.28 247L607.7 248.26C606.606 249.58 605.166 250.24 603.38 250.24ZM600.36 243.98H605.78C605.7 243.167 605.426 242.5 604.96 241.98C604.493 241.46 603.873 241.2 603.1 241.2C602.366 241.2 601.753 241.46 601.26 241.98C600.766 242.487 600.466 243.153 600.36 243.98ZM610.53 250.12C610.143 250.12 609.67 250.073 609.11 249.98L609.29 248C609.503 248.053 609.737 248.08 609.99 248.08C610.27 248.08 610.497 248.04 610.67 247.96C610.857 247.88 611.043 247.68 611.23 247.36C611.43 247.027 611.583 246.56 611.69 245.96C611.797 245.36 611.883 244.52 611.95 243.44C612.017 242.347 612.05 241.013 612.05 239.44H620.03V250H617.61V241.52H614.31C614.31 243.027 614.25 244.307 614.13 245.36C614.01 246.413 613.85 247.247 613.65 247.86C613.463 248.473 613.197 248.953 612.85 249.3C612.517 249.633 612.177 249.853 611.83 249.96C611.483 250.067 611.05 250.12 610.53 250.12ZM622.111 250L625.031 246.04C624.284 245.813 623.684 245.433 623.231 244.9C622.791 244.353 622.571 243.68 622.571 242.88C622.571 241.84 622.937 241.007 623.671 240.38C624.404 239.753 625.424 239.44 626.731 239.44H632.031V250H629.611V246.44H627.451L624.951 250H622.111ZM627.071 244.62H629.611V241.4H627.051C626.411 241.4 625.904 241.547 625.531 241.84C625.171 242.12 624.991 242.507 624.991 243C624.991 243.507 625.177 243.907 625.551 244.2C625.937 244.48 626.444 244.62 627.071 244.62Z" fill="white"/>
<path d="M865.668 208.006C881.446 209.252 895.31 198.229 896.635 183.387C897.96 168.544 886.243 155.501 870.466 154.256C854.688 153.01 840.824 164.033 839.499 178.875C838.174 193.718 849.89 206.761 865.668 208.006Z" fill="white"/>
<path d="M933.7 253.094C925.807 262.373 915.794 269.86 904.405 275C893.015 280.139 880.541 282.8 867.909 282.783C855.277 282.766 842.811 280.072 831.438 274.902C820.064 269.732 810.075 262.218 802.211 252.918C809.907 243.363 819.854 235.617 831.269 230.29C842.685 224.962 855.259 222.198 868.002 222.215C880.745 222.232 893.31 225.03 904.709 230.388C916.108 235.745 926.031 243.518 933.697 253.094L933.7 253.094Z" fill="white"/>
</g>
<defs>
<filter id="filter0_f_48_983" x="300.771" y="185.018" width="569.429" height="493.778" filterUnits="userSpaceOnUse" color-interpolation-filters="sRGB">
<feFlood flood-opacity="0" result="BackgroundImageFix"/>
<feBlend mode="normal" in="SourceGraphic" in2="BackgroundImageFix" result="shape"/>
<feGaussianBlur stdDeviation="50" result="effect1_foregroundBlur_48_983"/>
</filter>
<filter id="filter1_f_48_983" x="483.768" y="-195.525" width="578.304" height="430.875" filterUnits="userSpaceOnUse" color-interpolation-filters="sRGB">
<feFlood flood-opacity="0" result="BackgroundImageFix"/>
<feBlend mode="normal" in="SourceGraphic" in2="BackgroundImageFix" result="shape"/>
<feGaussianBlur stdDeviation="50" result="effect1_foregroundBlur_48_983"/>
</filter>
<filter id="filter2_f_48_983" x="765" y="172" width="667" height="458" filterUnits="userSpaceOnUse" color-interpolation-filters="sRGB">
<feFlood flood-opacity="0" result="BackgroundImageFix"/>
<feBlend mode="normal" in="SourceGraphic" in2="BackgroundImageFix" result="shape"/>
<feGaussianBlur stdDeviation="50" result="effect1_foregroundBlur_48_983"/>
</filter>
<filter id="filter3_f_48_983" x="857" y="218" width="469" height="404" filterUnits="userSpaceOnUse" color-interpolation-filters="sRGB">
<feFlood flood-opacity="0" result="BackgroundImageFix"/>
<feBlend mode="normal" in="SourceGraphic" in2="BackgroundImageFix" result="shape"/>
<feGaussianBlur stdDeviation="50" result="effect1_foregroundBlur_48_983"/>
</filter>
<filter id="filter4_f_48_983" x="-331.343" y="-249.848" width="723.395" height="896.464" filterUnits="userSpaceOnUse" color-interpolation-filters="sRGB">
<feFlood flood-opacity="0" result="BackgroundImageFix"/>
<feBlend mode="normal" in="SourceGraphic" in2="BackgroundImageFix" result="shape"/>
<feGaussianBlur stdDeviation="50" result="effect1_foregroundBlur_48_983"/>
</filter>
<linearGradient id="paint0_linear_48_983" x1="172.996" y1="-245.448" x2="554.818" y2="353.141" gradientUnits="userSpaceOnUse">
<stop stop-color="#2CCBD6"/>
<stop offset="0.520833" stop-color="#4836B6"/>
<stop offset="1" stop-color="#79169B"/>
</linearGradient>
<clipPath id="clip0_48_983">
<path d="M0 7.99999C0 3.58171 3.58172 0 8 0H1120C1124.42 0 1128 3.58172 1128 8V432C1128 436.418 1124.42 440 1120 440H7.99998C3.5817 440 0 436.418 0 432V7.99999Z" fill="white"/>
</clipPath>
</defs>
</svg>
