<svg width="1128" height="472" viewBox="0 0 1128 472" fill="none" xmlns="http://www.w3.org/2000/svg">
<g clip-path="url(#clip0_3_13)">
<path d="M0 0H1128V464C1128 468.418 1124.42 472 1120 472H7.99998C3.5817 472 0 468.418 0 464V0Z" fill="#1E162B"/>
<g filter="url(#filter0_f_3_13)">
<path d="M662.11 361.604C678.659 408.485 654.07 459.906 607.189 476.455C560.308 493.004 539.447 473.856 522.898 426.975C489.49 372.898 373.044 389.183 361.806 316.779C355.062 273.337 487.883 200.676 524.186 241.321C579.914 253.152 645.561 314.723 662.11 361.604Z" fill="#73BDDC"/>
</g>
<g filter="url(#filter1_f_3_13)">
<path d="M968 22.6603C968 88.1945 777.372 152 711.887 152C646.402 152 730.858 88.1945 730.858 22.6603C730.858 -42.874 783.944 -96 849.429 -96C914.914 -96 968 -42.874 968 22.6603Z" fill="#4650BA"/>
</g>
<g filter="url(#filter2_f_3_13)">
<path d="M1111 463.824C1111 520.052 1074.81 530 1000.16 530C925.515 530 865 484.418 865 428.19C865 371.962 871.449 305 946.099 305C1020.75 305 1111 407.595 1111 463.824Z" fill="#8458BC"/>
</g>
<g filter="url(#filter3_f_3_13)">
<ellipse cx="1091.5" cy="420" rx="134.5" ry="102" fill="#CCECF3"/>
</g>
<g filter="url(#filter4_f_3_13)">
<path d="M-86.7901 61.5693C-121.027 84.9799 -153.063 133.225 -165.276 196.497C-177.489 259.769 -171.368 357.672 -50.0883 434.966C71.1917 512.26 153.671 454.079 165.088 400.239C172.125 367.053 198.527 284.76 219.267 269.505C289.793 217.634 316.617 156.663 266.402 97.5555C216.449 38.7579 155.331 38.4941 78.987 38.1646L77.7804 38.1594C33.2803 37.9664 -12.9437 11.074 -86.7901 61.5693Z" fill="url(#paint0_linear_3_13)"/>
</g>
<path d="M193.584 97V85.8H202.416V97H201.152V86.952H194.848V97H193.584ZM212.56 95.928C211.728 96.7707 210.699 97.192 209.472 97.192C208.245 97.192 207.221 96.7707 206.4 95.928C205.589 95.0853 205.184 94.0667 205.184 92.872C205.184 91.688 205.595 90.6747 206.416 89.832C207.248 88.9787 208.277 88.552 209.504 88.552C210.731 88.552 211.755 88.9733 212.576 89.816C213.397 90.6587 213.808 91.6773 213.808 92.872C213.808 94.056 213.392 95.0747 212.56 95.928ZM209.504 96.088C210.389 96.088 211.115 95.7787 211.68 95.16C212.256 94.5413 212.544 93.7787 212.544 92.872C212.544 91.976 212.245 91.2133 211.648 90.584C211.061 89.9547 210.336 89.64 209.472 89.64C208.587 89.64 207.861 89.9547 207.296 90.584C206.731 91.2027 206.448 91.9653 206.448 92.872C206.448 93.768 206.741 94.5307 207.328 95.16C207.915 95.7787 208.64 96.088 209.504 96.088ZM220.088 97.192C218.893 97.192 217.885 96.7707 217.064 95.928C216.253 95.0747 215.848 94.056 215.848 92.872C215.848 91.688 216.253 90.6747 217.064 89.832C217.885 88.9787 218.893 88.552 220.088 88.552C221.368 88.552 222.472 89.0427 223.4 90.024L222.616 90.856C221.848 90.0453 221 89.64 220.072 89.64C219.24 89.64 218.536 89.9547 217.96 90.584C217.394 91.2027 217.112 91.9653 217.112 92.872C217.112 93.768 217.4 94.5307 217.976 95.16C218.562 95.7787 219.288 96.088 220.152 96.088C221.037 96.088 221.869 95.672 222.648 94.84L223.464 95.592C222.504 96.6587 221.378 97.192 220.088 97.192ZM227.82 97V89.816H224.86V88.728H232.028V89.816H229.068V97H227.82ZM235.42 99.608C234.823 99.608 234.236 99.4693 233.66 99.192L234.076 98.216C234.471 98.4187 234.903 98.52 235.372 98.52C235.746 98.52 236.06 98.4027 236.316 98.168C236.572 97.944 236.823 97.544 237.068 96.968L233.308 88.728H234.668L237.676 95.624L240.332 88.728H241.644L238.172 97.272C237.82 98.1147 237.431 98.712 237.004 99.064C236.578 99.4267 236.05 99.608 235.42 99.608ZM243.913 97V88.728H251.081V97H249.849V89.816H245.145V97H243.913ZM254.155 97V88.728H255.387V95.272L260.299 88.728H261.499V97H260.267V90.456L255.339 97H254.155ZM264.169 97.128C263.849 97.128 263.518 97.0853 263.177 97L263.321 95.944C263.566 96.0187 263.764 96.056 263.913 96.056C264.148 96.056 264.34 96.0293 264.489 95.976C264.638 95.912 264.798 95.7573 264.969 95.512C265.15 95.256 265.289 94.8987 265.385 94.44C265.481 93.9813 265.561 93.3307 265.625 92.488C265.7 91.6453 265.737 90.6213 265.737 89.416V88.728H271.593V97H270.361V89.816H266.905V90.008C266.905 91.2667 266.857 92.3387 266.761 93.224C266.665 94.1093 266.542 94.8027 266.393 95.304C266.254 95.8053 266.057 96.1947 265.801 96.472C265.545 96.7493 265.294 96.9253 265.049 97C264.814 97.0853 264.521 97.128 264.169 97.128ZM279.787 97V88.728H281.019V95.272L285.931 88.728H287.131V97H285.899V90.456L280.971 97H279.787ZM295.318 97V88.728H296.55V92.296H301.318V88.728H302.55V97H301.318V93.384H296.55V97H295.318ZM309.238 97.192C308.076 97.192 307.094 96.792 306.294 95.992C305.505 95.1813 305.11 94.1413 305.11 92.872C305.11 91.6667 305.489 90.648 306.246 89.816C307.004 88.9733 307.948 88.552 309.078 88.552C310.262 88.552 311.201 88.968 311.894 89.8C312.588 90.632 312.934 91.6773 312.934 92.936C312.934 93.096 312.929 93.24 312.918 93.368H306.358C306.444 94.2107 306.758 94.8827 307.302 95.384C307.857 95.8747 308.513 96.12 309.27 96.12C310.262 96.12 311.132 95.7307 311.878 94.952L312.646 95.64C311.718 96.6747 310.582 97.192 309.238 97.192ZM306.358 92.376H311.686C311.612 91.576 311.345 90.9147 310.886 90.392C310.438 89.8587 309.825 89.592 309.046 89.592C308.342 89.592 307.74 89.8533 307.238 90.376C306.737 90.8987 306.444 91.5653 306.358 92.376ZM323.152 97.192C321.883 97.192 320.741 96.7813 319.728 95.96L320.352 95.048C321.195 95.7627 322.117 96.12 323.12 96.12C323.685 96.12 324.165 95.992 324.56 95.736C324.965 95.4693 325.168 95.1067 325.168 94.648C325.168 94.2213 324.987 93.8907 324.624 93.656C324.261 93.4107 323.749 93.288 323.088 93.288H321.984V92.28H323.104C323.648 92.28 324.091 92.152 324.432 91.896C324.773 91.6293 324.944 91.2827 324.944 90.856C324.944 90.4827 324.773 90.184 324.432 89.96C324.101 89.736 323.675 89.624 323.152 89.624C322.171 89.624 321.333 89.9013 320.64 90.456L320.032 89.592C320.928 88.8987 321.995 88.552 323.232 88.552C324.149 88.552 324.875 88.76 325.408 89.176C325.952 89.5813 326.224 90.1093 326.224 90.76C326.224 91.6667 325.781 92.3013 324.896 92.664C325.92 93.0267 326.432 93.704 326.432 94.696C326.432 95.3893 326.133 95.9813 325.536 96.472C324.939 96.952 324.144 97.192 323.152 97.192ZM329.035 97V88.728H330.267V92.296H335.035V88.728H336.267V97H335.035V93.384H330.267V97H329.035ZM341.804 97.176C340.961 97.176 340.236 96.9467 339.628 96.488C339.02 96.0293 338.716 95.3893 338.716 94.568C338.716 93.704 339.036 93.0373 339.676 92.568C340.316 92.0987 341.174 91.864 342.252 91.864C343.105 91.864 343.948 91.9813 344.78 92.216V91.96C344.78 91.2347 344.566 90.68 344.14 90.296C343.713 89.912 343.11 89.72 342.332 89.72C341.521 89.72 340.684 89.9173 339.82 90.312L339.452 89.304C340.476 88.8347 341.478 88.6 342.46 88.6C343.633 88.6 344.524 88.904 345.132 89.512C345.708 90.088 345.996 90.8987 345.996 91.944V97H344.78V95.768C344.044 96.7067 343.052 97.176 341.804 97.176ZM342.044 96.184C342.812 96.184 343.462 95.976 343.996 95.56C344.529 95.144 344.796 94.6107 344.796 93.96V93.192C343.985 92.9573 343.18 92.84 342.38 92.84C341.622 92.84 341.03 92.9947 340.604 93.304C340.177 93.6027 339.964 94.0133 339.964 94.536C339.964 95.0373 340.161 95.4373 340.556 95.736C340.961 96.0347 341.457 96.184 342.044 96.184ZM352.541 97.192C351.379 97.192 350.397 96.792 349.597 95.992C348.808 95.1813 348.413 94.1413 348.413 92.872C348.413 91.6667 348.792 90.648 349.549 89.816C350.307 88.9733 351.251 88.552 352.381 88.552C353.565 88.552 354.504 88.968 355.197 89.8C355.891 90.632 356.237 91.6773 356.237 92.936C356.237 93.096 356.232 93.24 356.221 93.368H349.661C349.747 94.2107 350.061 94.8827 350.605 95.384C351.16 95.8747 351.816 96.12 352.573 96.12C353.565 96.12 354.435 95.7307 355.181 94.952L355.949 95.64C355.021 96.6747 353.885 97.192 352.541 97.192ZM349.661 92.376H354.989C354.915 91.576 354.648 90.9147 354.189 90.392C353.741 89.8587 353.128 89.592 352.349 89.592C351.645 89.592 351.043 89.8533 350.541 90.376C350.04 90.8987 349.747 91.5653 349.661 92.376ZM358.714 97V88.728H359.946V95.912H363.978V88.728H365.21V95.912H369.242V88.728H370.49V97H358.714ZM373.565 97V88.728H374.797V91.832H377.005C377.965 91.832 378.749 92.04 379.357 92.456C379.965 92.8613 380.269 93.48 380.269 94.312C380.269 95.1333 379.987 95.7893 379.421 96.28C378.856 96.76 378.099 97 377.149 97H373.565ZM374.797 95.912H377.037C377.667 95.912 378.152 95.7787 378.493 95.512C378.845 95.2453 379.021 94.856 379.021 94.344C379.021 93.8747 378.84 93.5173 378.477 93.272C378.125 93.016 377.629 92.888 376.989 92.888H374.797V95.912Z" fill="#CECECE"/>
<path d="M193.44 129V117.8H195.408V123.432L200.736 117.8H203.152L198.496 122.616L203.36 129H200.976L197.152 123.96L195.408 125.752V129H193.44ZM211.898 129H209.978V127.96C209.295 128.771 208.383 129.176 207.242 129.176C206.399 129.176 205.684 128.947 205.098 128.488C204.522 128.019 204.234 127.368 204.234 126.536C204.234 125.629 204.548 124.941 205.178 124.472C205.807 124.003 206.634 123.768 207.658 123.768C208.479 123.768 209.258 123.885 209.994 124.12V123.96C209.994 123.373 209.812 122.925 209.45 122.616C209.098 122.307 208.586 122.152 207.914 122.152C207.146 122.152 206.34 122.328 205.498 122.68L204.97 121.128C206.015 120.659 207.087 120.424 208.186 120.424C209.412 120.424 210.335 120.733 210.954 121.352C211.583 121.971 211.898 122.851 211.898 123.992V129ZM210.026 125.944V125.464C209.45 125.24 208.804 125.128 208.09 125.128C207.482 125.128 207.007 125.245 206.666 125.48C206.324 125.715 206.154 126.045 206.154 126.472C206.154 126.856 206.308 127.16 206.618 127.384C206.927 127.608 207.316 127.72 207.786 127.72C208.436 127.72 208.97 127.555 209.386 127.224C209.812 126.893 210.026 126.467 210.026 125.944ZM214.2 129V120.552H216.12V124.6L219.8 120.552H222.072L218.792 124.104L222.344 129H220.056L217.496 125.512L216.12 126.968V129H214.2ZM228.482 129V120.552H236.018V129H234.082V122.216H230.418V129H228.482ZM238.45 131.56V120.552H240.386V121.96C241.133 120.904 242.088 120.376 243.25 120.376C244.317 120.376 245.24 120.776 246.018 121.576C246.797 122.365 247.186 123.437 247.186 124.792C247.186 126.125 246.797 127.192 246.018 127.992C245.24 128.781 244.317 129.176 243.25 129.176C242.088 129.176 241.133 128.68 240.386 127.688V131.56H238.45ZM242.802 127.496C243.485 127.496 244.056 127.245 244.514 126.744C244.984 126.243 245.218 125.581 245.218 124.76C245.218 123.96 244.984 123.309 244.514 122.808C244.045 122.307 243.474 122.056 242.802 122.056C242.13 122.056 241.549 122.312 241.058 122.824C240.578 123.336 240.338 123.992 240.338 124.792C240.338 125.581 240.578 126.232 241.058 126.744C241.549 127.245 242.13 127.496 242.802 127.496ZM253.185 129.192C251.905 129.192 250.838 128.765 249.985 127.912C249.132 127.059 248.705 126.019 248.705 124.792C248.705 123.565 249.137 122.525 250.001 121.672C250.865 120.808 251.937 120.376 253.217 120.376C254.497 120.376 255.564 120.803 256.417 121.656C257.281 122.509 257.713 123.555 257.713 124.792C257.713 126.008 257.281 127.048 256.417 127.912C255.553 128.765 254.476 129.192 253.185 129.192ZM253.217 127.512C253.985 127.512 254.604 127.251 255.073 126.728C255.542 126.205 255.777 125.56 255.777 124.792C255.777 124.035 255.532 123.395 255.041 122.872C254.55 122.339 253.932 122.072 253.185 122.072C252.428 122.072 251.814 122.333 251.345 122.856C250.876 123.379 250.641 124.024 250.641 124.792C250.641 125.539 250.886 126.179 251.377 126.712C251.868 127.245 252.481 127.512 253.217 127.512ZM265.221 118.984C264.783 119.379 264.229 119.576 263.557 119.576C262.885 119.576 262.325 119.379 261.877 118.984C261.429 118.579 261.151 118.035 261.045 117.352L262.229 117.128C262.453 117.853 262.895 118.216 263.557 118.216C264.218 118.216 264.661 117.853 264.885 117.128L266.053 117.352C265.946 118.035 265.669 118.579 265.221 118.984ZM259.685 129V120.552H261.573V126.216C263.343 123.699 264.677 121.811 265.573 120.552H267.397V129H265.525V123.368L261.509 129H259.685ZM271.633 129V122.216H268.913V120.552H276.305V122.216H273.585V129H271.633ZM277.841 129V120.552H279.729V126.216C281.5 123.699 282.833 121.811 283.729 120.552H285.553V129H283.681V123.368L279.665 129H277.841ZM292.779 129V120.552H297.115C297.957 120.552 298.629 120.744 299.131 121.128C299.643 121.501 299.899 122.013 299.899 122.664C299.899 123.549 299.445 124.195 298.539 124.6C299.701 124.931 300.283 125.635 300.283 126.712C300.283 127.427 300 127.987 299.435 128.392C298.88 128.797 298.123 129 297.163 129H292.779ZM294.683 127.464H296.875C297.333 127.464 297.685 127.368 297.931 127.176C298.187 126.973 298.315 126.707 298.315 126.376C298.315 126.056 298.181 125.805 297.915 125.624C297.659 125.443 297.28 125.352 296.779 125.352H294.683V127.464ZM294.683 124.04H296.667C297.061 124.04 297.371 123.944 297.595 123.752C297.819 123.56 297.931 123.309 297.931 123C297.931 122.712 297.829 122.483 297.627 122.312C297.424 122.131 297.115 122.04 296.699 122.04H294.683V124.04ZM314.101 129H312.181V127.96C311.498 128.771 310.586 129.176 309.445 129.176C308.602 129.176 307.888 128.947 307.301 128.488C306.725 128.019 306.437 127.368 306.437 126.536C306.437 125.629 306.752 124.941 307.381 124.472C308.01 124.003 308.837 123.768 309.861 123.768C310.682 123.768 311.461 123.885 312.197 124.12V123.96C312.197 123.373 312.016 122.925 311.653 122.616C311.301 122.307 310.789 122.152 310.117 122.152C309.349 122.152 308.544 122.328 307.701 122.68L307.173 121.128C308.218 120.659 309.29 120.424 310.389 120.424C311.616 120.424 312.538 120.733 313.157 121.352C313.786 121.971 314.101 122.851 314.101 123.992V129ZM312.229 125.944V125.464C311.653 125.24 311.008 125.128 310.293 125.128C309.685 125.128 309.21 125.245 308.869 125.48C308.528 125.715 308.357 126.045 308.357 126.472C308.357 126.856 308.512 127.16 308.821 127.384C309.13 127.608 309.52 127.72 309.989 127.72C310.64 127.72 311.173 127.555 311.589 127.224C312.016 126.893 312.229 126.467 312.229 125.944ZM318.132 131.608C317.428 131.608 316.761 131.437 316.132 131.096L316.788 129.656C317.182 129.869 317.561 129.976 317.924 129.976C318.201 129.976 318.43 129.901 318.612 129.752C318.793 129.613 318.964 129.363 319.124 129L315.604 120.552H317.668L320.068 126.824L322.26 120.552H324.276L320.916 129.24C320.574 130.104 320.196 130.712 319.78 131.064C319.364 131.427 318.814 131.608 318.132 131.608ZM324.959 131.032V127.336H325.871C326.5 126.077 326.815 124.163 326.815 121.592V120.552H333.359V127.336H334.559L334.303 131.032H332.687V129H326.767L326.575 131.032H324.959ZM327.855 127.336H331.423V122.216H328.639V123.336C328.639 124.904 328.377 126.237 327.855 127.336ZM336.169 129V120.552H338.057V126.216C339.828 123.699 341.161 121.811 342.057 120.552H343.881V129H342.009V123.368L337.993 129H336.169ZM348.118 129V122.216H345.398V120.552H352.79V122.216H350.07V129H348.118ZM358.341 129.192C357.061 129.192 355.995 128.765 355.141 127.912C354.288 127.059 353.861 126.019 353.861 124.792C353.861 123.565 354.293 122.525 355.157 121.672C356.021 120.808 357.093 120.376 358.373 120.376C359.653 120.376 360.72 120.803 361.573 121.656C362.437 122.509 362.869 123.555 362.869 124.792C362.869 126.008 362.437 127.048 361.573 127.912C360.709 128.765 359.632 129.192 358.341 129.192ZM358.373 127.512C359.141 127.512 359.76 127.251 360.229 126.728C360.699 126.205 360.933 125.56 360.933 124.792C360.933 124.035 360.688 123.395 360.197 122.872C359.707 122.339 359.088 122.072 358.341 122.072C357.584 122.072 356.971 122.333 356.501 122.856C356.032 123.379 355.797 124.024 355.797 124.792C355.797 125.539 356.043 126.179 356.533 126.712C357.024 127.245 357.637 127.512 358.373 127.512ZM364.841 131.56V120.552H366.777V121.96C367.524 120.904 368.478 120.376 369.641 120.376C370.708 120.376 371.63 120.776 372.409 121.576C373.188 122.365 373.577 123.437 373.577 124.792C373.577 126.125 373.188 127.192 372.409 127.992C371.63 128.781 370.708 129.176 369.641 129.176C368.478 129.176 367.524 128.68 366.777 127.688V131.56H364.841ZM369.193 127.496C369.876 127.496 370.446 127.245 370.905 126.744C371.374 126.243 371.609 125.581 371.609 124.76C371.609 123.96 371.374 123.309 370.905 122.808C370.436 122.307 369.865 122.056 369.193 122.056C368.521 122.056 367.94 122.312 367.449 122.824C366.969 123.336 366.729 123.992 366.729 124.792C366.729 125.581 366.969 126.232 367.449 126.744C367.94 127.245 368.521 127.496 369.193 127.496ZM375.56 129V120.552H377.448V126.216C379.218 123.699 380.552 121.811 381.448 120.552H383.272V129H381.4V123.368L377.384 129H375.56ZM393.204 129.192C392.095 129.192 391.167 128.856 390.42 128.184C389.684 127.501 389.236 126.632 389.076 125.576H387.62V129H385.7V120.552H387.62V123.976H389.076C389.247 122.941 389.706 122.088 390.452 121.416C391.21 120.733 392.138 120.392 393.236 120.392C394.484 120.392 395.498 120.813 396.276 121.656C397.055 122.499 397.444 123.544 397.444 124.792C397.444 126.019 397.05 127.059 396.26 127.912C395.471 128.765 394.452 129.192 393.204 129.192ZM393.236 127.512C393.962 127.512 394.522 127.256 394.916 126.744C395.322 126.221 395.524 125.571 395.524 124.792C395.524 124.024 395.311 123.379 394.884 122.856C394.468 122.333 393.908 122.072 393.204 122.072C392.479 122.072 391.919 122.328 391.524 122.84C391.13 123.352 390.932 124.003 390.932 124.792C390.932 125.56 391.14 126.205 391.556 126.728C391.972 127.251 392.532 127.512 393.236 127.512ZM401.515 125.464L401.195 122.872L401.275 122.792C403.248 122.717 404.235 122.109 404.235 120.968C404.235 120.509 404.07 120.141 403.739 119.864C403.408 119.587 402.96 119.448 402.395 119.448C401.446 119.448 400.576 119.869 399.787 120.712L398.587 119.432C399.632 118.248 400.918 117.656 402.443 117.656C403.574 117.656 404.48 117.955 405.163 118.552C405.846 119.139 406.187 119.933 406.187 120.936C406.187 121.885 405.894 122.621 405.307 123.144C404.72 123.656 403.942 123.997 402.971 124.168L402.811 125.464H401.515ZM401.051 129V126.808H403.195V129H401.051Z" fill="white"/>
<path d="M432.44 129V117.8H434.408V123.432L439.736 117.8H442.152L437.496 122.616L442.36 129H439.976L436.152 123.96L434.408 125.752V129H432.44ZM445.618 129V122.216H442.898V120.552H450.29V122.216H447.57V129H445.618ZM455.841 129.192C454.561 129.192 453.495 128.765 452.641 127.912C451.788 127.059 451.361 126.019 451.361 124.792C451.361 123.565 451.793 122.525 452.657 121.672C453.521 120.808 454.593 120.376 455.873 120.376C457.153 120.376 458.22 120.803 459.073 121.656C459.937 122.509 460.369 123.555 460.369 124.792C460.369 126.008 459.937 127.048 459.073 127.912C458.209 128.765 457.132 129.192 455.841 129.192ZM455.873 127.512C456.641 127.512 457.26 127.251 457.729 126.728C458.199 126.205 458.433 125.56 458.433 124.792C458.433 124.035 458.188 123.395 457.697 122.872C457.207 122.339 456.588 122.072 455.841 122.072C455.084 122.072 454.471 122.333 454.001 122.856C453.532 123.379 453.297 124.024 453.297 124.792C453.297 125.539 453.543 126.179 454.033 126.712C454.524 127.245 455.137 127.512 455.873 127.512ZM468.946 129V122.216H466.226V120.552H473.618V122.216H470.898V129H468.946ZM475.154 129V120.552H479.49C480.332 120.552 481.004 120.744 481.506 121.128C482.018 121.501 482.274 122.013 482.274 122.664C482.274 123.549 481.82 124.195 480.914 124.6C482.076 124.931 482.658 125.635 482.658 126.712C482.658 127.427 482.375 127.987 481.81 128.392C481.255 128.797 480.498 129 479.538 129H475.154ZM477.058 127.464H479.25C479.708 127.464 480.06 127.368 480.306 127.176C480.562 126.973 480.69 126.707 480.69 126.376C480.69 126.056 480.556 125.805 480.29 125.624C480.034 125.443 479.655 125.352 479.154 125.352H477.058V127.464ZM477.058 124.04H479.042C479.436 124.04 479.746 123.944 479.97 123.752C480.194 123.56 480.306 123.309 480.306 123C480.306 122.712 480.204 122.483 480.002 122.312C479.799 122.131 479.49 122.04 479.074 122.04H477.058V124.04ZM488.607 129.192C487.327 129.192 486.26 128.765 485.407 127.912C484.554 127.059 484.127 126.019 484.127 124.792C484.127 123.565 484.559 122.525 485.423 121.672C486.287 120.808 487.359 120.376 488.639 120.376C489.919 120.376 490.986 120.803 491.839 121.656C492.703 122.509 493.135 123.555 493.135 124.792C493.135 126.008 492.703 127.048 491.839 127.912C490.975 128.765 489.898 129.192 488.607 129.192ZM488.639 127.512C489.407 127.512 490.026 127.251 490.495 126.728C490.964 126.205 491.199 125.56 491.199 124.792C491.199 124.035 490.954 123.395 490.463 122.872C489.972 122.339 489.354 122.072 488.607 122.072C487.85 122.072 487.236 122.333 486.767 122.856C486.298 123.379 486.063 124.024 486.063 124.792C486.063 125.539 486.308 126.179 486.799 126.712C487.29 127.245 487.903 127.512 488.639 127.512ZM500.643 118.984C500.205 119.379 499.651 119.576 498.979 119.576C498.307 119.576 497.747 119.379 497.299 118.984C496.851 118.579 496.573 118.035 496.467 117.352L497.651 117.128C497.875 117.853 498.317 118.216 498.979 118.216C499.64 118.216 500.083 117.853 500.307 117.128L501.475 117.352C501.368 118.035 501.091 118.579 500.643 118.984ZM495.107 129V120.552H496.995V126.216C498.765 123.699 500.099 121.811 500.995 120.552H502.819V129H500.947V123.368L496.931 129H495.107ZM513.948 129.192C512.7 129.192 511.66 128.771 510.828 127.928C509.996 127.075 509.58 126.04 509.58 124.824V124.792C509.58 123.576 509.996 122.536 510.828 121.672C511.671 120.808 512.716 120.376 513.964 120.376C515.329 120.376 516.455 120.861 517.34 121.832L516.14 123.128C515.468 122.424 514.737 122.072 513.948 122.072C513.255 122.072 512.673 122.333 512.204 122.856C511.745 123.379 511.516 124.013 511.516 124.76V124.792C511.516 125.56 511.751 126.205 512.22 126.728C512.7 127.251 513.308 127.512 514.044 127.512C514.823 127.512 515.553 127.16 516.236 126.456L517.404 127.608C516.945 128.12 516.444 128.515 515.9 128.792C515.367 129.059 514.716 129.192 513.948 129.192ZM520.915 129V122.216H518.195V120.552H525.587V122.216H522.867V129H520.915ZM534.21 129H532.29V127.96C531.608 128.771 530.696 129.176 529.554 129.176C528.712 129.176 527.997 128.947 527.41 128.488C526.834 128.019 526.546 127.368 526.546 126.536C526.546 125.629 526.861 124.941 527.49 124.472C528.12 124.003 528.946 123.768 529.97 123.768C530.792 123.768 531.57 123.885 532.306 124.12V123.96C532.306 123.373 532.125 122.925 531.762 122.616C531.41 122.307 530.898 122.152 530.226 122.152C529.458 122.152 528.653 122.328 527.81 122.68L527.282 121.128C528.328 120.659 529.4 120.424 530.498 120.424C531.725 120.424 532.648 120.733 533.266 121.352C533.896 121.971 534.21 122.851 534.21 123.992V129ZM532.338 125.944V125.464C531.762 125.24 531.117 125.128 530.402 125.128C529.794 125.128 529.32 125.245 528.978 125.48C528.637 125.715 528.466 126.045 528.466 126.472C528.466 126.856 528.621 127.16 528.93 127.384C529.24 127.608 529.629 127.72 530.098 127.72C530.749 127.72 531.282 127.555 531.698 127.224C532.125 126.893 532.338 126.467 532.338 125.944ZM536.513 131.56V120.552H538.449V121.96C539.196 120.904 540.15 120.376 541.313 120.376C542.38 120.376 543.302 120.776 544.081 121.576C544.86 122.365 545.249 123.437 545.249 124.792C545.249 126.125 544.86 127.192 544.081 127.992C543.302 128.781 542.38 129.176 541.313 129.176C540.15 129.176 539.196 128.68 538.449 127.688V131.56H536.513ZM540.865 127.496C541.548 127.496 542.118 127.245 542.577 126.744C543.046 126.243 543.281 125.581 543.281 124.76C543.281 123.96 543.046 123.309 542.577 122.808C542.108 122.307 541.537 122.056 540.865 122.056C540.193 122.056 539.612 122.312 539.121 122.824C538.641 123.336 538.401 123.992 538.401 124.792C538.401 125.581 538.641 126.232 539.121 126.744C539.612 127.245 540.193 127.496 540.865 127.496ZM551.248 129.192C549.968 129.192 548.901 128.765 548.048 127.912C547.194 127.059 546.768 126.019 546.768 124.792C546.768 123.565 547.2 122.525 548.064 121.672C548.928 120.808 550 120.376 551.28 120.376C552.56 120.376 553.626 120.803 554.48 121.656C555.344 122.509 555.776 123.555 555.776 124.792C555.776 126.008 555.344 127.048 554.48 127.912C553.616 128.765 552.538 129.192 551.248 129.192ZM551.28 127.512C552.048 127.512 552.666 127.251 553.136 126.728C553.605 126.205 553.84 125.56 553.84 124.792C553.84 124.035 553.594 123.395 553.104 122.872C552.613 122.339 551.994 122.072 551.248 122.072C550.49 122.072 549.877 122.333 549.408 122.856C548.938 123.379 548.704 124.024 548.704 124.792C548.704 125.539 548.949 126.179 549.44 126.712C549.93 127.245 550.544 127.512 551.28 127.512ZM561.651 129.192C560.403 129.192 559.363 128.771 558.531 127.928C557.699 127.075 557.283 126.04 557.283 124.824V124.792C557.283 123.576 557.699 122.536 558.531 121.672C559.374 120.808 560.419 120.376 561.667 120.376C563.033 120.376 564.158 120.861 565.043 121.832L563.843 123.128C563.171 122.424 562.441 122.072 561.651 122.072C560.958 122.072 560.377 122.333 559.907 122.856C559.449 123.379 559.219 124.013 559.219 124.76V124.792C559.219 125.56 559.454 126.205 559.923 126.728C560.403 127.251 561.011 127.512 561.747 127.512C562.526 127.512 563.257 127.16 563.939 126.456L565.107 127.608C564.649 128.12 564.147 128.515 563.603 128.792C563.07 129.059 562.419 129.192 561.651 129.192ZM568.618 129V122.216H565.898V120.552H573.29V122.216H570.57V129H568.618ZM581.913 129H579.993V127.96C579.311 128.771 578.399 129.176 577.257 129.176C576.415 129.176 575.7 128.947 575.113 128.488C574.537 128.019 574.249 127.368 574.249 126.536C574.249 125.629 574.564 124.941 575.193 124.472C575.823 124.003 576.649 123.768 577.673 123.768C578.495 123.768 579.273 123.885 580.009 124.12V123.96C580.009 123.373 579.828 122.925 579.465 122.616C579.113 122.307 578.601 122.152 577.929 122.152C577.161 122.152 576.356 122.328 575.513 122.68L574.985 121.128C576.031 120.659 577.103 120.424 578.201 120.424C579.428 120.424 580.351 120.733 580.969 121.352C581.599 121.971 581.913 122.851 581.913 123.992V129ZM580.041 125.944V125.464C579.465 125.24 578.82 125.128 578.105 125.128C577.497 125.128 577.023 125.245 576.681 125.48C576.34 125.715 576.169 126.045 576.169 126.472C576.169 126.856 576.324 127.16 576.633 127.384C576.943 127.608 577.332 127.72 577.801 127.72C578.452 127.72 578.985 127.555 579.401 127.224C579.828 126.893 580.041 126.467 580.041 125.944ZM586.312 125.464L585.992 122.872L586.072 122.792C588.045 122.717 589.032 122.109 589.032 120.968C589.032 120.509 588.867 120.141 588.536 119.864C588.205 119.587 587.757 119.448 587.192 119.448C586.243 119.448 585.373 119.869 584.584 120.712L583.384 119.432C584.429 118.248 585.715 117.656 587.24 117.656C588.371 117.656 589.277 117.955 589.96 118.552C590.643 119.139 590.984 119.933 590.984 120.936C590.984 121.885 590.691 122.621 590.104 123.144C589.517 123.656 588.739 123.997 587.768 124.168L587.608 125.464H586.312ZM585.848 129V126.808H587.992V129H585.848Z" fill="white"/>
<path d="M617.44 129V117.8H619.408V123.432L624.736 117.8H627.152L622.496 122.616L627.36 129H624.976L621.152 123.96L619.408 125.752V129H617.44ZM635.898 129H633.978V127.96C633.295 128.771 632.383 129.176 631.242 129.176C630.399 129.176 629.684 128.947 629.098 128.488C628.522 128.019 628.234 127.368 628.234 126.536C628.234 125.629 628.548 124.941 629.178 124.472C629.807 124.003 630.634 123.768 631.658 123.768C632.479 123.768 633.258 123.885 633.994 124.12V123.96C633.994 123.373 633.812 122.925 633.45 122.616C633.098 122.307 632.586 122.152 631.914 122.152C631.146 122.152 630.34 122.328 629.498 122.68L628.97 121.128C630.015 120.659 631.087 120.424 632.186 120.424C633.412 120.424 634.335 120.733 634.954 121.352C635.583 121.971 635.898 122.851 635.898 123.992V129ZM634.026 125.944V125.464C633.45 125.24 632.804 125.128 632.09 125.128C631.482 125.128 631.007 125.245 630.666 125.48C630.324 125.715 630.154 126.045 630.154 126.472C630.154 126.856 630.308 127.16 630.618 127.384C630.927 127.608 631.316 127.72 631.786 127.72C632.436 127.72 632.97 127.555 633.386 127.224C633.812 126.893 634.026 126.467 634.026 125.944ZM638.2 129V120.552H640.12V124.6L643.8 120.552H646.072L642.792 124.104L646.344 129H644.056L641.496 125.512L640.12 126.968V129H638.2ZM652.482 129V120.552H656.818C657.66 120.552 658.332 120.744 658.834 121.128C659.346 121.501 659.602 122.013 659.602 122.664C659.602 123.549 659.148 124.195 658.242 124.6C659.404 124.931 659.986 125.635 659.986 126.712C659.986 127.427 659.703 127.987 659.138 128.392C658.583 128.797 657.826 129 656.866 129H652.482ZM654.386 127.464H656.578C657.036 127.464 657.388 127.368 657.634 127.176C657.89 126.973 658.018 126.707 658.018 126.376C658.018 126.056 657.884 125.805 657.618 125.624C657.362 125.443 656.983 125.352 656.482 125.352H654.386V127.464ZM654.386 124.04H656.37C656.764 124.04 657.074 123.944 657.298 123.752C657.522 123.56 657.634 123.309 657.634 123C657.634 122.712 657.532 122.483 657.33 122.312C657.127 122.131 656.818 122.04 656.402 122.04H654.386V124.04ZM661.919 129V120.552H663.855V123.512H665.631C666.634 123.512 667.444 123.736 668.063 124.184C668.682 124.632 668.991 125.299 668.991 126.184C668.991 127.059 668.703 127.747 668.127 128.248C667.551 128.749 666.767 129 665.775 129H661.919ZM663.855 127.432H665.519C666.01 127.432 666.388 127.325 666.655 127.112C666.922 126.899 667.055 126.589 667.055 126.184C667.055 125.811 666.916 125.523 666.639 125.32C666.372 125.117 665.988 125.016 665.487 125.016H663.855V127.432ZM670.271 129V120.552H672.207V129H670.271ZM674.638 129V120.552H680.622V122.216H676.574V129H674.638ZM682.09 129.096C681.78 129.096 681.402 129.059 680.954 128.984L681.098 127.4C681.268 127.443 681.455 127.464 681.658 127.464C681.882 127.464 682.063 127.432 682.202 127.368C682.351 127.304 682.5 127.144 682.65 126.888C682.81 126.621 682.932 126.248 683.018 125.768C683.103 125.288 683.172 124.616 683.226 123.752C683.279 122.877 683.306 121.811 683.306 120.552H689.69V129H687.754V122.216H685.114C685.114 123.421 685.066 124.445 684.97 125.288C684.874 126.131 684.746 126.797 684.586 127.288C684.436 127.779 684.223 128.163 683.946 128.44C683.679 128.707 683.407 128.883 683.13 128.968C682.852 129.053 682.506 129.096 682.09 129.096ZM691.354 129L693.69 125.832C693.093 125.651 692.613 125.347 692.25 124.92C691.898 124.483 691.722 123.944 691.722 123.304C691.722 122.472 692.016 121.805 692.602 121.304C693.189 120.803 694.005 120.552 695.05 120.552H699.29V129H697.354V126.152H695.626L693.626 129H691.354ZM695.322 124.696H697.354V122.12H695.306C694.794 122.12 694.389 122.237 694.09 122.472C693.802 122.696 693.658 123.005 693.658 123.4C693.658 123.805 693.808 124.125 694.106 124.36C694.416 124.584 694.821 124.696 695.322 124.696ZM700.74 131.032V127.336H701.652C702.281 126.077 702.596 124.163 702.596 121.592V120.552H709.14V127.336H710.34L710.084 131.032H708.468V129H702.548L702.356 131.032H700.74ZM703.636 127.336H707.204V122.216H704.42V123.336C704.42 124.904 704.159 126.237 703.636 127.336ZM711.95 129V120.552H713.838V126.216C715.609 123.699 716.942 121.811 717.838 120.552H719.662V129H717.79V123.368L713.774 129H711.95ZM723.899 129V122.216H721.179V120.552H728.571V122.216H725.851V129H723.899ZM734.904 129V120.552H742.44V129H740.504V122.216H736.84V129H734.904ZM744.872 131.56V120.552H746.808V121.96C747.555 120.904 748.51 120.376 749.672 120.376C750.739 120.376 751.662 120.776 752.44 121.576C753.219 122.365 753.608 123.437 753.608 124.792C753.608 126.125 753.219 127.192 752.44 127.992C751.662 128.781 750.739 129.176 749.672 129.176C748.51 129.176 747.555 128.68 746.808 127.688V131.56H744.872ZM749.224 127.496C749.907 127.496 750.478 127.245 750.936 126.744C751.406 126.243 751.64 125.581 751.64 124.76C751.64 123.96 751.406 123.309 750.936 122.808C750.467 122.307 749.896 122.056 749.224 122.056C748.552 122.056 747.971 122.312 747.48 122.824C747 123.336 746.76 123.992 746.76 124.792C746.76 125.581 747 126.232 747.48 126.744C747.971 127.245 748.552 127.496 749.224 127.496ZM759.463 129.192C758.226 129.192 757.191 128.781 756.359 127.96C755.538 127.139 755.127 126.077 755.127 124.776C755.127 123.549 755.516 122.509 756.295 121.656C757.074 120.803 758.06 120.376 759.255 120.376C760.535 120.376 761.527 120.813 762.231 121.688C762.946 122.552 763.303 123.629 763.303 124.92C763.303 125.155 763.292 125.336 763.271 125.464H757.063C757.17 126.136 757.442 126.664 757.879 127.048C758.316 127.421 758.855 127.608 759.495 127.608C760.327 127.608 761.09 127.272 761.783 126.6L762.919 127.608C762.044 128.664 760.892 129.192 759.463 129.192ZM757.047 124.184H761.383C761.319 123.533 761.1 123 760.727 122.584C760.354 122.168 759.858 121.96 759.239 121.96C758.652 121.96 758.162 122.168 757.767 122.584C757.372 122.989 757.132 123.523 757.047 124.184ZM765.247 129V120.552H772.783V129H770.847V122.216H767.183V129H765.247ZM779.232 129.192C777.952 129.192 776.885 128.765 776.032 127.912C775.179 127.059 774.752 126.019 774.752 124.792C774.752 123.565 775.184 122.525 776.048 121.672C776.912 120.808 777.984 120.376 779.264 120.376C780.544 120.376 781.611 120.803 782.464 121.656C783.328 122.509 783.76 123.555 783.76 124.792C783.76 126.008 783.328 127.048 782.464 127.912C781.6 128.765 780.523 129.192 779.232 129.192ZM779.264 127.512C780.032 127.512 780.651 127.251 781.12 126.728C781.589 126.205 781.824 125.56 781.824 124.792C781.824 124.035 781.579 123.395 781.088 122.872C780.597 122.339 779.979 122.072 779.232 122.072C778.475 122.072 777.861 122.333 777.392 122.856C776.923 123.379 776.688 124.024 776.688 124.792C776.688 125.539 776.933 126.179 777.424 126.712C777.915 127.245 778.528 127.512 779.264 127.512ZM784.756 131.032V127.336H785.668C786.297 126.077 786.612 124.163 786.612 121.592V120.552H793.156V127.336H794.356L794.1 131.032H792.484V129H786.564L786.372 131.032H784.756ZM787.652 127.336H791.22V122.216H788.436V123.336C788.436 124.904 788.174 126.237 787.652 127.336ZM803.054 129H801.134V127.96C800.451 128.771 799.539 129.176 798.398 129.176C797.555 129.176 796.841 128.947 796.254 128.488C795.678 128.019 795.39 127.368 795.39 126.536C795.39 125.629 795.705 124.941 796.334 124.472C796.963 124.003 797.79 123.768 798.814 123.768C799.635 123.768 800.414 123.885 801.15 124.12V123.96C801.15 123.373 800.969 122.925 800.606 122.616C800.254 122.307 799.742 122.152 799.07 122.152C798.302 122.152 797.497 122.328 796.654 122.68L796.126 121.128C797.171 120.659 798.243 120.424 799.342 120.424C800.569 120.424 801.491 120.733 802.11 121.352C802.739 121.971 803.054 122.851 803.054 123.992V129ZM801.182 125.944V125.464C800.606 125.24 799.961 125.128 799.246 125.128C798.638 125.128 798.163 125.245 797.822 125.48C797.481 125.715 797.31 126.045 797.31 126.472C797.31 126.856 797.465 127.16 797.774 127.384C798.083 127.608 798.473 127.72 798.942 127.72C799.593 127.72 800.126 127.555 800.542 127.224C800.969 126.893 801.182 126.467 801.182 125.944ZM805.357 129V120.552H809.693C810.535 120.552 811.207 120.744 811.709 121.128C812.221 121.501 812.477 122.013 812.477 122.664C812.477 123.549 812.023 124.195 811.117 124.6C812.279 124.931 812.861 125.635 812.861 126.712C812.861 127.427 812.578 127.987 812.013 128.392C811.458 128.797 810.701 129 809.741 129H805.357ZM807.261 127.464H809.453C809.911 127.464 810.263 127.368 810.509 127.176C810.765 126.973 810.893 126.707 810.893 126.376C810.893 126.056 810.759 125.805 810.493 125.624C810.237 125.443 809.858 125.352 809.357 125.352H807.261V127.464ZM807.261 124.04H809.245C809.639 124.04 809.949 123.944 810.173 123.752C810.397 123.56 810.509 123.309 810.509 123C810.509 122.712 810.407 122.483 810.205 122.312C810.002 122.131 809.693 122.04 809.277 122.04H807.261V124.04ZM821.882 129H819.962V127.96C819.279 128.771 818.367 129.176 817.226 129.176C816.383 129.176 815.669 128.947 815.082 128.488C814.506 128.019 814.218 127.368 814.218 126.536C814.218 125.629 814.533 124.941 815.162 124.472C815.791 124.003 816.618 123.768 817.642 123.768C818.463 123.768 819.242 123.885 819.978 124.12V123.96C819.978 123.373 819.797 122.925 819.434 122.616C819.082 122.307 818.57 122.152 817.898 122.152C817.13 122.152 816.325 122.328 815.482 122.68L814.954 121.128C815.999 120.659 817.071 120.424 818.17 120.424C819.397 120.424 820.319 120.733 820.938 121.352C821.567 121.971 821.882 122.851 821.882 123.992V129ZM820.01 125.944V125.464C819.434 125.24 818.789 125.128 818.074 125.128C817.466 125.128 816.991 125.245 816.65 125.48C816.309 125.715 816.138 126.045 816.138 126.472C816.138 126.856 816.293 127.16 816.602 127.384C816.911 127.608 817.301 127.72 817.77 127.72C818.421 127.72 818.954 127.555 819.37 127.224C819.797 126.893 820.01 126.467 820.01 125.944ZM825.993 129V122.216H823.273V120.552H830.665V122.216H827.945V129H825.993ZM836.072 129.192C834.835 129.192 833.8 128.781 832.968 127.96C832.147 127.139 831.736 126.077 831.736 124.776C831.736 123.549 832.126 122.509 832.904 121.656C833.683 120.803 834.67 120.376 835.864 120.376C837.144 120.376 838.136 120.813 838.84 121.688C839.555 122.552 839.912 123.629 839.912 124.92C839.912 125.155 839.902 125.336 839.88 125.464H833.672C833.779 126.136 834.051 126.664 834.488 127.048C834.926 127.421 835.464 127.608 836.104 127.608C836.936 127.608 837.699 127.272 838.392 126.6L839.528 127.608C838.654 128.664 837.502 129.192 836.072 129.192ZM833.656 124.184H837.992C837.928 123.533 837.71 123 837.336 122.584C836.963 122.168 836.467 121.96 835.848 121.96C835.262 121.96 834.771 122.168 834.376 122.584C833.982 122.989 833.742 123.523 833.656 124.184ZM841.793 129.096C841.483 129.096 841.105 129.059 840.657 128.984L840.801 127.4C840.971 127.443 841.158 127.464 841.361 127.464C841.585 127.464 841.766 127.432 841.905 127.368C842.054 127.304 842.203 127.144 842.353 126.888C842.513 126.621 842.635 126.248 842.721 125.768C842.806 125.288 842.875 124.616 842.929 123.752C842.982 122.877 843.009 121.811 843.009 120.552H849.393V129H847.457V122.216H844.817C844.817 123.421 844.769 124.445 844.673 125.288C844.577 126.131 844.449 126.797 844.289 127.288C844.139 127.779 843.926 128.163 843.649 128.44C843.382 128.707 843.11 128.883 842.833 128.968C842.555 129.053 842.209 129.096 841.793 129.096ZM851.825 129V120.552H853.761V123.512H855.697C856.7 123.512 857.511 123.736 858.129 124.184C858.748 124.632 859.057 125.299 859.057 126.184C859.057 127.059 858.769 127.747 858.193 128.248C857.617 128.749 856.833 129 855.841 129H851.825ZM853.761 127.432H855.585C856.076 127.432 856.455 127.325 856.721 127.112C856.988 126.899 857.121 126.589 857.121 126.184C857.121 125.811 856.983 125.523 856.705 125.32C856.439 125.117 856.055 125.016 855.553 125.016H853.761V127.432ZM862.843 125.464L862.523 122.872L862.603 122.792C864.577 122.717 865.563 122.109 865.563 120.968C865.563 120.509 865.398 120.141 865.067 119.864C864.737 119.587 864.289 119.448 863.723 119.448C862.774 119.448 861.905 119.869 861.115 120.712L859.915 119.432C860.961 118.248 862.246 117.656 863.771 117.656C864.902 117.656 865.809 117.955 866.491 118.552C867.174 119.139 867.515 119.933 867.515 120.936C867.515 121.885 867.222 122.621 866.635 123.144C866.049 123.656 865.27 123.997 864.299 124.168L864.139 125.464H862.843ZM862.379 129V126.808H864.523V129H862.379Z" fill="white"/>
<path d="M197.296 185.192C195.504 185.192 193.947 184.589 192.624 183.384L193.376 182.504C194.507 183.571 195.819 184.104 197.312 184.104C198.027 184.104 198.64 183.907 199.152 183.512C199.664 183.107 199.92 182.584 199.92 181.944C199.92 181.251 199.643 180.733 199.088 180.392C198.533 180.051 197.803 179.88 196.896 179.88H195.664V178.84H196.896C197.707 178.84 198.363 178.653 198.864 178.28C199.376 177.896 199.632 177.379 199.632 176.728C199.632 176.152 199.392 175.677 198.912 175.304C198.443 174.92 197.84 174.728 197.104 174.728C195.845 174.728 194.747 175.149 193.808 175.992L193.072 175.112C193.659 174.611 194.267 174.237 194.896 173.992C195.536 173.747 196.283 173.624 197.136 173.624C198.245 173.624 199.152 173.907 199.856 174.472C200.56 175.037 200.912 175.752 200.912 176.616C200.912 177.885 200.229 178.765 198.864 179.256C199.579 179.469 200.149 179.805 200.576 180.264C201.003 180.723 201.216 181.304 201.216 182.008C201.216 182.915 200.848 183.672 200.112 184.28C199.387 184.888 198.448 185.192 197.296 185.192ZM202.652 187.064V183.912H203.548C204.284 182.557 204.652 180.643 204.652 178.168V176.728H210.54V183.912H211.788L211.596 187.064H210.572V185H203.884L203.66 187.064H202.652ZM204.86 183.912H209.308V177.816H205.836V178.968C205.836 181.048 205.511 182.696 204.86 183.912ZM217.413 185.192C216.251 185.192 215.269 184.792 214.469 183.992C213.68 183.181 213.285 182.141 213.285 180.872C213.285 179.667 213.664 178.648 214.421 177.816C215.179 176.973 216.123 176.552 217.253 176.552C218.437 176.552 219.376 176.968 220.069 177.8C220.763 178.632 221.109 179.677 221.109 180.936C221.109 181.096 221.104 181.24 221.093 181.368H214.533C214.619 182.211 214.933 182.883 215.477 183.384C216.032 183.875 216.688 184.12 217.445 184.12C218.437 184.12 219.307 183.731 220.053 182.952L220.821 183.64C219.893 184.675 218.757 185.192 217.413 185.192ZM214.533 180.376H219.861C219.787 179.576 219.52 178.915 219.061 178.392C218.613 177.859 218 177.592 217.221 177.592C216.517 177.592 215.915 177.853 215.413 178.376C214.912 178.899 214.619 179.565 214.533 180.376ZM227.314 185.192C226.119 185.192 225.111 184.771 224.29 183.928C223.479 183.075 223.074 182.056 223.074 180.872C223.074 179.688 223.479 178.675 224.29 177.832C225.111 176.979 226.119 176.552 227.314 176.552C228.594 176.552 229.698 177.043 230.626 178.024L229.842 178.856C229.074 178.045 228.226 177.64 227.298 177.64C226.466 177.64 225.762 177.955 225.186 178.584C224.621 179.203 224.338 179.965 224.338 180.872C224.338 181.768 224.626 182.531 225.202 183.16C225.789 183.779 226.514 184.088 227.378 184.088C228.263 184.088 229.095 183.672 229.874 182.84L230.69 183.592C229.73 184.659 228.605 185.192 227.314 185.192ZM233.047 185V176.728H234.279V179.832H236.487C237.447 179.832 238.231 180.04 238.839 180.456C239.447 180.861 239.751 181.48 239.751 182.312C239.751 183.133 239.468 183.789 238.903 184.28C238.337 184.76 237.58 185 236.631 185H233.047ZM234.279 183.912H236.519C237.148 183.912 237.633 183.779 237.975 183.512C238.327 183.245 238.503 182.856 238.503 182.344C238.503 181.875 238.321 181.517 237.959 181.272C237.607 181.016 237.111 180.888 236.471 180.888H234.279V183.912ZM249.093 185V177.816H246.133V176.728H253.301V177.816H250.341V185H249.093ZM255.413 185V176.728H256.645V179.832H258.853C259.813 179.832 260.597 180.04 261.205 180.456C261.813 180.861 262.117 181.48 262.117 182.312C262.117 183.133 261.834 183.789 261.269 184.28C260.704 184.76 259.946 185 258.997 185H255.413ZM256.645 183.912H258.885C259.514 183.912 260 183.779 260.341 183.512C260.693 183.245 260.869 182.856 260.869 182.344C260.869 181.875 260.688 181.517 260.325 181.272C259.973 181.016 259.477 180.888 258.837 180.888H256.645V183.912ZM263.605 185V176.728H264.837V185H263.605ZM273.022 185V176.728H274.254V180.296H279.022V176.728H280.254V185H279.022V181.384H274.254V185H273.022ZM285.79 185.176C284.947 185.176 284.222 184.947 283.614 184.488C283.006 184.029 282.702 183.389 282.702 182.568C282.702 181.704 283.022 181.037 283.662 180.568C284.302 180.099 285.161 179.864 286.238 179.864C287.091 179.864 287.934 179.981 288.766 180.216V179.96C288.766 179.235 288.553 178.68 288.126 178.296C287.699 177.912 287.097 177.72 286.318 177.72C285.507 177.72 284.67 177.917 283.806 178.312L283.438 177.304C284.462 176.835 285.465 176.6 286.446 176.6C287.619 176.6 288.51 176.904 289.118 177.512C289.694 178.088 289.982 178.899 289.982 179.944V185H288.766V183.768C288.03 184.707 287.038 185.176 285.79 185.176ZM286.03 184.184C286.798 184.184 287.449 183.976 287.982 183.56C288.515 183.144 288.782 182.611 288.782 181.96V181.192C287.971 180.957 287.166 180.84 286.366 180.84C285.609 180.84 285.017 180.995 284.59 181.304C284.163 181.603 283.95 182.013 283.95 182.536C283.95 183.037 284.147 183.437 284.542 183.736C284.947 184.035 285.443 184.184 286.03 184.184ZM292.912 185V176.728H294.144V183.272L299.056 176.728H300.256V185H299.024V178.456L294.096 185H292.912ZM298.032 175C297.626 175.363 297.13 175.544 296.544 175.544C295.957 175.544 295.456 175.363 295.04 175C294.634 174.637 294.384 174.168 294.288 173.592L295.136 173.416C295.349 174.163 295.818 174.536 296.544 174.536C297.269 174.536 297.738 174.163 297.952 173.416L298.8 173.592C298.704 174.168 298.448 174.637 298.032 175ZM302.109 187.064V183.912H303.005C303.741 182.557 304.109 180.643 304.109 178.168V176.728H309.997V183.912H311.245L311.053 187.064H310.029V185H303.341L303.117 187.064H302.109ZM304.317 183.912H308.765V177.816H305.293V178.968C305.293 181.048 304.968 182.696 304.317 183.912ZM316.871 185.192C315.708 185.192 314.727 184.792 313.927 183.992C313.137 183.181 312.743 182.141 312.743 180.872C312.743 179.667 313.121 178.648 313.879 177.816C314.636 176.973 315.58 176.552 316.711 176.552C317.895 176.552 318.833 176.968 319.527 177.8C320.22 178.632 320.567 179.677 320.567 180.936C320.567 181.096 320.561 181.24 320.551 181.368H313.991C314.076 182.211 314.391 182.883 314.935 183.384C315.489 183.875 316.145 184.12 316.903 184.12C317.895 184.12 318.764 183.731 319.511 182.952L320.279 183.64C319.351 184.675 318.215 185.192 316.871 185.192ZM313.991 180.376H319.319C319.244 179.576 318.977 178.915 318.519 178.392C318.071 177.859 317.457 177.592 316.679 177.592C315.975 177.592 315.372 177.853 314.871 178.376C314.369 178.899 314.076 179.565 313.991 180.376ZM323.043 185V176.728H324.275V183.912H328.307V176.728H329.539V183.912H333.571V176.728H334.819V185H323.043ZM337.895 185V176.728H339.127V179.832H341.335C342.295 179.832 343.079 180.04 343.687 180.456C344.295 180.861 344.599 181.48 344.599 182.312C344.599 183.133 344.316 183.789 343.751 184.28C343.185 184.76 342.428 185 341.479 185H337.895ZM339.127 183.912H341.367C341.996 183.912 342.481 183.779 342.823 183.512C343.175 183.245 343.351 182.856 343.351 182.344C343.351 181.875 343.169 181.517 342.807 181.272C342.455 181.016 341.959 180.888 341.319 180.888H339.127V183.912Z" fill="#CECECE"/>
<path d="M226.5 237.35C222.967 240.85 218.533 242.6 213.2 242.6C207.867 242.6 203.433 240.85 199.9 237.35C196.4 233.85 194.65 229.567 194.65 224.5C194.65 219.467 196.417 215.2 199.95 211.7C203.517 208.167 207.967 206.4 213.3 206.4C218.633 206.4 223.05 208.15 226.55 211.65C230.083 215.15 231.85 219.433 231.85 224.5C231.85 229.533 230.067 233.817 226.5 237.35ZM205.7 232.3C207.7 234.433 210.233 235.5 213.3 235.5C216.367 235.5 218.883 234.45 220.85 232.35C222.817 230.217 223.8 227.6 223.8 224.5C223.8 221.433 222.8 218.833 220.8 216.7C218.8 214.567 216.267 213.5 213.2 213.5C210.133 213.5 207.617 214.567 205.65 216.7C203.683 218.8 202.7 221.4 202.7 224.5C202.7 227.567 203.7 230.167 205.7 232.3ZM258.83 215.2V221.7H250.88V242H243.18V221.7H235.23V215.2H258.83ZM262.978 215.2H277.678C280.411 215.2 282.578 215.8 284.178 217C285.811 218.2 286.628 219.833 286.628 221.9C286.628 224.7 285.211 226.717 282.378 227.95C285.878 229.017 287.628 231.267 287.628 234.7C287.628 236.967 286.728 238.75 284.928 240.05C283.161 241.35 280.728 242 277.628 242H262.978V215.2ZM270.478 225.95H275.828C276.861 225.95 277.645 225.7 278.178 225.2C278.745 224.7 279.028 224.05 279.028 223.25C279.028 222.55 278.761 221.967 278.228 221.5C277.728 221.033 276.961 220.8 275.928 220.8H270.478V225.95ZM270.478 236.05H276.478C278.778 236.05 279.928 235.15 279.928 233.35C279.928 231.617 278.711 230.75 276.278 230.75H270.478V236.05ZM305.659 242.6C301.592 242.6 298.242 241.317 295.609 238.75C292.975 236.15 291.659 232.783 291.659 228.65C291.659 224.75 292.909 221.45 295.409 218.75C297.909 216.05 301.075 214.7 304.909 214.7C309.142 214.7 312.375 216.1 314.609 218.9C316.842 221.7 317.959 225.15 317.959 229.25C317.959 229.65 317.925 230.317 317.859 231.25H299.209C299.575 232.95 300.325 234.25 301.459 235.15C302.592 236.05 304.025 236.5 305.759 236.5C308.125 236.5 310.292 235.583 312.259 233.75L316.609 237.6C313.909 240.933 310.259 242.6 305.659 242.6ZM299.109 226.5H310.559C310.325 224.767 309.709 223.383 308.709 222.35C307.742 221.317 306.475 220.8 304.909 220.8C303.375 220.8 302.092 221.317 301.059 222.35C300.059 223.35 299.409 224.733 299.109 226.5ZM344.573 215.2V221.7H336.623V242H328.923V221.7H320.973V215.2H344.573ZM348.72 242V215.2H356.32V224.05H361.82C365.054 224.05 367.637 224.8 369.57 226.3C371.537 227.8 372.52 230 372.52 232.9C372.52 235.733 371.604 237.967 369.77 239.6C367.97 241.2 365.454 242 362.22 242H348.72ZM361.07 229.8H356.32V236H361.12C363.62 236 364.87 234.933 364.87 232.8C364.87 231.867 364.537 231.133 363.87 230.6C363.237 230.067 362.304 229.8 361.07 229.8ZM376.07 242V215.2H383.67V242H376.07ZM430.009 215.2V242H422.409V231.75H413.059V242H405.459V215.2H413.059V225.5H422.409V215.2H430.009ZM444.406 242.5C441.773 242.5 439.573 241.767 437.806 240.3C436.073 238.833 435.206 236.8 435.206 234.2C435.206 231.367 436.173 229.233 438.106 227.8C440.073 226.367 442.706 225.65 446.006 225.65C448.24 225.65 450.423 226.017 452.556 226.75V226.3C452.556 223.033 450.64 221.4 446.806 221.4C444.506 221.4 442.04 221.883 439.406 222.85L437.506 217.05C440.773 215.617 444.24 214.9 447.906 214.9C451.94 214.9 454.956 215.9 456.956 217.9C458.89 219.833 459.856 222.683 459.856 226.45V242H452.506V239.1C450.473 241.367 447.773 242.5 444.406 242.5ZM446.706 237.25C448.473 237.25 449.906 236.817 451.006 235.95C452.106 235.05 452.656 233.917 452.656 232.55V231.2C451.223 230.533 449.606 230.2 447.806 230.2C446.14 230.2 444.84 230.533 443.906 231.2C443.006 231.833 442.556 232.767 442.556 234C442.556 235 442.94 235.8 443.706 236.4C444.473 236.967 445.473 237.25 446.706 237.25ZM481.386 215.2H496.086C498.82 215.2 500.986 215.8 502.586 217C504.22 218.2 505.036 219.833 505.036 221.9C505.036 224.7 503.62 226.717 500.786 227.95C504.286 229.017 506.036 231.267 506.036 234.7C506.036 236.967 505.136 238.75 503.336 240.05C501.57 241.35 499.136 242 496.036 242H481.386V215.2ZM488.886 225.95H494.236C495.27 225.95 496.053 225.7 496.586 225.2C497.153 224.7 497.436 224.05 497.436 223.25C497.436 222.55 497.17 221.967 496.636 221.5C496.136 221.033 495.37 220.8 494.336 220.8H488.886V225.95ZM488.886 236.05H494.886C497.186 236.05 498.336 235.15 498.336 233.35C498.336 231.617 497.12 230.75 494.686 230.75H488.886V236.05ZM524.017 242.6C520.017 242.6 516.683 241.25 514.017 238.55C511.383 235.85 510.067 232.55 510.067 228.65C510.067 224.783 511.4 221.5 514.067 218.8C516.733 216.067 520.083 214.7 524.117 214.7C528.417 214.7 531.967 216.267 534.767 219.4L530.317 223.9C528.45 222.133 526.367 221.25 524.067 221.25C522.2 221.25 520.65 221.967 519.417 223.4C518.183 224.833 517.567 226.583 517.567 228.65C517.567 230.75 518.183 232.517 519.417 233.95C520.683 235.35 522.333 236.05 524.367 236.05C526.467 236.05 528.517 235.1 530.517 233.2L534.967 237.7C533.5 239.3 531.933 240.517 530.267 241.35C528.6 242.183 526.517 242.6 524.017 242.6ZM552.631 242.6C548.565 242.6 545.215 241.317 542.581 238.75C539.948 236.15 538.631 232.783 538.631 228.65C538.631 224.75 539.881 221.45 542.381 218.75C544.881 216.05 548.048 214.7 551.881 214.7C556.115 214.7 559.348 216.1 561.581 218.9C563.815 221.7 564.931 225.15 564.931 229.25C564.931 229.65 564.898 230.317 564.831 231.25H546.181C546.548 232.95 547.298 234.25 548.431 235.15C549.565 236.05 550.998 236.5 552.731 236.5C555.098 236.5 557.265 235.583 559.231 233.75L563.581 237.6C560.881 240.933 557.231 242.6 552.631 242.6ZM546.081 226.5H557.531C557.298 224.767 556.681 223.383 555.681 222.35C554.715 221.317 553.448 220.8 551.881 220.8C550.348 220.8 549.065 221.317 548.031 222.35C547.031 223.35 546.381 224.733 546.081 226.5ZM216.35 271.2V277.7H208.4V298H200.7V277.7H192.75V271.2H216.35ZM220.498 271.2H235.198C237.931 271.2 240.098 271.8 241.698 273C243.331 274.2 244.148 275.833 244.148 277.9C244.148 280.7 242.731 282.717 239.898 283.95C243.398 285.017 245.148 287.267 245.148 290.7C245.148 292.967 244.248 294.75 242.448 296.05C240.681 297.35 238.248 298 235.148 298H220.498V271.2ZM227.998 281.95H233.348C234.381 281.95 235.164 281.7 235.698 281.2C236.264 280.7 236.548 280.05 236.548 279.25C236.548 278.55 236.281 277.967 235.748 277.5C235.248 277.033 234.481 276.8 233.448 276.8H227.998V281.95ZM227.998 292.05H233.998C236.298 292.05 237.448 291.15 237.448 289.35C237.448 287.617 236.231 286.75 233.798 286.75H227.998V292.05ZM273.978 294.55C271.211 297.25 267.761 298.6 263.628 298.6C259.495 298.6 256.045 297.267 253.278 294.6C250.545 291.9 249.178 288.583 249.178 284.65C249.178 280.75 250.561 277.45 253.328 274.75C256.128 272.05 259.595 270.7 263.728 270.7C267.861 270.7 271.295 272.05 274.028 274.75C276.795 277.417 278.178 280.717 278.178 284.65C278.178 288.55 276.778 291.85 273.978 294.55ZM263.728 292.05C265.828 292.05 267.511 291.35 268.778 289.95C270.045 288.517 270.678 286.75 270.678 284.65C270.678 282.617 270.011 280.883 268.678 279.45C267.378 277.983 265.695 277.25 263.628 277.25C261.528 277.25 259.845 277.967 258.578 279.4C257.311 280.8 256.678 282.55 256.678 284.65C256.678 286.683 257.328 288.433 258.628 289.9C259.961 291.333 261.661 292.05 263.728 292.05ZM308.631 271.2V298H301.281V282.4L290.831 298H283.681V271.2H291.031V286.85L301.481 271.2H308.631ZM330.41 271.2H345.11C347.843 271.2 350.01 271.8 351.61 273C353.243 274.2 354.06 275.833 354.06 277.9C354.06 280.7 352.643 282.717 349.81 283.95C353.31 285.017 355.06 287.267 355.06 290.7C355.06 292.967 354.16 294.75 352.36 296.05C350.593 297.35 348.16 298 345.06 298H330.41V271.2ZM337.91 281.95H343.26C344.293 281.95 345.076 281.7 345.61 281.2C346.176 280.7 346.46 280.05 346.46 279.25C346.46 278.55 346.193 277.967 345.66 277.5C345.16 277.033 344.393 276.8 343.36 276.8H337.91V281.95ZM337.91 292.05H343.91C346.21 292.05 347.36 291.15 347.36 289.35C347.36 287.617 346.143 286.75 343.71 286.75H337.91V292.05ZM383.89 294.55C381.124 297.25 377.674 298.6 373.54 298.6C369.407 298.6 365.957 297.267 363.19 294.6C360.457 291.9 359.09 288.583 359.09 284.65C359.09 280.75 360.474 277.45 363.24 274.75C366.04 272.05 369.507 270.7 373.64 270.7C377.774 270.7 381.207 272.05 383.94 274.75C386.707 277.417 388.09 280.717 388.09 284.65C388.09 288.55 386.69 291.85 383.89 294.55ZM373.64 292.05C375.74 292.05 377.424 291.35 378.69 289.95C379.957 288.517 380.59 286.75 380.59 284.65C380.59 282.617 379.924 280.883 378.59 279.45C377.29 277.983 375.607 277.25 373.54 277.25C371.44 277.25 369.757 277.967 368.49 279.4C367.224 280.8 366.59 282.55 366.59 284.65C366.59 286.683 367.24 288.433 368.54 289.9C369.874 291.333 371.574 292.05 373.64 292.05ZM417.943 271.2V298H410.343V277.7H401.193V298H393.593V271.2H417.943ZM424.746 306V271.2H432.346V275.05C434.479 272.15 437.262 270.7 440.696 270.7C444.029 270.7 446.896 271.95 449.296 274.45C451.696 276.95 452.896 280.35 452.896 284.65C452.896 288.917 451.696 292.3 449.296 294.8C446.929 297.267 444.062 298.5 440.696 298.5C437.362 298.5 434.579 297.167 432.346 294.5V306H424.746ZM434.096 290C435.362 291.367 436.912 292.05 438.746 292.05C440.579 292.05 442.129 291.367 443.396 290C444.662 288.6 445.296 286.783 445.296 284.55C445.296 282.383 444.662 280.617 443.396 279.25C442.129 277.85 440.579 277.15 438.746 277.15C436.912 277.15 435.362 277.85 434.096 279.25C432.862 280.617 432.246 282.417 432.246 284.65C432.246 286.817 432.862 288.6 434.096 290ZM481.986 294.55C479.219 297.25 475.769 298.6 471.636 298.6C467.503 298.6 464.053 297.267 461.286 294.6C458.553 291.9 457.186 288.583 457.186 284.65C457.186 280.75 458.569 277.45 461.336 274.75C464.136 272.05 467.603 270.7 471.736 270.7C475.869 270.7 479.303 272.05 482.036 274.75C484.803 277.417 486.186 280.717 486.186 284.65C486.186 288.55 484.786 291.85 481.986 294.55ZM471.736 292.05C473.836 292.05 475.519 291.35 476.786 289.95C478.053 288.517 478.686 286.75 478.686 284.65C478.686 282.617 478.019 280.883 476.686 279.45C475.386 277.983 473.703 277.25 471.636 277.25C469.536 277.25 467.853 277.967 466.586 279.4C465.319 280.8 464.686 282.55 464.686 284.65C464.686 286.683 465.336 288.433 466.636 289.9C467.969 291.333 469.669 292.05 471.736 292.05ZM504.339 298.6C500.339 298.6 497.006 297.25 494.339 294.55C491.706 291.85 490.389 288.55 490.389 284.65C490.389 280.783 491.722 277.5 494.389 274.8C497.056 272.067 500.406 270.7 504.439 270.7C508.739 270.7 512.289 272.267 515.089 275.4L510.639 279.9C508.772 278.133 506.689 277.25 504.389 277.25C502.522 277.25 500.972 277.967 499.739 279.4C498.506 280.833 497.889 282.583 497.889 284.65C497.889 286.75 498.506 288.517 499.739 289.95C501.006 291.35 502.656 292.05 504.689 292.05C506.789 292.05 508.839 291.1 510.839 289.2L515.289 293.7C513.822 295.3 512.256 296.517 510.589 297.35C508.922 298.183 506.839 298.6 504.339 298.6ZM520.254 298V271.2H527.854V280.05H533.354C536.587 280.05 539.17 280.8 541.104 282.3C543.07 283.8 544.054 286 544.054 288.9C544.054 291.733 543.137 293.967 541.304 295.6C539.504 297.2 536.987 298 533.754 298H520.254ZM532.604 285.8H527.854V292H532.654C535.154 292 536.404 290.933 536.404 288.8C536.404 287.867 536.07 287.133 535.404 286.6C534.77 286.067 533.837 285.8 532.604 285.8ZM547.604 298V271.2H555.204V298H547.604Z" fill="white"/>
<rect x="192" y="344" width="168" height="48" rx="24" fill="#615FC5"/>
<path d="M259.798 373.198C258.934 373.198 258.112 372.988 257.332 372.568L258.178 370.912C258.646 371.176 259.162 371.308 259.726 371.308C260.482 371.308 261.142 370.852 261.706 369.94L256.45 360.4H258.934L262.858 367.726L266.314 360.4H268.708L263.794 370.246C262.822 372.214 261.49 373.198 259.798 373.198ZM273.792 373.216C272.16 373.216 270.774 372.73 269.634 371.758L270.66 370.318C271.548 371.074 272.544 371.452 273.648 371.452C274.152 371.452 274.578 371.332 274.926 371.092C275.274 370.84 275.448 370.522 275.448 370.138C275.448 369.778 275.28 369.49 274.944 369.274C274.608 369.058 274.134 368.95 273.522 368.95H272.352V367.384H273.522C274.026 367.384 274.428 367.27 274.728 367.042C275.04 366.802 275.196 366.502 275.196 366.142C275.196 365.818 275.046 365.56 274.746 365.368C274.458 365.164 274.086 365.062 273.63 365.062C272.574 365.062 271.674 365.386 270.93 366.034L269.958 364.666C271.002 363.754 272.292 363.298 273.828 363.298C274.872 363.298 275.724 363.538 276.384 364.018C277.044 364.498 277.374 365.11 277.374 365.854C277.374 366.862 276.876 367.582 275.88 368.014C277.032 368.422 277.608 369.19 277.608 370.318C277.608 371.134 277.254 371.824 276.546 372.388C275.838 372.94 274.92 373.216 273.792 373.216ZM279.868 373V363.496H282.046V367.348H286.24V363.496H288.418V373H286.24V369.166H282.046V373H279.868ZM299.127 373H296.967V371.83C296.199 372.742 295.173 373.198 293.889 373.198C292.941 373.198 292.137 372.94 291.477 372.424C290.829 371.896 290.505 371.164 290.505 370.228C290.505 369.208 290.859 368.434 291.567 367.906C292.275 367.378 293.205 367.114 294.357 367.114C295.281 367.114 296.157 367.246 296.985 367.51V367.33C296.985 366.67 296.781 366.166 296.373 365.818C295.977 365.47 295.401 365.296 294.645 365.296C293.781 365.296 292.875 365.494 291.927 365.89L291.333 364.144C292.509 363.616 293.715 363.352 294.951 363.352C296.331 363.352 297.369 363.7 298.065 364.396C298.773 365.092 299.127 366.082 299.127 367.366V373ZM297.021 369.562V369.022C296.373 368.77 295.647 368.644 294.843 368.644C294.159 368.644 293.625 368.776 293.241 369.04C292.857 369.304 292.665 369.676 292.665 370.156C292.665 370.588 292.839 370.93 293.187 371.182C293.535 371.434 293.973 371.56 294.501 371.56C295.233 371.56 295.833 371.374 296.301 371.002C296.781 370.63 297.021 370.15 297.021 369.562ZM303.752 373V365.368H300.692V363.496H309.008V365.368H305.948V373H303.752ZM310.735 373V363.496H312.913V366.826H315.091C316.219 366.826 317.131 367.078 317.827 367.582C318.523 368.086 318.871 368.836 318.871 369.832C318.871 370.816 318.547 371.59 317.899 372.154C317.251 372.718 316.369 373 315.253 373H310.735ZM312.913 371.236H314.965C315.517 371.236 315.943 371.116 316.243 370.876C316.543 370.636 316.693 370.288 316.693 369.832C316.693 369.412 316.537 369.088 316.225 368.86C315.925 368.632 315.493 368.518 314.929 368.518H312.913V371.236Z" fill="white"/>
<path d="M220 378C225.523 378 230 373.523 230 368C230 362.477 225.523 358 220 358C214.477 358 210 362.477 210 368C210 373.523 214.477 378 220 378Z" fill="white" stroke="white" stroke-width="2" stroke-linecap="round" stroke-linejoin="round"/>
<path d="M216 368L220 372L224 368" stroke="#615FC5" stroke-width="2" stroke-linecap="round" stroke-linejoin="round"/>
<path d="M220 364V372" stroke="#615FC5" stroke-width="2" stroke-linecap="round" stroke-linejoin="round"/>
</g>
<defs>
<filter id="filter0_f_3_13" x="261.558" y="129.381" width="505.711" height="452.931" filterUnits="userSpaceOnUse" color-interpolation-filters="sRGB">
<feFlood flood-opacity="0" result="BackgroundImageFix"/>
<feBlend mode="normal" in="SourceGraphic" in2="BackgroundImageFix" result="shape"/>
<feGaussianBlur stdDeviation="50" result="effect1_foregroundBlur_3_13"/>
</filter>
<filter id="filter1_f_3_13" x="587" y="-196" width="481" height="448" filterUnits="userSpaceOnUse" color-interpolation-filters="sRGB">
<feFlood flood-opacity="0" result="BackgroundImageFix"/>
<feBlend mode="normal" in="SourceGraphic" in2="BackgroundImageFix" result="shape"/>
<feGaussianBlur stdDeviation="50" result="effect1_foregroundBlur_3_13"/>
</filter>
<filter id="filter2_f_3_13" x="765" y="205" width="446" height="425" filterUnits="userSpaceOnUse" color-interpolation-filters="sRGB">
<feFlood flood-opacity="0" result="BackgroundImageFix"/>
<feBlend mode="normal" in="SourceGraphic" in2="BackgroundImageFix" result="shape"/>
<feGaussianBlur stdDeviation="50" result="effect1_foregroundBlur_3_13"/>
</filter>
<filter id="filter3_f_3_13" x="857" y="218" width="469" height="404" filterUnits="userSpaceOnUse" color-interpolation-filters="sRGB">
<feFlood flood-opacity="0" result="BackgroundImageFix"/>
<feBlend mode="normal" in="SourceGraphic" in2="BackgroundImageFix" result="shape"/>
<feGaussianBlur stdDeviation="50" result="effect1_foregroundBlur_3_13"/>
</filter>
<filter id="filter4_f_3_13" x="-269.649" y="-69.1657" width="661.896" height="641.499" filterUnits="userSpaceOnUse" color-interpolation-filters="sRGB">
<feFlood flood-opacity="0" result="BackgroundImageFix"/>
<feBlend mode="normal" in="SourceGraphic" in2="BackgroundImageFix" result="shape"/>
<feGaussianBlur stdDeviation="50" result="effect1_foregroundBlur_3_13"/>
</filter>
<linearGradient id="paint0_linear_3_13" x1="353.534" y1="75.0937" x2="271.899" y2="540.717" gradientUnits="userSpaceOnUse">
<stop stop-color="#2CCBD6"/>
<stop offset="0.520833" stop-color="#4836B6"/>
<stop offset="1" stop-color="#79169B"/>
</linearGradient>
<clipPath id="clip0_3_13">
<path d="M0 0H1128V464C1128 468.418 1124.42 472 1120 472H7.99998C3.5817 472 0 468.418 0 464V0Z" fill="white"/>
</clipPath>
</defs>
</svg>
