<svg width="1128" height="712" viewBox="0 0 1128 712" fill="none" xmlns="http://www.w3.org/2000/svg">
<path d="M443.821 139V111H455.261C458.568 111 461.181 111.893 463.101 113.68C465.021 115.467 465.981 117.827 465.981 120.76C465.981 123.88 464.914 126.307 462.781 128.04C460.648 129.747 457.941 130.6 454.661 130.6H449.981V139H443.821ZM449.981 125.12H454.861C456.381 125.12 457.568 124.72 458.421 123.92C459.301 123.12 459.741 122.08 459.741 120.8C459.741 119.44 459.301 118.4 458.421 117.68C457.541 116.933 456.314 116.56 454.741 116.56H449.981V125.12ZM475.98 139.4C473.873 139.4 472.113 138.813 470.7 137.64C469.313 136.467 468.62 134.84 468.62 132.76C468.62 130.493 469.393 128.787 470.94 127.64C472.513 126.493 474.62 125.92 477.26 125.92C479.046 125.92 480.793 126.213 482.5 126.8V126.44C482.5 123.827 480.966 122.52 477.9 122.52C476.06 122.52 474.086 122.907 471.98 123.68L470.46 119.04C473.073 117.893 475.846 117.32 478.78 117.32C482.006 117.32 484.42 118.12 486.02 119.72C487.566 121.267 488.34 123.547 488.34 126.56V139H482.46V136.68C480.833 138.493 478.673 139.4 475.98 139.4ZM477.82 135.2C479.233 135.2 480.38 134.853 481.26 134.16C482.14 133.44 482.58 132.533 482.58 131.44V130.36C481.433 129.827 480.14 129.56 478.7 129.56C477.366 129.56 476.326 129.827 475.58 130.36C474.86 130.867 474.5 131.613 474.5 132.6C474.5 133.4 474.806 134.04 475.42 134.52C476.033 134.973 476.833 135.2 477.82 135.2ZM503.692 139.48C500.492 139.48 497.825 138.4 495.692 136.24C493.585 134.08 492.532 131.44 492.532 128.32C492.532 125.227 493.598 122.6 495.732 120.44C497.865 118.253 500.545 117.16 503.772 117.16C507.212 117.16 510.052 118.413 512.292 120.92L508.732 124.52C507.238 123.107 505.572 122.4 503.732 122.4C502.238 122.4 500.998 122.973 500.012 124.12C499.025 125.267 498.532 126.667 498.532 128.32C498.532 130 499.025 131.413 500.012 132.56C501.025 133.68 502.345 134.24 503.972 134.24C505.652 134.24 507.292 133.48 508.892 131.96L512.452 135.56C511.278 136.84 510.025 137.813 508.692 138.48C507.358 139.147 505.692 139.48 503.692 139.48ZM535.903 117.56V139H529.823V122.76H522.503V139H516.423V117.56H535.903ZM561.305 117.56V139H555.425V126.52L547.065 139H541.345V117.56H547.225V130.08L555.585 117.56H561.305ZM576.856 139.48C573.656 139.48 570.989 138.4 568.856 136.24C566.749 134.08 565.696 131.44 565.696 128.32C565.696 125.227 566.762 122.6 568.896 120.44C571.029 118.253 573.709 117.16 576.936 117.16C580.376 117.16 583.216 118.413 585.456 120.92L581.896 124.52C580.402 123.107 578.736 122.4 576.896 122.4C575.402 122.4 574.162 122.973 573.176 124.12C572.189 125.267 571.696 126.667 571.696 128.32C571.696 130 572.189 131.413 573.176 132.56C574.189 133.68 575.509 134.24 577.136 134.24C578.816 134.24 580.456 133.48 582.056 131.96L585.616 135.56C584.442 136.84 583.189 137.813 581.856 138.48C580.522 139.147 578.856 139.48 576.856 139.48ZM595.667 139.4C593.561 139.4 591.801 138.813 590.387 137.64C589.001 136.467 588.307 134.84 588.307 132.76C588.307 130.493 589.081 128.787 590.627 127.64C592.201 126.493 594.307 125.92 596.947 125.92C598.734 125.92 600.481 126.213 602.187 126.8V126.44C602.187 123.827 600.654 122.52 597.587 122.52C595.747 122.52 593.774 122.907 591.667 123.68L590.147 119.04C592.761 117.893 595.534 117.32 598.467 117.32C601.694 117.32 604.107 118.12 605.707 119.72C607.254 121.267 608.027 123.547 608.027 126.56V139H602.147V136.68C600.521 138.493 598.361 139.4 595.667 139.4ZM597.507 135.2C598.921 135.2 600.067 134.853 600.947 134.16C601.827 133.44 602.267 132.533 602.267 131.44V130.36C601.121 129.827 599.827 129.56 598.387 129.56C597.054 129.56 596.014 129.827 595.267 130.36C594.547 130.867 594.187 131.613 594.187 132.6C594.187 133.4 594.494 134.04 595.107 134.52C595.721 134.973 596.521 135.2 597.507 135.2ZM632.899 117.56V139H626.819V130.8H619.339V139H613.259V117.56H619.339V125.8H626.819V117.56H632.899ZM658.297 117.56V139H652.417V126.52L644.057 139H638.337V117.56H644.217V130.08L652.577 117.56H658.297ZM673.888 139.48C670.634 139.48 667.954 138.453 665.848 136.4C663.741 134.32 662.688 131.627 662.688 128.32C662.688 125.2 663.688 122.56 665.688 120.4C667.688 118.24 670.221 117.16 673.288 117.16C676.674 117.16 679.261 118.28 681.048 120.52C682.834 122.76 683.728 125.52 683.728 128.8C683.728 129.12 683.701 129.653 683.648 130.4H668.728C669.021 131.76 669.621 132.8 670.528 133.52C671.434 134.24 672.581 134.6 673.968 134.6C675.861 134.6 677.594 133.867 679.168 132.4L682.648 135.48C680.488 138.147 677.568 139.48 673.888 139.48ZM668.648 126.6H677.808C677.621 125.213 677.128 124.107 676.328 123.28C675.554 122.453 674.541 122.04 673.288 122.04C672.061 122.04 671.034 122.453 670.208 123.28C669.408 124.08 668.888 125.187 668.648 126.6Z" fill="#262626"/>
<path d="M415.799 167.496C414.722 168.627 413.351 169.192 411.687 169.192C410.023 169.192 408.658 168.627 407.591 167.496C406.525 166.365 405.991 165 405.991 163.4C405.991 161.811 406.53 160.451 407.607 159.32C408.685 158.179 410.055 157.608 411.719 157.608C413.383 157.608 414.749 158.173 415.815 159.304C416.882 160.435 417.415 161.8 417.415 163.4C417.415 164.989 416.877 166.355 415.799 167.496ZM408.551 166.68C409.394 167.576 410.45 168.024 411.719 168.024C412.989 168.024 414.034 167.581 414.855 166.696C415.687 165.8 416.103 164.701 416.103 163.4C416.103 162.109 415.682 161.016 414.839 160.12C414.007 159.224 412.957 158.776 411.687 158.776C410.418 158.776 409.367 159.224 408.535 160.12C407.714 161.005 407.303 162.099 407.303 163.4C407.303 164.691 407.719 165.784 408.551 166.68ZM422.817 169.192C421.548 169.192 420.407 168.781 419.393 167.96L420.017 167.048C420.86 167.763 421.783 168.12 422.785 168.12C423.351 168.12 423.831 167.992 424.225 167.736C424.631 167.469 424.833 167.107 424.833 166.648C424.833 166.221 424.652 165.891 424.289 165.656C423.927 165.411 423.415 165.288 422.753 165.288H421.649V164.28H422.769C423.313 164.28 423.756 164.152 424.097 163.896C424.439 163.629 424.609 163.283 424.609 162.856C424.609 162.483 424.439 162.184 424.097 161.96C423.767 161.736 423.34 161.624 422.817 161.624C421.836 161.624 420.999 161.901 420.305 162.456L419.697 161.592C420.593 160.899 421.66 160.552 422.897 160.552C423.815 160.552 424.54 160.76 425.073 161.176C425.617 161.581 425.889 162.109 425.889 162.76C425.889 163.667 425.447 164.301 424.561 164.664C425.585 165.027 426.097 165.704 426.097 166.696C426.097 167.389 425.799 167.981 425.201 168.472C424.604 168.952 423.809 169.192 422.817 169.192ZM428.701 169V160.728H429.933V164.296H434.701V160.728H435.933V169H434.701V165.384H429.933V169H428.701ZM441.469 169.176C440.626 169.176 439.901 168.947 439.293 168.488C438.685 168.029 438.381 167.389 438.381 166.568C438.381 165.704 438.701 165.037 439.341 164.568C439.981 164.099 440.84 163.864 441.917 163.864C442.77 163.864 443.613 163.981 444.445 164.216V163.96C444.445 163.235 444.232 162.68 443.805 162.296C443.378 161.912 442.776 161.72 441.997 161.72C441.186 161.72 440.349 161.917 439.485 162.312L439.117 161.304C440.141 160.835 441.144 160.6 442.125 160.6C443.298 160.6 444.189 160.904 444.797 161.512C445.373 162.088 445.661 162.899 445.661 163.944V169H444.445V167.768C443.709 168.707 442.717 169.176 441.469 169.176ZM441.709 168.184C442.477 168.184 443.128 167.976 443.661 167.56C444.194 167.144 444.461 166.611 444.461 165.96V165.192C443.65 164.957 442.845 164.84 442.045 164.84C441.288 164.84 440.696 164.995 440.269 165.304C439.842 165.603 439.629 166.013 439.629 166.536C439.629 167.037 439.826 167.437 440.221 167.736C440.626 168.035 441.122 168.184 441.709 168.184ZM448.591 169V160.728H449.823V165.496L454.351 160.728H455.871L452.415 164.312L455.967 169H454.511L451.567 165.208L449.823 167V169H448.591ZM464.853 167.928C464.021 168.771 462.991 169.192 461.765 169.192C460.538 169.192 459.514 168.771 458.693 167.928C457.882 167.085 457.477 166.067 457.477 164.872C457.477 163.688 457.887 162.675 458.709 161.832C459.541 160.979 460.57 160.552 461.797 160.552C463.023 160.552 464.047 160.973 464.869 161.816C465.69 162.659 466.101 163.677 466.101 164.872C466.101 166.056 465.685 167.075 464.853 167.928ZM461.797 168.088C462.682 168.088 463.407 167.779 463.973 167.16C464.549 166.541 464.837 165.779 464.837 164.872C464.837 163.976 464.538 163.213 463.941 162.584C463.354 161.955 462.629 161.64 461.765 161.64C460.879 161.64 460.154 161.955 459.589 162.584C459.023 163.203 458.741 163.965 458.741 164.872C458.741 165.768 459.034 166.531 459.621 167.16C460.207 167.779 460.933 168.088 461.797 168.088ZM468.653 169V160.728H469.821L472.909 165.08L475.997 160.728H477.181V169H475.933V162.696L472.877 166.888L469.853 162.696V169H468.653ZM480.254 169V160.728H481.486V163.832H483.694C484.654 163.832 485.438 164.04 486.046 164.456C486.654 164.861 486.958 165.48 486.958 166.312C486.958 167.133 486.675 167.789 486.11 168.28C485.544 168.76 484.787 169 483.838 169H480.254ZM481.486 167.912H483.726C484.355 167.912 484.84 167.779 485.182 167.512C485.534 167.245 485.71 166.856 485.71 166.344C485.71 165.875 485.528 165.517 485.166 165.272C484.814 165.016 484.318 164.888 483.678 164.888H481.486V167.912ZM491.183 169V161.816H488.223V160.728H495.391V161.816H492.431V169H491.183ZM501.119 169.192C499.957 169.192 498.975 168.792 498.175 167.992C497.386 167.181 496.991 166.141 496.991 164.872C496.991 163.667 497.37 162.648 498.127 161.816C498.885 160.973 499.829 160.552 500.959 160.552C502.143 160.552 503.082 160.968 503.775 161.8C504.469 162.632 504.815 163.677 504.815 164.936C504.815 165.096 504.81 165.24 504.799 165.368H498.239C498.325 166.211 498.639 166.883 499.183 167.384C499.738 167.875 500.394 168.12 501.151 168.12C502.143 168.12 503.013 167.731 503.759 166.952L504.527 167.64C503.599 168.675 502.463 169.192 501.119 169.192ZM498.239 164.376H503.567C503.493 163.576 503.226 162.915 502.767 162.392C502.319 161.859 501.706 161.592 500.927 161.592C500.223 161.592 499.621 161.853 499.119 162.376C498.618 162.899 498.325 163.565 498.239 164.376ZM511.02 169.192C509.825 169.192 508.817 168.771 507.996 167.928C507.185 167.075 506.78 166.056 506.78 164.872C506.78 163.688 507.185 162.675 507.996 161.832C508.817 160.979 509.825 160.552 511.02 160.552C512.3 160.552 513.404 161.043 514.332 162.024L513.548 162.856C512.78 162.045 511.932 161.64 511.004 161.64C510.172 161.64 509.468 161.955 508.892 162.584C508.327 163.203 508.044 163.965 508.044 164.872C508.044 165.768 508.332 166.531 508.908 167.16C509.495 167.779 510.22 168.088 511.084 168.088C511.969 168.088 512.801 167.672 513.58 166.84L514.396 167.592C513.436 168.659 512.311 169.192 511.02 169.192ZM516.753 169V160.728H517.985V163.832H520.193C521.153 163.832 521.937 164.04 522.545 164.456C523.153 164.861 523.457 165.48 523.457 166.312C523.457 167.133 523.174 167.789 522.609 168.28C522.043 168.76 521.286 169 520.337 169H516.753ZM517.985 167.912H520.225C520.854 167.912 521.339 167.779 521.681 167.512C522.033 167.245 522.209 166.856 522.209 166.344C522.209 165.875 522.027 165.517 521.665 165.272C521.313 165.016 520.817 164.888 520.177 164.888H517.985V167.912ZM534.527 169.192C533.332 169.192 532.324 168.771 531.503 167.928C530.692 167.075 530.287 166.056 530.287 164.872C530.287 163.688 530.692 162.675 531.503 161.832C532.324 160.979 533.332 160.552 534.527 160.552C535.807 160.552 536.911 161.043 537.839 162.024L537.055 162.856C536.287 162.045 535.439 161.64 534.511 161.64C533.679 161.64 532.975 161.955 532.399 162.584C531.833 163.203 531.551 163.965 531.551 164.872C531.551 165.768 531.839 166.531 532.415 167.16C533.001 167.779 533.727 168.088 534.591 168.088C535.476 168.088 536.308 167.672 537.087 166.84L537.903 167.592C536.943 168.659 535.817 169.192 534.527 169.192ZM547.123 167.928C546.291 168.771 545.262 169.192 544.035 169.192C542.809 169.192 541.785 168.771 540.963 167.928C540.153 167.085 539.747 166.067 539.747 164.872C539.747 163.688 540.158 162.675 540.979 161.832C541.811 160.979 542.841 160.552 544.067 160.552C545.294 160.552 546.318 160.973 547.139 161.816C547.961 162.659 548.371 163.677 548.371 164.872C548.371 166.056 547.955 167.075 547.123 167.928ZM544.067 168.088C544.953 168.088 545.678 167.779 546.243 167.16C546.819 166.541 547.107 165.779 547.107 164.872C547.107 163.976 546.809 163.213 546.211 162.584C545.625 161.955 544.899 161.64 544.035 161.64C543.15 161.64 542.425 161.955 541.859 162.584C541.294 163.203 541.011 163.965 541.011 164.872C541.011 165.768 541.305 166.531 541.891 167.16C542.478 167.779 543.203 168.088 544.067 168.088ZM559.768 169.192C558.573 169.192 557.565 168.771 556.744 167.928C555.933 167.075 555.528 166.056 555.528 164.872C555.528 163.688 555.933 162.675 556.744 161.832C557.565 160.979 558.573 160.552 559.768 160.552C561.048 160.552 562.152 161.043 563.08 162.024L562.296 162.856C561.528 162.045 560.68 161.64 559.752 161.64C558.92 161.64 558.216 161.955 557.64 162.584C557.075 163.203 556.792 163.965 556.792 164.872C556.792 165.768 557.08 166.531 557.656 167.16C558.243 167.779 558.968 168.088 559.832 168.088C560.717 168.088 561.549 167.672 562.328 166.84L563.144 167.592C562.184 168.659 561.059 169.192 559.768 169.192ZM565.501 169V160.728H569.501C570.322 160.728 570.978 160.915 571.469 161.288C571.959 161.661 572.205 162.163 572.205 162.792C572.205 163.677 571.746 164.312 570.829 164.696C572.045 165.027 572.653 165.709 572.653 166.744C572.653 167.437 572.381 167.987 571.837 168.392C571.293 168.797 570.562 169 569.645 169H565.501ZM566.733 167.944H569.485C570.071 167.944 570.535 167.821 570.877 167.576C571.218 167.331 571.389 166.989 571.389 166.552C571.389 166.147 571.207 165.832 570.845 165.608C570.493 165.384 569.986 165.272 569.325 165.272H566.733V167.944ZM566.733 164.28H569.277C569.789 164.28 570.194 164.168 570.493 163.944C570.802 163.709 570.957 163.379 570.957 162.952C570.957 162.6 570.813 162.317 570.525 162.104C570.237 161.891 569.831 161.784 569.309 161.784H566.733V164.28ZM582.06 167.928C581.228 168.771 580.198 169.192 578.972 169.192C577.745 169.192 576.721 168.771 575.9 167.928C575.089 167.085 574.684 166.067 574.684 164.872C574.684 163.688 575.094 162.675 575.916 161.832C576.748 160.979 577.777 160.552 579.004 160.552C580.23 160.552 581.254 160.973 582.076 161.816C582.897 162.659 583.308 163.677 583.308 164.872C583.308 166.056 582.892 167.075 582.06 167.928ZM579.004 168.088C579.889 168.088 580.614 167.779 581.18 167.16C581.756 166.541 582.044 165.779 582.044 164.872C582.044 163.976 581.745 163.213 581.148 162.584C580.561 161.955 579.836 161.64 578.972 161.64C578.086 161.64 577.361 161.955 576.796 162.584C576.23 163.203 575.948 163.965 575.948 164.872C575.948 165.768 576.241 166.531 576.828 167.16C577.414 167.779 578.14 168.088 579.004 168.088ZM585.859 169V160.728H587.091V167.272L592.003 160.728H593.203V169H591.971V162.456L587.043 169H585.859ZM596.273 169V160.728H597.441L600.529 165.08L603.617 160.728H604.801V169H603.553V162.696L600.497 166.888L597.473 162.696V169H596.273ZM612.991 171.56V160.728H614.223V162.392C615.055 161.165 616.111 160.552 617.391 160.552C618.447 160.552 619.37 160.947 620.159 161.736C620.949 162.515 621.343 163.56 621.343 164.872C621.343 166.163 620.949 167.203 620.159 167.992C619.37 168.781 618.447 169.176 617.391 169.176C616.09 169.176 615.034 168.589 614.223 167.416V171.56H612.991ZM617.167 168.072C617.999 168.072 618.693 167.784 619.247 167.208C619.802 166.621 620.079 165.837 620.079 164.856C620.079 163.907 619.797 163.139 619.231 162.552C618.666 161.955 617.978 161.656 617.167 161.656C616.367 161.656 615.669 161.96 615.071 162.568C614.474 163.176 614.175 163.944 614.175 164.872C614.175 165.8 614.474 166.568 615.071 167.176C615.669 167.773 616.367 168.072 617.167 168.072ZM626.4 169.176C625.558 169.176 624.832 168.947 624.224 168.488C623.616 168.029 623.312 167.389 623.312 166.568C623.312 165.704 623.632 165.037 624.272 164.568C624.912 164.099 625.771 163.864 626.848 163.864C627.702 163.864 628.544 163.981 629.376 164.216V163.96C629.376 163.235 629.163 162.68 628.736 162.296C628.31 161.912 627.707 161.72 626.928 161.72C626.118 161.72 625.28 161.917 624.416 162.312L624.048 161.304C625.072 160.835 626.075 160.6 627.056 160.6C628.23 160.6 629.12 160.904 629.728 161.512C630.304 162.088 630.592 162.899 630.592 163.944V169H629.376V167.768C628.64 168.707 627.648 169.176 626.4 169.176ZM626.64 168.184C627.408 168.184 628.059 167.976 628.592 167.56C629.126 167.144 629.392 166.611 629.392 165.96V165.192C628.582 164.957 627.776 164.84 626.976 164.84C626.219 164.84 625.627 164.995 625.2 165.304C624.774 165.603 624.56 166.013 624.56 166.536C624.56 167.037 624.758 167.437 625.152 167.736C625.558 168.035 626.054 168.184 626.64 168.184ZM637.25 169.192C636.055 169.192 635.047 168.771 634.226 167.928C633.415 167.075 633.01 166.056 633.01 164.872C633.01 163.688 633.415 162.675 634.226 161.832C635.047 160.979 636.055 160.552 637.25 160.552C638.53 160.552 639.634 161.043 640.562 162.024L639.778 162.856C639.01 162.045 638.162 161.64 637.234 161.64C636.402 161.64 635.698 161.955 635.122 162.584C634.557 163.203 634.274 163.965 634.274 164.872C634.274 165.768 634.562 166.531 635.138 167.16C635.725 167.779 636.45 168.088 637.314 168.088C638.199 168.088 639.031 167.672 639.81 166.84L640.626 167.592C639.666 168.659 638.541 169.192 637.25 169.192ZM642.983 169V160.728H650.151V169H648.919V161.816H644.215V169H642.983ZM653.224 169V160.728H654.456V167.272L659.368 160.728H660.568V169H659.336V162.456L654.408 169H653.224ZM667.366 169.192C666.172 169.192 665.164 168.771 664.342 167.928C663.532 167.075 663.126 166.056 663.126 164.872C663.126 163.688 663.532 162.675 664.342 161.832C665.164 160.979 666.172 160.552 667.366 160.552C668.646 160.552 669.75 161.043 670.678 162.024L669.894 162.856C669.126 162.045 668.278 161.64 667.35 161.64C666.518 161.64 665.814 161.955 665.238 162.584C664.673 163.203 664.39 163.965 664.39 164.872C664.39 165.768 664.678 166.531 665.254 167.16C665.841 167.779 666.566 168.088 667.43 168.088C668.316 168.088 669.148 167.672 669.926 166.84L670.742 167.592C669.782 168.659 668.657 169.192 667.366 169.192ZM675.563 169.176C674.72 169.176 673.995 168.947 673.387 168.488C672.779 168.029 672.475 167.389 672.475 166.568C672.475 165.704 672.795 165.037 673.435 164.568C674.075 164.099 674.933 163.864 676.011 163.864C676.864 163.864 677.707 163.981 678.539 164.216V163.96C678.539 163.235 678.325 162.68 677.899 162.296C677.472 161.912 676.869 161.72 676.091 161.72C675.28 161.72 674.443 161.917 673.579 162.312L673.211 161.304C674.235 160.835 675.237 160.6 676.219 160.6C677.392 160.6 678.283 160.904 678.891 161.512C679.467 162.088 679.755 162.899 679.755 163.944V169H678.539V167.768C677.803 168.707 676.811 169.176 675.563 169.176ZM675.803 168.184C676.571 168.184 677.221 167.976 677.755 167.56C678.288 167.144 678.555 166.611 678.555 165.96V165.192C677.744 164.957 676.939 164.84 676.139 164.84C675.381 164.84 674.789 164.995 674.363 165.304C673.936 165.603 673.723 166.013 673.723 166.536C673.723 167.037 673.92 167.437 674.315 167.736C674.72 168.035 675.216 168.184 675.803 168.184ZM682.684 169V160.728H683.916V164.296H688.684V160.728H689.916V169H688.684V165.384H683.916V169H682.684ZM692.989 169V160.728H694.221V167.272L699.133 160.728H700.333V169H699.101V162.456L694.173 169H692.989ZM707.019 169.192C705.856 169.192 704.875 168.792 704.075 167.992C703.285 167.181 702.891 166.141 702.891 164.872C702.891 163.667 703.269 162.648 704.027 161.816C704.784 160.973 705.728 160.552 706.859 160.552C708.043 160.552 708.981 160.968 709.675 161.8C710.368 162.632 710.715 163.677 710.715 164.936C710.715 165.096 710.709 165.24 710.699 165.368H704.139C704.224 166.211 704.539 166.883 705.083 167.384C705.637 167.875 706.293 168.12 707.051 168.12C708.043 168.12 708.912 167.731 709.659 166.952L710.427 167.64C709.499 168.675 708.363 169.192 707.019 169.192ZM704.139 164.376H709.467C709.392 163.576 709.125 162.915 708.667 162.392C708.219 161.859 707.605 161.592 706.827 161.592C706.123 161.592 705.52 161.853 705.019 162.376C704.517 162.899 704.224 163.565 704.139 164.376ZM713.191 169V160.728H714.359L717.447 165.08L720.535 160.728H721.719V169H720.471V162.696L717.415 166.888L714.391 162.696V169H713.191Z" fill="#262626"/>
<rect x="144" y="248" width="264" height="200" rx="8" fill="#F1F1FF"/>
<rect x="168" y="272" width="104" height="16" rx="2" fill="#615FC5" fill-opacity="0.4"/>
<rect x="168" y="384" width="96" height="16" rx="2" fill="#615FC5" fill-opacity="0.4"/>
<rect x="168" y="408" width="64" height="16" rx="2" fill="#615FC5" fill-opacity="0.4"/>
<rect x="168" y="296" width="216" height="72" rx="2" fill="#615FC5" fill-opacity="0.4"/>
<rect x="168" y="224" width="104" height="16" rx="2" fill="#615FC5" fill-opacity="0.4"/>
<rect x="456" y="224" width="104" height="16" rx="2" fill="#615FC5" fill-opacity="0.4"/>
<rect x="744" y="224" width="104" height="16" rx="2" fill="#615FC5" fill-opacity="0.4"/>
<rect x="432" y="248" width="264" height="179" rx="8" fill="#F1F1FF"/>
<rect x="456" y="272" width="104" height="16" rx="2" fill="#615FC5" fill-opacity="0.4"/>
<rect x="456" y="363" width="96" height="16" rx="2" fill="#615FC5" fill-opacity="0.4"/>
<rect x="456" y="387" width="64" height="16" rx="2" fill="#615FC5" fill-opacity="0.4"/>
<rect x="456" y="296" width="216" height="51" rx="2" fill="#615FC5" fill-opacity="0.4"/>
<rect x="144" y="456" width="264" height="152" rx="8" fill="#F1F1FF"/>
<rect x="168" y="480" width="104" height="16" rx="2" fill="#615FC5" fill-opacity="0.4"/>
<rect x="168" y="544" width="96" height="16" rx="2" fill="#615FC5" fill-opacity="0.4"/>
<rect x="168" y="568" width="64" height="16" rx="2" fill="#615FC5" fill-opacity="0.4"/>
<rect x="168" y="504" width="216" height="24" rx="2" fill="#615FC5" fill-opacity="0.4"/>
<rect x="720" y="248" width="264" height="200" rx="8" fill="#F1F1FF"/>
<rect x="744" y="272" width="104" height="16" rx="2" fill="#615FC5" fill-opacity="0.4"/>
<rect x="744" y="384" width="96" height="16" rx="2" fill="#615FC5" fill-opacity="0.4"/>
<rect x="744" y="408" width="64" height="16" rx="2" fill="#615FC5" fill-opacity="0.4"/>
<rect x="744" y="296" width="216" height="51" rx="2" fill="#615FC5" fill-opacity="0.4"/>
<path d="M593.584 553V541.8H598.352C599.664 541.8 600.64 542.131 601.28 542.792C601.76 543.293 602 543.901 602 544.616C602 545.832 601.408 546.696 600.224 547.208C601.824 547.688 602.624 548.6 602.624 549.944C602.624 550.893 602.256 551.64 601.52 552.184C600.784 552.728 599.797 553 598.56 553H593.584ZM594.832 551.864H598.592C599.445 551.864 600.117 551.688 600.608 551.336C601.099 550.973 601.344 550.472 601.344 549.832C601.344 549.213 601.088 548.739 600.576 548.408C600.075 548.077 599.339 547.912 598.368 547.912H594.832V551.864ZM594.832 546.792H598.144C598.923 546.792 599.547 546.616 600.016 546.264C600.485 545.912 600.72 545.411 600.72 544.76C600.72 544.195 600.501 543.752 600.064 543.432C599.637 543.101 599.029 542.936 598.24 542.936H594.832V546.792ZM608.971 553.192C607.776 553.192 606.768 552.771 605.947 551.928C605.136 551.075 604.731 550.056 604.731 548.872C604.731 547.688 605.136 546.675 605.947 545.832C606.768 544.979 607.776 544.552 608.971 544.552C610.251 544.552 611.355 545.043 612.283 546.024L611.499 546.856C610.731 546.045 609.883 545.64 608.955 545.64C608.123 545.64 607.419 545.955 606.843 546.584C606.278 547.203 605.995 547.965 605.995 548.872C605.995 549.768 606.283 550.531 606.859 551.16C607.446 551.779 608.171 552.088 609.035 552.088C609.92 552.088 610.752 551.672 611.531 550.84L612.347 551.592C611.387 552.659 610.262 553.192 608.971 553.192ZM618.319 553.192C617.157 553.192 616.175 552.792 615.375 551.992C614.586 551.181 614.191 550.141 614.191 548.872C614.191 547.667 614.57 546.648 615.327 545.816C616.085 544.973 617.029 544.552 618.159 544.552C619.343 544.552 620.282 544.968 620.975 545.8C621.669 546.632 622.016 547.677 622.016 548.936C622.016 549.096 622.01 549.24 622 549.368H615.439C615.525 550.211 615.839 550.883 616.383 551.384C616.938 551.875 617.594 552.12 618.351 552.12C619.343 552.12 620.213 551.731 620.959 550.952L621.727 551.64C620.799 552.675 619.663 553.192 618.319 553.192ZM615.439 548.376H620.767C620.693 547.576 620.426 546.915 619.967 546.392C619.519 545.859 618.906 545.592 618.127 545.592C617.423 545.592 616.821 545.853 616.319 546.376C615.818 546.899 615.525 547.565 615.439 548.376ZM624.492 553V544.728H630.108V545.816H625.724V553H624.492ZM631.002 555.064V551.912H631.898C632.634 550.557 633.002 548.643 633.002 546.168V544.728H638.89V551.912H640.138L639.946 555.064H638.922V553H632.234L632.01 555.064H631.002ZM633.21 551.912H637.658V545.816H634.186V546.968C634.186 549.048 633.861 550.696 633.21 551.912ZM644.612 553.176C643.769 553.176 643.044 552.947 642.436 552.488C641.828 552.029 641.524 551.389 641.524 550.568C641.524 549.704 641.844 549.037 642.484 548.568C643.124 548.099 643.983 547.864 645.06 547.864C645.913 547.864 646.756 547.981 647.588 548.216V547.96C647.588 547.235 647.375 546.68 646.948 546.296C646.521 545.912 645.919 545.72 645.14 545.72C644.329 545.72 643.492 545.917 642.628 546.312L642.26 545.304C643.284 544.835 644.287 544.6 645.268 544.6C646.441 544.6 647.332 544.904 647.94 545.512C648.516 546.088 648.804 546.899 648.804 547.944V553H647.588V551.768C646.852 552.707 645.86 553.176 644.612 553.176ZM644.852 552.184C645.62 552.184 646.271 551.976 646.804 551.56C647.337 551.144 647.604 550.611 647.604 549.96V549.192C646.793 548.957 645.988 548.84 645.188 548.84C644.431 548.84 643.839 548.995 643.412 549.304C642.985 549.603 642.772 550.013 642.772 550.536C642.772 551.037 642.969 551.437 643.364 551.736C643.769 552.035 644.265 552.184 644.852 552.184ZM660.738 553.192C659.469 553.192 658.45 552.776 657.682 551.944C656.925 551.101 656.546 549.965 656.546 548.536C656.546 548.013 656.557 547.571 656.578 547.208C656.6 546.835 656.642 546.424 656.706 545.976C656.77 545.528 656.872 545.144 657.01 544.824C657.149 544.504 657.325 544.189 657.538 543.88C657.762 543.571 658.05 543.309 658.402 543.096C658.754 542.883 659.165 542.723 659.634 542.616L664.242 541.528L664.482 542.568L660.002 543.672C659.17 543.885 658.573 544.227 658.21 544.696C657.858 545.155 657.65 545.795 657.586 546.616C658.29 545.421 659.432 544.824 661.01 544.824C662.098 544.824 663.032 545.229 663.81 546.04C664.589 546.84 664.978 547.805 664.978 548.936C664.978 550.109 664.573 551.112 663.762 551.944C662.952 552.776 661.944 553.192 660.738 553.192ZM660.77 552.088C661.613 552.088 662.312 551.789 662.866 551.192C663.421 550.584 663.698 549.843 663.698 548.968C663.698 548.104 663.41 547.368 662.834 546.76C662.269 546.152 661.57 545.848 660.738 545.848C659.896 545.848 659.197 546.152 658.642 546.76C658.088 547.357 657.81 548.093 657.81 548.968C657.81 549.832 658.093 550.568 658.658 551.176C659.234 551.784 659.938 552.088 660.77 552.088ZM668.81 555.608C668.212 555.608 667.626 555.469 667.05 555.192L667.466 554.216C667.86 554.419 668.292 554.52 668.762 554.52C669.135 554.52 669.45 554.403 669.706 554.168C669.962 553.944 670.212 553.544 670.458 552.968L666.698 544.728H668.058L671.066 551.624L673.722 544.728H675.034L671.562 553.272C671.21 554.115 670.82 554.712 670.394 555.064C669.967 555.427 669.439 555.608 668.81 555.608ZM676.087 555.064V551.912H676.983C677.719 550.557 678.087 548.643 678.087 546.168V544.728H683.975V551.912H685.223L685.031 555.064H684.007V553H677.319L677.095 555.064H676.087ZM678.295 551.912H682.743V545.816H679.271V546.968C679.271 549.048 678.946 550.696 678.295 551.912ZM687.232 553V544.728H688.464V547.832H690.672C691.632 547.832 692.416 548.04 693.024 548.456C693.632 548.861 693.936 549.48 693.936 550.312C693.936 551.133 693.654 551.789 693.088 552.28C692.523 552.76 691.766 553 690.816 553H687.232ZM688.464 551.912H690.704C691.334 551.912 691.819 551.779 692.16 551.512C692.512 551.245 692.688 550.856 692.688 550.344C692.688 549.875 692.507 549.517 692.144 549.272C691.792 549.016 691.296 548.888 690.656 548.888H688.464V551.912ZM701.278 553V544.728H705.278C706.1 544.728 706.756 544.915 707.246 545.288C707.737 545.661 707.982 546.163 707.982 546.792C707.982 547.677 707.524 548.312 706.606 548.696C707.822 549.027 708.43 549.709 708.43 550.744C708.43 551.437 708.158 551.987 707.614 552.392C707.07 552.797 706.34 553 705.422 553H701.278ZM702.51 551.944H705.262C705.849 551.944 706.313 551.821 706.654 551.576C706.996 551.331 707.166 550.989 707.166 550.552C707.166 550.147 706.985 549.832 706.622 549.608C706.27 549.384 705.764 549.272 705.102 549.272H702.51V551.944ZM702.51 548.28H705.054C705.566 548.28 705.972 548.168 706.27 547.944C706.58 547.709 706.734 547.379 706.734 546.952C706.734 546.6 706.59 546.317 706.302 546.104C706.014 545.891 705.609 545.784 705.086 545.784H702.51V548.28ZM716.09 553V544.728H717.322V549.496L721.85 544.728H723.37L719.914 548.312L723.466 553H722.01L719.066 549.208L717.322 551V553H716.09ZM726.769 555.608C726.171 555.608 725.585 555.469 725.009 555.192L725.425 554.216C725.819 554.419 726.251 554.52 726.721 554.52C727.094 554.52 727.409 554.403 727.665 554.168C727.921 553.944 728.171 553.544 728.417 552.968L724.657 544.728H726.017L729.025 551.624L731.681 544.728H732.993L729.521 553.272C729.169 554.115 728.779 554.712 728.353 555.064C727.926 555.427 727.398 555.608 726.769 555.608ZM735.262 555.56V544.728H736.494V546.392C737.326 545.165 738.382 544.552 739.662 544.552C740.718 544.552 741.64 544.947 742.43 545.736C743.219 546.515 743.614 547.56 743.614 548.872C743.614 550.163 743.219 551.203 742.43 551.992C741.64 552.781 740.718 553.176 739.662 553.176C738.36 553.176 737.304 552.589 736.494 551.416V555.56H735.262ZM739.438 552.072C740.27 552.072 740.963 551.784 741.518 551.208C742.072 550.621 742.35 549.837 742.35 548.856C742.35 547.907 742.067 547.139 741.502 546.552C740.936 545.955 740.248 545.656 739.438 545.656C738.638 545.656 737.939 545.96 737.342 546.568C736.744 547.176 736.446 547.944 736.446 548.872C736.446 549.8 736.744 550.568 737.342 551.176C737.939 551.773 738.638 552.072 739.438 552.072ZM749.935 553.192C748.74 553.192 747.732 552.771 746.911 551.928C746.1 551.075 745.695 550.056 745.695 548.872C745.695 547.688 746.1 546.675 746.911 545.832C747.732 544.979 748.74 544.552 749.935 544.552C751.215 544.552 752.319 545.043 753.247 546.024L752.463 546.856C751.695 546.045 750.847 545.64 749.919 545.64C749.087 545.64 748.383 545.955 747.807 546.584C747.241 547.203 746.959 547.965 746.959 548.872C746.959 549.768 747.247 550.531 747.823 551.16C748.409 551.779 749.135 552.088 749.999 552.088C750.884 552.088 751.716 551.672 752.495 550.84L753.311 551.592C752.351 552.659 751.225 553.192 749.935 553.192ZM759.283 553.192C758.121 553.192 757.139 552.792 756.339 551.992C755.55 551.181 755.155 550.141 755.155 548.872C755.155 547.667 755.534 546.648 756.291 545.816C757.049 544.973 757.993 544.552 759.123 544.552C760.307 544.552 761.246 544.968 761.939 545.8C762.633 546.632 762.979 547.677 762.979 548.936C762.979 549.096 762.974 549.24 762.963 549.368H756.403C756.489 550.211 756.803 550.883 757.347 551.384C757.902 551.875 758.558 552.12 759.315 552.12C760.307 552.12 761.177 551.731 761.923 550.952L762.691 551.64C761.763 552.675 760.627 553.192 759.283 553.192ZM756.403 548.376H761.731C761.657 547.576 761.39 546.915 760.931 546.392C760.483 545.859 759.87 545.592 759.091 545.592C758.387 545.592 757.785 545.853 757.283 546.376C756.782 546.899 756.489 547.565 756.403 548.376ZM765.008 554.952L764.816 554.392C765.531 554.125 765.888 553.715 765.888 553.16V553H765.312V551.32H766.784V552.76C766.784 553.4 766.64 553.891 766.352 554.232C766.075 554.573 765.627 554.813 765.008 554.952ZM774.815 553V544.728H776.047V549.496L780.575 544.728H782.095L778.639 548.312L782.191 553H780.735L777.791 549.208L776.047 551V553H774.815ZM791.077 551.928C790.245 552.771 789.216 553.192 787.989 553.192C786.762 553.192 785.738 552.771 784.917 551.928C784.106 551.085 783.701 550.067 783.701 548.872C783.701 547.688 784.112 546.675 784.933 545.832C785.765 544.979 786.794 544.552 788.021 544.552C789.248 544.552 790.272 544.973 791.093 545.816C791.914 546.659 792.325 547.677 792.325 548.872C792.325 550.056 791.909 551.075 791.077 551.928ZM788.021 552.088C788.906 552.088 789.632 551.779 790.197 551.16C790.773 550.541 791.061 549.779 791.061 548.872C791.061 547.976 790.762 547.213 790.165 546.584C789.578 545.955 788.853 545.64 787.989 545.64C787.104 545.64 786.378 545.955 785.813 546.584C785.248 547.203 784.965 547.965 784.965 548.872C784.965 549.768 785.258 550.531 785.845 551.16C786.432 551.779 787.157 552.088 788.021 552.088ZM794.877 553V544.728H800.493V545.816H796.109V553H794.877ZM801.387 555.064V551.912H802.283C803.019 550.557 803.387 548.643 803.387 546.168V544.728H809.275V551.912H810.523L810.331 555.064H809.307V553H802.619L802.395 555.064H801.387ZM803.595 551.912H808.043V545.816H804.571V546.968C804.571 549.048 804.246 550.696 803.595 551.912ZM814.996 553.176C814.154 553.176 813.428 552.947 812.82 552.488C812.212 552.029 811.908 551.389 811.908 550.568C811.908 549.704 812.228 549.037 812.868 548.568C813.508 548.099 814.367 547.864 815.444 547.864C816.298 547.864 817.14 547.981 817.972 548.216V547.96C817.972 547.235 817.759 546.68 817.332 546.296C816.906 545.912 816.303 545.72 815.524 545.72C814.714 545.72 813.876 545.917 813.012 546.312L812.644 545.304C813.668 544.835 814.671 544.6 815.652 544.6C816.826 544.6 817.716 544.904 818.324 545.512C818.9 546.088 819.188 546.899 819.188 547.944V553H817.972V551.768C817.236 552.707 816.244 553.176 814.996 553.176ZM815.236 552.184C816.004 552.184 816.655 551.976 817.188 551.56C817.722 551.144 817.988 550.611 817.988 549.96V549.192C817.178 548.957 816.372 548.84 815.572 548.84C814.815 548.84 814.223 548.995 813.796 549.304C813.37 549.603 813.156 550.013 813.156 550.536C813.156 551.037 813.354 551.437 813.748 551.736C814.154 552.035 814.65 552.184 815.236 552.184ZM827.235 553V544.728H828.467V551.272L833.379 544.728H834.579V553H833.347V546.456L828.419 553H827.235ZM836.433 555.064V551.912H837.329C838.065 550.557 838.433 548.643 838.433 546.168V544.728H844.321V551.912H845.569L845.377 555.064H844.353V553H837.665L837.441 555.064H836.433ZM838.641 551.912H843.089V545.816H839.617V546.968C839.617 549.048 839.291 550.696 838.641 551.912ZM849.578 553V545.816H846.618V544.728H853.786V545.816H850.826V553H849.578ZM855.898 553V544.728H857.13V551.272L862.042 544.728H863.242V553H862.01V546.456L857.082 553H855.898ZM871.428 553V544.728H872.66V548.296H877.428V544.728H878.66V553H877.428V549.384H872.66V553H871.428ZM884.197 553.176C883.354 553.176 882.629 552.947 882.021 552.488C881.413 552.029 881.109 551.389 881.109 550.568C881.109 549.704 881.429 549.037 882.069 548.568C882.709 548.099 883.568 547.864 884.645 547.864C885.498 547.864 886.341 547.981 887.173 548.216V547.96C887.173 547.235 886.96 546.68 886.533 546.296C886.106 545.912 885.504 545.72 884.725 545.72C883.914 545.72 883.077 545.917 882.213 546.312L881.845 545.304C882.869 544.835 883.872 544.6 884.853 544.6C886.026 544.6 886.917 544.904 887.525 545.512C888.101 546.088 888.389 546.899 888.389 547.944V553H887.173V551.768C886.437 552.707 885.445 553.176 884.197 553.176ZM884.437 552.184C885.205 552.184 885.856 551.976 886.389 551.56C886.922 551.144 887.189 550.611 887.189 549.96V549.192C886.378 548.957 885.573 548.84 884.773 548.84C884.016 548.84 883.424 548.995 882.997 549.304C882.57 549.603 882.357 550.013 882.357 550.536C882.357 551.037 882.554 551.437 882.949 551.736C883.354 552.035 883.85 552.184 884.437 552.184ZM896.435 553V544.728H903.603V553H902.371V545.816H897.667V553H896.435ZM909.141 553.176C908.299 553.176 907.573 552.947 906.965 552.488C906.357 552.029 906.053 551.389 906.053 550.568C906.053 549.704 906.373 549.037 907.013 548.568C907.653 548.099 908.512 547.864 909.589 547.864C910.443 547.864 911.285 547.981 912.117 548.216V547.96C912.117 547.235 911.904 546.68 911.477 546.296C911.051 545.912 910.448 545.72 909.669 545.72C908.859 545.72 908.021 545.917 907.157 546.312L906.789 545.304C907.813 544.835 908.816 544.6 909.797 544.6C910.971 544.6 911.861 544.904 912.469 545.512C913.045 546.088 913.333 546.899 913.333 547.944V553H912.117V551.768C911.381 552.707 910.389 553.176 909.141 553.176ZM909.381 552.184C910.149 552.184 910.8 551.976 911.333 551.56C911.867 551.144 912.133 550.611 912.133 549.96V549.192C911.323 548.957 910.517 548.84 909.717 548.84C908.96 548.84 908.368 548.995 907.941 549.304C907.515 549.603 907.301 550.013 907.301 550.536C907.301 551.037 907.499 551.437 907.893 551.736C908.299 552.035 908.795 552.184 909.381 552.184ZM916.263 555.56V544.728H917.495V546.392C918.327 545.165 919.383 544.552 920.663 544.552C921.719 544.552 922.642 544.947 923.431 545.736C924.22 546.515 924.615 547.56 924.615 548.872C924.615 550.163 924.22 551.203 923.431 551.992C922.642 552.781 921.719 553.176 920.663 553.176C919.362 553.176 918.306 552.589 917.495 551.416V555.56H916.263ZM920.439 552.072C921.271 552.072 921.964 551.784 922.519 551.208C923.074 550.621 923.351 549.837 923.351 548.856C923.351 547.907 923.068 547.139 922.503 546.552C921.938 545.955 921.25 545.656 920.439 545.656C919.639 545.656 918.94 545.96 918.343 546.568C917.746 547.176 917.447 547.944 917.447 548.872C917.447 549.8 917.746 550.568 918.343 551.176C918.94 551.773 919.639 552.072 920.439 552.072ZM928.488 555.608C927.891 555.608 927.304 555.469 926.728 555.192L927.144 554.216C927.539 554.419 927.971 554.52 928.44 554.52C928.813 554.52 929.128 554.403 929.384 554.168C929.64 553.944 929.891 553.544 930.136 552.968L926.376 544.728H927.736L930.744 551.624L933.4 544.728H934.712L931.24 553.272C930.888 554.115 930.499 554.712 930.072 555.064C929.645 555.427 929.117 555.608 928.488 555.608Z" fill="#262626"/>
<path d="M657.68 518V504H664.18C665.793 504 667.013 504.413 667.84 505.24C668.48 505.88 668.8 506.687 668.8 507.66C668.8 508.98 668.187 509.987 666.96 510.68C667.827 511.013 668.48 511.453 668.92 512C669.36 512.533 669.58 513.253 669.58 514.16C669.58 515.413 669.113 516.367 668.18 517.02C667.247 517.673 665.967 518 664.34 518H657.68ZM660.68 509.66H663.52C665 509.66 665.74 509.153 665.74 508.14C665.74 507.673 665.567 507.32 665.22 507.08C664.873 506.827 664.373 506.7 663.72 506.7H660.68V509.66ZM660.68 515.3H664.34C665.793 515.3 666.52 514.78 666.52 513.74C666.52 512.727 665.76 512.22 664.24 512.22H660.68V515.3ZM672.194 518V507.28H675.234V510.82H677.434C678.727 510.82 679.76 511.12 680.534 511.72C681.32 512.32 681.714 513.2 681.714 514.36C681.714 515.493 681.347 516.387 680.614 517.04C679.894 517.68 678.887 518 677.594 518H672.194ZM677.134 513.12H675.234V515.6H677.154C678.154 515.6 678.654 515.173 678.654 514.32C678.654 513.947 678.52 513.653 678.254 513.44C678 513.227 677.627 513.12 677.134 513.12ZM683.134 518V507.28H686.174V518H683.134ZM694.633 515.62C695.393 515.62 696.013 515.36 696.493 514.84C696.973 514.307 697.213 513.647 697.213 512.86C697.213 512.087 696.959 511.427 696.453 510.88C695.959 510.333 695.339 510.06 694.593 510.06C693.833 510.06 693.213 510.333 692.733 510.88C692.253 511.413 692.013 512.073 692.013 512.86C692.013 513.633 692.259 514.287 692.753 514.82C693.259 515.353 693.886 515.62 694.633 515.62ZM694.593 518.24C692.779 518.24 691.393 517.693 690.433 516.6C689.473 515.493 688.993 513.907 688.993 511.84C688.993 511.107 689.019 510.46 689.073 509.9C689.126 509.327 689.239 508.72 689.413 508.08C689.599 507.44 689.846 506.893 690.153 506.44C690.473 505.987 690.913 505.58 691.473 505.22C692.046 504.86 692.719 504.607 693.493 504.46L699.233 503.4L699.713 505.8L693.833 506.96C692.206 507.293 691.339 508.133 691.233 509.48C691.486 509.04 691.953 508.633 692.633 508.26C693.313 507.873 694.146 507.68 695.133 507.68C696.519 507.68 697.713 508.173 698.713 509.16C699.713 510.147 700.213 511.367 700.213 512.82C700.213 514.327 699.679 515.607 698.613 516.66C697.546 517.713 696.206 518.24 694.593 518.24ZM712.759 507.28V518H709.819V511.76L705.639 518H702.779V507.28H705.719V513.54L709.899 507.28H712.759ZM715.874 521.2V507.28H718.914V508.82C719.767 507.66 720.881 507.08 722.254 507.08C723.587 507.08 724.734 507.58 725.694 508.58C726.654 509.58 727.134 510.94 727.134 512.66C727.134 514.367 726.654 515.72 725.694 516.72C724.747 517.707 723.601 518.2 722.254 518.2C720.921 518.2 719.807 517.667 718.914 516.6V521.2H715.874ZM719.614 514.8C720.121 515.347 720.741 515.62 721.474 515.62C722.207 515.62 722.827 515.347 723.334 514.8C723.841 514.24 724.094 513.513 724.094 512.62C724.094 511.753 723.841 511.047 723.334 510.5C722.827 509.94 722.207 509.66 721.474 509.66C720.741 509.66 720.121 509.94 719.614 510.5C719.121 511.047 718.874 511.767 718.874 512.66C718.874 513.527 719.121 514.24 719.614 514.8ZM732.81 518.2C731.757 518.2 730.877 517.907 730.17 517.32C729.477 516.733 729.13 515.92 729.13 514.88C729.13 513.747 729.517 512.893 730.29 512.32C731.077 511.747 732.13 511.46 733.45 511.46C734.343 511.46 735.217 511.607 736.07 511.9V511.72C736.07 510.413 735.303 509.76 733.77 509.76C732.85 509.76 731.863 509.953 730.81 510.34L730.05 508.02C731.357 507.447 732.743 507.16 734.21 507.16C735.823 507.16 737.03 507.56 737.83 508.36C738.603 509.133 738.99 510.273 738.99 511.78V518H736.05V516.84C735.237 517.747 734.157 518.2 732.81 518.2ZM733.73 516.1C734.437 516.1 735.01 515.927 735.45 515.58C735.89 515.22 736.11 514.767 736.11 514.22V513.68C735.537 513.413 734.89 513.28 734.17 513.28C733.503 513.28 732.983 513.413 732.61 513.68C732.25 513.933 732.07 514.307 732.07 514.8C732.07 515.2 732.223 515.52 732.53 515.76C732.837 515.987 733.237 516.1 733.73 516.1ZM751.986 507.28V518H749.046V511.76L744.866 518H742.006V507.28H744.946V513.54L749.126 507.28H751.986ZM749.346 505.46C748.759 505.993 748.006 506.26 747.086 506.26C746.166 506.26 745.406 505.993 744.806 505.46C744.219 504.927 743.859 504.18 743.726 503.22L745.506 502.9C745.786 503.793 746.313 504.24 747.086 504.24C747.859 504.24 748.386 503.793 748.666 502.9L750.446 503.22C750.313 504.18 749.946 504.927 749.346 505.46ZM771.317 507.28V518H768.277V513.9H764.537V518H761.497V507.28H764.537V511.4H768.277V507.28H771.317ZM776.997 521.26C776.037 521.26 775.137 521.013 774.297 520.52L775.317 518.32C775.783 518.6 776.217 518.74 776.617 518.74C777.097 518.74 777.45 518.507 777.677 518.04L773.477 507.28H776.697L779.137 514.58L781.477 507.28H784.637L780.517 518.26C780.103 519.367 779.637 520.14 779.117 520.58C778.597 521.033 777.89 521.26 776.997 521.26ZM795.909 518H792.849V515.22L791.569 513.72L788.869 518H785.469L789.529 511.72L785.589 507.28H789.089L792.849 511.84V507.28H795.909V511.84L799.669 507.28H803.189L799.249 511.72L803.289 518H799.909L797.189 513.72L795.909 515.22V518ZM814.861 507.28V518H811.821V513.9H808.081V518H805.041V507.28H808.081V511.4H811.821V507.28H814.861ZM820.54 521.26C819.58 521.26 818.68 521.013 817.84 520.52L818.86 518.32C819.327 518.6 819.76 518.74 820.16 518.74C820.64 518.74 820.994 518.507 821.22 518.04L817.02 507.28H820.24L822.68 514.58L825.02 507.28H828.18L824.06 518.26C823.647 519.367 823.18 520.14 822.66 520.58C822.14 521.033 821.434 521.26 820.54 521.26ZM840.132 518.24C838.772 518.24 837.612 517.84 836.652 517.04C835.706 516.227 835.112 515.18 834.872 513.9H833.412V518H830.372V507.28H833.412V511.4H834.872C835.139 510.133 835.746 509.1 836.692 508.3C837.652 507.487 838.812 507.08 840.172 507.08C841.759 507.08 843.052 507.613 844.052 508.68C845.052 509.747 845.552 511.073 845.552 512.66C845.552 514.233 845.046 515.56 844.032 516.64C843.019 517.707 841.719 518.24 840.132 518.24ZM840.172 515.62C840.959 515.62 841.552 515.347 841.952 514.8C842.352 514.24 842.552 513.527 842.552 512.66C842.552 511.82 842.339 511.12 841.912 510.56C841.486 509.987 840.892 509.7 840.132 509.7C839.346 509.7 838.752 509.98 838.352 510.54C837.952 511.087 837.752 511.793 837.752 512.66C837.752 513.5 837.966 514.207 838.392 514.78C838.819 515.34 839.412 515.62 840.172 515.62ZM864.371 507.28V518H861.331V513.9H857.591V518H854.551V507.28H857.591V511.4H861.331V507.28H864.371ZM872.57 518.24C870.944 518.24 869.604 517.727 868.55 516.7C867.497 515.66 866.97 514.313 866.97 512.66C866.97 511.1 867.47 509.78 868.47 508.7C869.47 507.62 870.737 507.08 872.27 507.08C873.964 507.08 875.257 507.64 876.15 508.76C877.044 509.88 877.49 511.26 877.49 512.9C877.49 513.06 877.477 513.327 877.45 513.7H869.99C870.137 514.38 870.437 514.9 870.89 515.26C871.344 515.62 871.917 515.8 872.61 515.8C873.557 515.8 874.424 515.433 875.21 514.7L876.95 516.24C875.87 517.573 874.41 518.24 872.57 518.24ZM869.95 511.8H874.53C874.437 511.107 874.19 510.553 873.79 510.14C873.404 509.727 872.897 509.52 872.27 509.52C871.657 509.52 871.144 509.727 870.73 510.14C870.33 510.54 870.07 511.093 869.95 511.8ZM883.236 515.4H886.896V509.88H884.036V510.12C884.009 512.427 883.743 514.187 883.236 515.4ZM888.476 518H881.756L881.536 520.52H878.976V515.4H880.136C880.829 513.92 881.176 511.52 881.176 508.2V507.28H889.936V515.4H891.396L891.036 520.52H888.476V518ZM898.527 518.24C896.9 518.24 895.56 517.727 894.507 516.7C893.453 515.66 892.927 514.313 892.927 512.66C892.927 511.1 893.427 509.78 894.427 508.7C895.427 507.62 896.693 507.08 898.227 507.08C899.92 507.08 901.213 507.64 902.107 508.76C903 509.88 903.447 511.26 903.447 512.9C903.447 513.06 903.433 513.327 903.407 513.7H895.947C896.093 514.38 896.393 514.9 896.847 515.26C897.3 515.62 897.873 515.8 898.567 515.8C899.513 515.8 900.38 515.433 901.167 514.7L902.907 516.24C901.827 517.573 900.367 518.24 898.527 518.24ZM895.907 511.8H900.487C900.393 511.107 900.147 510.553 899.747 510.14C899.36 509.727 898.853 509.52 898.227 509.52C897.613 509.52 897.1 509.727 896.687 510.14C896.287 510.54 896.027 511.093 895.907 511.8ZM907.392 507.28H916.012V518H912.972V509.88H910.252C910.252 511.293 910.199 512.487 910.092 513.46C909.986 514.433 909.839 515.227 909.652 515.84C909.466 516.453 909.206 516.927 908.872 517.26C908.539 517.593 908.179 517.82 907.792 517.94C907.406 518.06 906.926 518.12 906.352 518.12C905.806 518.12 905.292 518.06 904.812 517.94L905.012 515.48C905.252 515.52 905.466 515.54 905.652 515.54C905.972 515.54 906.226 515.467 906.412 515.32C906.599 515.16 906.772 514.813 906.932 514.28C907.106 513.733 907.226 512.9 907.292 511.78C907.359 510.647 907.392 509.147 907.392 507.28ZM928.89 518.24C927.53 518.24 926.37 517.84 925.41 517.04C924.463 516.227 923.87 515.18 923.63 513.9H922.17V518H919.13V507.28H922.17V511.4H923.63C923.896 510.133 924.503 509.1 925.45 508.3C926.41 507.487 927.57 507.08 928.93 507.08C930.516 507.08 931.81 507.613 932.81 508.68C933.81 509.747 934.31 511.073 934.31 512.66C934.31 514.233 933.803 515.56 932.79 516.64C931.776 517.707 930.476 518.24 928.89 518.24ZM928.93 515.62C929.716 515.62 930.31 515.347 930.71 514.8C931.11 514.24 931.31 513.527 931.31 512.66C931.31 511.82 931.096 511.12 930.67 510.56C930.243 509.987 929.65 509.7 928.89 509.7C928.103 509.7 927.51 509.98 927.11 510.54C926.71 511.087 926.51 511.793 926.51 512.66C926.51 513.5 926.723 514.207 927.15 514.78C927.576 515.34 928.17 515.62 928.93 515.62Z" fill="#262626"/>
</svg>
