<svg width="168" height="240" viewBox="0 0 168 240" fill="none" xmlns="http://www.w3.org/2000/svg">
<rect x="1" y="1" width="166" height="238" rx="7" fill="white"/>
<path d="M82.9114 107.932C92.3264 108.722 100.6 101.729 101.39 92.3117C102.181 82.8946 95.1892 74.6197 85.7742 73.8294C76.3593 73.039 68.0862 80.0324 67.2956 89.4496C66.5051 98.8668 73.4965 107.142 82.9114 107.932Z" fill="#615FC5"/>
<path d="M123.507 136.538C118.798 142.425 112.823 147.175 106.026 150.436C99.2299 153.697 91.7863 155.385 84.2485 155.374C76.7106 155.364 69.2721 153.655 62.4852 150.374C55.6982 147.094 49.7372 142.327 45.0448 136.426C49.6371 130.364 55.5726 125.45 62.3847 122.07C69.1968 118.69 76.6998 116.936 84.3039 116.947C91.9079 116.958 99.4058 118.733 106.208 122.132C113.01 125.531 118.931 130.462 123.506 136.538L123.507 136.538Z" fill="#615FC5"/>
<rect x="1" y="1" width="166" height="238" rx="7" stroke="#4548B7" stroke-width="2"/>
</svg>
