<svg width="360" height="248" viewBox="0 0 360 248" fill="none" xmlns="http://www.w3.org/2000/svg">
<path d="M279.494 161.084C279.533 186.11 271.211 210.436 255.841 230.223H76.1764C60.8065 210.436 52.4844 186.11 52.5236 161.084C52.5236 98.5995 103.335 47.9496 166.011 47.9496C228.688 47.9496 279.494 98.6012 279.494 161.084Z" fill="white"/>
<path opacity="0.1" d="M279.494 161.084C279.533 186.11 271.211 210.436 255.841 230.223H76.1764C60.8065 210.436 52.4844 186.11 52.5236 161.084C52.5236 98.5995 103.335 47.9496 166.011 47.9496C228.688 47.9496 279.494 98.6012 279.494 161.084Z" fill="#615FC5"/>
<path d="M222.076 230.587H174.342L171.478 192.607L220.366 194.323C220.366 194.323 220.957 189.895 220.987 198.289C221.006 204.112 222.226 215.657 222.076 230.587Z" fill="#262626"/>
<path d="M191.699 190.425C191.655 191.329 191.605 192.239 191.546 193.143C190.786 205.741 189.038 218.261 186.319 230.587H138.611C139.232 211.303 139.75 196.028 139.75 196.028L171.477 192.607L173.38 192.4L191.699 190.425Z" fill="#262626"/>
<path d="M203.206 61.724C203.206 61.724 203.747 74.1463 206.439 78.7114C214.194 91.8533 216.189 106.481 207.941 113.908C199.694 121.334 148.221 120.246 144.731 102.643C141.793 87.8226 148.874 86.4005 150.872 74.2778C151.777 68.7927 154.18 57.302 154.18 57.302" fill="#0A0A0A"/>
<path d="M159.164 100.708C159.252 100.696 160.238 117.01 179.248 115.588C192.409 114.605 197.101 100.685 197.403 100.685C195.984 100.384 193.594 99.947 192.964 99.6117C190.892 98.5016 188.328 97.3468 187.66 93.3348C187.275 91.0221 187.928 79.1924 187.727 76.8528L167.526 81.3478C167.808 86.2893 169.784 97.7439 162.859 99.7727C161.707 100.107 160.466 100.414 159.164 100.708Z" fill="#FED4C2"/>
<path opacity="0.52" d="M167.242 95.0902C167.559 94.0735 167.762 93.0254 167.85 91.9646C168.072 89.5437 168.028 87.1059 167.718 84.6946C171.824 84.1422 175.692 82.4526 178.883 79.8178C179.257 81.1988 181.321 87.2334 180.75 88.546C179.67 91.0271 174.597 95.0902 167.242 95.0902Z" fill="#0C0C0C"/>
<path d="M169.052 89.9345C176.997 90.889 187.373 87.9513 189.754 77.4296L191.902 67.9362C194.283 57.4149 190.67 47.6389 180.733 45.403C170.797 43.1679 161.439 50.0271 159.058 60.5496L158.107 64.7525C157.193 68.789 154.878 88.2344 169.052 89.9345Z" fill="#FED4C2"/>
<path d="M167.152 78.3114C168.677 78.3399 170.174 78.7254 171.522 79.4368C171.577 79.4662 171.618 79.5156 171.636 79.5745C171.655 79.6335 171.65 79.6973 171.622 79.7525C171.594 79.8076 171.545 79.8498 171.487 79.8699C171.428 79.8901 171.364 79.8867 171.308 79.8605C168.399 78.3981 165.672 78.4105 163.421 79.8966C163.376 79.928 163.329 79.9571 163.28 79.9837C163.224 80.0072 163.161 80.0084 163.104 79.987C163.047 79.9657 163 79.9233 162.974 79.8688C162.947 79.8142 162.942 79.7516 162.961 79.6937C162.979 79.6358 163.019 79.5871 163.072 79.5575C163.09 79.5476 163.119 79.5277 163.16 79.5007C164.342 78.7172 165.732 78.3031 167.152 78.3114V78.3114Z" fill="#0C0C0C"/>
<path d="M166.764 75.0904H166.744C166.336 75.0283 165.931 74.944 165.532 74.8376C164.935 74.6746 164.152 74.3957 164.229 73.862C164.317 73.2537 166.941 66.9319 167.24 66.2132C167.252 66.1812 167.271 66.152 167.294 66.1273C167.318 66.1026 167.347 66.0829 167.378 66.0694C167.41 66.0559 167.444 66.0488 167.478 66.0486C167.513 66.0484 167.547 66.0551 167.579 66.0682C167.61 66.0814 167.639 66.1007 167.663 66.1252C167.687 66.1496 167.706 66.1786 167.719 66.2104C167.732 66.2423 167.738 66.2763 167.737 66.3106C167.736 66.3448 167.729 66.3786 167.715 66.4099C166.595 69.1018 164.797 73.5259 164.738 73.9355C164.812 74.1206 165.804 74.4364 166.819 74.5828C166.885 74.5927 166.944 74.6273 166.984 74.6795C167.025 74.7318 167.044 74.7976 167.037 74.8632C167.03 74.9289 166.998 74.9894 166.947 75.0321C166.897 75.0748 166.832 75.0964 166.766 75.0924L166.764 75.0904Z" fill="#0C0C0C"/>
<path d="M199.788 71.5448L190.88 69.5944C184.185 66.6186 182.541 54.8271 182.541 54.8271C182.541 54.8271 174.012 62.5556 154.182 57.302C154.182 57.302 159.162 29.6492 188.412 38.7567C197.843 41.6935 204.343 51.4965 203.044 64.2541C202.132 73.1919 199.788 71.5448 199.788 71.5448Z" fill="#0A0A0A"/>
<path d="M188.411 80.4955C191.431 81.1748 194.607 78.5036 195.289 75.4942C195.97 72.4848 193.898 70.2725 190.877 69.5936L188.864 71.2606L185.814 79.9145L188.411 80.4955Z" fill="#FED4C2"/>
<path d="M165.615 60.5932C164.748 59.9916 163.735 59.6333 162.682 59.5558C162.163 59.5146 161.642 59.5514 161.134 59.6649C160.632 59.7751 160.145 59.948 159.686 60.1795C159.623 60.2093 159.574 60.2626 159.55 60.3279C159.525 60.3932 159.527 60.4654 159.556 60.5292C159.584 60.593 159.636 60.6433 159.701 60.6694C159.765 60.6956 159.838 60.6955 159.903 60.6691L159.922 60.6613C160.345 60.4718 160.791 60.336 161.249 60.2571C161.701 60.1768 162.163 60.1652 162.619 60.2226C163.523 60.3298 164.383 60.6734 165.111 61.2186L165.134 61.2372C165.218 61.3028 165.326 61.3322 165.432 61.3191C165.538 61.3059 165.634 61.2513 165.7 61.1671C165.766 61.083 165.795 60.9762 165.782 60.8704C165.769 60.7646 165.714 60.6683 165.63 60.6027L165.615 60.5932Z" fill="#0C0C0C"/>
<path d="M173.399 62.3916C174.29 62.2064 175.215 62.2597 176.079 62.546C176.516 62.6874 176.929 62.8938 177.304 63.1581C177.685 63.4234 178.03 63.7352 178.333 64.0864L178.347 64.1013C178.394 64.1524 178.459 64.183 178.529 64.1867C178.599 64.1905 178.667 64.1671 178.72 64.1214C178.772 64.0758 178.805 64.0116 178.811 63.9423C178.817 63.873 178.796 63.8042 178.752 63.7503C178.435 63.3464 178.068 62.9839 177.66 62.6713C177.25 62.3534 176.793 62.0989 176.307 61.9165C175.32 61.5397 174.25 61.4342 173.209 61.6111C173.156 61.6191 173.105 61.6376 173.059 61.6657C173.013 61.6937 172.973 61.7306 172.941 61.7743C172.91 61.818 172.888 61.8675 172.876 61.9199C172.864 61.9723 172.863 62.0266 172.872 62.0795C172.882 62.1324 172.902 62.1829 172.931 62.228C172.96 62.273 172.998 62.3117 173.043 62.3418C173.088 62.372 173.138 62.3928 173.191 62.4032C173.244 62.4136 173.298 62.4134 173.351 62.4024L173.368 62.3991L173.399 62.3916Z" fill="#0C0C0C"/>
<path d="M190.863 69.4803L190.96 69.2359C179.742 64.7753 182.909 53.7573 182.942 53.6461L182.689 53.5705C182.656 53.6834 179.417 64.9293 190.863 69.4803Z" fill="#0C0C0C"/>
<path d="M160.787 65.067C161.48 65.067 162.041 64.5071 162.041 63.8163C162.041 63.1255 161.48 62.5656 160.787 62.5656C160.094 62.5656 159.532 63.1255 159.532 63.8163C159.532 64.5071 160.094 65.067 160.787 65.067Z" fill="#0C0C0C"/>
<path d="M173.188 67.195C173.881 67.195 174.443 66.635 174.443 65.9443C174.443 65.2535 173.881 64.6935 173.188 64.6935C172.495 64.6935 171.934 65.2535 171.934 65.9443C171.934 66.635 172.495 67.195 173.188 67.195Z" fill="#0C0C0C"/>
<path opacity="0.1" d="M177.05 74.8064C177.187 73.8508 176.239 72.9252 174.932 72.7389C173.626 72.5526 172.455 73.1762 172.318 74.1318C172.181 75.0874 173.129 76.0131 174.436 76.1994C175.743 76.3857 176.913 75.7621 177.05 74.8064Z" fill="#0C0C0C"/>
<path opacity="0.1" d="M160.68 72.0473C160.541 73.0017 159.371 73.6242 158.064 73.44C157.838 73.4075 157.616 73.3519 157.402 73.274C157.367 72.1315 157.389 71.0331 157.447 70.0189C157.813 69.9368 158.191 69.9234 158.562 69.9795C159.868 70.1625 160.816 71.0895 160.68 72.0473Z" fill="#0C0C0C"/>
<path d="M67.4491 99.7503C67.624 99.405 67.9022 99.1223 68.2452 98.9414C68.5882 98.7604 68.9791 98.6902 69.3639 98.7403C69.3605 98.7172 69.3629 98.6936 69.3707 98.6716C69.3785 98.6496 69.3916 98.6298 69.4088 98.614C69.4261 98.5982 69.4469 98.5868 69.4695 98.5808C69.4922 98.5748 69.5159 98.5744 69.5387 98.5797L68.2404 97.6518C67.8521 97.3868 67.573 96.9906 67.4549 96.5364C67.3367 96.0822 67.3875 95.6008 67.5977 95.181C67.8189 94.7732 68.1841 94.4618 68.6224 94.3072C69.0608 94.1525 69.5412 94.1656 69.9704 94.344C69.9671 94.3258 69.9796 94.3083 69.9825 94.2897L69.4488 93.9083C69.0839 93.657 68.8173 93.2877 68.694 92.863C68.5708 92.4382 68.5985 91.9841 68.7724 91.5774C68.8868 91.3246 69.0561 91.1003 69.268 90.9206C69.4799 90.741 69.7291 90.6104 69.9977 90.5384C70.2663 90.4664 70.5477 90.4547 70.8214 90.5042C71.0951 90.5537 71.3543 90.6631 71.5805 90.8246L72.8113 91.7043C72.8151 91.6969 72.8113 91.6886 72.8163 91.6815C72.8213 91.6745 72.8346 91.6724 72.8417 91.6649C72.5587 91.3482 72.3922 90.9449 72.3695 90.5213C72.3468 90.0977 72.4693 89.679 72.7168 89.334C73.2996 88.402 74.6391 88.5924 75.4354 89.161L82.6807 94.1506L81.3858 91.977C81.1256 91.5588 81.0342 91.0577 81.1301 90.575C81.226 90.0923 81.5019 89.6637 81.9023 89.3759C82.1144 89.2345 82.3531 89.1376 82.6039 89.0912C82.8547 89.0447 83.1124 89.0497 83.3612 89.1058C83.61 89.1619 83.8447 89.268 84.0511 89.4175C84.2574 89.5671 84.4311 89.7569 84.5614 89.9756L91.6331 101.844C92.4627 103.236 92.715 104.896 92.3365 106.471C91.958 108.046 90.9784 109.412 89.606 110.278V110.278C88.0143 111.283 86.1579 111.791 84.2748 111.737C82.3917 111.683 80.5676 111.069 79.0364 109.975L68.0943 102.157C67.7303 101.887 67.4685 101.503 67.3514 101.066C67.2343 100.629 67.2687 100.165 67.4491 99.7503V99.7503Z" fill="#FED4C2"/>
<g opacity="0.25">
<path opacity="0.25" d="M79.9829 96.638C79.9564 96.6746 79.9166 96.6995 79.8719 96.7072C79.8273 96.715 79.7814 96.705 79.744 96.6795L72.8595 91.923C72.84 91.9104 72.8232 91.894 72.8102 91.8748C72.7971 91.8556 72.7881 91.834 72.7836 91.8113C72.7791 91.7885 72.7792 91.7651 72.7839 91.7424C72.7887 91.7197 72.798 91.6982 72.8112 91.6791C72.8245 91.6601 72.8414 91.6439 72.8611 91.6315C72.8807 91.6191 72.9027 91.6108 72.9257 91.607C72.9486 91.6032 72.9721 91.6041 72.9947 91.6096C73.0173 91.615 73.0386 91.625 73.0573 91.6388L79.9417 96.3927C79.9794 96.4189 80.0051 96.4588 80.0133 96.5039C80.0215 96.5489 80.0115 96.5953 79.9854 96.633L79.9829 96.638Z" fill="#0C0C0C"/>
</g>
<g opacity="0.25">
<path opacity="0.25" d="M77.9632 99.7213C77.9367 99.7579 77.8969 99.7828 77.8522 99.7905C77.8076 99.7983 77.7617 99.7883 77.7243 99.7628L70.0415 94.4561C70.0037 94.43 69.9779 94.3901 69.9696 94.345C69.9614 94.3 69.9713 94.2535 69.9974 94.2158C70.0245 94.1793 70.0646 94.1545 70.1094 94.1464C70.1543 94.1384 70.2005 94.1476 70.2388 94.1722L77.922 99.4777C77.9597 99.5039 77.9854 99.5438 77.9936 99.5888C78.0018 99.6339 77.9918 99.6803 77.9657 99.718L77.9632 99.7213Z" fill="#0C0C0C"/>
</g>
<g opacity="0.25">
<path opacity="0.25" d="M75.7958 103.075C75.7694 103.111 75.7296 103.136 75.685 103.144C75.6404 103.152 75.5945 103.142 75.5573 103.116L69.4283 98.8834C69.3929 98.8564 69.3694 98.8168 69.3625 98.7729C69.3555 98.729 69.3658 98.6842 69.3912 98.6476C69.4166 98.6111 69.455 98.5857 69.4987 98.5767C69.5423 98.5676 69.5878 98.5757 69.6256 98.5992L75.7546 102.832C75.7923 102.858 75.8182 102.898 75.8264 102.943C75.8346 102.988 75.8245 103.035 75.7983 103.073L75.7958 103.075Z" fill="#0C0C0C"/>
</g>
<path d="M94.7509 97.5618L112.351 138.082L136.635 104.948L157.681 123.86L121.743 170.261L121.507 170.593C120.068 172.558 118.152 174.124 115.938 175.146C113.725 176.167 111.286 176.61 108.853 176.433C106.421 176.255 104.073 175.463 102.032 174.131C99.9912 172.799 98.324 170.971 97.1877 168.819L71.8794 110.245L94.7509 97.5618Z" fill="#615FC5"/>
<path d="M114.388 142.322C114.433 142.322 114.477 142.31 114.517 142.288C114.556 142.266 114.589 142.235 114.613 142.196C114.636 142.158 114.65 142.114 114.651 142.069C114.653 142.024 114.643 141.979 114.623 141.939L112.587 137.963C112.554 137.903 112.499 137.858 112.433 137.838C112.367 137.817 112.296 137.824 112.235 137.855C112.174 137.886 112.128 137.939 112.105 138.004C112.083 138.069 112.087 138.14 112.117 138.202L114.153 142.179C114.175 142.222 114.208 142.258 114.25 142.283C114.291 142.309 114.339 142.322 114.388 142.322V142.322Z" fill="#0C0C0C"/>
<path d="M135.544 136.623C136.143 143.636 139.056 187.389 139.631 196.027H220.945C221.394 188.236 221.434 154.169 223.134 138.934C224.757 124.396 227.939 117.117 225.606 112.819C221.793 105.795 216.318 99.4599 205.82 98.5855C201.458 98.2216 193.408 99.7732 193.408 99.7732C193.408 99.7732 192.854 110.913 179.683 111.533C161.751 112.376 162.943 99.8018 162.859 99.7715C159.163 98.4241 146.297 97.7381 140.631 101.469C129.821 108.585 134.273 121.762 135.544 136.623Z" fill="#615FC5"/>
<path d="M136.15 141.175L135.624 141.205L136.257 152.341L136.784 152.312L136.15 141.175Z" fill="#0C0C0C"/>
<path d="M284.188 104.667C283.982 104.34 283.679 104.084 283.322 103.936C282.964 103.787 282.568 103.753 282.19 103.837C282.191 103.814 282.187 103.791 282.177 103.77C282.167 103.749 282.152 103.73 282.134 103.716C282.115 103.702 282.093 103.692 282.07 103.689C282.047 103.685 282.023 103.687 282.001 103.694L283.208 102.651C283.57 102.351 283.812 101.931 283.887 101.468C283.963 101.005 283.868 100.53 283.62 100.131C283.362 99.7457 282.969 99.4692 282.519 99.3556C282.068 99.2419 281.591 99.299 281.18 99.5159C281.18 99.4972 281.168 99.481 281.163 99.4628L281.659 99.0341C281.999 98.7504 282.231 98.3582 282.314 97.9239C282.397 97.4896 282.328 97.0399 282.117 96.6509C281.98 96.4097 281.79 96.2019 281.563 96.0425C281.335 95.8831 281.075 95.776 280.801 95.7289C280.527 95.6819 280.246 95.6961 279.978 95.7705C279.71 95.8449 279.462 95.9776 279.251 96.1592L278.107 97.148C278.102 97.141 278.107 97.1323 278.1 97.126C278.093 97.1198 278.081 97.1186 278.073 97.1119C278.325 96.7703 278.454 96.3533 278.437 95.9295C278.42 95.5057 278.259 95.1001 277.981 94.7794C277.315 93.9046 275.998 94.2175 275.258 94.8565L268.504 100.49L269.593 98.2079C269.814 97.7674 269.859 97.2597 269.719 96.7873C269.579 96.3149 269.265 95.9131 268.839 95.6633C268.615 95.5418 268.368 95.4672 268.114 95.4439C267.86 95.4207 267.604 95.4493 267.361 95.528C267.118 95.6067 266.894 95.7339 266.703 95.9018C266.511 96.0696 266.356 96.2747 266.246 96.5044L260.301 108.972C259.604 110.434 259.506 112.11 260.028 113.644C260.551 115.177 261.652 116.447 263.099 117.184V117.184C264.776 118.038 266.672 118.373 268.542 118.147C270.412 117.92 272.172 117.142 273.596 115.912L283.769 107.122C284.106 106.82 284.331 106.413 284.407 105.967C284.483 105.522 284.406 105.064 284.188 104.667V104.667Z" fill="#FED4C2"/>
<g opacity="0.25">
<path opacity="0.25" d="M271.42 102.717C271.449 102.75 271.491 102.771 271.537 102.775C271.582 102.778 271.626 102.764 271.661 102.735L278.077 97.3693C278.095 97.3547 278.109 97.3368 278.119 97.3167C278.13 97.2966 278.136 97.2746 278.138 97.252C278.14 97.2294 278.138 97.2066 278.131 97.185C278.124 97.1633 278.113 97.1433 278.099 97.1259C278.084 97.1085 278.066 97.0941 278.046 97.0837C278.026 97.0732 278.004 97.0668 277.981 97.0648C277.958 97.0628 277.935 97.0653 277.914 97.0721C277.892 97.0789 277.872 97.0899 277.854 97.1045L271.438 102.47C271.403 102.5 271.381 102.542 271.377 102.587C271.373 102.633 271.388 102.678 271.417 102.713L271.42 102.717Z" fill="#0C0C0C"/>
</g>
<g opacity="0.25">
<path opacity="0.25" d="M273.715 105.602C273.745 105.635 273.787 105.656 273.832 105.66C273.878 105.663 273.922 105.649 273.957 105.62L281.116 99.6317C281.152 99.6022 281.174 99.56 281.178 99.5143C281.182 99.4687 281.167 99.4233 281.138 99.3881C281.108 99.3544 281.065 99.3335 281.02 99.3295C280.975 99.3256 280.93 99.339 280.894 99.3669L273.734 105.355C273.699 105.385 273.677 105.427 273.673 105.472C273.669 105.518 273.683 105.563 273.713 105.599L273.715 105.602Z" fill="#0C0C0C"/>
</g>
<g opacity="0.25">
<path opacity="0.25" d="M276.184 108.743C276.214 108.777 276.256 108.798 276.301 108.801C276.346 108.805 276.39 108.79 276.425 108.762L282.137 103.983C282.172 103.954 282.194 103.911 282.198 103.866C282.202 103.82 282.188 103.775 282.158 103.74C282.129 103.705 282.087 103.683 282.041 103.679C281.995 103.675 281.949 103.689 281.914 103.718L276.202 108.495C276.167 108.525 276.145 108.567 276.141 108.612C276.137 108.658 276.152 108.703 276.181 108.738L276.184 108.743Z" fill="#0C0C0C"/>
</g>
<path d="M257.51 104.145L244.13 138.352L224.594 111.005L203.552 129.919L233.686 175.793L233.922 176.125C235.36 178.089 237.277 179.656 239.491 180.677C241.704 181.699 244.143 182.142 246.575 181.964C249.008 181.787 251.356 180.995 253.397 179.663C255.438 178.331 257.105 176.503 258.241 174.351L279.858 116.302L257.51 104.145Z" fill="#615FC5"/>
<path d="M242.094 142.592C242.049 142.592 242.004 142.581 241.965 142.559C241.926 142.537 241.893 142.505 241.869 142.467C241.845 142.428 241.832 142.384 241.83 142.339C241.829 142.294 241.838 142.25 241.859 142.209L243.895 138.233C243.927 138.172 243.982 138.125 244.049 138.105C244.115 138.084 244.186 138.09 244.248 138.121C244.31 138.153 244.357 138.207 244.379 138.273C244.401 138.339 244.395 138.41 244.365 138.472L242.329 142.449C242.307 142.492 242.273 142.528 242.232 142.554C242.19 142.579 242.143 142.592 242.094 142.592V142.592Z" fill="#0C0C0C"/>
<path d="M267.391 230.585H67.1791C67.0508 230.581 66.9291 230.528 66.8396 230.436C66.7502 230.344 66.7002 230.221 66.7002 230.093C66.7002 229.965 66.7502 229.842 66.8396 229.751C66.9291 229.659 67.0508 229.605 67.1791 229.602H267.391C267.519 229.605 267.641 229.659 267.73 229.751C267.82 229.842 267.87 229.965 267.87 230.093C267.87 230.221 267.82 230.344 267.73 230.436C267.641 230.528 267.519 230.581 267.391 230.585Z" fill="#292A2E"/>
<path d="M113.783 72.4748V22.2514C113.783 21.1242 113.334 20.0431 112.535 19.2458C111.735 18.4486 110.651 18.0004 109.52 18H50.2645C49.1335 18 48.0488 18.4479 47.2491 19.2452C46.4493 20.0425 46 21.1239 46 22.2514V59.6997C46 60.8273 46.4493 61.9086 47.2491 62.7059C48.0488 63.5032 49.1335 63.9511 50.2645 63.9511H98.4136L111.843 73.4728C112.027 73.6031 112.243 73.6806 112.468 73.6965C112.693 73.7125 112.918 73.6664 113.118 73.5633C113.319 73.4603 113.487 73.3042 113.604 73.1121C113.721 72.9201 113.783 72.6996 113.783 72.4748V72.4748Z" fill="white"/>
<path d="M78.2937 53.6938C79.3793 53.6938 80.2593 52.8165 80.2593 51.7343C80.2593 50.6521 79.3793 49.7747 78.2937 49.7747C77.2081 49.7747 76.3281 50.6521 76.3281 51.7343C76.3281 52.8165 77.2081 53.6938 78.2937 53.6938Z" fill="#615FC5"/>
<path d="M78.2023 47.4814C77.8629 47.4813 77.5375 47.3469 77.2976 47.1077C77.0577 46.8684 76.9229 46.544 76.9229 46.2057V41.4678C76.9229 41.1816 77.0195 40.9036 77.1971 40.6788C77.3748 40.4539 77.6231 40.2951 77.9022 40.228C77.9577 40.2142 83.6817 38.7701 83.6817 34.93C83.6817 32.5205 81.7002 30.8359 78.8631 30.8359C75.7909 30.8359 74.2115 33.8987 74.146 34.0281C73.9925 34.3261 73.7276 34.5519 73.4084 34.6568C73.0893 34.7617 72.7416 34.7373 72.4404 34.5888C72.1392 34.4403 71.9086 34.1796 71.7986 33.8631C71.6885 33.5465 71.7078 33.1995 71.8522 32.8971C71.9463 32.7095 74.1827 28.2851 78.8631 28.2851C83.1378 28.2851 86.2404 31.0788 86.2404 34.9285C86.2404 39.5679 81.5694 41.6931 79.4819 42.4113V46.2057C79.4818 46.544 79.347 46.8685 79.107 47.1077C78.8671 47.3469 78.5416 47.4813 78.2023 47.4814V47.4814Z" fill="#615FC5"/>
</svg>
