<svg width="157" height="16" viewBox="0 0 157 16" fill="none" xmlns="http://www.w3.org/2000/svg">
<path d="M0.24 15V0.999999H11.44V4.4H4.12V6.78H10.74V10H4.12V15H0.24ZM10.0872 15L16.0472 0.899999H19.7872L25.7472 15H21.5872L20.5672 12.5H15.1672L14.1672 15H10.0872ZM16.3072 9.48H19.4472L17.8872 5.5L16.3072 9.48ZM38.6472 15.42L37.1072 14.04C35.8405 14.8667 34.4205 15.28 32.8472 15.28C30.7005 15.28 28.9072 14.58 27.4672 13.18C26.0405 11.7667 25.3272 10.04 25.3272 8C25.3272 5.97333 26.0472 4.25333 27.4872 2.84C28.9405 1.42667 30.7405 0.719999 32.8872 0.719999C35.0339 0.719999 36.8205 1.42667 38.2472 2.84C39.6872 4.24 40.4072 5.96 40.4072 8C40.4072 9.50667 39.9939 10.8467 39.1672 12.02L40.6072 13.24L38.6472 15.42ZM32.8872 11.84C33.3805 11.84 33.8539 11.7533 34.3072 11.58L32.3672 9.92L34.3272 7.72L36.2272 9.44C36.3872 9.01333 36.4672 8.54667 36.4672 8.04C36.4672 6.98667 36.1272 6.08667 35.4472 5.34C34.7672 4.59333 33.9005 4.22 32.8472 4.22C31.8072 4.22 30.9539 4.59333 30.2872 5.34C29.6339 6.08667 29.3072 6.98667 29.3072 8.04C29.3072 9.08 29.6405 9.97333 30.3072 10.72C30.9872 11.4667 31.8472 11.84 32.8872 11.84ZM52.4752 15.26C50.7685 15.26 49.3485 14.7133 48.2152 13.62C47.0818 12.5133 46.5152 11.1733 46.5152 9.6C46.5152 8.04 47.0818 6.70667 48.2152 5.6C49.3618 4.49333 50.7952 3.94 52.5152 3.94C54.2218 3.94 55.6418 4.49333 56.7752 5.6C57.9085 6.69333 58.4752 8.02667 58.4752 9.6C58.4752 11.16 57.9018 12.4933 56.7552 13.6C55.6218 14.7067 54.1952 15.26 52.4752 15.26ZM52.5152 12.04C53.1952 12.04 53.7418 11.8067 54.1552 11.34C54.5685 10.8733 54.7752 10.2933 54.7752 9.6C54.7752 8.93333 54.5552 8.36 54.1152 7.88C53.6752 7.4 53.1285 7.16 52.4752 7.16C51.7952 7.16 51.2485 7.39333 50.8352 7.86C50.4218 8.32667 50.2152 8.90667 50.2152 9.6C50.2152 10.2667 50.4352 10.84 50.8752 11.32C51.3152 11.8 51.8618 12.04 52.5152 12.04ZM60.3602 15V7.22H59.1002V4.24H60.3602V4C60.3602 2.74667 60.6668 1.81333 61.2802 1.2C61.9068 0.573332 62.8468 0.259999 64.1002 0.259999C65.0868 0.259999 65.9135 0.359999 66.5802 0.559999V3.24C66.1135 3.09333 65.6402 3.02 65.1602 3.02C64.4402 3.02 64.0802 3.36 64.0802 4.04V4.3H66.5602V7.22H64.1402V15H60.3602ZM76.813 15.24C74.8796 15.24 73.173 14.7067 71.693 13.64L73.113 11.34C74.3663 12.1667 75.6063 12.58 76.833 12.58C77.473 12.58 77.793 12.3733 77.793 11.96C77.793 11.76 77.6596 11.6 77.393 11.48C77.1396 11.36 76.693 11.2133 76.053 11.04C74.7863 10.6933 73.8263 10.28 73.173 9.8C72.533 9.30667 72.213 8.55333 72.213 7.54C72.213 6.42 72.613 5.54667 73.413 4.92C74.2263 4.28 75.273 3.96 76.553 3.96C78.2196 3.96 79.7063 4.38 81.013 5.22L79.713 7.62C78.513 6.95333 77.4463 6.62 76.513 6.62C75.9263 6.62 75.633 6.80667 75.633 7.18C75.633 7.36667 75.7596 7.52667 76.013 7.66C76.2663 7.78 76.7263 7.94 77.393 8.14C78.0063 8.31333 78.513 8.48667 78.913 8.66C79.313 8.82 79.7063 9.03333 80.093 9.3C80.4796 9.56667 80.7663 9.89333 80.953 10.28C81.1396 10.6533 81.233 11.1 81.233 11.62C81.233 12.78 80.833 13.6733 80.033 14.3C79.233 14.9267 78.1596 15.24 76.813 15.24ZM86.4911 15.22C84.0644 15.22 82.8511 14.0267 82.8511 11.64V7.24H81.5711V4.18H82.8511V1.44H86.6511V4.18H89.1711V7.24H86.6511V10.9C86.6511 11.62 86.9978 11.98 87.6911 11.98C88.1444 11.98 88.6244 11.86 89.1311 11.62V14.6C88.3978 15.0133 87.5178 15.22 86.4911 15.22ZM94.0044 15.24C92.8577 15.24 91.9577 14.8867 91.3044 14.18C90.651 13.4733 90.3244 12.5 90.3244 11.26V4.18H94.1244V10.04C94.1244 10.6133 94.2644 11.06 94.5444 11.38C94.8244 11.7 95.1977 11.86 95.6644 11.86C96.131 11.86 96.511 11.7 96.8044 11.38C97.0977 11.06 97.2444 10.6133 97.2444 10.04V4.18H101.044V15H97.2444V13.52C96.351 14.6667 95.271 15.24 94.0044 15.24ZM107.06 15.24C105.727 15.24 104.593 14.7267 103.66 13.7C102.74 12.66 102.28 11.2933 102.28 9.6C102.28 7.89333 102.74 6.52667 103.66 5.5C104.58 4.46 105.707 3.94 107.04 3.94C108.347 3.94 109.453 4.46 110.36 5.5V0.4H114.16V15H110.36V13.56C109.44 14.68 108.34 15.24 107.06 15.24ZM106.64 11.36C107.08 11.8267 107.607 12.06 108.22 12.06C108.833 12.06 109.353 11.8267 109.78 11.36C110.207 10.8933 110.42 10.2933 110.42 9.56C110.42 8.85333 110.207 8.27333 109.78 7.82C109.353 7.35333 108.833 7.12 108.22 7.12C107.593 7.12 107.067 7.35333 106.64 7.82C106.213 8.28667 106 8.88 106 9.6C106 10.3067 106.213 10.8933 106.64 11.36ZM121.156 15.26C119.449 15.26 118.056 14.74 116.976 13.7C115.896 12.66 115.356 11.2933 115.356 9.6C115.356 8 115.869 6.66 116.896 5.58C117.922 4.48667 119.229 3.94 120.816 3.94C122.589 3.94 123.942 4.5 124.876 5.62C125.809 6.74 126.276 8.15333 126.276 9.86C126.276 10.2067 126.269 10.4667 126.256 10.64H119.016C119.322 11.8267 120.102 12.42 121.356 12.42C122.209 12.42 123.009 12.0533 123.756 11.32L125.856 13.06C124.696 14.5267 123.129 15.26 121.156 15.26ZM118.956 8.7H122.716C122.649 8.1 122.449 7.62667 122.116 7.28C121.782 6.92 121.356 6.74 120.836 6.74C120.342 6.74 119.929 6.92 119.596 7.28C119.276 7.62667 119.062 8.1 118.956 8.7ZM127.505 15V4.18H131.305V5.7C132.212 4.52667 133.292 3.94 134.545 3.94C135.692 3.94 136.592 4.3 137.245 5.02C137.898 5.72667 138.225 6.69333 138.225 7.92V15H134.425V9.14C134.425 8.56667 134.285 8.12 134.005 7.8C133.738 7.48 133.372 7.32 132.905 7.32C132.425 7.32 132.038 7.48 131.745 7.8C131.452 8.12 131.305 8.56667 131.305 9.14V15H127.505ZM144.081 15.22C141.654 15.22 140.441 14.0267 140.441 11.64V7.24H139.161V4.18H140.441V1.44H144.241V4.18H146.761V7.24H144.241V10.9C144.241 11.62 144.588 11.98 145.281 11.98C145.734 11.98 146.214 11.86 146.721 11.62V14.6C145.988 15.0133 145.108 15.22 144.081 15.22ZM152.294 15.24C150.361 15.24 148.654 14.7067 147.174 13.64L148.594 11.34C149.848 12.1667 151.088 12.58 152.314 12.58C152.954 12.58 153.274 12.3733 153.274 11.96C153.274 11.76 153.141 11.6 152.874 11.48C152.621 11.36 152.174 11.2133 151.534 11.04C150.268 10.6933 149.308 10.28 148.654 9.8C148.014 9.30667 147.694 8.55333 147.694 7.54C147.694 6.42 148.094 5.54667 148.894 4.92C149.708 4.28 150.754 3.96 152.034 3.96C153.701 3.96 155.188 4.38 156.494 5.22L155.194 7.62C153.994 6.95333 152.928 6.62 151.994 6.62C151.408 6.62 151.114 6.80667 151.114 7.18C151.114 7.36667 151.241 7.52667 151.494 7.66C151.748 7.78 152.208 7.94 152.874 8.14C153.488 8.31333 153.994 8.48667 154.394 8.66C154.794 8.82 155.188 9.03333 155.574 9.3C155.961 9.56667 156.248 9.89333 156.434 10.28C156.621 10.6533 156.714 11.1 156.714 11.62C156.714 12.78 156.314 13.6733 155.514 14.3C154.714 14.9267 153.641 15.24 152.294 15.24Z" fill="url(#paint0_linear_3_5)"/>
<defs>
<linearGradient id="paint0_linear_3_5" x1="-1" y1="-3" x2="156.136" y2="29.9016" gradientUnits="userSpaceOnUse">
<stop stop-color="#2CADD6"/>
<stop offset="1" stop-color="#79169B"/>
</linearGradient>
</defs>
</svg>
