<svg width="344" height="440" viewBox="0 0 344 440" fill="none" xmlns="http://www.w3.org/2000/svg">
<path d="M322.173 27.2803L36.0305 30.1224L39.6273 392.8L325.77 389.958L322.173 27.2803Z" fill="#010206"/>
<path opacity="0.58" d="M322.173 27.2803L36.0305 30.1224L39.6273 392.8L325.77 389.958L322.173 27.2803Z" fill="white"/>
<path d="M311.123 24.2195L25.1113 33.3499L36.6782 395.861L322.689 386.731L311.123 24.2195Z" fill="#292A2E"/>
<path opacity="0.58" d="M311.123 24.2195L25.1113 33.3499L36.6782 395.861L322.689 386.731L311.123 24.2195Z" fill="white"/>
<path d="M300.661 17.9048L15.9629 41.397L45.735 402.375L330.433 378.883L300.661 17.9048Z" fill="white"/>
<path d="M300.436 18.1706L330.169 378.659L45.9593 402.11L16.228 41.6217L300.438 18.1706H300.436ZM300.886 17.6402L15.6978 41.1724L45.5096 402.64L330.698 379.108L300.886 17.6402Z" fill="black"/>
<path d="M281.294 43.313L151.35 54.0355L152.125 63.434L282.07 52.7115L281.294 43.313Z" fill="#292A2E"/>
<path d="M283.502 68.8974L153.507 79.5916L153.547 80.0817L283.542 69.3875L283.502 68.8974Z" fill="black"/>
<path d="M284.926 86.1567L154.931 96.8509L154.971 97.341L284.966 86.6468L284.926 86.1567Z" fill="black"/>
<path d="M286.349 103.417L156.354 114.111L156.395 114.601L286.389 103.907L286.349 103.417Z" fill="black"/>
<path d="M287.772 120.676L157.778 131.37L157.818 131.86L287.813 121.166L287.772 120.676Z" fill="black"/>
<path d="M217.585 143.837L159.202 148.64L159.243 149.13L217.625 144.327L217.585 143.837Z" fill="black"/>
<path d="M291.361 165.36L49.2961 185.334L50.0713 194.733L292.136 174.759L291.361 165.36Z" fill="#292A2E"/>
<path d="M173.941 302.903L75.1353 311.031L75.1756 311.522L173.982 303.393L173.941 302.903Z" fill="black"/>
<path d="M175.617 323.215L76.811 331.344L76.8513 331.834L175.658 323.705L175.617 323.215Z" fill="black"/>
<path d="M177.293 343.528L78.4866 351.656L78.5269 352.146L177.333 344.018L177.293 343.528Z" fill="black"/>
<path d="M178.968 363.84L80.1616 371.969L80.2019 372.459L179.008 364.33L178.968 363.84Z" fill="black"/>
<path d="M64.8471 315.864C67.7174 315.864 70.0442 313.536 70.0442 310.665C70.0442 307.794 67.7174 305.467 64.8471 305.467C61.9768 305.467 59.6499 307.794 59.6499 310.665C59.6499 313.536 61.9768 315.864 64.8471 315.864Z" fill="#292A2E"/>
<path d="M69.9828 378.135C72.8531 378.135 75.18 375.807 75.18 372.936C75.18 370.065 72.8531 367.738 69.9828 367.738C67.1125 367.738 64.7856 370.065 64.7856 372.936C64.7856 375.807 67.1125 378.135 69.9828 378.135Z" fill="#292A2E"/>
<path d="M68.3085 357.83C71.1788 357.83 73.5057 355.502 73.5057 352.631C73.5057 349.76 71.1788 347.433 68.3085 347.433C65.4382 347.433 63.1113 349.76 63.1113 352.631C63.1113 355.502 65.4382 357.83 68.3085 357.83Z" fill="#292A2E"/>
<path d="M66.5775 336.847C69.4479 336.847 71.7747 334.519 71.7747 331.648C71.7747 328.777 69.4479 326.45 66.5775 326.45C63.7072 326.45 61.3804 328.777 61.3804 331.648C61.3804 334.519 63.7072 336.847 66.5775 336.847Z" fill="#292A2E"/>
<path d="M301.931 292.341L203.125 300.469L203.165 300.96L301.971 292.831L301.931 292.341Z" fill="black"/>
<path d="M303.607 312.654L204.801 320.782L204.841 321.272L303.647 313.144L303.607 312.654Z" fill="black"/>
<path d="M305.282 332.966L206.476 341.095L206.516 341.585L305.322 333.456L305.282 332.966Z" fill="black"/>
<path d="M306.958 353.279L208.152 361.407L208.192 361.897L306.998 353.769L306.958 353.279Z" fill="black"/>
<path d="M192.79 305.306C195.66 305.306 197.987 302.979 197.987 300.108C197.987 297.237 195.66 294.909 192.79 294.909C189.919 294.909 187.593 297.237 187.593 300.108C187.593 302.979 189.919 305.306 192.79 305.306Z" fill="#292A2E"/>
<path d="M197.925 367.577C200.796 367.577 203.123 365.25 203.123 362.379C203.123 359.508 200.796 357.18 197.925 357.18C195.055 357.18 192.728 359.508 192.728 362.379C192.728 365.25 195.055 367.577 197.925 367.577Z" fill="#292A2E"/>
<path d="M196.251 347.272C199.121 347.272 201.448 344.945 201.448 342.074C201.448 339.203 199.121 336.876 196.251 336.876C193.381 336.876 191.054 339.203 191.054 342.074C191.054 344.945 193.381 347.272 196.251 347.272Z" fill="#292A2E"/>
<path d="M194.521 326.289C197.391 326.289 199.718 323.962 199.718 321.091C199.718 318.22 197.391 315.893 194.521 315.893C191.65 315.893 189.323 318.22 189.323 321.091C189.323 323.962 191.65 326.289 194.521 326.289Z" fill="#292A2E"/>
<path d="M92.0842 110.597C101.532 110.597 109.191 102.936 109.191 93.4855C109.191 84.0352 101.532 76.3743 92.0842 76.3743C82.6362 76.3743 74.9771 84.0352 74.9771 93.4855C74.9771 102.936 82.6362 110.597 92.0842 110.597Z" fill="#615FC5"/>
<path d="M134.931 135.707C130.731 141.967 125.174 147.2 118.674 151.019C112.174 154.837 104.898 157.141 97.3857 157.761C89.8733 158.381 82.3179 157.3 75.2804 154.599C68.2428 151.898 61.9039 147.646 56.7344 142.159C60.8034 135.734 66.3071 130.34 72.8125 126.402C79.318 122.464 86.648 120.089 94.2263 119.464C101.805 118.838 109.425 119.98 116.487 122.798C123.55 125.617 129.863 130.035 134.93 135.707H134.931Z" fill="#615FC5"/>
<path d="M93.3166 58.0089C106.14 58.0228 118.462 62.9937 127.707 71.8825C136.952 80.7714 142.404 92.8903 142.925 105.706C143.445 118.522 138.993 131.044 130.499 140.653C122.005 150.262 110.127 156.216 97.3466 157.27C95.9705 157.384 94.5772 157.441 93.2041 157.441C80.3806 157.427 68.0587 152.456 58.8138 143.568C49.5689 134.679 44.1165 122.56 43.5962 109.744C43.0758 96.9277 47.5279 84.4065 56.0218 74.7971C64.5156 65.1877 76.394 59.2339 89.1741 58.18C90.5502 58.0665 91.9425 58.0089 93.3171 58.0089H93.3166ZM93.3171 57.5174C91.9341 57.5174 90.5374 57.5744 89.1348 57.6899C82.5654 58.2315 76.167 60.0621 70.3049 63.0772C64.4429 66.0922 59.2319 70.2327 54.9697 75.2622C50.7075 80.2917 47.4774 86.1117 45.464 92.3899C43.4506 98.668 42.6932 105.281 43.2351 111.852V111.852C44.2699 124.401 49.9806 136.102 59.2352 144.637C68.4898 153.172 80.6126 157.918 93.2006 157.933C94.5839 157.933 95.9782 157.875 97.3834 157.76C103.953 157.218 110.351 155.387 116.212 152.372C122.074 149.356 127.285 145.216 131.547 140.186C135.809 135.157 139.038 129.337 141.052 123.059C143.065 116.781 143.822 110.168 143.28 103.597C142.245 91.0488 136.535 79.3473 127.28 70.8123C118.025 62.2774 105.902 57.5322 93.3142 57.5174H93.3171Z" fill="black"/>
<path d="M293.772 193.415L51.6138 213.336L51.6541 213.826L293.813 193.905L293.772 193.415Z" fill="black"/>
<path d="M295.091 210.591L53.0239 230.531L53.0642 231.02L295.132 211.08L295.091 210.591Z" fill="black"/>
<path d="M296.515 227.844L54.4473 247.785L54.4876 248.274L296.555 228.334L296.515 227.844Z" fill="black"/>
<path d="M297.938 245.098L55.8699 265.038L55.9102 265.528L297.978 245.587L297.938 245.098Z" fill="black"/>
<path d="M115.692 277.596L57.3098 282.399L57.3501 282.889L115.733 278.086L115.692 277.596Z" fill="black"/>
<path d="M48.2545 22.669C50.1086 22.9419 51.786 23.9196 52.9374 25.3985C54.0889 26.8774 54.6257 28.7436 54.436 30.6085L51.8657 58.3825C51.7365 59.8393 51.0344 61.1852 49.9136 62.1245C48.7929 63.0637 47.3452 63.5195 45.8886 63.3917C44.4823 63.2352 43.1934 62.5333 42.2986 61.4369C41.4038 60.3404 40.9745 58.9367 41.1028 57.5272L43.7463 28.9705C43.8188 28.0757 44.2204 27.2395 44.8736 26.6238C45.5268 26.008 46.385 25.6565 47.2824 25.6371C47.778 25.6357 48.2684 25.7378 48.7223 25.9368C49.1761 26.1359 49.5835 26.4275 49.9182 26.793C50.2529 27.1586 50.5077 27.59 50.6662 28.0597C50.8247 28.5293 50.8834 29.0269 50.8386 29.5206L48.9833 49.5661C48.9609 49.8075 48.8436 50.03 48.6571 50.1849C48.4707 50.3398 48.2304 50.4142 47.9891 50.392V50.392C47.8695 50.3809 47.7533 50.3463 47.647 50.2902C47.5408 50.2341 47.4467 50.1576 47.3701 50.0651C47.2934 49.9726 47.2358 49.8659 47.2004 49.7511C47.165 49.6363 47.1526 49.5156 47.1639 49.396L49.0118 29.4297C49.0598 28.9933 48.9451 28.5547 48.6898 28.1977C48.4344 27.8407 48.0562 27.5906 47.6279 27.4953C47.3907 27.4495 47.1466 27.4538 46.9112 27.5079C46.6757 27.5621 46.4543 27.665 46.261 27.8099C46.0677 27.9548 45.9068 28.1386 45.7888 28.3494C45.6707 28.5602 45.5981 28.7934 45.5756 29.0339L42.932 57.5916C42.8385 58.4881 43.0808 59.3874 43.6119 60.1155C44.1431 60.8436 44.9255 61.3487 45.8075 61.5331C46.2966 61.6261 46.7997 61.6159 47.2845 61.5032C47.7694 61.3904 48.2254 61.1776 48.6233 60.8784C49.0212 60.5792 49.3522 60.2001 49.5952 59.7655C49.8381 59.3309 49.9876 58.8503 50.0341 58.3545L52.6211 30.4054C52.76 28.966 52.322 27.5303 51.4032 26.4137C50.4845 25.2971 49.1602 24.591 47.7213 24.4505C46.3261 24.3468 44.946 24.7947 43.8774 25.6979C42.8088 26.601 42.1371 27.8875 42.0066 29.2807L39.7867 53.2583C39.7756 53.3778 39.7412 53.4939 39.6852 53.6001C39.6293 53.7062 39.553 53.8003 39.4608 53.877C39.3685 53.9536 39.262 54.0113 39.1474 54.0468C39.0328 54.0823 38.9124 54.0948 38.7929 54.0837C38.6735 54.0727 38.5573 54.0383 38.4511 53.9824C38.345 53.9265 38.2508 53.8502 38.1742 53.7579C38.0975 53.6656 38.0398 53.559 38.0043 53.4444C37.9688 53.3298 37.9562 53.2092 37.9673 53.0897L40.1867 29.1121C40.2767 28.1524 40.5591 27.2208 41.0171 26.3727C41.475 25.5247 42.0992 24.7777 42.8522 24.1763C43.6052 23.5749 44.4717 23.1315 45.3999 22.8725C46.3281 22.6135 47.299 22.5443 48.2545 22.669Z" fill="#615FC5"/>
</svg>
