<svg width="661" height="451" viewBox="0 0 661 451" fill="none" xmlns="http://www.w3.org/2000/svg">
<g clip-path="url(#clip0_3_336)">
<path d="M160.871 357.461L608.742 357.461C619.74 357.461 628.656 350.213 628.656 341.273V74.7271C628.656 65.7867 619.74 58.5392 608.742 58.5392L160.871 58.5392C149.872 58.5392 140.956 65.7867 140.956 74.7271L140.956 341.273C140.956 350.213 149.872 357.461 160.871 357.461Z" fill="white"/>
<path d="M140.292 341.273V74.7277C140.298 70.2922 142.469 66.0399 146.328 62.9039C150.186 59.7678 155.418 58.0042 160.875 58H608.742C614.198 58.005 619.428 59.769 623.286 62.905C627.144 66.0409 629.314 70.2928 629.32 74.7277V341.273C629.314 345.708 627.144 349.959 623.286 353.095C619.428 356.231 614.197 357.995 608.742 358H160.875C155.418 357.996 150.186 356.233 146.328 353.097C142.469 349.961 140.298 345.708 140.292 341.273ZM160.875 59.0791C155.771 59.0838 150.877 60.734 147.268 63.6676C143.659 66.6013 141.629 70.5789 141.623 74.7277V341.273C141.629 345.422 143.659 349.399 147.268 352.333C150.877 355.267 155.771 356.917 160.875 356.922H608.742C613.845 356.917 618.739 355.267 622.348 352.333C625.957 349.399 627.986 345.422 627.992 341.273V74.7277C627.986 70.5789 625.957 66.6014 622.348 63.6677C618.739 60.734 613.845 59.0838 608.742 59.0791H160.875Z" fill="#292A2E"/>
<g opacity="0.2">
<path opacity="0.2" d="M269.664 254.111C272.017 250.274 274.902 246.789 278.234 243.761C279.738 242.394 281.5 240.596 283.497 240.004C284.197 239.827 284.931 239.829 285.629 240.011C286.328 240.193 286.97 240.549 287.494 241.044C290.024 243.094 291.672 246.073 294.529 247.752C297.228 249.339 300.367 249.238 303.268 248.302C306.399 247.292 309.256 245.596 312.234 244.234C314.956 242.99 318.076 241.874 321.081 242.68C324.581 243.612 327.051 246.622 330.29 248.1C332.109 248.963 334.158 249.217 336.133 248.823C338.458 248.365 340.631 247.223 342.852 246.429C352.96 242.835 363.774 241.671 374.416 243.032C375.901 243.221 375.887 240.888 374.416 240.701C364.806 239.487 355.048 240.279 345.761 243.027C343.376 243.734 341.06 244.605 338.753 245.526C336.706 246.344 334.594 247.081 332.397 246.426C328.87 245.378 326.344 242.261 322.958 240.866C316.348 238.146 310.038 243.115 304.182 245.492C301.46 246.597 298.397 247.321 295.705 245.739C292.842 244.056 291.202 240.902 288.556 238.935C287.869 238.391 287.08 237.991 286.234 237.76C285.389 237.529 284.506 237.471 283.638 237.59C281.227 237.97 279.234 239.801 277.453 241.342C273.612 244.682 270.307 248.592 267.653 252.934C266.865 254.216 268.882 255.389 269.667 254.111H269.664Z" fill="#4548B7"/>
</g>
<g opacity="0.2">
<path opacity="0.2" d="M168.136 123.418C188.008 122.341 207.896 121.625 227.798 121.271C233.483 121.171 239.169 121.1 244.855 121.059C245.164 121.059 245.461 120.936 245.68 120.717C245.898 120.499 246.021 120.202 246.021 119.893C246.021 119.584 245.898 119.287 245.68 119.069C245.461 118.85 245.164 118.727 244.855 118.727C224.954 118.873 205.061 119.38 185.174 120.25C179.494 120.5 173.814 120.778 168.136 121.087C166.643 121.168 166.634 123.5 168.136 123.418Z" fill="#4548B7"/>
<path opacity="0.2" d="M172.402 136.924C192.004 135.798 211.618 134.95 231.245 134.379C236.797 134.217 242.35 134.078 247.902 133.963C249.402 133.931 249.407 131.599 247.902 131.631C228.273 132.046 208.653 132.736 189.041 133.702C183.493 133.976 177.947 134.273 172.402 134.592C170.909 134.678 170.9 137.01 172.402 136.924Z" fill="#4548B7"/>
<path opacity="0.2" d="M172.443 152.696C192.522 153.448 243.843 149.139 249.435 148.288C250.913 148.063 250.286 145.816 248.813 146.04C229.119 149.04 178.054 150.575 172.443 150.364C170.941 150.308 170.944 152.64 172.443 152.696Z" fill="#4548B7"/>
<path opacity="0.2" d="M172.425 169.565C184.75 168.209 197.164 167.839 209.548 168.458C211.048 168.536 211.044 166.204 209.548 166.126C197.164 165.507 184.75 165.877 172.425 167.234C170.947 167.396 170.933 169.729 172.425 169.565Z" fill="#4548B7"/>
</g>
<g opacity="0.2">
<path opacity="0.2" d="M442.903 197.068C435.715 196.923 428.527 197.01 421.34 197.327C420.293 197.374 418.729 197.156 418.236 198.341C418.066 199.088 418.043 199.861 418.17 200.616C418.218 202.377 418.202 204.141 418.184 205.901C418.145 209.764 418.038 213.628 418.018 217.492C417.981 218.529 418.002 219.567 418.081 220.601C418.076 220.82 418.124 221.037 418.221 221.234C418.318 221.43 418.462 221.6 418.639 221.729C419.157 221.953 419.721 222.049 420.283 222.008C421.137 222.06 421.993 222.1 422.85 222.128C429.881 222.383 436.926 222.138 443.95 222.594C444.211 222.592 444.46 222.488 444.644 222.304C444.828 222.12 444.932 221.871 444.933 221.611L444.021 201.025L443.89 198.053C443.834 196.793 441.868 196.786 441.922 198.053L442.834 218.638L442.967 221.611L443.95 220.628C438.195 220.258 432.425 220.356 426.662 220.261C425.267 220.238 423.872 220.206 422.477 220.151C421.807 220.125 421.136 220.093 420.466 220.056C420.171 220.011 419.872 219.993 419.574 220.001C419.971 220.629 420.129 220.808 420.048 220.539C420.041 220.511 420.036 220.483 420.031 220.455C419.991 220.491 420.039 220.621 420.027 220.306C420.019 220.096 420.007 219.887 420.002 219.677C419.986 219.133 419.986 218.583 419.986 218.036C419.991 214.568 420.086 211.1 420.134 207.633C420.159 205.855 420.179 204.078 420.167 202.299C420.162 201.656 420.154 201.013 420.133 200.37C420.146 200.096 420.135 199.821 420.099 199.548C420.078 199.421 420.07 199.293 420.075 199.164L419.819 199.366L420.689 199.324C428.09 198.978 435.495 198.882 442.906 199.036C443.035 199.036 443.163 199.01 443.283 198.96C443.402 198.911 443.51 198.838 443.602 198.746C443.693 198.655 443.765 198.546 443.815 198.427C443.864 198.308 443.889 198.179 443.889 198.05C443.889 197.921 443.863 197.793 443.813 197.674C443.764 197.555 443.691 197.446 443.599 197.355C443.508 197.264 443.399 197.191 443.28 197.142C443.16 197.093 443.032 197.068 442.903 197.068Z" fill="#4548B7"/>
<path opacity="0.2" d="M424.322 209.3C425.345 211.966 427.014 214.337 429.18 216.2C430.201 217.059 431.058 217.298 432.231 216.544C433.58 215.678 434.945 214.839 436.295 213.979C439.584 211.873 442.787 209.638 446.071 207.528C447.805 206.414 449.581 205.366 451.378 204.356C451.592 204.219 451.745 204.004 451.805 203.757C451.864 203.51 451.826 203.25 451.697 203.03C451.569 202.811 451.361 202.65 451.116 202.581C450.872 202.511 450.61 202.539 450.385 202.658C446.89 204.625 443.569 206.825 440.238 209.053C437.778 210.697 435.295 212.306 432.788 213.878C432.321 214.17 431.237 215.094 430.844 215.038C430.357 214.969 429.386 213.717 429.066 213.365C427.851 212.02 426.888 210.469 426.223 208.784C425.762 207.618 423.858 208.128 424.326 209.306L424.322 209.3Z" fill="#4548B7"/>
<path opacity="0.2" d="M424.322 244.179C425.345 246.845 427.015 249.215 429.18 251.077C430.201 251.937 431.058 252.176 432.231 251.422C433.58 250.557 434.945 249.717 436.295 248.853C439.584 246.747 442.787 244.511 446.071 242.402C447.805 241.287 449.581 240.24 451.378 239.229C451.592 239.092 451.745 238.877 451.805 238.63C451.864 238.383 451.826 238.123 451.697 237.903C451.569 237.684 451.361 237.523 451.116 237.453C450.872 237.384 450.61 237.412 450.385 237.531C446.89 239.498 443.569 241.699 440.238 243.926C437.778 245.571 435.295 247.179 432.788 248.751C432.321 249.043 431.237 249.967 430.844 249.911C430.357 249.841 429.386 248.589 429.066 248.237C427.851 246.893 426.888 245.341 426.223 243.656C425.762 242.491 423.858 243.001 424.326 244.179H424.322Z" fill="#4548B7"/>
<path opacity="0.2" d="M424.322 279.099C425.345 281.765 427.014 284.136 429.18 285.998C430.201 286.857 431.058 287.096 432.231 286.343C433.58 285.477 434.945 284.638 436.295 283.774C439.584 281.668 442.787 279.432 446.071 277.323C447.805 276.208 449.581 275.162 451.378 274.15C451.592 274.013 451.745 273.799 451.805 273.552C451.864 273.305 451.826 273.044 451.697 272.825C451.569 272.606 451.361 272.444 451.116 272.375C450.872 272.306 450.61 272.334 450.385 272.453C446.89 274.419 443.569 276.62 440.238 278.847C437.778 280.492 435.295 282.1 432.788 283.673C432.321 283.965 431.237 284.888 430.844 284.832C430.357 284.763 429.386 283.511 429.066 283.159C427.851 281.815 426.888 280.263 426.223 278.578C425.762 277.412 423.858 277.923 424.326 279.101L424.322 279.099Z" fill="#4548B7"/>
<path opacity="0.2" d="M442.903 231.943C435.715 231.798 428.527 231.885 421.34 232.202C420.293 232.249 418.729 232.032 418.236 233.216C418.066 233.963 418.043 234.736 418.17 235.491C418.218 237.252 418.202 239.016 418.184 240.776C418.145 244.64 418.038 248.504 418.018 252.368C417.981 253.405 418.002 254.443 418.081 255.477C418.076 255.696 418.124 255.913 418.221 256.11C418.318 256.306 418.462 256.476 418.639 256.605C419.157 256.829 419.721 256.925 420.283 256.884C421.139 256.934 421.994 256.972 422.85 257.003C429.881 257.259 436.926 257.014 443.95 257.469C444.211 257.467 444.46 257.363 444.643 257.179C444.827 256.995 444.932 256.746 444.933 256.486L444.021 235.901L443.89 232.928C443.834 231.668 441.868 231.661 441.922 232.928L442.834 253.513L442.967 256.486L443.95 255.503C438.195 255.133 432.425 255.231 426.662 255.137C425.267 255.113 423.872 255.081 422.477 255.026C421.807 255 421.136 254.968 420.466 254.931C420.171 254.886 419.872 254.868 419.574 254.876C419.971 255.503 420.129 255.682 420.048 255.414C420.041 255.386 420.036 255.358 420.031 255.329C419.991 255.366 420.039 255.496 420.027 255.181C420.019 254.971 420.007 254.761 420.002 254.552C419.986 254.008 419.986 253.459 419.986 252.911C419.991 249.444 420.086 245.976 420.134 242.508C420.159 240.73 420.179 238.952 420.167 237.174C420.162 236.531 420.154 235.888 420.133 235.245C420.146 234.97 420.135 234.695 420.099 234.423C420.078 234.295 420.07 234.165 420.075 234.035L419.819 234.237L420.689 234.195C428.09 233.849 435.495 233.753 442.906 233.907C443.156 233.891 443.39 233.78 443.561 233.598C443.732 233.415 443.827 233.174 443.827 232.924C443.827 232.673 443.731 232.433 443.559 232.25C443.387 232.068 443.153 231.958 442.903 231.943Z" fill="#4548B7"/>
<path opacity="0.2" d="M442.903 266.818C435.715 266.674 428.527 266.76 421.34 267.077C420.293 267.124 418.729 266.907 418.236 268.091C418.066 268.838 418.043 269.611 418.17 270.366C418.218 272.127 418.202 273.891 418.184 275.651C418.145 279.515 418.038 283.379 418.018 287.243C417.981 288.279 418.002 289.317 418.081 290.351C418.076 290.571 418.124 290.788 418.221 290.984C418.318 291.181 418.462 291.351 418.639 291.48C419.157 291.705 419.721 291.8 420.283 291.758C421.139 291.809 421.994 291.847 422.85 291.878C429.881 292.134 436.926 291.889 443.95 292.344C444.211 292.342 444.459 292.238 444.643 292.054C444.827 291.871 444.932 291.622 444.933 291.362L444.021 270.776L443.89 267.804C443.834 266.543 441.868 266.537 441.922 267.804L442.834 288.388L442.967 291.362L443.95 290.379C438.195 290.009 432.425 290.107 426.662 290.012C425.267 289.989 423.872 289.957 422.477 289.902C421.807 289.876 421.136 289.844 420.466 289.807C420.171 289.762 419.872 289.744 419.574 289.752C419.971 290.379 420.129 290.558 420.048 290.289C420.041 290.262 420.036 290.234 420.031 290.205C419.991 290.242 420.039 290.372 420.027 290.056C420.019 289.847 420.007 289.637 420.002 289.427C419.986 288.883 419.986 288.334 419.986 287.787C419.991 284.319 420.086 280.852 420.134 277.384C420.159 275.606 420.179 273.828 420.167 272.05C420.162 271.407 420.154 270.763 420.133 270.121C420.146 269.846 420.135 269.571 420.099 269.299C420.078 269.171 420.07 269.04 420.075 268.91L419.819 269.113C420.109 269.098 420.399 269.084 420.689 269.071C428.09 268.725 435.495 268.629 442.906 268.783C443.157 268.768 443.393 268.658 443.566 268.475C443.738 268.292 443.834 268.05 443.834 267.799C443.833 267.548 443.737 267.306 443.563 267.124C443.39 266.941 443.154 266.832 442.903 266.818Z" fill="#4548B7"/>
<path opacity="0.2" d="M459.061 203.587C459.02 204.335 459.171 205.081 459.498 205.756C459.825 206.43 460.318 207.01 460.931 207.441C461.544 207.872 462.256 208.141 463.002 208.221C463.747 208.302 464.501 208.192 465.192 207.901C466.676 207.26 467.187 206.077 467.963 204.772C468.492 203.881 468.888 204.178 469.757 204.531C470.636 204.88 471.56 205.104 472.501 205.198C476.557 205.654 480.789 204.336 484.795 203.837C489.05 203.306 493.331 203.014 497.618 202.962C502.539 202.905 507.459 203.16 512.347 203.726C513.603 203.87 513.592 201.903 512.347 201.76C504.381 200.838 496.341 200.745 488.355 201.482C484.545 201.838 480.803 202.498 477.024 203.059C475.127 203.432 473.174 203.407 471.288 202.985C469.943 202.612 468.69 201.62 467.334 202.531C466.049 203.395 465.985 205.278 464.606 206.01C464.213 206.215 463.772 206.31 463.33 206.285C462.887 206.26 462.46 206.116 462.093 205.867C461.726 205.619 461.433 205.275 461.246 204.874C461.058 204.473 460.983 204.028 461.029 203.587C461.085 202.323 459.118 202.326 459.061 203.587Z" fill="#4548B7"/>
<path opacity="0.2" d="M457.022 238.466C457.292 241.084 460.444 241.29 462.256 240.075C463.52 239.227 464.612 237.912 466.275 238.521C467.819 239.087 469.04 240.178 470.695 240.51C474.15 241.202 477.89 240.066 481.321 239.65C485.199 239.18 489.095 238.897 493.008 238.8C497.412 238.696 501.819 238.826 506.209 239.189C507.471 239.292 507.464 237.324 506.209 237.223C499.125 236.636 492.003 236.662 484.923 237.3C481.418 237.62 477.961 238.274 474.466 238.646C472.877 238.916 471.243 238.739 469.748 238.135C468.512 237.544 467.4 236.651 466.015 236.425C464.466 236.174 463.247 236.877 462.058 237.786C461.56 238.261 460.958 238.616 460.301 238.821C460 238.878 459.036 238.93 458.988 238.462C458.86 237.219 456.888 237.202 457.021 238.462L457.022 238.466Z" fill="#4548B7"/>
<path opacity="0.2" d="M459.753 272.606C459.945 275.539 463.447 276.301 465.79 275.408C467.424 274.786 468.989 273.323 470.806 273.303C471.84 273.412 472.842 273.729 473.75 274.236C474.75 274.658 475.781 275 476.835 275.259C480.814 276.233 484.959 276.114 489.013 275.803C493.418 275.468 497.806 275.067 502.225 274.942C507.421 274.795 512.615 274.901 517.808 275.257C519.071 275.342 519.066 273.376 517.808 273.291C509.383 272.728 500.928 272.812 492.516 273.542C488.649 274.008 484.749 274.138 480.86 273.93C478.98 273.777 477.127 273.384 475.347 272.759C473.647 272.15 472.094 271.141 470.214 271.386C468.27 271.638 466.831 272.966 465.037 273.593C464.111 273.916 461.811 274.013 461.718 272.601C461.636 271.345 459.668 271.335 459.752 272.601L459.753 272.606Z" fill="#4548B7"/>
</g>
<g opacity="0.2">
<path opacity="0.2" d="M523.971 85.6326C525.078 82.9954 526.454 80.4785 528.075 78.1216C528.619 77.3311 529.363 75.9236 530.507 76.3752C531.563 76.7925 532.516 78.0143 533.306 78.8001C534.92 80.4066 536.536 82.125 538.556 83.2302C540.554 84.3377 542.9 84.6418 545.115 84.0805C547.442 83.5022 549.507 82.1895 551.606 81.0827C553.92 79.7932 556.532 79.1303 559.182 79.1599C562.046 79.3228 564.884 79.7865 567.651 80.5434C570.523 81.2125 573.406 81.7986 576.329 82.2113C582.94 83.1482 589.634 83.344 596.288 82.7949C597.773 82.6706 597.786 80.3382 596.288 80.4633C590.11 80.9837 583.895 80.8516 577.745 80.0693C574.676 79.6588 571.631 79.0939 568.619 78.3765C565.757 77.6126 562.833 77.1028 559.88 76.8531C557.096 76.6891 554.314 77.2187 551.785 78.3944C549.608 79.4047 547.607 80.8317 545.322 81.5941C544.242 81.9806 543.084 82.0967 541.949 81.9324C540.814 81.768 539.737 81.3282 538.812 80.6514C536.867 79.3216 535.345 77.4532 533.623 75.8669C532.576 74.9031 531.383 73.8617 529.867 73.9238C528.495 73.9806 527.498 74.9863 526.726 76.0138C524.799 78.624 523.197 81.4591 521.956 84.4566C521.81 84.726 521.773 85.0404 521.85 85.3365C521.928 85.6325 522.115 85.8881 522.374 86.0515C522.642 86.2055 522.959 86.2479 523.258 86.1697C523.557 86.0914 523.813 85.8988 523.971 85.6333V85.6326Z" fill="#4548B7"/>
</g>
<g opacity="0.2">
<path opacity="0.2" d="M531.726 103.402L533.72 101.055L534.841 99.7335C535.119 99.3178 535.448 98.9389 535.82 98.6058C536.464 98.1877 537.388 99.1009 537.976 99.4172C538.781 99.8507 539.633 100.19 540.516 100.428C543.986 101.36 547.652 100.763 551.103 100.047C554.894 99.1362 558.754 98.536 562.643 98.2522C566.708 98.0757 570.775 98.2926 574.839 98.3485C579.464 98.5286 584.093 98.122 588.615 97.1384C590.073 96.7832 589.455 94.534 587.993 94.8899C579.738 96.9014 571.207 95.5762 562.822 95.9128C558.879 96.1616 554.966 96.7492 551.125 97.6693C547.618 98.4193 543.751 99.1918 540.271 97.9141C538.56 97.2845 536.74 95.3159 534.816 96.4521C533.944 97.1161 533.184 97.916 532.567 98.8211L530.078 101.755C529.111 102.893 530.754 104.553 531.727 103.404L531.726 103.402Z" fill="#4548B7"/>
</g>
<path d="M525.334 156.308C524.784 156.351 524.373 156.833 524.416 157.384L525.122 166.356C525.165 166.906 525.647 167.318 526.197 167.274C526.748 167.231 527.159 166.75 527.116 166.199L526.488 158.224L534.464 157.596C535.014 157.553 535.425 157.071 535.382 156.521C535.339 155.97 534.857 155.559 534.307 155.602L525.334 156.308ZM531.532 246.516C531.874 246.082 531.799 245.453 531.365 245.112C530.931 244.77 530.302 244.845 529.961 245.279L531.532 246.516ZM534.852 238.309C534.559 238.777 534.701 239.394 535.169 239.687C535.637 239.98 536.254 239.838 536.547 239.37L534.852 238.309ZM540.794 231.741C541.037 231.246 540.833 230.646 540.337 230.403C539.841 230.16 539.242 230.364 538.999 230.86L540.794 231.741ZM542.34 223.022C542.151 223.541 542.42 224.114 542.939 224.303C543.458 224.491 544.032 224.223 544.22 223.703L542.34 223.022ZM546.71 215.317C546.834 214.779 546.499 214.242 545.961 214.117C545.423 213.993 544.886 214.328 544.761 214.866L546.71 215.317ZM546.118 206.488C546.067 207.038 546.473 207.524 547.023 207.574C547.573 207.625 548.059 207.22 548.109 206.67L546.118 206.488ZM548.253 197.899C548.219 197.348 547.745 196.928 547.194 196.962C546.642 196.995 546.223 197.469 546.256 198.02L548.253 197.899ZM545.06 189.645C545.183 190.184 545.719 190.521 546.257 190.398C546.796 190.275 547.133 189.739 547.01 189.201L545.06 189.645ZM544.353 180.833C544.143 180.322 543.559 180.078 543.048 180.288C542.538 180.498 542.294 181.083 542.504 181.593L544.353 180.833ZM538.667 174.04C538.955 174.512 539.57 174.661 540.042 174.373C540.513 174.086 540.662 173.47 540.375 172.999L538.667 174.04ZM535.284 165.866C534.933 165.439 534.303 165.378 533.876 165.729C533.45 166.08 533.389 166.711 533.74 167.137L535.284 165.866ZM527.935 160.922C528.335 161.303 528.968 161.287 529.349 160.887C529.729 160.487 529.713 159.854 529.313 159.473L527.935 160.922ZM528.722 249.867C529.645 248.838 530.586 247.718 531.532 246.516L529.961 245.279C529.04 246.449 528.126 247.536 527.233 248.533L528.722 249.867ZM536.547 239.37C538.031 236.999 539.466 234.446 540.794 231.741L538.999 230.86C537.702 233.5 536.301 235.994 534.852 238.309L536.547 239.37ZM544.22 223.703C545.199 221.004 546.044 218.2 546.71 215.317L544.761 214.866C544.114 217.666 543.293 220.392 542.34 223.022L544.22 223.703ZM548.109 206.67C548.372 203.792 548.433 200.861 548.253 197.899L546.256 198.02C546.43 200.876 546.372 203.705 546.118 206.488L548.109 206.67ZM547.01 189.201C546.374 186.414 545.499 183.619 544.353 180.833L542.504 181.593C543.606 184.276 544.448 186.965 545.06 189.645L547.01 189.201ZM540.375 172.999C538.91 170.597 537.219 168.216 535.284 165.866L533.74 167.137C535.617 169.417 537.253 171.721 538.667 174.04L540.375 172.999ZM529.313 159.473C528.279 158.489 527.196 157.513 526.062 156.545L524.763 158.065C525.87 159.011 526.927 159.963 527.935 160.922L529.313 159.473Z" fill="#4548B7"/>
<path d="M510.062 130.75C512.651 130.75 514.75 128.651 514.75 126.062C514.75 123.474 512.651 121.375 510.062 121.375C507.474 121.375 505.375 123.474 505.375 126.062C505.375 128.651 507.474 130.75 510.062 130.75Z" stroke="#615FC5" stroke-linecap="round" stroke-linejoin="round"/>
<path d="M516.625 132.625L513.5 129.5" stroke="#615FC5" stroke-linecap="round" stroke-linejoin="round"/>
<rect x="240" y="111" width="104" height="32" rx="16" fill="#615FC5"/>
<rect x="240.5" y="111.5" width="288" height="31" rx="15.5" stroke="#615FC5"/>
<path d="M660.222 451H17.7777C17.5714 451 17.3736 450.918 17.2278 450.772C17.0819 450.627 17 450.429 17 450.223C17 450.017 17.0819 449.819 17.2278 449.673C17.3736 449.527 17.5714 449.446 17.7777 449.446H660.222C660.429 449.446 660.626 449.527 660.772 449.673C660.918 449.819 661 450.017 661 450.223C661 450.429 660.918 450.627 660.772 450.772C660.626 450.918 660.429 451 660.222 451Z" fill="#292A2E"/>
<path d="M456.552 449.823H543.273V424.952H456.552V449.823Z" fill="#38D4EA"/>
<path opacity="0.69" d="M456.552 449.823H543.273V424.952H456.552V449.823Z" fill="white"/>
<path opacity="0.65" d="M468.197 449.823H479.561V424.952H468.197V449.823Z" fill="white"/>
<path opacity="0.65" d="M484.943 444.418H532.192V429.679H484.943V444.418Z" fill="white"/>
<path d="M435.875 424.976H521.405V400.105H435.875V424.976Z" fill="#38D4EA"/>
<path opacity="0.6" d="M435.875 424.976H521.405V400.105H435.875V424.976Z" fill="white"/>
<path opacity="0.42" d="M446.804 419.57H493.403V404.832H446.804V419.57Z" fill="white"/>
<path opacity="0.42" d="M498.711 424.977H509.919V400.106H498.711V424.977Z" fill="white"/>
<path d="M394.113 449.822L450.453 383.937L431.534 367.779L375.194 433.664L394.113 449.822Z" fill="#38D4EA"/>
<path opacity="0.78" d="M394.113 449.822L450.453 383.937L431.534 367.779L375.194 433.664L394.113 449.822Z" fill="white"/>
<path opacity="0.2" d="M401.679 440.974L409.062 432.34L390.143 416.183L382.76 424.816L401.679 440.974Z" fill="#38D4EA"/>
<path opacity="0.2" d="M408.447 424.74L439.143 388.843L427.931 379.268L397.235 415.165L408.447 424.74Z" fill="#38D4EA"/>
<path d="M634.948 322.925L554.162 419.562L555.953 421.057L636.739 324.42L634.948 322.925Z" fill="#292A2E"/>
<path d="M599.095 410.891H589.568V444.419H599.095V410.891Z" fill="#38D4EA"/>
<path d="M589.568 428.295L599.094 433.7V426.401L589.568 428.295Z" fill="#292A2E"/>
<path d="M608.41 444.418H581.487C580.098 444.418 578.972 445.543 578.972 446.931V446.932C578.972 448.32 580.098 449.446 581.487 449.446H608.41C609.8 449.446 610.926 448.32 610.926 446.932V446.931C610.926 445.543 609.8 444.418 608.41 444.418Z" fill="#38D4EA"/>
<path d="M594.332 436.81C585.509 436.796 576.783 434.971 568.695 431.448C560.607 427.925 553.329 422.778 547.314 416.328C547.103 416.101 546.992 415.8 547.003 415.491C547.014 415.181 547.148 414.889 547.375 414.679C547.602 414.468 547.903 414.356 548.213 414.368C548.522 414.379 548.814 414.513 549.025 414.74C554.916 421.079 562.072 426.111 570.031 429.512C577.99 432.913 586.575 434.607 595.23 434.483C603.885 434.36 612.418 432.423 620.277 428.797C628.136 425.17 635.146 419.936 640.853 413.432C646.561 406.928 650.839 399.3 653.411 391.04C655.983 382.78 656.791 374.072 655.784 365.48C654.777 356.888 651.976 348.603 647.564 341.161C643.151 333.719 637.224 327.285 630.167 322.276C630.039 322.188 629.929 322.076 629.845 321.946C629.76 321.816 629.703 321.67 629.675 321.517C629.648 321.364 629.651 321.208 629.685 321.056C629.719 320.905 629.783 320.762 629.873 320.635C629.963 320.509 630.078 320.402 630.21 320.32C630.342 320.238 630.489 320.184 630.643 320.16C630.796 320.136 630.953 320.143 631.103 320.18C631.254 320.217 631.396 320.284 631.521 320.377C642.615 328.259 650.914 339.461 655.221 352.365C659.527 365.27 659.618 379.208 655.478 392.168C651.339 405.127 643.185 416.435 632.194 424.46C621.203 432.484 607.943 436.809 594.332 436.81Z" fill="#292A2E"/>
<path d="M594.332 428.295C625.075 428.295 649.997 403.389 649.997 372.665C649.997 341.941 625.075 317.034 594.332 317.034C563.589 317.034 538.667 341.941 538.667 372.665C538.667 403.389 563.589 428.295 594.332 428.295Z" fill="#38D4EA"/>
<path opacity="0.5" d="M594.332 428.295C625.075 428.295 649.997 403.389 649.997 372.665C649.997 341.941 625.075 317.034 594.332 317.034C563.589 317.034 538.667 341.941 538.667 372.665C538.667 403.389 563.589 428.295 594.332 428.295Z" fill="white"/>
<g opacity="0.4">
<path opacity="0.4" d="M646.212 392.882C642.654 401.977 636.766 409.979 629.139 416.084C621.512 422.19 612.413 426.185 602.754 427.67C602.023 425.346 601.292 423.014 600.569 420.69C599.332 416.75 598.173 412.18 600.428 408.721C601.517 407.05 603.252 405.931 604.807 404.687C608.102 402.031 610.735 398.647 612.499 394.801C613.385 392.85 614.147 390.659 615.928 389.462C617.043 388.811 618.289 388.418 619.576 388.312C624.212 387.714 628.904 387.704 633.542 388.28C636.825 388.646 640.146 389.229 643.069 390.76C644.189 391.353 645.243 392.065 646.212 392.882Z" fill="white"/>
</g>
<g opacity="0.4">
<path opacity="0.4" d="M649.953 370.464C644.459 369.874 639.134 368.211 634.282 365.568C632.31 364.587 630.556 363.217 629.126 361.542C628.009 360.02 627.21 358.289 626.777 356.451C626.148 354.028 625.922 351.518 626.109 349.021C626.381 345.422 627.47 341.56 625.751 338.389C624.483 336.042 621.948 334.674 619.413 333.819C616.877 332.964 614.21 332.497 611.83 331.301C610.522 330.731 609.447 329.733 608.781 328.471C608.332 327.197 608.238 325.824 608.509 324.5C608.809 322.707 609.264 320.944 609.87 319.23C621.083 322.492 630.986 329.194 638.179 338.388C645.372 347.582 649.49 358.803 649.953 370.464Z" fill="white"/>
</g>
<g opacity="0.4">
<path opacity="0.4" d="M595.809 363.741C596.167 372.804 581.523 373.177 579.478 381.034C577.852 385.775 579.819 390.928 580.776 395.848C583.459 409.675 572.027 414.835 561.38 417.501C550.546 409.548 542.957 397.947 540.014 384.839C537.071 371.73 538.972 358.001 545.368 346.184C547.364 345.883 549.384 345.766 551.403 345.834C557.181 344.474 560.945 339.026 565.938 335.808C573.894 330.578 586.08 329.14 588.047 338.972C589.571 346.573 582.627 347.754 584.665 354.088C586.329 358.892 594.736 358.767 595.809 363.741Z" fill="white"/>
</g>
<path d="M320.975 245.693C321.21 245.121 321.559 244.604 322.001 244.171C322.443 243.739 322.968 243.401 323.545 243.178C324.122 242.955 324.738 242.852 325.356 242.875C325.974 242.898 326.58 243.047 327.139 243.312C328.202 243.863 329.017 244.796 329.418 245.924C329.819 247.051 329.777 248.289 329.3 249.387L326.962 255.069L340.678 242.207C342.381 240.559 345.533 239.627 347.258 241.662C348.759 243.215 352.356 243.824 352.826 246.639C352.846 246.654 351.749 272.182 350.166 273.711C343.45 280.199 327.838 280.858 319.301 277.067L305.865 271.102L320.975 245.693Z" fill="#FED4C2"/>
<g opacity="0.1">
<path opacity="0.1" d="M320.975 245.693C321.21 245.121 321.559 244.604 322.001 244.171C322.443 243.739 322.968 243.401 323.545 243.178C324.122 242.955 324.738 242.852 325.356 242.875C325.974 242.898 326.58 243.047 327.139 243.312C328.202 243.863 329.017 244.796 329.418 245.924C329.819 247.051 329.777 248.289 329.3 249.387L326.962 255.069L340.678 242.207C342.381 240.559 345.533 239.627 347.258 241.662C348.759 243.215 352.356 243.824 352.826 246.639C352.846 246.654 351.749 272.182 350.166 273.711C343.45 280.199 327.838 280.858 319.301 277.067L305.865 271.102L320.975 245.693Z" fill="#262626"/>
</g>
<path d="M334.566 273.987C334.112 273.968 333.67 273.841 333.275 273.617C332.88 273.392 332.545 273.076 332.297 272.696C332.05 272.315 331.897 271.881 331.851 271.429C331.806 270.978 331.869 270.522 332.036 270.1L387.217 130.255C387.349 129.901 387.551 129.577 387.81 129.301C388.069 129.026 388.38 128.805 388.726 128.651C389.072 128.498 389.444 128.414 389.822 128.406C390.201 128.398 390.577 128.465 390.928 128.604C391.28 128.743 391.601 128.95 391.872 129.214C392.143 129.478 392.358 129.793 392.505 130.141C392.653 130.49 392.729 130.864 392.731 131.242C392.732 131.62 392.658 131.994 392.512 132.343L337.332 272.184C337.116 272.735 336.733 273.204 336.237 273.527C335.742 273.851 335.157 274.011 334.566 273.987Z" fill="#0A0A0A"/>
<path d="M333.2 262.196C333.453 261.424 333.951 260.756 334.619 260.293C335.287 259.831 336.088 259.599 336.9 259.634C336.892 259.569 336.831 259.416 336.942 259.409L334.201 257.936C333.384 257.52 332.746 256.822 332.404 255.972C332.063 255.122 332.04 254.177 332.342 253.312C332.667 252.468 333.295 251.775 334.103 251.366C334.911 250.958 335.841 250.864 336.715 251.102C336.704 251.067 336.723 251.03 336.724 250.993L335.599 250.388C334.831 249.992 334.224 249.344 333.88 248.552C333.536 247.761 333.476 246.875 333.71 246.044C333.868 245.526 334.138 245.05 334.503 244.649C334.867 244.249 335.315 243.934 335.816 243.727C336.317 243.521 336.857 243.428 337.398 243.456C337.939 243.484 338.467 243.631 338.944 243.887L341.542 245.284C341.547 245.269 341.538 245.253 341.544 245.239C341.55 245.224 341.576 245.217 341.589 245.2C340.963 244.657 340.541 243.918 340.391 243.104C340.241 242.289 340.372 241.448 340.763 240.718C341.652 238.769 344.29 238.804 345.97 239.707L351.039 242.962C351.821 243.465 352.467 244.152 352.918 244.965C353.37 245.777 353.614 246.688 353.629 247.617C353.762 255.657 353.596 276.665 348.236 273.784L335.041 266.689C334.278 266.251 333.683 265.571 333.35 264.757C333.017 263.944 332.964 263.043 333.2 262.196Z" fill="#FED4C2"/>
<path d="M57.0835 181.343C57.0835 181.343 55.4146 206.381 49.7778 215.462C33.5519 241.617 28.8491 271.038 45.1 286.407C61.3508 301.777 164.998 301.991 172.85 266.638C179.46 236.875 165.274 233.675 161.823 209.124C160.26 198.012 155.962 174.718 155.962 174.718" fill="#331C15"/>
<path d="M146.021 261.455C145.842 261.431 143.857 294.354 105.586 291.484C79.0917 289.5 69.6449 261.406 69.0344 261.406C71.8909 260.799 76.7018 259.917 77.9702 259.24C82.1418 257 87.3026 254.669 88.6488 246.572C89.4265 241.909 88.1091 218.031 88.5135 213.307L129.187 222.379C128.619 232.35 124.642 255.469 138.582 259.56C140.9 260.241 143.399 260.864 146.021 261.455Z" fill="#FED4C2"/>
<path opacity="0.5" d="M129.753 250.117C129.116 248.065 128.706 245.95 128.53 243.809C128.082 238.923 128.172 234.003 128.796 229.137C120.531 228.022 112.744 224.612 106.32 219.296C105.565 222.083 101.412 234.262 102.562 236.91C104.736 241.917 114.951 250.117 129.753 250.117Z" fill="#262626"/>
<path d="M124.497 239.859C108.463 241.413 87.7172 235 83.4188 213.661L79.5412 194.406C75.2436 173.067 82.9748 153.512 103.08 149.468C123.184 145.427 141.696 159.701 145.993 181.04L147.71 189.565C149.359 197.752 153.105 237.093 124.497 239.859Z" fill="#FED4C2"/>
<path opacity="0.1" d="M114.305 211.896C116.944 211.581 118.896 209.758 118.665 207.824C118.434 205.89 116.108 204.577 113.469 204.891C110.83 205.206 108.879 207.029 109.11 208.963C109.34 210.897 111.667 212.21 114.305 211.896Z" fill="#262626"/>
<path opacity="0.1" d="M142.187 204.163C142.421 206.095 144.749 207.406 147.389 207.095C147.845 207.04 148.294 206.938 148.729 206.791C148.851 204.488 148.858 202.272 148.791 200.221C148.058 200.038 147.298 199.994 146.549 200.091C143.908 200.401 141.958 202.224 142.187 204.163Z" fill="#262626"/>
<path opacity="0.5" d="M130.531 210.133L130.571 210.127C131.386 209.957 132.19 209.742 132.982 209.484C134.162 209.089 135.707 208.441 135.492 207.374C135.248 206.157 129.27 193.71 128.592 192.296C128.531 192.176 128.424 192.085 128.296 192.042C128.169 191.999 128.029 192.008 127.907 192.066C127.786 192.125 127.692 192.228 127.645 192.355C127.599 192.482 127.604 192.621 127.659 192.744C130.208 198.046 134.313 206.761 134.477 207.581C134.349 207.962 132.39 208.708 130.369 209.115C130.301 209.126 130.237 209.15 130.179 209.185C130.122 209.221 130.071 209.267 130.032 209.322C129.992 209.378 129.963 209.44 129.948 209.506C129.932 209.572 129.93 209.64 129.94 209.707C129.951 209.774 129.975 209.839 130.011 209.896C130.046 209.954 130.093 210.004 130.148 210.044C130.203 210.084 130.266 210.112 130.332 210.128C130.398 210.144 130.466 210.146 130.533 210.135L130.531 210.133Z" fill="#262626"/>
<path d="M63.5004 201.318L81.5244 197.799C95.1389 192.109 99.0017 168.396 99.0017 168.396C99.0017 168.396 115.805 184.388 155.964 174.718C155.964 174.718 147.241 118.691 87.9428 135.698C68.8222 141.181 55.2794 160.658 57.2936 186.455C58.7051 204.534 63.5004 201.318 63.5004 201.318Z" fill="#331C15"/>
<path d="M85.9774 219.911C79.867 221.14 73.5987 215.604 72.3676 209.496C71.1365 203.389 75.4131 199.027 81.5227 197.798L85.4944 201.256L91.2284 218.852L85.9774 219.911Z" fill="#FED4C2"/>
<path d="M132.919 182.368C134.447 181.287 136.235 180.631 138.101 180.466C139.036 180.377 139.98 180.429 140.9 180.621C141.829 180.811 142.731 181.116 143.584 181.53L143.611 181.542C143.706 181.584 143.813 181.587 143.91 181.551C144.007 181.515 144.085 181.442 144.129 181.349C144.173 181.255 144.179 181.148 144.145 181.051C144.111 180.953 144.04 180.873 143.948 180.827C143.044 180.349 142.084 179.988 141.089 179.751C140.088 179.508 139.056 179.416 138.027 179.48C135.944 179.595 133.93 180.266 132.195 181.423C132.13 181.467 132.075 181.523 132.032 181.588C131.989 181.653 131.96 181.726 131.945 181.803C131.93 181.88 131.931 181.958 131.947 182.035C131.963 182.111 131.994 182.184 132.038 182.248C132.081 182.313 132.138 182.368 132.203 182.411C132.268 182.453 132.341 182.483 132.418 182.498C132.495 182.512 132.573 182.511 132.65 182.496C132.726 182.48 132.799 182.449 132.863 182.405L132.877 182.395L132.919 182.368Z" fill="#262626"/>
<path d="M116.455 184.642C114.408 184.235 112.289 184.385 110.32 185.076C109.347 185.411 108.429 185.89 107.598 186.497C106.77 187.097 106.021 187.798 105.369 188.584C105.3 188.662 105.264 188.763 105.27 188.867C105.275 188.971 105.321 189.068 105.398 189.138C105.475 189.208 105.576 189.246 105.68 189.242C105.784 189.238 105.882 189.193 105.953 189.117L105.974 189.095C106.604 188.387 107.32 187.76 108.105 187.23C108.883 186.699 109.736 186.29 110.637 186.014C112.423 185.454 114.326 185.377 116.152 185.79L116.197 185.801C116.35 185.838 116.512 185.813 116.647 185.731C116.781 185.649 116.878 185.517 116.915 185.364C116.952 185.21 116.927 185.049 116.845 184.914C116.763 184.78 116.63 184.684 116.477 184.647L116.455 184.642Z" fill="#262626"/>
<path d="M81.536 197.504C93.6525 192.996 97.6725 184.635 98.9114 178.413C99.7123 174.263 99.6373 169.991 98.6913 165.872L98.3164 165.975C99.2477 170.041 99.3195 174.256 98.5272 178.351C97.3054 184.472 93.3415 192.699 81.4006 197.14L81.536 197.504Z" fill="#262626"/>
<path d="M186.817 270.435L282.568 344.89L245.725 347.826L298.888 255.943L335.858 287.108L285.959 387.183C281.412 391.99 275.286 395.002 268.7 395.667C262.114 396.332 255.507 394.606 250.087 390.804L249.116 390.119L149.84 320.426L186.817 270.435Z" fill="#9F62E1"/>
<path d="M104.872 283.254C78.3591 282.005 77.2431 259.515 77.2431 259.515C77.2431 259.515 64.1062 260.367 55.3726 261.545C41.0754 263.475 31.6434 268.323 24.1417 275.824C17.1595 282.802 12.9086 290.351 17.4068 338.553C20.6638 373.454 18.3712 450.223 18.3712 450.223H179.938C179.938 450.223 191.221 339.314 192.558 323.606C195.111 293.614 202.322 286.993 187.712 271.544C177.115 260.339 149.76 259.515 138.749 259.517C138.566 259.517 140.979 284.954 104.872 283.254Z" fill="#9F62E1"/>
<path d="M160.059 375.752L184.38 364.897C184.914 364.659 185.493 364.534 186.078 364.531C186.663 364.528 187.243 364.647 187.779 364.881C188.316 365.114 188.798 365.456 189.196 365.886C189.593 366.316 189.896 366.823 190.086 367.376C190.405 368.409 190.329 369.522 189.873 370.502C189.417 371.481 188.614 372.257 187.618 372.678L182.403 375.009L202.165 375.212C204.362 375.197 207.069 376.583 206.925 379.047C206.93 379.998 206.613 380.923 206.025 381.671C205.436 382.419 204.612 382.946 203.686 383.166C203.691 383.187 203.695 383.208 203.696 383.229C203.694 383.246 203.69 383.262 203.686 383.277L207.074 383.253C207.701 383.249 208.322 383.385 208.89 383.65C209.458 383.916 209.96 384.305 210.359 384.789C210.758 385.273 211.043 385.84 211.195 386.448C211.347 387.056 211.362 387.691 211.237 388.305C211.022 389.27 210.481 390.132 209.706 390.746C208.931 391.36 207.968 391.689 206.979 391.678L205.537 391.689C205.518 391.731 205.491 391.769 205.459 391.801C206.434 392.02 207.3 392.579 207.902 393.378C208.503 394.176 208.801 395.162 208.741 396.16C208.645 397.25 208.141 398.264 207.329 398.999C206.518 399.734 205.458 400.135 204.363 400.124L200.781 400.149C200.831 400.184 200.873 400.23 200.902 400.284C200.931 400.339 200.947 400.399 200.949 400.46C200.946 400.534 200.922 400.605 200.88 400.665C201.695 401.102 202.343 401.793 202.727 402.634C203.11 403.475 203.206 404.418 203 405.318C202.765 406.26 202.219 407.095 201.45 407.687C200.68 408.279 199.734 408.595 198.763 408.583L168.542 408.798C164.314 408.828 160.174 407.596 156.651 405.259C153.129 402.922 150.385 399.587 148.771 395.682C147.38 392.314 147.357 388.538 148.708 385.154C150.058 381.77 152.676 379.045 156.004 377.56L160.059 375.752Z" fill="#FED4C2"/>
<g opacity="0.2">
<path opacity="0.2" d="M184.124 383.064C184.126 383.166 184.167 383.263 184.24 383.335C184.313 383.406 184.411 383.446 184.513 383.446L203.307 383.616C203.41 383.616 203.509 383.576 203.583 383.504C203.656 383.432 203.698 383.334 203.699 383.23C203.7 383.127 203.66 383.028 203.588 382.955C203.515 382.881 203.417 382.839 203.314 382.838L184.52 382.669C184.417 382.669 184.318 382.71 184.245 382.783C184.172 382.856 184.131 382.954 184.131 383.058L184.124 383.064Z" fill="#262626"/>
</g>
<g opacity="0.2">
<path opacity="0.2" d="M183.821 391.345C183.822 391.447 183.864 391.545 183.937 391.616C184.009 391.688 184.107 391.728 184.21 391.728L205.184 391.917C205.287 391.917 205.386 391.876 205.459 391.803C205.532 391.73 205.573 391.631 205.573 391.528C205.57 391.426 205.528 391.33 205.455 391.257C205.383 391.185 205.286 391.143 205.184 391.14L184.21 390.951C184.107 390.951 184.008 390.992 183.935 391.065C183.863 391.138 183.822 391.236 183.822 391.34L183.821 391.345Z" fill="#262626"/>
</g>
<g opacity="0.2">
<path opacity="0.2" d="M183.44 400.312C183.442 400.415 183.483 400.512 183.556 400.584C183.629 400.655 183.727 400.696 183.829 400.696L200.56 400.846C200.611 400.847 200.662 400.837 200.709 400.818C200.756 400.799 200.799 400.771 200.836 400.735C200.872 400.699 200.901 400.657 200.921 400.61C200.941 400.563 200.952 400.512 200.952 400.461C200.953 400.41 200.943 400.36 200.924 400.312C200.905 400.265 200.877 400.222 200.841 400.185C200.805 400.149 200.763 400.12 200.716 400.1C200.669 400.08 200.618 400.07 200.567 400.069L183.836 399.918C183.733 399.918 183.634 399.959 183.561 400.032C183.488 400.105 183.447 400.204 183.447 400.307L183.44 400.312Z" fill="#262626"/>
</g>
<path d="M167.02 419.03L32.1769 449.663C27.6974 450.15 23.1658 449.594 18.9377 448.037C14.7096 446.48 10.9001 443.965 7.80796 440.689C4.71584 437.414 2.42527 433.466 1.11597 429.158C-0.193338 424.849 -0.485754 420.295 0.261659 415.854L15.6928 291.811C16.3281 288.036 17.7012 284.424 19.7335 281.18C21.7659 277.935 24.4178 275.123 27.5377 272.903C30.6577 270.683 34.1846 269.099 37.9172 268.241C41.6498 267.383 45.5149 267.268 49.2918 267.903C53.0687 268.538 56.6836 269.91 59.9299 271.941C63.1762 273.972 65.9904 276.623 68.2118 279.741C70.4333 282.859 72.0184 286.383 72.8768 290.114C73.7352 293.844 73.85 297.707 73.2147 301.481L65.7806 390.264L159.466 369.076L167.02 419.03Z" fill="#9F62E1"/>
<path d="M46.8234 393.755C46.7257 393.754 46.6318 393.717 46.5604 393.65C46.489 393.584 46.4453 393.493 46.4381 393.395C46.4308 393.298 46.4605 393.201 46.5213 393.125C46.582 393.048 46.6693 392.998 46.7659 392.983L65.5559 388.973C65.6065 388.965 65.6582 388.967 65.708 388.979C65.7578 388.991 65.8047 389.012 65.846 389.043C65.8872 389.073 65.9219 389.112 65.9481 389.156C65.9743 389.2 65.9914 389.249 65.9984 389.299C66.0136 389.401 65.9877 389.505 65.9264 389.588C65.8652 389.67 65.7736 389.725 65.6718 389.741L46.8817 393.75C46.8624 393.753 46.8429 393.755 46.8234 393.755Z" fill="#262626"/>
<path d="M36.2217 450.223C36.1185 450.229 36.017 450.195 35.9394 450.127C35.8618 450.058 35.8145 449.962 35.8079 449.859C35.8013 449.756 35.836 449.655 35.9042 449.577C35.9725 449.499 36.0688 449.452 36.1719 449.446L166.173 418.849L158.808 369.651L65.6817 389.742C65.6215 389.75 65.5603 389.743 65.503 389.723C65.4457 389.704 65.3937 389.671 65.3512 389.627C65.3088 389.584 65.2772 389.53 65.2591 389.472C65.241 389.414 65.2369 389.352 65.247 389.292L70.47 338.564C70.4779 338.513 70.4959 338.464 70.5229 338.421C70.5499 338.377 70.5853 338.339 70.6271 338.31C70.669 338.28 70.7163 338.259 70.7664 338.248C70.8165 338.237 70.8683 338.236 70.9188 338.245C71.0205 338.262 71.1112 338.319 71.171 338.403C71.2308 338.487 71.2547 338.591 71.2376 338.693L66.1048 388.901L158.988 368.794C159.038 368.78 159.09 368.776 159.142 368.783C159.193 368.79 159.243 368.807 159.287 368.833C159.332 368.859 159.371 368.894 159.402 368.936C159.433 368.977 159.456 369.024 159.469 369.075L167.023 419.029C167.047 419.127 167.032 419.23 166.98 419.317C166.929 419.404 166.846 419.468 166.749 419.495L36.2738 450.22C36.2565 450.222 36.2391 450.223 36.2217 450.223Z" fill="#262626"/>
<path d="M135.903 214.339C130.693 216.987 124.749 217.824 119.01 216.718C118.812 216.681 118.606 216.7 118.418 216.775C118.231 216.85 118.068 216.977 117.949 217.14C117.831 217.304 117.762 217.498 117.749 217.7C117.737 217.902 117.783 218.103 117.881 218.28C119.592 221.293 123.651 226.44 130.612 224.342C135.107 222.986 136.807 218.364 137.437 215.506C137.48 215.308 137.466 215.102 137.396 214.912C137.326 214.723 137.203 214.557 137.042 214.434C136.881 214.312 136.688 214.238 136.486 214.221C136.284 214.204 136.082 214.245 135.903 214.339Z" fill="white"/>
<path d="M136.229 191.184C137.619 191.184 138.746 190.057 138.746 188.668C138.746 187.278 137.619 186.152 136.229 186.152C134.838 186.152 133.711 187.278 133.711 188.668C133.711 190.057 134.838 191.184 136.229 191.184Z" fill="#262626"/>
<path d="M112.038 195.416C113.428 195.416 114.556 194.29 114.556 192.901C114.556 191.511 113.428 190.385 112.038 190.385C110.648 190.385 109.521 191.511 109.521 192.901C109.521 194.29 110.648 195.416 112.038 195.416Z" fill="#262626"/>
<path d="M192.195 334.531C192.179 334.532 192.163 334.532 192.147 334.531C192.096 334.524 192.047 334.508 192.003 334.483C191.958 334.458 191.919 334.424 191.888 334.384C191.856 334.344 191.833 334.298 191.82 334.248C191.806 334.199 191.802 334.148 191.809 334.097L194.311 313.83C194.316 313.778 194.331 313.729 194.356 313.684C194.381 313.639 194.415 313.6 194.456 313.568C194.496 313.537 194.543 313.514 194.592 313.501C194.642 313.488 194.694 313.485 194.744 313.492C194.847 313.505 194.939 313.558 195.003 313.639C195.066 313.72 195.095 313.823 195.082 313.925L192.58 334.193C192.568 334.286 192.522 334.372 192.451 334.434C192.38 334.496 192.289 334.53 192.195 334.531Z" fill="#262626"/>
<path d="M369.092 285V273.8H374.292C375.583 273.8 376.559 274.131 377.22 274.792C377.732 275.304 377.988 275.949 377.988 276.728C377.988 277.784 377.497 278.589 376.516 279.144C377.209 279.411 377.732 279.763 378.084 280.2C378.436 280.627 378.612 281.203 378.612 281.928C378.612 282.931 378.239 283.693 377.492 284.216C376.745 284.739 375.721 285 374.42 285H369.092ZM371.492 278.328H373.764C374.948 278.328 375.54 277.923 375.54 277.112C375.54 276.739 375.401 276.456 375.124 276.264C374.847 276.061 374.447 275.96 373.924 275.96H371.492V278.328ZM371.492 282.84H374.42C375.583 282.84 376.164 282.424 376.164 281.592C376.164 280.781 375.556 280.376 374.34 280.376H371.492V282.84ZM380.703 276.424H385.407C386.282 276.424 386.975 276.616 387.487 277C388.01 277.384 388.271 277.907 388.271 278.568C388.271 279.464 387.818 280.109 386.911 280.504C388.031 280.845 388.591 281.565 388.591 282.664C388.591 283.389 388.303 283.96 387.727 284.376C387.162 284.792 386.383 285 385.391 285H380.703V276.424ZM383.103 279.864H384.815C385.146 279.864 385.396 279.784 385.567 279.624C385.748 279.464 385.839 279.256 385.839 279C385.839 278.776 385.754 278.589 385.583 278.44C385.423 278.291 385.178 278.216 384.847 278.216H383.103V279.864ZM383.103 283.096H385.023C385.759 283.096 386.127 282.808 386.127 282.232C386.127 281.677 385.738 281.4 384.959 281.4H383.103V283.096ZM394.681 285.192C393.379 285.192 392.307 284.781 391.465 283.96C390.622 283.128 390.201 282.051 390.201 280.728C390.201 279.48 390.601 278.424 391.401 277.56C392.201 276.696 393.214 276.264 394.441 276.264C395.795 276.264 396.83 276.712 397.545 277.608C398.259 278.504 398.617 279.608 398.617 280.92C398.617 281.048 398.606 281.261 398.585 281.56H392.617C392.734 282.104 392.974 282.52 393.337 282.808C393.699 283.096 394.158 283.24 394.713 283.24C395.47 283.24 396.163 282.947 396.793 282.36L398.185 283.592C397.321 284.659 396.153 285.192 394.681 285.192ZM392.585 280.04H396.249C396.174 279.485 395.977 279.043 395.657 278.712C395.347 278.381 394.942 278.216 394.441 278.216C393.95 278.216 393.539 278.381 393.209 278.712C392.889 279.032 392.681 279.475 392.585 280.04ZM403.213 282.92H406.141V278.504H403.853V278.696C403.832 280.541 403.619 281.949 403.213 282.92ZM407.405 285H402.029L401.853 287.016H399.805V282.92H400.733C401.288 281.736 401.565 279.816 401.565 277.16V276.424H408.573V282.92H409.741L409.453 287.016H407.405V285ZM419.366 276.424V285H417.014V280.008L413.67 285H411.382V276.424H413.734V281.432L417.078 276.424H419.366ZM428.562 276.424V278.504H426.018V285H423.554V278.504H421.01V276.424H428.562ZM434.273 285.192C432.972 285.192 431.9 284.781 431.057 283.96C430.215 283.128 429.793 282.051 429.793 280.728C429.793 279.48 430.193 278.424 430.993 277.56C431.793 276.696 432.807 276.264 434.033 276.264C435.388 276.264 436.423 276.712 437.137 277.608C437.852 278.504 438.209 279.608 438.209 280.92C438.209 281.048 438.199 281.261 438.177 281.56H432.209C432.327 282.104 432.567 282.52 432.929 282.808C433.292 283.096 433.751 283.24 434.305 283.24C435.063 283.24 435.756 282.947 436.385 282.36L437.777 283.592C436.913 284.659 435.745 285.192 434.273 285.192ZM432.177 280.04H435.841C435.767 279.485 435.569 279.043 435.249 278.712C434.94 278.381 434.535 278.216 434.033 278.216C433.543 278.216 433.132 278.381 432.801 278.712C432.481 279.032 432.273 279.475 432.177 280.04ZM453.315 276.424V285H450.883V281.72H447.891V285H445.459V276.424H447.891V279.72H450.883V276.424H453.315ZM463.33 283.896C462.445 284.76 461.341 285.192 460.018 285.192C458.695 285.192 457.591 284.765 456.706 283.912C455.831 283.048 455.394 281.987 455.394 280.728C455.394 279.48 455.837 278.424 456.722 277.56C457.618 276.696 458.727 276.264 460.05 276.264C461.373 276.264 462.471 276.696 463.346 277.56C464.231 278.413 464.674 279.469 464.674 280.728C464.674 281.976 464.226 283.032 463.33 283.896ZM460.05 283.096C460.722 283.096 461.261 282.872 461.666 282.424C462.071 281.965 462.274 281.4 462.274 280.728C462.274 280.077 462.061 279.523 461.634 279.064C461.218 278.595 460.679 278.36 460.018 278.36C459.346 278.36 458.807 278.589 458.402 279.048C457.997 279.496 457.794 280.056 457.794 280.728C457.794 281.379 458.002 281.939 458.418 282.408C458.845 282.867 459.389 283.096 460.05 283.096ZM466.755 285V276.424H469.219L471.539 280.024L473.891 276.424H476.355V285H473.891V279.848L471.507 283.368L469.155 279.896V285H466.755ZM482.92 285.192C481.619 285.192 480.547 284.781 479.704 283.96C478.861 283.128 478.44 282.051 478.44 280.728C478.44 279.48 478.84 278.424 479.64 277.56C480.44 276.696 481.453 276.264 482.68 276.264C484.035 276.264 485.069 276.712 485.784 277.608C486.499 278.504 486.856 279.608 486.856 280.92C486.856 281.048 486.845 281.261 486.824 281.56H480.856C480.973 282.104 481.213 282.52 481.576 282.808C481.939 283.096 482.397 283.24 482.952 283.24C483.709 283.24 484.403 282.947 485.032 282.36L486.424 283.592C485.56 284.659 484.392 285.192 482.92 285.192ZM480.824 280.04H484.488C484.413 279.485 484.216 279.043 483.896 278.712C483.587 278.381 483.181 278.216 482.68 278.216C482.189 278.216 481.779 278.381 481.448 278.712C481.128 279.032 480.92 279.475 480.824 280.04ZM488.989 287.56V276.424H491.421V277.656C492.103 276.728 492.994 276.264 494.093 276.264C495.159 276.264 496.077 276.664 496.845 277.464C497.613 278.264 497.997 279.352 497.997 280.728C497.997 282.093 497.613 283.176 496.845 283.976C496.087 284.765 495.17 285.16 494.093 285.16C493.026 285.16 492.135 284.733 491.421 283.88V287.56H488.989ZM491.981 282.44C492.386 282.877 492.882 283.096 493.469 283.096C494.055 283.096 494.551 282.877 494.957 282.44C495.362 281.992 495.565 281.411 495.565 280.696C495.565 280.003 495.362 279.437 494.957 279C494.551 278.552 494.055 278.328 493.469 278.328C492.882 278.328 492.386 278.552 491.981 279C491.586 279.437 491.389 280.013 491.389 280.728C491.389 281.421 491.586 281.992 491.981 282.44ZM511.478 278.504H507.654V285H505.222V276.424H511.478V278.504ZM513.121 287.56V276.424H515.553V277.656C516.235 276.728 517.126 276.264 518.225 276.264C519.291 276.264 520.209 276.664 520.977 277.464C521.745 278.264 522.129 279.352 522.129 280.728C522.129 282.093 521.745 283.176 520.977 283.976C520.219 284.765 519.302 285.16 518.225 285.16C517.158 285.16 516.267 284.733 515.553 283.88V287.56H513.121ZM516.113 282.44C516.518 282.877 517.014 283.096 517.601 283.096C518.187 283.096 518.683 282.877 519.089 282.44C519.494 281.992 519.697 281.411 519.697 280.696C519.697 280.003 519.494 279.437 519.089 279C518.683 278.552 518.187 278.328 517.601 278.328C517.014 278.328 516.518 278.552 516.113 279C515.718 279.437 515.521 280.013 515.521 280.728C515.521 281.421 515.718 281.992 516.113 282.44ZM526.285 287.608C525.517 287.608 524.797 287.411 524.125 287.016L524.941 285.256C525.315 285.48 525.661 285.592 525.981 285.592C526.365 285.592 526.648 285.405 526.829 285.032L523.469 276.424H526.045L527.997 282.264L529.869 276.424H532.397L529.101 285.208C528.771 286.093 528.397 286.712 527.981 287.064C527.565 287.427 527 287.608 526.285 287.608ZM541.943 276.424V285H539.511V278.504H536.583V285H534.151V276.424H541.943ZM552.232 276.424V285H549.8V278.504H546.872V285H544.44V276.424H552.232ZM554.729 285V276.424H557.161V279.256H558.921C559.955 279.256 560.782 279.496 561.401 279.976C562.03 280.456 562.345 281.16 562.345 282.088C562.345 282.995 562.051 283.709 561.465 284.232C560.889 284.744 560.083 285 559.049 285H554.729ZM558.681 281.096H557.161V283.08H558.697C559.497 283.08 559.897 282.739 559.897 282.056C559.897 281.757 559.79 281.523 559.577 281.352C559.374 281.181 559.075 281.096 558.681 281.096ZM563.481 285V276.424H565.913V285H563.481Z" fill="#262626"/>
</g>
<defs>
<clipPath id="clip0_3_336">
<rect width="661" height="451" fill="white"/>
</clipPath>
</defs>
</svg>
